# https://github.com/mikedh/trimesh

o left_hand_mid_DIP_link.STL
v -0.00100000 -0.00362500 0.01099832
v -0.00100000 -0.00362500 0.02072832
v -0.00100000 -0.00230000 0.01099832
v -0.00100000 -0.00230000 0.02072832
v 0.00400000 -0.00100000 0.01099832
v 0.00490000 -0.00100000 0.01099832
v 0.00400000 -0.00100000 0.02072832
v 0.00490000 -0.00100000 0.02219832
v 0.00000000 -0.00100000 0.02072832
v 0.00000000 -0.00100000 0.02219832
v -0.00300000 -0.00462500 0.02072832
v -0.00200000 -0.00462500 0.02072832
v -0.00300000 -0.00462500 0.00822832
v -0.00200000 -0.00462500 0.01099832
v -0.00062584 -0.00462500 0.01099832
v -0.00070836 -0.00462500 0.01087178
v -0.00080000 -0.00462500 0.01050000
v -0.00070836 -0.00462500 0.01012822
v -0.00045445 -0.00462500 0.00984161
v -0.00009643 -0.00462500 0.00970583
v 0.00300000 -0.00462500 0.00822832
v 0.00028368 -0.00462500 0.00975199
v 0.00059881 -0.00462500 0.00996950
v 0.00077675 -0.00462500 0.01030855
v 0.00300000 -0.00462500 0.01099832
v 0.00077675 -0.00462500 0.01069145
v 0.00062584 -0.00462500 0.01099832
v -0.00100000 0.00300000 0.02219832
v -0.00100000 0.00300000 0.01099832
v -0.00100000 0.00170000 0.02219832
v -0.00100000 0.00170000 0.01099832
v 0.00790000 0.00293562 0.01155000
v 0.00790000 0.00373562 0.01155000
v 0.00690000 0.00293562 0.01155000
v 0.00690000 0.00373562 0.01155000
v 0.00690000 0.00373562 0.01100000
v 0.00790000 0.00373562 0.01100000
v 0.00690000 0.00293562 0.01100000
v 0.00790000 0.00293562 0.01100000
v 0.00690000 0.00560130 0.02033431
v 0.00690000 0.00560130 0.02219832
v 0.00690000 0.00505130 0.02033431
v 0.00690000 -0.00293301 0.01155000
v 0.00690000 0.00373562 0.02219832
v 0.00690000 0.00373562 0.02165000
v 0.00690000 0.00560130 0.01099832
v 0.00690000 0.00560130 0.01286569
v 0.00690000 0.00505130 0.01286569
v 0.00690000 -0.00559870 0.02219832
v 0.00690000 -0.00559870 0.02033431
v 0.00690000 -0.00504870 0.02033431
v 0.00690000 -0.00504870 0.01286569
v 0.00690000 -0.00373301 0.02165000
v 0.00690000 -0.00373301 0.02219832
v 0.00690000 -0.00293301 0.01100000
v 0.00690000 -0.00373301 0.01100000
v 0.00690000 -0.00559870 0.01099832
v 0.00690000 -0.00373301 0.01155000
v 0.00690000 -0.00559870 0.01286569
v -0.00300000 -0.00762500 0.02072832
v -0.00300000 -0.00762500 0.00822832
v 0.00307612 -0.00161732 0.02072832
v 0.00329289 -0.00129289 0.02072832
v 0.00361732 -0.00107612 0.02072832
v -0.00107612 -0.00400768 0.02072832
v 0.00300000 -0.00762500 0.02072832
v -0.00129289 -0.00433211 0.02072832
v -0.00161732 -0.00454888 0.02072832
v 0.00300000 -0.00200000 0.02072832
v 0.00000000 -0.00230000 0.02072832
v 0.00300000 -0.00762500 0.00822832
v 0.00300000 -0.00200000 0.01099832
v -0.00227000 -0.00762500 0.00822832
v -0.00227000 -0.00642500 0.00822832
v 0.00227000 -0.00642500 0.00822832
v 0.00227000 -0.00762500 0.00822832
v 0.00227000 -0.00762500 0.01450000
v -0.00148653 -0.00762500 0.01621555
v -0.00190965 -0.00762500 0.01572726
v -0.00217805 -0.00762500 0.01513953
v 0.00094299 -0.00762500 0.01656486
v 0.00148653 -0.00762500 0.01621555
v -0.00227000 -0.00762500 0.01450000
v 0.00190965 -0.00762500 0.01572726
v 0.00217805 -0.00762500 0.01513953
v -0.00094299 -0.00762500 0.01656486
v -0.00032305 -0.00762500 0.01674690
v 0.00032305 -0.00762500 0.01674690
v -0.00227000 -0.00642500 0.01450000
v 0.00227000 -0.00642500 0.01450000
v 0.00217805 -0.00642500 0.01513953
v 0.00190965 -0.00642500 0.01572726
v 0.00148653 -0.00642500 0.01621555
v 0.00094299 -0.00642500 0.01656486
v 0.00032305 -0.00642500 0.01674690
v -0.00032305 -0.00642500 0.01674690
v -0.00094299 -0.00642500 0.01656486
v -0.00148653 -0.00642500 0.01621555
v -0.00190965 -0.00642500 0.01572726
v -0.00217805 -0.00642500 0.01513953
v -0.00010848 -0.00642500 0.00960656
v -0.00051126 -0.00642500 0.00975931
v 0.00031914 -0.00642500 0.00965849
v 0.00067366 -0.00642500 0.00990319
v -0.00010848 -0.00642500 0.01539344
v -0.00051126 -0.00642500 0.01524069
v -0.00079691 -0.00642500 0.01491825
v -0.00079691 -0.00642500 0.01091825
v -0.00090000 -0.00642500 0.01050000
v -0.00079691 -0.00642500 0.01008175
v -0.00090000 -0.00642500 0.01450000
v -0.00079691 -0.00642500 0.01408175
v -0.00051126 -0.00642500 0.01375931
v 0.00031914 -0.00642500 0.01534151
v 0.00067366 -0.00642500 0.01509681
v 0.00067366 -0.00642500 0.01109681
v 0.00087385 -0.00642500 0.01071538
v -0.00010848 -0.00642500 0.01360656
v -0.00010848 -0.00642500 0.01139344
v -0.00051126 -0.00642500 0.01124069
v 0.00087385 -0.00642500 0.01471538
v 0.00087385 -0.00642500 0.01028462
v 0.00087385 -0.00642500 0.01428462
v 0.00067366 -0.00642500 0.01390319
v 0.00031914 -0.00642500 0.01365849
v 0.00031914 -0.00642500 0.01134151
v 0.00490000 0.00300000 0.01099832
v 0.00490000 0.00300000 0.02219832
v 0.00000000 0.00170000 0.02219832
v 0.00528268 0.00307612 0.02219832
v 0.00528268 -0.00107612 0.02219832
v 0.00790000 0.00373562 0.02219832
v 0.00560711 -0.00129289 0.02219832
v 0.00582388 -0.00161732 0.02219832
v 0.00590000 -0.00559870 0.02219832
v 0.00590000 -0.00200000 0.02219832
v 0.00790000 -0.00373301 0.02219832
v 0.00582388 0.00361732 0.02219832
v 0.00560711 0.00329289 0.02219832
v 0.00590000 0.00560130 0.02219832
v 0.00590000 0.00400000 0.02219832
v -0.00045445 -0.00462500 0.01515839
v -0.00009643 -0.00462500 0.01529417
v -0.00009643 -0.00632500 0.01529417
v 0.00000000 -0.00462500 0.01530000
v 0.00028368 -0.00632500 0.01524801
v 0.00028368 -0.00462500 0.01524801
v 0.00059881 -0.00632500 0.01503050
v 0.00059881 -0.00462500 0.01503050
v 0.00077675 -0.00632500 0.01469145
v 0.00077675 -0.00462500 0.01469145
v 0.00077675 -0.00632500 0.01430855
v 0.00077675 -0.00462500 0.01430855
v 0.00059881 -0.00632500 0.01396950
v 0.00059881 -0.00462500 0.01396950
v 0.00028368 -0.00632500 0.01375199
v 0.00028368 -0.00462500 0.01375199
v -0.00009643 -0.00632500 0.01370583
v -0.00009643 -0.00462500 0.01370583
v -0.00045445 -0.00632500 0.01384161
v -0.00045445 -0.00462500 0.01384161
v -0.00070836 -0.00632500 0.01412822
v -0.00070836 -0.00462500 0.01412822
v -0.00080000 -0.00632500 0.01450000
v -0.00080000 -0.00462500 0.01450000
v -0.00070836 -0.00632500 0.01487178
v -0.00070836 -0.00462500 0.01487178
v -0.00045445 -0.00632500 0.01515839
v -0.00070836 -0.00632500 0.01087178
v -0.00045445 -0.00632500 0.01115839
v -0.00045445 -0.00462500 0.01115839
v -0.00009643 -0.00632500 0.01129417
v -0.00009643 -0.00462500 0.01129417
v 0.00028368 -0.00632500 0.01124801
v 0.00028368 -0.00462500 0.01124801
v 0.00059881 -0.00632500 0.01103050
v 0.00059881 -0.00462500 0.01103050
v 0.00077675 -0.00632500 0.01069145
v 0.00077675 -0.00632500 0.01030855
v 0.00059881 -0.00632500 0.00996950
v 0.00028368 -0.00632500 0.00975199
v -0.00009643 -0.00632500 0.00970583
v -0.00045445 -0.00632500 0.00984161
v -0.00070836 -0.00632500 0.01012822
v -0.00080000 -0.00632500 0.01050000
v 0.00000000 0.00170000 0.01099832
v 0.00582388 -0.00161732 0.01099832
v 0.00560711 -0.00129289 0.01099832
v 0.00528268 0.00307612 0.01099832
v 0.00000000 -0.00230000 0.01099832
v -0.00107612 -0.00400768 0.01099832
v -0.00129289 -0.00433211 0.01099832
v -0.00161732 -0.00454888 0.01099832
v 0.00560711 0.00329289 0.01099832
v 0.00582388 0.00361732 0.01099832
v 0.00590000 0.00400000 0.01099832
v 0.00590000 0.00560130 0.01099832
v 0.00590000 -0.00200000 0.01099832
v 0.00590000 -0.00559870 0.01099832
v 0.00361732 -0.00107612 0.01099832
v 0.00528268 -0.00107612 0.01099832
v 0.00329289 -0.00129289 0.01099832
v 0.00307612 -0.00161732 0.01099832
v 0.00790000 -0.00559870 0.01286569
v 0.00790000 -0.00559870 0.02033431
v 0.00790000 0.00560130 0.01286569
v 0.00790000 0.00560130 0.02033431
v 0.00790000 -0.00504870 0.02033431
v 0.00790000 -0.00504870 0.01286569
v 0.00790000 0.00373562 0.02165000
v 0.00790000 -0.00373301 0.02165000
v 0.00790000 -0.00293301 0.01155000
v 0.00790000 -0.00373301 0.01155000
v 0.00790000 -0.00373301 0.01100000
v 0.00790000 -0.00293301 0.01100000
v 0.00000000 -0.00462500 0.01450000
v 0.00000000 -0.00070000 0.01750550
v 0.00000000 -0.00050706 0.01742558
v 0.00000000 -0.00030000 0.01219832
v 0.00000000 -0.00009294 0.01222558
v 0.00000000 0.00039282 0.01859832
v 0.00000000 0.00026569 0.01876400
v 0.00000000 0.00010000 0.01889114
v 0.00000000 -0.00009294 0.01897106
v 0.00000000 -0.00107274 0.01799126
v 0.00000000 0.00010000 0.01230550
v 0.00000000 0.00026569 0.01243263
v 0.00000000 0.00039282 0.01259832
v 0.00000000 -0.00030000 0.01899832
v 0.00000000 -0.00050706 0.01897106
v 0.00000000 -0.00070000 0.01889114
v 0.00000000 -0.00086569 0.01876400
v 0.00000000 -0.00099282 0.01859832
v 0.00000000 -0.00099282 0.01779832
v 0.00000000 -0.00086569 0.01763263
v 0.00000000 -0.00030000 0.01739832
v 0.00000000 0.00026569 0.01356400
v 0.00000000 0.00010000 0.01369114
v 0.00000000 0.00047274 0.01279126
v 0.00000000 0.00050000 0.01299832
v 0.00000000 0.00047274 0.01320537
v 0.00000000 0.00010000 0.01750550
v 0.00000000 0.00026569 0.01763263
v 0.00000000 0.00039282 0.01779832
v 0.00000000 0.00047274 0.01799126
v 0.00000000 0.00050000 0.01819832
v 0.00000000 0.00047274 0.01840537
v 0.00000000 -0.00107274 0.01840537
v 0.00000000 -0.00110000 0.01819832
v 0.00000000 -0.00009294 0.01742558
v 0.00000000 0.00039282 0.01339832
v 0.00000000 -0.00070000 0.01369114
v 0.00000000 -0.00086569 0.01356400
v 0.00000000 -0.00009294 0.01377106
v 0.00000000 -0.00030000 0.01379832
v 0.00000000 -0.00050706 0.01377106
v 0.00000000 -0.00099282 0.01339832
v 0.00000000 -0.00107274 0.01320537
v 0.00000000 -0.00110000 0.01299832
v 0.00000000 -0.00107274 0.01279126
v 0.00000000 -0.00099282 0.01259832
v 0.00000000 -0.00086569 0.01243263
v 0.00000000 -0.00070000 0.01230550
v 0.00000000 -0.00050706 0.01222558
v 0.00337554 -0.00030000 0.01819832
v 0.00300000 0.00024127 0.01788582
v 0.00300000 0.00001250 0.01765705
v 0.00300000 0.00032500 0.01819832
v 0.00300000 -0.00061250 0.01765705
v 0.00300000 -0.00084127 0.01788582
v 0.00300000 -0.00030000 0.01757332
v 0.00300000 -0.00084127 0.01851082
v 0.00300000 -0.00061250 0.01873958
v 0.00300000 -0.00092500 0.01819832
v 0.00300000 0.00001250 0.01873958
v 0.00300000 0.00024127 0.01851082
v 0.00300000 -0.00030000 0.01882332
v 0.00017500 0.00030370 0.01803656
v 0.00017500 0.00024127 0.01788582
v 0.00017500 0.00014194 0.01775638
v 0.00017500 0.00001250 0.01765705
v 0.00017500 -0.00013824 0.01759461
v 0.00017500 -0.00030000 0.01757332
v 0.00017500 -0.00046176 0.01759461
v 0.00017500 -0.00061250 0.01765705
v 0.00017500 -0.00074194 0.01775638
v 0.00017500 -0.00084127 0.01788582
v 0.00017500 -0.00090370 0.01803656
v 0.00017500 -0.00092500 0.01819832
v 0.00017500 -0.00090370 0.01836008
v 0.00017500 -0.00084127 0.01851082
v 0.00017500 -0.00074194 0.01864026
v 0.00017500 -0.00061250 0.01873958
v 0.00017500 -0.00046176 0.01880202
v 0.00017500 -0.00030000 0.01882332
v 0.00017500 -0.00013824 0.01880202
v 0.00017500 0.00001250 0.01873958
v 0.00017500 0.00014194 0.01864026
v 0.00017500 0.00024127 0.01851082
v 0.00017500 0.00030370 0.01836008
v 0.00017500 0.00032500 0.01819832
v 0.00337554 -0.00030000 0.01299832
v 0.00300000 0.00024127 0.01268582
v 0.00300000 0.00001250 0.01245705
v 0.00300000 0.00032500 0.01299832
v 0.00300000 -0.00061250 0.01245705
v 0.00300000 -0.00084127 0.01268582
v 0.00300000 -0.00030000 0.01237332
v 0.00300000 -0.00084127 0.01331082
v 0.00300000 -0.00061250 0.01353958
v 0.00300000 -0.00092500 0.01299832
v 0.00300000 0.00001250 0.01353958
v 0.00300000 0.00024127 0.01331082
v 0.00300000 -0.00030000 0.01362332
v 0.00017500 0.00030370 0.01283656
v 0.00017500 0.00024127 0.01268582
v 0.00017500 0.00014194 0.01255638
v 0.00017500 0.00001250 0.01245705
v 0.00017500 -0.00013824 0.01239461
v 0.00017500 -0.00030000 0.01237332
v 0.00017500 -0.00046176 0.01239461
v 0.00017500 -0.00061250 0.01245705
v 0.00017500 -0.00074194 0.01255638
v 0.00017500 -0.00084127 0.01268582
v 0.00017500 -0.00090370 0.01283656
v 0.00017500 -0.00092500 0.01299832
v 0.00017500 -0.00090370 0.01316008
v 0.00017500 -0.00084127 0.01331082
v 0.00017500 -0.00074194 0.01344026
v 0.00017500 -0.00061250 0.01353958
v 0.00017500 -0.00046176 0.01360202
v 0.00017500 -0.00030000 0.01362332
v 0.00017500 -0.00013824 0.01360202
v 0.00017500 0.00001250 0.01353958
v 0.00017500 0.00014194 0.01344026
v 0.00017500 0.00024127 0.01331082
v 0.00017500 0.00030370 0.01316008
v 0.00017500 0.00032500 0.01299832
v 0.00790000 0.00505130 0.01286569
v 0.00790000 0.00505130 0.02033431
v 0.00225000 -0.00762499 0.01450000
v 0.00225000 -0.00642503 0.01450000
v 0.00218367 -0.00642503 0.01504229
v 0.00218367 -0.00762499 0.01504229
v 0.00190820 -0.00642503 0.01569217
v 0.00190820 -0.00762499 0.01569217
v 0.00144495 -0.00642503 0.01622471
v 0.00144495 -0.00762499 0.01622471
v 0.00083949 -0.00642503 0.01658753
v 0.00083949 -0.00762499 0.01658753
v 0.00031160 -0.00642503 0.01672832
v 0.00031160 -0.00762499 0.01672832
v -0.00020005 -0.00642503 0.01674109
v -0.00020005 -0.00762499 0.01674109
v -0.00088133 -0.00642503 0.01657021
v -0.00088133 -0.00762499 0.01657021
v -0.00147672 -0.00642503 0.01619759
v -0.00147672 -0.00762499 0.01619759
v -0.00192821 -0.00642503 0.01565954
v -0.00192821 -0.00762499 0.01565954
v -0.00219179 -0.00642503 0.01500849
v -0.00219179 -0.00762499 0.01500849
v -0.00225000 -0.00642503 0.01450000
v -0.00225000 -0.00762499 0.01450000
v -0.00225001 -0.00762499 0.00767712
v -0.00225000 -0.00642503 0.00767712
v 0.00225000 -0.00762499 0.00767713
v 0.00225000 -0.00642503 0.00767713
v 0.00015234 -0.00672496 0.01558940
v 0.00027698 -0.00762499 0.01648073
v -0.00011280 -0.00672496 0.01559420
v -0.00020509 -0.00762499 0.01648946
v -0.00037138 -0.00672496 0.01553541
v -0.00067524 -0.00762499 0.01638257
v -0.00060838 -0.00672496 0.01541645
v -0.00110614 -0.00762499 0.01616627
v -0.00081002 -0.00672496 0.01524422
v -0.00147276 -0.00762499 0.01585313
v -0.00096459 -0.00672496 0.01502875
v -0.00175379 -0.00762499 0.01546136
v -0.00106309 -0.00672496 0.01478254
v -0.00193290 -0.00762499 0.01501371
v -0.00109982 -0.00672496 0.01451992
v -0.00199967 -0.00762499 0.01453621
v -0.00107263 -0.00672496 0.01425613
v -0.00195023 -0.00762499 0.01405661
v -0.00098310 -0.00672496 0.01400652
v -0.00178745 -0.00762499 0.01360277
v -0.00083643 -0.00672496 0.01378559
v -0.00152079 -0.00762499 0.01320108
v -0.00064116 -0.00672496 0.01360618
v -0.00116574 -0.00762499 0.01287487
v -0.00040862 -0.00672496 0.01347871
v -0.00074295 -0.00762499 0.01264311
v -0.00019826 -0.00672496 0.01341802
v -0.00036047 -0.00762499 0.01253275
v -0.00015234 -0.00672496 0.01341060
v -0.00027698 -0.00762499 0.01251927
v -0.00010615 -0.00672496 0.01340513
v 0.00074295 -0.00762499 0.01635689
v 0.00040862 -0.00672496 0.01552129
v 0.00116574 -0.00762499 0.01612513
v 0.00064116 -0.00672496 0.01539382
v 0.00152079 -0.00762499 0.01579892
v 0.00083643 -0.00672496 0.01521441
v 0.00178745 -0.00762499 0.01539723
v 0.00098310 -0.00672496 0.01499348
v 0.00195023 -0.00762499 0.01494339
v 0.00107263 -0.00672496 0.01474387
v 0.00199967 -0.00762499 0.01446379
v 0.00109982 -0.00672496 0.01448009
v 0.00193290 -0.00762499 0.01398629
v 0.00106309 -0.00672496 0.01421746
v 0.00175379 -0.00762499 0.01353864
v 0.00096459 -0.00672496 0.01397125
v 0.00147276 -0.00762499 0.01314687
v 0.00081002 -0.00672496 0.01375578
v 0.00110614 -0.00762499 0.01283373
v 0.00060838 -0.00672496 0.01358355
v 0.00067524 -0.00762499 0.01261743
v 0.00037138 -0.00672496 0.01346459
v 0.00020509 -0.00762499 0.01251054
v 0.00011280 -0.00672496 0.01340580
v 0.00000000 -0.00762499 0.01250000
v -0.00019299 -0.00762499 0.01250933
v -0.00083643 -0.00642503 0.01378559
v -0.00040862 -0.00642503 0.01347871
v -0.00106309 -0.00642503 0.01078254
v -0.00652892 -0.00642503 -0.00462312
v -0.00189326 -0.00642503 0.00064464
v -0.00199970 -0.00642503 -0.00003479
v -0.00107263 -0.00642503 0.01025613
v -0.00083643 -0.00642503 0.00978559
v -0.00040862 -0.00642503 0.00947871
v -0.00104787 -0.00642503 0.00170351
v -0.00156297 -0.00642503 0.00124785
v -0.00776260 -0.00642503 -0.00193443
v -0.00257235 -0.00642503 0.00757516
v -0.00727112 -0.00642503 -0.00333629
v 0.00011280 -0.00642503 0.00940580
v 0.00060838 -0.00642503 0.00958355
v 0.00156297 -0.00642503 -0.00124785
v 0.00189326 -0.00642503 -0.00064464
v 0.00733885 -0.00642503 -0.00318455
v 0.00779709 -0.00642503 -0.00179034
v 0.00199970 -0.00642503 0.00003479
v 0.00799295 -0.00642503 -0.00033588
v 0.00791981 -0.00642503 0.00112988
v 0.00186969 -0.00642503 0.00071011
v 0.00758014 -0.00642503 0.00255762
v 0.00698538 -0.00642503 0.00389929
v 0.00151862 -0.00642503 0.00130146
v 0.00615554 -0.00642503 0.00510973
v -0.00186969 -0.00642503 -0.00071011
v -0.00151862 -0.00642503 -0.00130146
v -0.00556160 -0.00642503 -0.00575053
v -0.00098798 -0.00642503 -0.00173893
v -0.00034053 -0.00642503 -0.00197080
v -0.00309163 -0.00642503 -0.00737847
v -0.00440251 -0.00642503 -0.00667966
v -0.00760971 -0.00642503 0.00246825
v -0.00702217 -0.00642503 0.00383264
v 0.00096459 -0.00642503 0.00997125
v 0.00109982 -0.00642503 0.01048008
v 0.00663362 -0.00642503 -0.00447158
v 0.00570515 -0.00642503 -0.00560814
v 0.00104787 -0.00642503 -0.00170351
v -0.00798642 -0.00642503 -0.00046587
v -0.00793487 -0.00642503 0.00101875
v 0.00015234 -0.00642503 0.01158940
v -0.00037138 -0.00642503 0.01153541
v -0.00081002 -0.00642503 0.01124422
v 0.00060838 -0.00642503 0.01358355
v 0.00096459 -0.00642503 0.01397125
v 0.00109982 -0.00642503 0.01448009
v 0.00098310 -0.00642503 0.01499348
v -0.00107263 -0.00642503 0.01425613
v -0.00106309 -0.00642503 0.01478254
v 0.00047290 -0.00642503 -0.00798601
v 0.00003479 -0.00642503 -0.00199970
v 0.00040888 -0.00642503 -0.00195776
v 0.00458469 -0.00642503 -0.00655596
v 0.00330993 -0.00642503 -0.00728315
v 0.00192379 -0.00642503 -0.00776525
v 0.00511854 -0.00642503 0.00614821
v 0.00098798 -0.00642503 0.00173893
v 0.00390929 -0.00642503 0.00697979
v -0.00619250 -0.00642503 0.00506488
v -0.00514930 -0.00642503 0.00612247
v -0.00392856 -0.00642503 0.00696896
v 0.00098310 -0.00642503 0.01099348
v 0.00064116 -0.00642503 0.01139382
v 0.00011280 -0.00642503 0.01340580
v 0.00013916 -0.00642503 -0.00799879
v -0.00019892 -0.00642503 -0.00799753
v -0.00167414 -0.00642503 -0.00782287
v -0.00040888 -0.00642503 0.00195776
v 0.00015234 -0.00642503 0.01558940
v 0.00064116 -0.00642503 0.01539382
v -0.00037138 -0.00642503 0.01553541
v -0.00081002 -0.00642503 0.01524422
v 0.00256848 -0.00642503 0.00757647
v 0.00034053 -0.00642503 0.00197080
v -0.00003479 -0.00642503 0.00199970
v -0.00199970 -0.00762499 -0.00003479
v -0.00189326 -0.00762499 0.00064464
v -0.00776260 -0.00762499 -0.00193443
v -0.00186969 -0.00762499 -0.00071011
v -0.00727112 -0.00762499 -0.00333629
v -0.00151862 -0.00762499 -0.00130146
v 0.00178745 -0.00762499 0.01139723
v 0.00152079 -0.00762499 0.01179892
v 0.00116574 -0.00762499 0.01212513
v 0.00034053 -0.00762499 0.00197080
v 0.00256848 -0.00762499 0.00757647
v 0.00098798 -0.00762499 0.00173893
v 0.00074295 -0.00762499 0.01235689
v 0.00151862 -0.00762499 0.00130146
v 0.00511854 -0.00762499 0.00614821
v 0.00390929 -0.00762499 0.00697979
v -0.00760971 -0.00762499 0.00246825
v -0.00793487 -0.00762499 0.00101875
v -0.00798642 -0.00762499 -0.00046587
v 0.00195023 -0.00762499 0.01094340
v 0.00199967 -0.00762499 0.01046379
v 0.00193290 -0.00762499 0.00998629
v -0.00020509 -0.00762499 0.01248946
v 0.00186969 -0.00762499 0.00071011
v 0.00698538 -0.00762499 0.00389929
v 0.00615554 -0.00762499 0.00510973
v 0.00199970 -0.00762499 0.00003479
v 0.00791981 -0.00762499 0.00112988
v 0.00758014 -0.00762499 0.00255762
v -0.00257235 -0.00762499 0.00757516
v -0.00392856 -0.00762499 0.00696896
v -0.00514930 -0.00762499 0.00612247
v 0.00027698 -0.00762499 0.01248073
v 0.00189326 -0.00762499 -0.00064464
v 0.00779709 -0.00762499 -0.00179034
v 0.00799295 -0.00762499 -0.00033588
v 0.00104787 -0.00762499 -0.00170351
v 0.00570515 -0.00762499 -0.00560814
v 0.00156297 -0.00762499 -0.00124785
v 0.00663362 -0.00762499 -0.00447158
v 0.00733885 -0.00762499 -0.00318455
v -0.00619250 -0.00762499 0.00506488
v -0.00702217 -0.00762499 0.00383264
v 0.00175379 -0.00762499 0.00953864
v 0.00147276 -0.00762499 0.00914687
v 0.00110614 -0.00762499 0.00883373
v -0.00652892 -0.00762499 -0.00462312
v -0.00556160 -0.00762499 -0.00575053
v -0.00098798 -0.00762499 -0.00173893
v -0.00110614 -0.00762499 0.01216627
v -0.00067524 -0.00762499 0.01238257
v -0.00156297 -0.00762499 0.00124785
v -0.00104787 -0.00762499 0.00170351
v -0.00040888 -0.00762499 0.00195776
v 0.00040888 -0.00762499 -0.00195776
v 0.00330993 -0.00762499 -0.00728315
v 0.00458469 -0.00762499 -0.00655596
v -0.00440251 -0.00762499 -0.00667966
v -0.00309163 -0.00762499 -0.00737847
v -0.00034053 -0.00762499 -0.00197080
v -0.00152079 -0.00762499 0.00920108
v -0.00178745 -0.00762499 0.00960277
v -0.00195023 -0.00762499 0.01005661
v -0.00199967 -0.00762499 0.01053621
v -0.00193290 -0.00762499 0.01101371
v -0.00036047 -0.00762499 0.00853275
v -0.00074295 -0.00762499 0.00864311
v -0.00116574 -0.00762499 0.00887487
v -0.00167414 -0.00762499 -0.00782287
v -0.00019892 -0.00762499 -0.00799753
v 0.00003479 -0.00762499 -0.00199970
v 0.00013916 -0.00762499 -0.00799879
v 0.00047290 -0.00762499 -0.00798601
v 0.00192379 -0.00762499 -0.00776525
v -0.00175379 -0.00762499 0.01146136
v -0.00147276 -0.00762499 0.01185313
v 0.00067524 -0.00762499 0.00861743
v 0.00020509 -0.00762499 0.00851054
v -0.00003479 -0.00762499 0.00199970
v -0.00019299 -0.00762499 0.00850933
v -0.00027698 -0.00762499 0.00851927
v -0.00015234 -0.00672496 0.00941060
v -0.00019826 -0.00672496 0.00941801
v -0.00040862 -0.00672496 0.00947871
v -0.00064116 -0.00672496 0.00960618
v -0.00083643 -0.00672496 0.00978559
v -0.00098310 -0.00672496 0.01000652
v -0.00107263 -0.00672496 0.01025613
v -0.00109982 -0.00672496 0.01051992
v -0.00106309 -0.00672496 0.01078254
v -0.00096459 -0.00672496 0.01102875
v -0.00081002 -0.00672496 0.01124422
v -0.00060838 -0.00672496 0.01141645
v -0.00037138 -0.00672496 0.01153541
v -0.00011280 -0.00672496 0.01159420
v 0.00015234 -0.00672496 0.01158940
v -0.00010615 -0.00672496 0.00940513
v 0.00011280 -0.00672496 0.00940580
v 0.00037138 -0.00672496 0.00946459
v 0.00060838 -0.00672496 0.00958355
v 0.00081002 -0.00672496 0.00975578
v 0.00096459 -0.00672496 0.00997125
v 0.00106309 -0.00672496 0.01021746
v 0.00109982 -0.00672496 0.01048008
v 0.00107263 -0.00672496 0.01074387
v 0.00098310 -0.00672496 0.01099348
v 0.00083643 -0.00672496 0.01121441
v 0.00064116 -0.00672496 0.01139382
v 0.00040862 -0.00672496 0.01152129
v 0.00860000 -0.00339870 0.01360000
v 0.00860000 -0.00284870 0.01298125
v 0.00760000 -0.00339870 0.01360000
v 0.00760000 -0.00284870 0.01298125
v 0.00860000 -0.00339870 0.01960000
v 0.00760000 -0.00339870 0.01960000
v 0.00860000 -0.00299870 0.02000000
v 0.00760000 -0.00299870 0.02000000
v 0.00860000 0.00300130 0.02000000
v 0.00760000 0.00300130 0.02000000
v 0.00860000 0.00340130 0.01960000
v 0.00760000 0.00340130 0.01960000
v 0.00860000 0.00285130 0.01298125
v 0.00860000 0.00340130 0.01360000
v 0.00760000 0.00285130 0.01298125
v 0.00760000 0.00340130 0.01360000
v 0.00690000 -0.00264870 0.01535000
v 0.00760000 -0.00264870 0.01535000
v 0.00690000 -0.00274870 0.01532320
v 0.00760000 -0.00274870 0.01532320
v 0.00690000 -0.00282190 0.01525000
v 0.00760000 -0.00282190 0.01525000
v 0.00690000 -0.00284870 0.01515000
v 0.00760000 -0.00284870 0.01515000
v 0.00690000 0.00285130 0.01515000
v 0.00760000 0.00285130 0.01515000
v 0.00690000 0.00282451 0.01525000
v 0.00760000 0.00282451 0.01525000
v 0.00690000 0.00275130 0.01532320
v 0.00760000 0.00275130 0.01532320
v 0.00690000 0.00265130 0.01535000
v 0.00760000 0.00265130 0.01535000
v 0.00690000 0.00285130 0.01235000
v 0.00860000 0.00285130 0.01235000
v 0.00860000 -0.00284870 0.01235000
v 0.00690000 -0.00284870 0.01235000
v 0.00760000 0.00300130 0.02085000
v 0.00760000 -0.00299870 0.02085000
v 0.00741359 0.00405130 0.01910000
v 0.00736000 0.00425130 0.01910000
v 0.00816000 0.00425130 0.01910000
v 0.00776000 0.00385130 0.01910000
v 0.00756000 0.00390489 0.01910000
v 0.00796000 0.00390489 0.01910000
v 0.00810641 0.00405130 0.01910000
v 0.00810641 0.00405130 0.01410000
v 0.00816000 0.00425130 0.01410000
v 0.00736000 0.00425130 0.01410000
v 0.00796000 0.00390489 0.01410000
v 0.00741359 0.00405130 0.01410000
v 0.00756000 0.00390489 0.01410000
v 0.00776000 0.00385130 0.01410000
v 0.00756000 -0.00390229 0.01910000
v 0.00776000 -0.00384870 0.01910000
v 0.00796000 -0.00390229 0.01910000
v 0.00736000 -0.00424870 0.01910000
v 0.00741359 -0.00404870 0.01910000
v 0.00816000 -0.00424870 0.01910000
v 0.00810641 -0.00404870 0.01910000
v 0.00736000 -0.00424870 0.01410000
v 0.00816000 -0.00424870 0.01410000
v 0.00810641 -0.00404870 0.01410000
v 0.00741359 -0.00404870 0.01410000
v 0.00756000 -0.00390229 0.01410000
v 0.00776000 -0.00384870 0.01410000
v 0.00796000 -0.00390229 0.01410000
v 0.00860000 0.00330130 0.01235000
v 0.00690000 0.00330130 0.01235000
v 0.00860000 0.00334780 0.01264357
v 0.00690000 0.00334780 0.01264357
v 0.00860000 0.00348274 0.01290840
v 0.00690000 0.00348274 0.01290840
v 0.00860000 0.00369291 0.01311857
v 0.00690000 0.00369291 0.01311857
v 0.00860000 0.00395774 0.01325350
v 0.00690000 0.00395774 0.01325350
v 0.00860000 0.00425130 0.01330000
v 0.00690000 0.00425130 0.01330000
v 0.00860000 -0.00329870 0.02085000
v 0.00690000 -0.00329870 0.02085000
v 0.00860000 -0.00334519 0.02055643
v 0.00690000 -0.00334519 0.02055643
v 0.00860000 -0.00348013 0.02029160
v 0.00690000 -0.00348013 0.02029160
v 0.00860000 -0.00369030 0.02008143
v 0.00690000 -0.00369030 0.02008143
v 0.00860000 -0.00395513 0.01994650
v 0.00690000 -0.00395513 0.01994650
v 0.00860000 -0.00424870 0.01990000
v 0.00690000 -0.00424870 0.01990000
v 0.00860000 0.00425130 0.01990000
v 0.00690000 0.00425130 0.01990000
v 0.00860000 0.00395774 0.01994650
v 0.00690000 0.00395774 0.01994650
v 0.00860000 0.00369291 0.02008143
v 0.00690000 0.00369291 0.02008143
v 0.00860000 0.00348274 0.02029160
v 0.00690000 0.00348274 0.02029160
v 0.00860000 0.00334780 0.02055643
v 0.00690000 0.00334780 0.02055643
v 0.00860000 0.00330130 0.02085000
v 0.00690000 0.00330130 0.02085000
v 0.00860000 -0.00424870 0.01330000
v 0.00690000 -0.00424870 0.01330000
v 0.00860000 -0.00395513 0.01325350
v 0.00690000 -0.00395513 0.01325350
v 0.00860000 -0.00369030 0.01311857
v 0.00690000 -0.00369030 0.01311857
v 0.00860000 -0.00348013 0.01290840
v 0.00690000 -0.00348013 0.01290840
v 0.00860000 -0.00334519 0.01264357
v 0.00690000 -0.00334519 0.01264357
v 0.00860000 -0.00329870 0.01235000
v 0.00690000 -0.00329870 0.01235000
v 0.00860000 0.00300130 0.02085000
v 0.00860000 -0.00299870 0.02085000
v 0.00950000 0.00325130 0.01235000
v 0.00870000 0.00325130 0.01235000
v 0.00950000 0.00330025 0.01265902
v 0.00870000 0.00330025 0.01265902
v 0.00950000 0.00344229 0.01293779
v 0.00870000 0.00344229 0.01293779
v 0.00950000 0.00366352 0.01315902
v 0.00870000 0.00366352 0.01315902
v 0.00950000 0.00394229 0.01330106
v 0.00870000 0.00394229 0.01330106
v 0.00950000 0.00425130 0.01335000
v 0.00870000 0.00425130 0.01335000
v 0.00950000 -0.00424870 0.01335000
v 0.00870000 -0.00424870 0.01335000
v 0.00950000 -0.00393968 0.01330106
v 0.00870000 -0.00393968 0.01330106
v 0.00950000 -0.00366091 0.01315902
v 0.00870000 -0.00366091 0.01315902
v 0.00950000 -0.00343968 0.01293779
v 0.00870000 -0.00343968 0.01293779
v 0.00950000 -0.00329764 0.01265902
v 0.00870000 -0.00329764 0.01265902
v 0.00950000 -0.00324870 0.01235000
v 0.00870000 -0.00324870 0.01235000
v 0.00950000 0.00425130 0.01985000
v 0.00870000 0.00425130 0.01985000
v 0.00950000 0.00394229 0.01989894
v 0.00870000 0.00394229 0.01989894
v 0.00950000 0.00366352 0.02004098
v 0.00870000 0.00366352 0.02004098
v 0.00950000 0.00344229 0.02026222
v 0.00870000 0.00344229 0.02026222
v 0.00950000 0.00330025 0.02054098
v 0.00870000 0.00330025 0.02054098
v 0.00950000 0.00325130 0.02085000
v 0.00870000 0.00325130 0.02085000
v 0.00950000 -0.00324870 0.02085000
v 0.00870000 -0.00324870 0.02085000
v 0.00950000 -0.00329764 0.02054098
v 0.00870000 -0.00329764 0.02054098
v 0.00950000 -0.00343968 0.02026222
v 0.00870000 -0.00343968 0.02026222
v 0.00950000 -0.00366091 0.02004098
v 0.00870000 -0.00366091 0.02004098
v 0.00950000 -0.00393968 0.01989894
v 0.00870000 -0.00393968 0.01989894
v 0.00950000 -0.00424870 0.01985000
v 0.00870000 -0.00424870 0.01985000
v 0.00777000 -0.00249870 0.02055000
v 0.00777000 0.00250130 0.02055000
v 0.00777000 -0.00249870 0.01555000
v 0.00777000 0.00250130 0.01555000
v 0.00870000 0.00250130 0.01555000
v 0.00870000 0.00250130 0.02055000
v 0.00870000 -0.00249870 0.02055000
v 0.00870000 -0.00249870 0.01555000
v 0.00836115 0.00245130 0.01335000
v 0.00836115 -0.00244870 0.01335000
v 0.00725000 0.00245130 0.01335000
v 0.00725000 -0.00244870 0.01335000
v 0.00836115 0.00245130 0.01235000
v 0.00725000 0.00245130 0.01235000
v 0.00836115 -0.00244870 0.01235000
v 0.00725000 -0.00244870 0.01235000
v 0.00695000 -0.00274870 0.01505000
v 0.00695000 0.00275130 0.01505000
v 0.00695000 -0.00274870 0.01235000
v 0.00695000 0.00275130 0.01235000
v 0.00870000 0.00275130 0.01235000
v 0.00870000 0.00275130 0.01505000
v 0.00870000 -0.00274870 0.01505000
v 0.00870000 -0.00274870 0.01235000
v 0.00950000 0.00350130 0.01348701
v 0.00950000 0.00311430 0.01310000
v 0.00990000 0.00350130 0.01348701
v 0.00990000 0.00311430 0.01310000
v 0.00950000 0.00311430 0.02010000
v 0.00950000 0.00350130 0.01971299
v 0.00990000 0.00311430 0.02010000
v 0.00990000 0.00350130 0.01971299
v 0.00950000 -0.00349870 0.01971299
v 0.00950000 -0.00311169 0.02010000
v 0.00990000 -0.00349870 0.01971299
v 0.00990000 -0.00311169 0.02010000
v 0.00950000 -0.00311169 0.01310000
v 0.00950000 -0.00349870 0.01348701
v 0.00990000 -0.00311169 0.01310000
v 0.00990000 -0.00349870 0.01348701
v 0.00775000 0.00395130 0.01860000
v 0.00775000 0.00395130 0.01460000
v 0.00792500 0.00399819 0.01460000
v 0.00792500 0.00399819 0.01860000
v 0.00805311 0.00412630 0.01460000
v 0.00805311 0.00412630 0.01860000
v 0.00810000 0.00430130 0.01460000
v 0.00810000 0.00430130 0.01860000
v 0.00757500 0.00399819 0.01860000
v 0.00757500 0.00399819 0.01460000
v 0.00744689 0.00412630 0.01860000
v 0.00744689 0.00412630 0.01460000
v 0.00740000 0.00430130 0.01860000
v 0.00740000 0.00430130 0.01460000
v 0.00775000 -0.00394870 0.01460000
v 0.00775000 -0.00394870 0.01860000
v 0.00792500 -0.00399559 0.01860000
v 0.00792500 -0.00399559 0.01460000
v 0.00805311 -0.00412370 0.01860000
v 0.00805311 -0.00412370 0.01460000
v 0.00810000 -0.00429870 0.01860000
v 0.00810000 -0.00429870 0.01460000
v 0.00757500 -0.00399559 0.01460000
v 0.00757500 -0.00399559 0.01860000
v 0.00744689 -0.00412370 0.01460000
v 0.00744689 -0.00412370 0.01860000
v 0.00740000 -0.00429870 0.01460000
v 0.00740000 -0.00429870 0.01860000
v 0.00690000 0.00285130 0.01160000
v 0.00890000 0.00285130 0.01160000
v 0.00690000 0.00285130 0.01230000
v 0.00890000 0.00285130 0.01230000
v 0.00890000 -0.00284870 0.01160000
v 0.00890000 -0.00284870 0.01230000
v 0.00690000 -0.00284870 0.01160000
v 0.00690000 -0.00284870 0.01230000
v 0.00990000 -0.00499870 0.01286569
v 0.00690000 -0.00499870 0.01286569
v 0.00990000 -0.00373301 0.01160000
v 0.00690000 -0.00373301 0.01160000
v 0.00990000 -0.00373301 0.02160000
v 0.00690000 -0.00373301 0.02160000
v 0.00990000 -0.00499870 0.02033431
v 0.00690000 -0.00499870 0.02033431
v 0.00990000 0.00500130 0.02033431
v 0.00690000 0.00500130 0.02033431
v 0.00990000 0.00373562 0.02160000
v 0.00690000 0.00373562 0.02160000
v 0.00990000 0.00373562 0.01160000
v 0.00690000 0.00373562 0.01160000
v 0.00990000 0.00500130 0.01286569
v 0.00690000 0.00500130 0.01286569
v 0.00950000 0.00357319 0.01282901
v 0.00950000 0.00377230 0.01302812
v 0.00950000 0.00402319 0.01315595
v 0.00950000 0.00377230 0.02017188
v 0.00950000 0.00357319 0.02037099
v 0.00950000 0.00344535 0.02062188
v 0.00950000 0.00402319 0.02004405
v 0.00950000 0.00430130 0.02000000
v 0.00950000 0.00430130 0.01320000
v 0.00950000 -0.00357058 0.02037099
v 0.00950000 -0.00376969 0.02017188
v 0.00950000 -0.00402058 0.02004405
v 0.00950000 -0.00344275 0.02062188
v 0.00950000 -0.00339870 0.02090000
v 0.00950000 0.00340130 0.02090000
v 0.00950000 0.00344535 0.01257811
v 0.00950000 0.00340130 0.01230000
v 0.00950000 -0.00339870 0.01230000
v 0.00950000 -0.00344275 0.01257811
v 0.00950000 -0.00357058 0.01282901
v 0.00950000 -0.00376969 0.01302812
v 0.00950000 -0.00402058 0.01315595
v 0.00950000 -0.00429870 0.01320000
v 0.00950000 -0.00429870 0.02000000
v 0.00690000 0.00340130 0.01230000
v 0.00690000 0.00344535 0.01257811
v 0.00690000 0.00357319 0.01282901
v 0.00690000 0.00377230 0.01302812
v 0.00690000 0.00402319 0.01315595
v 0.00690000 0.00430130 0.01320000
v 0.00690000 0.00430130 0.02000000
v 0.00690000 0.00402319 0.02004405
v 0.00690000 0.00377230 0.02017188
v 0.00690000 0.00357319 0.02037099
v 0.00690000 0.00344535 0.02062188
v 0.00690000 0.00340130 0.02090000
v 0.00690000 -0.00339870 0.02090000
v 0.00690000 -0.00344275 0.02062188
v 0.00690000 -0.00357058 0.02037099
v 0.00690000 -0.00376969 0.02017188
v 0.00690000 -0.00402058 0.02004405
v 0.00690000 -0.00429870 0.02000000
v 0.00690000 -0.00429870 0.01320000
v 0.00690000 -0.00402058 0.01315595
v 0.00690000 -0.00376969 0.01302812
v 0.00690000 -0.00357058 0.01282901
v 0.00690000 -0.00344275 0.01257811
v 0.00690000 -0.00339870 0.01230000
v 0.00990000 -0.00304870 0.02005000
v 0.00960000 -0.00304870 0.02005000
v 0.00990000 -0.00344870 0.01965000
v 0.00960000 -0.00344870 0.01965000
v 0.00990000 -0.00344870 0.01355000
v 0.00960000 -0.00344870 0.01355000
v 0.00990000 -0.00304870 0.01315000
v 0.00960000 -0.00304870 0.01315000
v 0.00990000 0.00305130 0.01315000
v 0.00960000 0.00305130 0.01315000
v 0.00990000 0.00345130 0.01355000
v 0.00960000 0.00345130 0.01355000
v 0.00990000 0.00345130 0.01965000
v 0.00960000 0.00345130 0.01965000
v 0.00990000 0.00305130 0.02005000
v 0.00960000 0.00305130 0.02005000
f 1 2 3
f 3 2 4
f 5 6 7
f 7 6 8
f 7 8 9
f 9 8 10
f 11 12 13
f 13 12 14
f 15 16 14
f 14 16 17
f 14 17 13
f 13 17 18
f 18 19 13
f 13 19 20
f 13 20 21
f 21 20 22
f 22 23 21
f 21 23 24
f 21 24 25
f 25 24 26
f 25 26 27
f 28 29 30
f 30 29 31
f 32 33 34
f 34 33 35
f 36 37 38
f 38 37 39
f 39 37 32
f 32 37 33
f 40 41 42
f 42 41 43
f 41 44 45
f 46 47 48
f 38 46 36
f 36 46 48
f 36 48 35
f 35 48 34
f 49 50 51
f 52 53 51
f 51 53 54
f 51 54 49
f 55 56 57
f 41 45 43
f 43 45 53
f 43 53 58
f 58 53 52
f 58 52 56
f 56 52 59
f 56 59 57
f 57 46 55
f 55 46 38
f 55 38 43
f 43 38 34
f 43 34 42
f 42 34 48
f 11 13 60
f 60 13 61
f 62 63 9
f 9 63 64
f 9 64 7
f 2 65 66
f 65 67 66
f 66 67 68
f 66 68 60
f 60 68 12
f 60 12 11
f 62 9 69
f 69 9 70
f 69 70 66
f 66 70 4
f 66 4 2
f 71 21 25
f 72 69 25
f 25 69 66
f 25 66 71
f 73 61 74
f 74 61 13
f 74 13 75
f 75 13 21
f 75 21 76
f 76 21 71
f 76 71 77
f 77 71 66
f 78 60 79
f 79 60 80
f 81 82 66
f 80 60 83
f 83 60 61
f 83 61 73
f 82 84 66
f 66 84 85
f 66 85 77
f 78 86 60
f 60 86 87
f 60 87 66
f 66 87 88
f 66 88 81
f 74 89 73
f 73 89 83
f 90 77 91
f 91 77 85
f 91 85 92
f 92 85 84
f 92 84 93
f 93 84 82
f 93 82 94
f 94 82 81
f 94 81 95
f 95 81 88
f 95 88 96
f 96 88 87
f 96 87 97
f 97 87 86
f 97 86 98
f 98 86 78
f 98 78 99
f 99 78 79
f 99 79 100
f 100 79 80
f 100 80 89
f 89 80 83
f 90 75 77
f 77 75 76
f 74 101 102
f 101 74 103
f 103 74 75
f 103 75 104
f 105 97 106
f 106 97 98
f 106 98 107
f 108 89 109
f 109 89 74
f 109 74 110
f 110 74 102
f 98 99 107
f 107 99 100
f 107 100 111
f 111 100 89
f 111 89 112
f 112 89 113
f 114 115 93
f 90 116 117
f 118 113 119
f 119 113 89
f 119 89 120
f 120 89 108
f 93 115 92
f 92 115 121
f 92 121 91
f 90 117 75
f 75 117 122
f 75 122 104
f 93 94 114
f 114 94 95
f 114 95 105
f 105 95 96
f 105 96 97
f 91 121 90
f 90 121 123
f 90 123 116
f 116 123 124
f 116 124 125
f 118 119 125
f 125 119 126
f 125 126 116
f 127 29 128
f 128 29 28
f 28 30 128
f 128 30 129
f 128 129 130
f 10 8 44
f 44 8 131
f 44 131 132
f 132 131 133
f 132 133 134
f 135 49 136
f 136 49 54
f 136 54 134
f 134 54 137
f 134 137 132
f 138 139 44
f 44 139 130
f 44 130 10
f 10 130 129
f 41 140 44
f 44 140 141
f 44 141 138
f 142 143 144
f 144 143 145
f 144 145 146
f 146 145 147
f 146 147 148
f 148 147 149
f 148 149 150
f 150 149 151
f 150 151 152
f 152 151 153
f 152 153 154
f 154 153 155
f 154 155 156
f 156 155 157
f 156 157 158
f 158 157 159
f 158 159 160
f 160 159 161
f 160 161 162
f 162 161 163
f 162 163 164
f 164 163 165
f 164 165 166
f 166 165 167
f 166 167 168
f 168 167 142
f 168 142 144
f 162 112 160
f 160 112 113
f 160 113 158
f 158 113 118
f 158 118 156
f 156 118 125
f 156 125 154
f 154 125 124
f 154 124 152
f 152 124 123
f 152 123 150
f 150 123 121
f 150 121 148
f 148 121 115
f 148 115 146
f 146 115 114
f 146 114 144
f 144 114 105
f 144 105 168
f 168 105 106
f 168 106 166
f 166 106 107
f 166 107 164
f 164 107 111
f 164 111 162
f 162 111 112
f 169 15 170
f 170 15 171
f 170 171 172
f 172 171 173
f 172 173 174
f 174 173 175
f 174 175 176
f 175 177 176
f 176 177 27
f 176 27 178
f 178 27 26
f 178 26 179
f 179 26 24
f 179 24 180
f 180 24 23
f 180 23 181
f 181 23 22
f 181 22 182
f 182 22 20
f 182 20 183
f 183 20 19
f 183 19 184
f 184 19 18
f 184 18 185
f 185 18 17
f 185 17 169
f 169 17 16
f 169 16 15
f 184 110 183
f 183 110 102
f 183 102 182
f 182 102 101
f 182 101 181
f 181 101 103
f 181 103 180
f 180 103 104
f 180 104 179
f 179 104 122
f 179 122 178
f 178 122 117
f 178 117 176
f 176 117 116
f 176 116 174
f 174 116 126
f 174 126 172
f 172 126 119
f 172 119 170
f 170 119 120
f 170 120 169
f 169 120 108
f 169 108 185
f 185 108 109
f 185 109 184
f 184 109 110
f 31 29 186
f 186 29 127
f 187 188 189
f 3 190 1
f 1 190 25
f 1 25 191
f 191 25 27
f 191 27 192
f 192 27 15
f 192 15 193
f 193 15 14
f 189 194 57
f 57 194 195
f 57 195 46
f 46 195 196
f 46 196 197
f 187 189 198
f 198 189 57
f 198 57 199
f 200 186 5
f 5 186 127
f 5 127 6
f 6 127 189
f 6 189 201
f 201 189 188
f 200 202 186
f 186 202 203
f 186 203 190
f 190 203 72
f 190 72 25
f 50 49 135
f 199 57 59
f 204 205 59
f 59 205 50
f 59 50 199
f 199 50 135
f 198 199 136
f 136 199 135
f 141 140 196
f 196 140 197
f 197 140 40
f 40 140 41
f 46 197 47
f 47 197 40
f 47 40 206
f 206 40 207
f 208 209 51
f 51 209 52
f 205 208 50
f 50 208 51
f 209 204 52
f 52 204 59
f 205 204 208
f 208 204 209
f 210 211 45
f 45 211 53
f 210 45 132
f 132 45 44
f 211 137 53
f 53 137 54
f 211 210 137
f 137 210 132
f 43 58 212
f 212 58 213
f 214 213 56
f 56 213 58
f 214 56 215
f 215 56 55
f 33 37 35
f 35 37 36
f 212 213 215
f 215 213 214
f 2 1 65
f 65 1 191
f 65 191 67
f 67 191 192
f 67 192 68
f 68 192 193
f 68 193 12
f 12 193 14
f 141 196 138
f 138 196 195
f 138 195 139
f 139 195 194
f 139 194 130
f 130 194 189
f 130 189 128
f 128 189 127
f 198 136 187
f 187 136 134
f 187 134 188
f 188 134 133
f 188 133 201
f 201 133 131
f 201 131 6
f 6 131 8
f 39 32 38
f 38 32 34
f 55 43 215
f 215 43 212
f 15 27 177
f 175 173 177
f 177 173 171
f 177 171 15
f 145 143 216
f 145 216 147
f 153 151 216
f 216 151 149
f 216 149 147
f 159 157 216
f 216 157 155
f 216 155 153
f 165 163 216
f 216 163 161
f 216 161 159
f 143 142 216
f 216 142 167
f 216 167 165
f 190 3 70
f 70 3 4
f 31 186 30
f 30 186 129
f 217 218 190
f 190 219 186
f 186 219 220
f 9 10 221
f 221 10 129
f 221 222 9
f 9 222 223
f 9 223 224
f 225 190 70
f 220 226 186
f 186 226 227
f 186 227 228
f 224 229 9
f 9 229 230
f 9 230 70
f 230 231 70
f 70 231 232
f 70 232 233
f 225 234 190
f 190 234 235
f 190 235 217
f 236 237 238
f 228 239 186
f 186 239 240
f 186 240 241
f 242 243 186
f 186 243 244
f 244 245 186
f 186 245 246
f 186 246 129
f 129 246 247
f 129 247 221
f 233 248 70
f 70 248 249
f 70 249 225
f 242 186 250
f 250 186 241
f 250 241 236
f 236 241 251
f 236 251 237
f 252 253 218
f 238 254 236
f 236 254 255
f 236 255 218
f 218 255 256
f 218 256 252
f 253 257 218
f 218 257 258
f 218 258 190
f 190 258 259
f 259 260 190
f 190 260 261
f 190 261 262
f 262 263 190
f 190 263 264
f 190 264 219
f 265 266 267
f 268 266 265
f 265 269 270
f 271 269 265
f 267 271 265
f 265 272 273
f 274 272 265
f 270 274 265
f 265 275 276
f 277 275 265
f 273 277 265
f 276 268 265
f 278 266 268
f 278 279 266
f 266 279 280
f 266 280 267
f 280 281 267
f 267 281 282
f 267 282 271
f 282 283 271
f 271 283 284
f 271 284 269
f 284 285 269
f 269 285 286
f 269 286 270
f 286 287 270
f 270 287 288
f 270 288 274
f 288 289 274
f 274 289 290
f 274 290 272
f 290 291 272
f 272 291 292
f 272 292 273
f 292 293 273
f 273 293 294
f 273 294 277
f 294 295 277
f 277 295 296
f 277 296 275
f 296 297 275
f 275 297 298
f 275 298 276
f 298 299 276
f 276 299 300
f 276 300 268
f 268 300 301
f 268 301 278
f 278 245 279
f 279 245 244
f 279 244 280
f 280 244 243
f 280 243 281
f 281 243 242
f 281 242 282
f 282 242 250
f 282 250 283
f 283 250 236
f 283 236 284
f 284 236 218
f 284 218 285
f 285 218 217
f 285 217 286
f 286 217 235
f 286 235 287
f 287 235 234
f 287 234 288
f 288 234 225
f 288 225 289
f 289 225 249
f 289 249 290
f 290 249 248
f 290 248 291
f 291 248 233
f 291 233 292
f 292 233 232
f 292 232 293
f 293 232 231
f 293 231 294
f 294 231 230
f 294 230 295
f 295 230 229
f 295 229 296
f 296 229 224
f 296 224 297
f 297 224 223
f 297 223 298
f 298 223 222
f 298 222 299
f 299 222 221
f 299 221 300
f 300 221 247
f 300 247 301
f 301 247 246
f 301 246 278
f 278 246 245
f 302 303 304
f 305 303 302
f 302 306 307
f 308 306 302
f 304 308 302
f 302 309 310
f 311 309 302
f 307 311 302
f 302 312 313
f 314 312 302
f 310 314 302
f 313 305 302
f 303 305 315
f 315 316 303
f 303 316 317
f 303 317 304
f 317 318 304
f 304 318 319
f 304 319 308
f 319 320 308
f 308 320 321
f 308 321 306
f 321 322 306
f 306 322 323
f 306 323 307
f 323 324 307
f 307 324 325
f 307 325 311
f 325 326 311
f 311 326 327
f 311 327 309
f 327 328 309
f 309 328 329
f 309 329 310
f 329 330 310
f 310 330 331
f 310 331 314
f 331 332 314
f 314 332 333
f 314 333 312
f 333 334 312
f 312 334 335
f 312 335 313
f 335 336 313
f 313 336 337
f 313 337 305
f 305 337 338
f 305 338 315
f 315 239 316
f 316 239 228
f 316 228 317
f 317 228 227
f 317 227 318
f 318 227 226
f 318 226 319
f 319 226 220
f 319 220 320
f 320 220 219
f 320 219 321
f 321 219 264
f 321 264 322
f 322 264 263
f 322 263 323
f 323 263 262
f 323 262 324
f 324 262 261
f 324 261 325
f 325 261 260
f 325 260 326
f 326 260 259
f 326 259 327
f 327 259 258
f 327 258 328
f 328 258 257
f 328 257 329
f 329 257 253
f 329 253 330
f 330 253 252
f 330 252 331
f 331 252 256
f 331 256 332
f 332 256 255
f 332 255 333
f 333 255 254
f 333 254 334
f 334 254 238
f 334 238 335
f 335 238 237
f 335 237 336
f 336 237 251
f 336 251 337
f 337 251 241
f 337 241 338
f 338 241 240
f 338 240 315
f 315 240 239
f 339 340 48
f 48 340 42
f 47 206 48
f 48 206 339
f 42 340 40
f 40 340 207
f 206 207 339
f 339 207 340
f 69 72 62
f 62 72 203
f 62 203 63
f 63 203 202
f 63 202 64
f 64 202 200
f 64 200 7
f 7 200 5
f 341 342 343
f 341 343 344
f 344 343 345
f 344 345 346
f 346 345 347
f 346 347 348
f 348 347 349
f 348 349 350
f 350 349 351
f 350 351 352
f 352 351 353
f 352 353 354
f 354 353 355
f 354 355 356
f 356 355 357
f 356 357 358
f 358 357 359
f 358 359 360
f 360 359 361
f 360 361 362
f 362 361 363
f 362 363 364
f 365 364 366
f 366 364 363
f 341 367 342
f 342 367 368
f 369 370 371
f 371 370 372
f 371 372 373
f 373 372 374
f 373 374 375
f 375 374 376
f 375 376 377
f 377 376 378
f 377 378 379
f 379 378 380
f 379 380 381
f 381 380 382
f 381 382 383
f 383 382 384
f 383 384 385
f 385 384 386
f 385 386 387
f 387 386 388
f 387 388 389
f 389 388 390
f 389 390 391
f 391 390 392
f 391 392 393
f 393 392 394
f 393 394 395
f 395 394 396
f 395 396 397
f 397 396 398
f 399 397 398
f 370 369 400
f 400 369 401
f 400 401 402
f 402 401 403
f 402 403 404
f 404 403 405
f 404 405 406
f 406 405 407
f 406 407 408
f 408 407 409
f 408 409 410
f 410 409 411
f 410 411 412
f 412 411 413
f 412 413 414
f 414 413 415
f 414 415 416
f 416 415 417
f 416 417 418
f 418 417 419
f 418 419 420
f 420 419 421
f 420 421 422
f 422 421 423
f 422 423 424
f 424 423 399
f 424 399 425
f 425 399 398
f 426 427 366
f 366 427 428
f 429 430 431
f 428 432 366
f 366 432 433
f 366 433 434
f 435 436 434
f 437 438 439
f 439 438 429
f 368 440 441
f 442 443 444
f 444 443 445
f 445 443 446
f 445 446 447
f 447 446 448
f 448 446 449
f 448 449 450
f 450 449 451
f 451 449 452
f 451 452 453
f 438 366 429
f 429 366 434
f 429 434 430
f 430 434 436
f 431 454 429
f 429 454 455
f 429 455 456
f 456 455 457
f 458 459 457
f 457 459 460
f 457 460 456
f 438 461 462
f 441 463 368
f 368 463 464
f 368 464 342
f 444 465 442
f 442 465 466
f 442 466 467
f 437 468 438
f 438 468 469
f 438 469 461
f 470 471 427
f 427 471 472
f 427 472 428
f 473 474 342
f 342 474 475
f 342 475 343
f 343 475 476
f 426 366 477
f 477 366 363
f 477 363 478
f 479 480 481
f 466 482 467
f 467 482 483
f 467 483 481
f 481 483 484
f 481 484 479
f 453 452 485
f 485 452 486
f 485 486 487
f 488 489 462
f 462 489 490
f 462 490 438
f 464 491 342
f 342 491 492
f 342 492 473
f 473 492 470
f 473 470 493
f 493 470 427
f 479 494 480
f 480 494 495
f 480 495 458
f 458 495 496
f 458 496 459
f 440 368 434
f 434 368 497
f 434 497 435
f 498 349 499
f 499 349 347
f 499 347 476
f 476 347 345
f 476 345 343
f 500 353 498
f 498 353 351
f 498 351 349
f 363 361 478
f 478 361 359
f 478 359 501
f 501 359 357
f 501 357 500
f 500 357 355
f 500 355 353
f 487 486 502
f 502 486 503
f 502 503 368
f 368 503 504
f 368 504 497
f 365 505 506
f 505 507 508
f 508 507 509
f 508 509 510
f 511 341 512
f 512 341 513
f 367 514 515
f 515 514 516
f 418 420 517
f 518 519 516
f 516 519 520
f 516 520 515
f 521 522 505
f 505 522 523
f 505 523 507
f 511 524 341
f 341 524 525
f 341 525 367
f 367 525 526
f 367 526 514
f 527 424 425
f 528 529 518
f 518 529 530
f 518 530 519
f 531 532 528
f 528 532 533
f 528 533 529
f 365 534 505
f 505 534 535
f 505 535 536
f 517 420 537
f 537 420 422
f 537 422 424
f 538 539 531
f 531 539 540
f 531 540 532
f 541 542 543
f 543 542 544
f 543 544 538
f 538 544 545
f 538 545 539
f 536 546 505
f 505 546 547
f 505 547 521
f 418 517 416
f 416 517 513
f 416 513 414
f 414 513 341
f 414 341 412
f 526 548 514
f 514 548 549
f 514 549 550
f 346 406 344
f 344 406 408
f 344 408 341
f 341 408 410
f 341 410 412
f 509 551 510
f 510 551 552
f 510 552 553
f 392 554 394
f 394 554 555
f 394 555 396
f 506 556 365
f 365 556 557
f 365 557 558
f 358 360 380
f 559 560 541
f 541 560 561
f 541 561 542
f 552 562 553
f 553 562 563
f 553 563 564
f 565 566 558
f 558 566 567
f 558 567 365
f 365 567 568
f 365 568 364
f 364 568 569
f 570 571 558
f 558 571 572
f 558 572 565
f 563 573 564
f 564 573 574
f 564 574 575
f 380 360 382
f 382 360 362
f 382 362 384
f 384 362 364
f 384 364 386
f 386 364 569
f 386 569 388
f 380 378 358
f 358 378 376
f 358 376 356
f 356 376 374
f 356 374 354
f 354 374 372
f 354 372 352
f 352 372 370
f 352 370 350
f 350 370 400
f 350 400 348
f 348 400 402
f 348 402 346
f 346 402 404
f 346 404 406
f 574 576 575
f 575 576 577
f 575 577 559
f 559 577 578
f 559 578 560
f 527 425 555
f 555 425 398
f 555 398 396
f 388 569 390
f 390 569 579
f 390 579 392
f 392 579 580
f 392 580 554
f 550 581 514
f 514 581 582
f 514 582 583
f 583 582 584
f 583 584 558
f 558 584 585
f 558 585 570
f 585 586 570
f 570 586 587
f 570 587 571
f 571 587 588
f 571 588 572
f 572 588 589
f 572 589 565
f 565 589 590
f 565 590 566
f 566 590 591
f 566 591 567
f 567 591 592
f 567 592 568
f 568 592 593
f 568 593 569
f 569 593 594
f 569 594 579
f 579 594 595
f 579 595 580
f 580 595 596
f 580 596 554
f 554 596 597
f 554 597 555
f 555 597 598
f 555 598 527
f 527 598 599
f 527 599 424
f 424 599 600
f 424 600 537
f 586 585 601
f 601 585 584
f 601 584 602
f 602 584 582
f 602 582 603
f 603 582 581
f 603 581 604
f 604 581 550
f 604 550 605
f 605 550 549
f 605 549 606
f 606 549 548
f 606 548 607
f 607 548 526
f 607 526 608
f 608 526 525
f 608 525 609
f 609 525 524
f 609 524 610
f 610 524 511
f 610 511 611
f 611 511 512
f 611 512 612
f 612 512 513
f 612 513 613
f 613 513 517
f 613 517 600
f 600 517 537
f 470 599 471
f 471 599 598
f 471 598 472
f 472 598 597
f 597 596 472
f 472 596 595
f 472 595 428
f 428 595 594
f 428 594 432
f 432 594 593
f 593 592 432
f 432 592 591
f 432 591 433
f 588 434 589
f 589 434 433
f 589 433 590
f 590 433 591
f 588 587 434
f 434 587 586
f 434 586 440
f 440 586 601
f 601 602 440
f 440 602 603
f 440 603 441
f 603 604 441
f 441 604 605
f 441 605 463
f 605 606 463
f 463 606 607
f 463 607 464
f 607 608 464
f 464 608 609
f 464 609 491
f 609 610 491
f 491 610 611
f 491 611 492
f 611 612 492
f 492 612 613
f 492 613 470
f 470 613 600
f 470 600 599
f 500 373 501
f 501 373 375
f 375 377 501
f 501 377 379
f 501 379 478
f 478 379 381
f 478 381 477
f 381 383 477
f 477 383 385
f 477 385 426
f 426 385 387
f 393 427 391
f 391 427 426
f 391 426 389
f 389 426 387
f 393 395 427
f 427 395 397
f 427 397 493
f 493 397 399
f 399 423 493
f 493 423 421
f 493 421 473
f 421 419 473
f 473 419 417
f 473 417 474
f 417 415 474
f 474 415 413
f 474 413 475
f 475 413 411
f 475 411 476
f 476 411 409
f 409 407 476
f 476 407 405
f 476 405 499
f 405 403 499
f 499 403 401
f 499 401 498
f 498 401 369
f 498 369 500
f 500 369 371
f 500 371 373
f 502 368 367
f 367 515 502
f 502 515 520
f 502 520 487
f 487 520 519
f 487 519 485
f 485 519 530
f 485 530 453
f 453 530 529
f 453 529 451
f 451 529 533
f 451 533 450
f 450 533 532
f 450 532 448
f 448 532 540
f 448 540 447
f 447 540 539
f 447 539 445
f 445 539 545
f 445 545 444
f 444 545 544
f 444 544 465
f 465 544 542
f 465 542 466
f 466 542 561
f 466 561 482
f 482 561 560
f 482 560 483
f 483 560 578
f 483 578 484
f 484 578 577
f 484 577 479
f 479 577 576
f 479 576 494
f 534 365 366
f 366 438 534
f 534 438 490
f 534 490 535
f 535 490 489
f 535 489 536
f 536 489 488
f 536 488 546
f 546 488 462
f 546 462 547
f 547 462 461
f 547 461 521
f 521 461 469
f 521 469 522
f 522 469 468
f 522 468 523
f 523 468 437
f 523 437 507
f 507 437 439
f 507 439 509
f 509 439 429
f 509 429 551
f 551 429 456
f 551 456 552
f 552 456 460
f 552 460 562
f 562 460 459
f 562 459 563
f 563 459 496
f 563 496 573
f 573 496 495
f 573 495 574
f 574 495 494
f 574 494 576
f 480 575 481
f 481 575 559
f 481 559 467
f 467 559 541
f 467 541 442
f 442 541 543
f 442 543 443
f 443 543 538
f 443 538 446
f 446 538 531
f 446 531 449
f 449 531 528
f 449 528 452
f 452 528 518
f 452 518 486
f 486 518 516
f 486 516 503
f 503 516 514
f 503 514 504
f 504 514 583
f 504 583 497
f 497 583 558
f 497 558 435
f 435 558 557
f 435 557 436
f 436 557 556
f 436 556 430
f 430 556 506
f 430 506 431
f 431 506 505
f 431 505 454
f 454 505 508
f 454 508 455
f 455 508 510
f 455 510 457
f 457 510 553
f 457 553 458
f 458 553 564
f 458 564 480
f 480 564 575
f 614 615 616
f 616 615 617
f 618 619 620
f 620 619 621
f 622 623 624
f 624 623 625
f 626 627 628
f 628 627 629
f 624 625 627
f 627 625 629
f 614 616 618
f 618 616 619
f 630 631 632
f 632 631 633
f 632 633 634
f 634 633 635
f 634 635 636
f 636 635 637
f 638 639 640
f 640 639 641
f 640 641 642
f 642 641 643
f 642 643 644
f 644 643 645
f 645 631 644
f 644 631 630
f 639 638 628
f 628 638 646
f 628 646 626
f 626 646 647
f 615 648 617
f 617 648 649
f 617 649 637
f 637 649 636
f 645 643 625
f 645 625 631
f 631 625 623
f 631 623 633
f 628 629 639
f 639 629 625
f 639 625 641
f 641 625 643
f 619 616 637
f 637 616 617
f 650 651 623
f 623 651 621
f 623 621 633
f 633 621 619
f 633 619 635
f 635 619 637
f 652 653 654
f 655 656 657
f 657 656 652
f 657 652 658
f 658 652 654
f 659 660 661
f 659 661 662
f 663 664 661
f 661 664 665
f 661 665 662
f 661 653 663
f 663 653 652
f 663 652 664
f 664 652 656
f 664 656 665
f 665 656 655
f 665 655 662
f 662 655 657
f 662 657 659
f 659 657 658
f 659 658 660
f 660 658 654
f 666 667 668
f 669 670 671
f 671 670 666
f 671 666 672
f 672 666 668
f 673 674 675
f 676 673 677
f 677 673 675
f 677 675 678
f 678 675 679
f 674 671 675
f 675 671 672
f 675 672 679
f 679 672 668
f 679 668 678
f 678 668 667
f 678 667 677
f 677 667 666
f 677 666 676
f 676 666 670
f 676 670 673
f 673 670 669
f 680 681 682
f 682 681 683
f 682 683 684
f 684 683 685
f 684 685 686
f 686 685 687
f 686 687 688
f 688 687 689
f 688 689 690
f 690 689 691
f 692 693 694
f 694 693 695
f 694 695 696
f 696 695 697
f 696 697 698
f 698 697 699
f 698 699 700
f 700 699 701
f 700 701 702
f 702 701 703
f 704 705 706
f 706 705 707
f 706 707 708
f 708 707 709
f 708 709 710
f 710 709 711
f 710 711 712
f 712 711 713
f 712 713 714
f 714 713 715
f 716 717 718
f 718 717 719
f 718 719 720
f 720 719 721
f 720 721 722
f 722 721 723
f 722 723 724
f 724 723 725
f 724 725 726
f 726 725 727
f 706 708 624
f 714 728 712
f 712 728 622
f 626 647 680
f 624 708 622
f 622 708 710
f 622 710 712
f 680 682 626
f 626 682 684
f 626 684 627
f 627 684 686
f 686 688 627
f 627 688 690
f 627 690 624
f 624 690 704
f 624 704 706
f 719 717 703
f 638 640 689
f 689 687 638
f 638 687 685
f 638 685 646
f 646 685 683
f 646 683 681
f 723 636 725
f 725 636 649
f 725 649 727
f 723 721 636
f 636 721 719
f 636 719 634
f 634 719 703
f 699 713 701
f 701 713 630
f 701 630 703
f 703 630 632
f 703 632 634
f 693 715 695
f 695 715 713
f 695 713 697
f 697 713 699
f 713 711 630
f 630 711 709
f 630 709 644
f 644 709 707
f 644 707 642
f 642 707 705
f 642 705 640
f 640 705 691
f 640 691 689
f 728 714 650
f 650 714 715
f 650 715 651
f 651 715 693
f 651 693 729
f 729 693 692
f 646 681 647
f 647 681 680
f 653 705 654
f 654 705 704
f 654 704 660
f 660 704 690
f 660 690 661
f 661 690 691
f 661 691 653
f 653 691 705
f 674 716 671
f 671 716 702
f 671 702 669
f 669 702 703
f 669 703 673
f 673 703 717
f 673 717 674
f 674 717 716
f 716 614 702
f 702 614 618
f 702 618 700
f 620 729 692
f 716 718 614
f 614 718 720
f 614 720 615
f 692 694 620
f 620 694 696
f 620 696 618
f 618 696 698
f 618 698 700
f 726 648 724
f 724 648 615
f 724 615 722
f 722 615 720
f 648 726 649
f 649 726 727
f 621 651 620
f 620 651 729
f 622 728 623
f 623 728 650
f 730 731 732
f 732 731 733
f 732 733 734
f 734 733 735
f 734 735 736
f 736 735 737
f 736 737 738
f 738 737 739
f 738 739 740
f 740 739 741
f 742 743 744
f 744 743 745
f 744 745 746
f 746 745 747
f 746 747 748
f 748 747 749
f 748 749 750
f 750 749 751
f 750 751 752
f 752 751 753
f 754 755 756
f 756 755 757
f 756 757 758
f 758 757 759
f 758 759 760
f 760 759 761
f 760 761 762
f 762 761 763
f 762 763 764
f 764 763 765
f 766 767 768
f 768 767 769
f 768 769 770
f 770 769 771
f 770 771 772
f 772 771 773
f 772 773 774
f 774 773 775
f 774 775 776
f 776 775 777
f 765 767 764
f 764 767 766
f 742 776 743
f 743 776 777
f 754 740 755
f 755 740 741
f 778 779 780
f 780 779 781
f 781 779 782
f 782 779 783
f 779 778 783
f 783 778 784
f 778 780 784
f 784 780 785
f 780 781 785
f 785 781 782
f 786 787 788
f 788 787 789
f 786 788 790
f 790 788 791
f 787 786 792
f 792 786 790
f 789 787 793
f 793 787 792
f 788 789 791
f 791 789 793
f 762 764 766
f 746 748 774
f 748 750 774
f 774 750 752
f 774 752 772
f 772 752 730
f 776 742 774
f 774 742 744
f 774 744 746
f 766 768 736
f 736 768 770
f 736 770 734
f 734 770 772
f 734 772 732
f 732 772 730
f 740 754 738
f 738 754 756
f 738 756 736
f 736 756 758
f 736 758 766
f 766 758 760
f 766 760 762
f 794 795 796
f 796 795 797
f 797 795 798
f 798 795 799
f 795 794 799
f 799 794 800
f 794 796 800
f 800 796 801
f 798 731 730
f 752 753 801
f 752 801 730
f 730 801 798
f 798 801 790
f 798 790 797
f 797 790 791
f 797 791 796
f 796 791 793
f 796 793 801
f 801 793 792
f 801 792 790
f 741 739 799
f 800 785 799
f 799 785 782
f 749 747 800
f 739 737 799
f 799 737 735
f 799 735 798
f 798 735 733
f 798 733 731
f 783 784 767
f 749 800 751
f 751 800 801
f 751 801 753
f 767 765 783
f 783 765 763
f 783 763 782
f 782 763 761
f 761 759 782
f 782 759 757
f 782 757 799
f 799 757 755
f 799 755 741
f 747 745 800
f 800 745 743
f 800 743 785
f 785 743 777
f 785 777 775
f 775 773 785
f 785 773 771
f 785 771 784
f 784 771 769
f 784 769 767
f 802 803 804
f 804 803 805
f 806 807 808
f 808 807 809
f 810 811 812
f 812 811 813
f 814 815 816
f 816 815 817
f 818 819 820
f 818 820 821
f 821 820 822
f 821 822 823
f 823 822 824
f 823 824 825
f 819 818 826
f 819 826 827
f 827 826 828
f 827 828 829
f 829 828 830
f 829 830 831
f 822 820 824
f 824 820 819
f 819 827 824
f 824 827 829
f 824 829 831
f 828 826 818
f 830 828 825
f 825 828 818
f 825 818 823
f 823 818 821
f 832 833 834
f 832 834 835
f 835 834 836
f 835 836 837
f 837 836 838
f 837 838 839
f 833 832 840
f 833 840 841
f 841 840 842
f 841 842 843
f 843 842 844
f 843 844 845
f 835 837 839
f 840 832 842
f 842 832 835
f 842 835 844
f 844 835 839
f 834 833 841
f 838 836 845
f 845 836 834
f 845 834 843
f 843 834 841
f 846 847 848
f 848 847 849
f 847 850 849
f 849 850 851
f 850 852 851
f 851 852 853
f 854 855 856
f 856 855 857
f 858 859 860
f 860 859 861
f 862 863 864
f 864 863 865
f 866 867 868
f 868 867 869
f 817 815 812
f 812 815 810
f 805 803 816
f 816 803 814
f 809 807 804
f 804 807 802
f 813 811 808
f 808 811 806
f 870 803 871
f 871 803 802
f 871 802 872
f 873 807 874
f 874 807 806
f 874 806 875
f 873 876 807
f 807 876 877
f 807 877 802
f 802 877 878
f 802 878 872
f 879 811 880
f 880 811 810
f 880 810 881
f 879 882 811
f 811 882 883
f 811 883 806
f 806 883 884
f 806 884 875
f 870 885 803
f 803 885 886
f 803 886 814
f 814 886 887
f 887 888 814
f 814 888 889
f 814 889 815
f 815 889 890
f 890 891 815
f 815 891 892
f 815 892 810
f 810 892 893
f 810 893 881
f 894 886 885
f 894 885 895
f 895 885 870
f 895 870 896
f 896 870 871
f 896 871 897
f 897 871 872
f 897 872 898
f 898 872 878
f 898 878 899
f 900 877 876
f 900 876 901
f 901 876 873
f 901 873 902
f 902 873 874
f 902 874 903
f 903 874 875
f 903 875 904
f 904 875 884
f 904 884 905
f 906 883 882
f 906 882 907
f 907 882 879
f 907 879 908
f 908 879 880
f 908 880 909
f 909 880 881
f 909 881 910
f 910 881 893
f 910 893 911
f 912 892 891
f 912 891 913
f 913 891 890
f 913 890 914
f 914 890 889
f 914 889 915
f 915 889 888
f 915 888 916
f 916 888 887
f 916 887 917
f 824 878 825
f 825 878 877
f 825 877 830
f 830 877 900
f 830 900 831
f 831 900 899
f 831 899 824
f 824 899 878
f 906 905 883
f 883 905 884
f 853 917 851
f 851 917 887
f 851 887 849
f 849 887 886
f 849 886 848
f 848 886 894
f 867 846 848
f 848 894 867
f 867 894 895
f 867 895 896
f 896 897 867
f 867 897 898
f 867 898 869
f 869 898 899
f 869 899 863
f 899 900 863
f 863 900 901
f 863 901 902
f 902 903 863
f 863 903 904
f 863 904 865
f 865 904 905
f 865 905 859
f 905 906 859
f 859 906 907
f 859 907 908
f 855 913 914
f 908 909 859
f 859 909 910
f 859 910 861
f 861 910 911
f 861 911 855
f 855 911 912
f 855 912 913
f 853 852 917
f 917 852 857
f 917 857 916
f 916 857 855
f 916 855 915
f 915 855 914
f 860 861 854
f 854 861 855
f 864 865 858
f 858 865 859
f 868 869 862
f 862 869 863
f 846 867 847
f 847 867 866
f 847 866 850
f 850 866 856
f 850 856 852
f 852 856 857
f 839 892 844
f 844 892 912
f 844 912 845
f 845 912 911
f 845 911 838
f 838 911 893
f 838 893 839
f 839 893 892
f 817 854 816
f 816 854 856
f 816 856 805
f 805 856 866
f 805 866 804
f 804 866 868
f 804 868 809
f 809 868 862
f 809 862 808
f 808 862 864
f 808 864 813
f 813 864 858
f 813 858 812
f 812 858 860
f 812 860 817
f 817 860 854
f 918 919 920
f 920 919 921
f 922 923 924
f 924 923 925
f 926 927 928
f 928 927 929
f 930 931 932
f 932 931 933
f 929 927 931
f 931 927 925
f 931 925 933
f 933 925 923
f 933 923 919
f 919 923 921
f 928 929 930
f 930 929 931
f 932 933 918
f 918 933 919
f 920 921 922
f 922 921 923
f 924 925 926
f 926 925 927
f 928 930 932
f 924 926 922
f 922 926 928
f 922 928 920
f 920 928 932
f 920 932 918

