# https://github.com/mikedh/trimesh

o left_hand_index_DIP_link.STL
v 0.00225000 -0.00762500 0.01450000
v 0.00225000 -0.00642504 0.01450000
v 0.00218367 -0.00642504 0.01504229
v 0.00218367 -0.00762500 0.01504229
v 0.00190821 -0.00642504 0.01569217
v 0.00190821 -0.00762500 0.01569217
v 0.00144495 -0.00642504 0.01622471
v 0.00144495 -0.00762500 0.01622471
v 0.00083949 -0.00642504 0.01658753
v 0.00083949 -0.00762500 0.01658753
v 0.00031161 -0.00642504 0.01672832
v 0.00031161 -0.00762500 0.01672832
v -0.00020004 -0.00642504 0.01674109
v -0.00020004 -0.00762500 0.01674109
v -0.00088132 -0.00642504 0.01657021
v -0.00088132 -0.00762500 0.01657021
v -0.00147671 -0.00642504 0.01619759
v -0.00147671 -0.00762500 0.01619759
v -0.00192820 -0.00642504 0.01565954
v -0.00192820 -0.00762500 0.01565954
v -0.00219179 -0.00642504 0.01500849
v -0.00219179 -0.00762500 0.01500849
v -0.00225000 -0.00642504 0.01450000
v -0.00225000 -0.00762500 0.01450000
v -0.00225001 -0.00762500 0.00767712
v -0.00225000 -0.00642504 0.00767712
v 0.00225000 -0.00762500 0.00767713
v 0.00225000 -0.00642504 0.00767713
v 0.00015234 -0.00672497 0.01558940
v 0.00027698 -0.00762500 0.01648073
v -0.00011279 -0.00672497 0.01559420
v -0.00020508 -0.00762500 0.01648946
v -0.00037138 -0.00672497 0.01553541
v -0.00067523 -0.00762500 0.01638257
v -0.00060837 -0.00672497 0.01541645
v -0.00110614 -0.00762500 0.01616627
v -0.00081002 -0.00672497 0.01524422
v -0.00147276 -0.00762500 0.01585313
v -0.00096458 -0.00672497 0.01502874
v -0.00175379 -0.00762500 0.01546136
v -0.00106309 -0.00672497 0.01478254
v -0.00193290 -0.00762500 0.01501371
v -0.00109982 -0.00672497 0.01451992
v -0.00199967 -0.00762500 0.01453621
v -0.00107262 -0.00672497 0.01425613
v -0.00195023 -0.00762500 0.01405661
v -0.00098309 -0.00672497 0.01400652
v -0.00178745 -0.00762500 0.01360277
v -0.00083643 -0.00672497 0.01378559
v -0.00152078 -0.00762500 0.01320108
v -0.00064116 -0.00672497 0.01360618
v -0.00116574 -0.00762500 0.01287487
v -0.00040862 -0.00672497 0.01347871
v -0.00074295 -0.00762500 0.01264311
v -0.00019826 -0.00672497 0.01341802
v -0.00036047 -0.00762500 0.01253275
v -0.00015234 -0.00672497 0.01341060
v -0.00027698 -0.00762500 0.01251927
v -0.00010614 -0.00672497 0.01340513
v 0.00074296 -0.00762500 0.01635689
v 0.00040863 -0.00672497 0.01552129
v 0.00116575 -0.00762500 0.01612513
v 0.00064116 -0.00672497 0.01539382
v 0.00152079 -0.00762500 0.01579892
v 0.00083644 -0.00672497 0.01521441
v 0.00178745 -0.00762500 0.01539723
v 0.00098310 -0.00672497 0.01499348
v 0.00195023 -0.00762500 0.01494339
v 0.00107263 -0.00672497 0.01474387
v 0.00199968 -0.00762500 0.01446379
v 0.00109982 -0.00672497 0.01448008
v 0.00193290 -0.00762500 0.01398629
v 0.00106310 -0.00672497 0.01421746
v 0.00175380 -0.00762500 0.01353864
v 0.00096459 -0.00672497 0.01397125
v 0.00147277 -0.00762500 0.01314687
v 0.00081002 -0.00672497 0.01375578
v 0.00110615 -0.00762500 0.01283373
v 0.00060838 -0.00672497 0.01358355
v 0.00067524 -0.00762500 0.01261743
v 0.00037138 -0.00672497 0.01346459
v 0.00020509 -0.00762500 0.01251054
v 0.00011280 -0.00672497 0.01340580
v 0.00000000 -0.00762500 0.01250000
v -0.00019299 -0.00762500 0.01250933
v -0.00083643 -0.00642504 0.01378559
v -0.00040862 -0.00642504 0.01347871
v -0.00106309 -0.00642504 0.01078254
v -0.00652892 -0.00642504 -0.00462312
v -0.00189326 -0.00642504 0.00064464
v -0.00199969 -0.00642504 -0.00003479
v -0.00107262 -0.00642504 0.01025613
v -0.00083643 -0.00642504 0.00978559
v -0.00040862 -0.00642504 0.00947871
v -0.00104787 -0.00642504 0.00170351
v -0.00156297 -0.00642504 0.00124785
v -0.00776260 -0.00642504 -0.00193443
v -0.00257235 -0.00642504 0.00757516
v -0.00727111 -0.00642504 -0.00333629
v 0.00011280 -0.00642504 0.00940580
v 0.00060838 -0.00642504 0.00958355
v 0.00156297 -0.00642504 -0.00124785
v 0.00189327 -0.00642504 -0.00064464
v 0.00733885 -0.00642504 -0.00318455
v 0.00779710 -0.00642504 -0.00179034
v 0.00199970 -0.00642504 0.00003479
v 0.00799295 -0.00642504 -0.00033588
v 0.00791981 -0.00642504 0.00112988
v 0.00186970 -0.00642504 0.00071011
v 0.00758015 -0.00642504 0.00255762
v 0.00698538 -0.00642504 0.00389929
v 0.00151862 -0.00642504 0.00130146
v 0.00615554 -0.00642504 0.00510973
v -0.00186969 -0.00642504 -0.00071011
v -0.00151861 -0.00642504 -0.00130146
v -0.00556160 -0.00642504 -0.00575053
v -0.00098798 -0.00642504 -0.00173893
v -0.00034053 -0.00642504 -0.00197080
v -0.00309162 -0.00642504 -0.00737847
v -0.00440251 -0.00642504 -0.00667966
v -0.00760971 -0.00642504 0.00246825
v -0.00702217 -0.00642504 0.00383264
v 0.00096459 -0.00642504 0.00997125
v 0.00109982 -0.00642504 0.01048008
v 0.00663363 -0.00642504 -0.00447159
v 0.00570516 -0.00642504 -0.00560814
v 0.00104788 -0.00642504 -0.00170351
v -0.00798642 -0.00642504 -0.00046587
v -0.00793487 -0.00642504 0.00101875
v 0.00015234 -0.00642504 0.01158940
v -0.00037138 -0.00642504 0.01153541
v -0.00081002 -0.00642504 0.01124422
v 0.00060838 -0.00642504 0.01358355
v 0.00096459 -0.00642504 0.01397125
v 0.00109982 -0.00642504 0.01448008
v 0.00098310 -0.00642504 0.01499348
v -0.00107262 -0.00642504 0.01425613
v -0.00106309 -0.00642504 0.01478254
v 0.00047290 -0.00642504 -0.00798601
v 0.00003479 -0.00642504 -0.00199970
v 0.00040888 -0.00642504 -0.00195776
v 0.00458469 -0.00642504 -0.00655596
v 0.00330994 -0.00642504 -0.00728315
v 0.00192379 -0.00642504 -0.00776525
v 0.00511854 -0.00642504 0.00614821
v 0.00098799 -0.00642504 0.00173893
v 0.00390929 -0.00642504 0.00697979
v -0.00619249 -0.00642504 0.00506488
v -0.00514930 -0.00642504 0.00612247
v -0.00392855 -0.00642504 0.00696896
v 0.00098310 -0.00642504 0.01099348
v 0.00064116 -0.00642504 0.01139382
v 0.00011280 -0.00642504 0.01340580
v 0.00013916 -0.00642504 -0.00799879
v -0.00019892 -0.00642504 -0.00799753
v -0.00167413 -0.00642504 -0.00782287
v -0.00040888 -0.00642504 0.00195776
v 0.00015234 -0.00642504 0.01558940
v 0.00064116 -0.00642504 0.01539382
v -0.00037138 -0.00642504 0.01553541
v -0.00081002 -0.00642504 0.01524422
v 0.00256848 -0.00642504 0.00757647
v 0.00034054 -0.00642504 0.00197080
v -0.00003479 -0.00642504 0.00199970
v -0.00199969 -0.00762500 -0.00003479
v -0.00189326 -0.00762500 0.00064464
v -0.00776260 -0.00762500 -0.00193443
v -0.00186969 -0.00762500 -0.00071011
v -0.00727111 -0.00762500 -0.00333629
v -0.00151861 -0.00762500 -0.00130146
v 0.00178745 -0.00762500 0.01139723
v 0.00152079 -0.00762500 0.01179892
v 0.00116575 -0.00762500 0.01212513
v 0.00034054 -0.00762500 0.00197080
v 0.00256848 -0.00762500 0.00757647
v 0.00098799 -0.00762500 0.00173893
v 0.00074296 -0.00762500 0.01235689
v 0.00151862 -0.00762500 0.00130146
v 0.00511854 -0.00762500 0.00614821
v 0.00390929 -0.00762500 0.00697979
v -0.00760971 -0.00762500 0.00246825
v -0.00793487 -0.00762500 0.00101875
v -0.00798642 -0.00762500 -0.00046587
v 0.00195023 -0.00762500 0.01094339
v 0.00199968 -0.00762500 0.01046379
v 0.00193290 -0.00762500 0.00998629
v -0.00020508 -0.00762500 0.01248946
v 0.00186970 -0.00762500 0.00071011
v 0.00698538 -0.00762500 0.00389929
v 0.00615554 -0.00762500 0.00510973
v 0.00199970 -0.00762500 0.00003479
v 0.00791981 -0.00762500 0.00112988
v 0.00758015 -0.00762500 0.00255762
v -0.00257235 -0.00762500 0.00757516
v -0.00392855 -0.00762500 0.00696896
v -0.00514930 -0.00762500 0.00612247
v 0.00027698 -0.00762500 0.01248073
v 0.00189327 -0.00762500 -0.00064464
v 0.00779710 -0.00762500 -0.00179034
v 0.00799295 -0.00762500 -0.00033588
v 0.00104788 -0.00762500 -0.00170351
v 0.00570516 -0.00762500 -0.00560814
v 0.00156297 -0.00762500 -0.00124785
v 0.00663363 -0.00762500 -0.00447159
v 0.00733885 -0.00762500 -0.00318455
v -0.00619249 -0.00762500 0.00506488
v -0.00702217 -0.00762500 0.00383264
v 0.00175380 -0.00762500 0.00953864
v 0.00147277 -0.00762500 0.00914687
v 0.00110615 -0.00762500 0.00883373
v -0.00652892 -0.00762500 -0.00462312
v -0.00556160 -0.00762500 -0.00575053
v -0.00098798 -0.00762500 -0.00173893
v -0.00110614 -0.00762500 0.01216627
v -0.00067523 -0.00762500 0.01238257
v -0.00156297 -0.00762500 0.00124785
v -0.00104787 -0.00762500 0.00170351
v -0.00040888 -0.00762500 0.00195776
v 0.00040888 -0.00762500 -0.00195776
v 0.00330994 -0.00762500 -0.00728315
v 0.00458469 -0.00762500 -0.00655596
v -0.00440251 -0.00762500 -0.00667966
v -0.00309162 -0.00762500 -0.00737847
v -0.00034053 -0.00762500 -0.00197080
v -0.00152078 -0.00762500 0.00920108
v -0.00178745 -0.00762500 0.00960277
v -0.00195023 -0.00762500 0.01005661
v -0.00199967 -0.00762500 0.01053621
v -0.00193290 -0.00762500 0.01101371
v -0.00036047 -0.00762500 0.00853275
v -0.00074295 -0.00762500 0.00864311
v -0.00116574 -0.00762500 0.00887487
v -0.00167413 -0.00762500 -0.00782287
v -0.00019892 -0.00762500 -0.00799753
v 0.00003479 -0.00762500 -0.00199970
v 0.00013916 -0.00762500 -0.00799879
v 0.00047290 -0.00762500 -0.00798601
v 0.00192379 -0.00762500 -0.00776525
v -0.00175379 -0.00762500 0.01146136
v -0.00147276 -0.00762500 0.01185313
v 0.00067524 -0.00762500 0.00861743
v 0.00020509 -0.00762500 0.00851054
v -0.00003479 -0.00762500 0.00199970
v -0.00019299 -0.00762500 0.00850933
v -0.00027698 -0.00762500 0.00851927
v -0.00015234 -0.00672497 0.00941060
v -0.00019826 -0.00672497 0.00941801
v -0.00040862 -0.00672497 0.00947871
v -0.00064116 -0.00672497 0.00960618
v -0.00083643 -0.00672497 0.00978559
v -0.00098309 -0.00672497 0.01000652
v -0.00107262 -0.00672497 0.01025613
v -0.00109982 -0.00672497 0.01051992
v -0.00106309 -0.00672497 0.01078254
v -0.00096458 -0.00672497 0.01102875
v -0.00081002 -0.00672497 0.01124422
v -0.00060837 -0.00672497 0.01141645
v -0.00037138 -0.00672497 0.01153541
v -0.00011279 -0.00672497 0.01159420
v 0.00015234 -0.00672497 0.01158940
v -0.00010614 -0.00672497 0.00940513
v 0.00011280 -0.00672497 0.00940580
v 0.00037138 -0.00672497 0.00946459
v 0.00060838 -0.00672497 0.00958355
v 0.00081002 -0.00672497 0.00975578
v 0.00096459 -0.00672497 0.00997125
v 0.00106310 -0.00672497 0.01021746
v 0.00109982 -0.00672497 0.01048008
v 0.00107263 -0.00672497 0.01074387
v 0.00098310 -0.00672497 0.01099348
v 0.00083644 -0.00672497 0.01121441
v 0.00064116 -0.00672497 0.01139382
v 0.00040863 -0.00672497 0.01152129
v 0.00860000 -0.00334870 0.01355000
v 0.00860000 -0.00279870 0.01293125
v 0.00760000 -0.00334870 0.01355000
v 0.00760000 -0.00279870 0.01293125
v 0.00860000 -0.00334870 0.01955000
v 0.00760000 -0.00334870 0.01955000
v 0.00860000 -0.00294870 0.01995000
v 0.00760000 -0.00294870 0.01995000
v 0.00860000 0.00305130 0.01995000
v 0.00760000 0.00305130 0.01995000
v 0.00860000 0.00345130 0.01955000
v 0.00760000 0.00345130 0.01955000
v 0.00860000 0.00290130 0.01293125
v 0.00860000 0.00345130 0.01355000
v 0.00760000 0.00290130 0.01293125
v 0.00760000 0.00345130 0.01355000
v 0.00690000 -0.00259870 0.01530000
v 0.00760000 -0.00259870 0.01530000
v 0.00690000 -0.00269870 0.01527320
v 0.00760000 -0.00269870 0.01527320
v 0.00690000 -0.00277191 0.01520000
v 0.00760000 -0.00277191 0.01520000
v 0.00690000 -0.00279870 0.01510000
v 0.00760000 -0.00279870 0.01510000
v 0.00690000 0.00290130 0.01510000
v 0.00760000 0.00290130 0.01510000
v 0.00690000 0.00287450 0.01520000
v 0.00760000 0.00287450 0.01520000
v 0.00690000 0.00280130 0.01527320
v 0.00760000 0.00280130 0.01527320
v 0.00690000 0.00270130 0.01530000
v 0.00760000 0.00270130 0.01530000
v 0.00690000 0.00290130 0.01230000
v 0.00860000 0.00290130 0.01230000
v 0.00860000 -0.00279870 0.01230000
v 0.00690000 -0.00279870 0.01230000
v 0.00760000 0.00305130 0.02080000
v 0.00760000 -0.00294870 0.02080000
v 0.00741359 0.00410130 0.01905000
v 0.00736000 0.00430130 0.01905000
v 0.00816000 0.00430130 0.01905000
v 0.00776000 0.00390130 0.01905000
v 0.00756000 0.00395489 0.01905000
v 0.00796000 0.00395489 0.01905000
v 0.00810641 0.00410130 0.01905000
v 0.00810641 0.00410130 0.01405000
v 0.00816000 0.00430130 0.01405000
v 0.00736000 0.00430130 0.01405000
v 0.00796000 0.00395489 0.01405000
v 0.00741359 0.00410130 0.01405000
v 0.00756000 0.00395489 0.01405000
v 0.00776000 0.00390130 0.01405000
v 0.00756000 -0.00385229 0.01905000
v 0.00776000 -0.00379870 0.01905000
v 0.00796000 -0.00385229 0.01905000
v 0.00736000 -0.00419870 0.01905000
v 0.00741359 -0.00399870 0.01905000
v 0.00816000 -0.00419870 0.01905000
v 0.00810641 -0.00399870 0.01905000
v 0.00736000 -0.00419870 0.01405000
v 0.00816000 -0.00419870 0.01405000
v 0.00810641 -0.00399870 0.01405000
v 0.00741359 -0.00399870 0.01405000
v 0.00756000 -0.00385229 0.01405000
v 0.00776000 -0.00379870 0.01405000
v 0.00796000 -0.00385229 0.01405000
v 0.00860000 0.00335130 0.01230000
v 0.00690000 0.00335130 0.01230000
v 0.00860000 0.00339779 0.01259356
v 0.00690000 0.00339779 0.01259356
v 0.00860000 0.00353273 0.01285839
v 0.00690000 0.00353273 0.01285839
v 0.00860000 0.00374290 0.01306856
v 0.00690000 0.00374290 0.01306856
v 0.00860000 0.00400773 0.01320350
v 0.00690000 0.00400773 0.01320350
v 0.00860000 0.00430130 0.01325000
v 0.00690000 0.00430130 0.01325000
v 0.00860000 -0.00324870 0.02080000
v 0.00690000 -0.00324870 0.02080000
v 0.00860000 -0.00329520 0.02050643
v 0.00690000 -0.00329520 0.02050643
v 0.00860000 -0.00343014 0.02024160
v 0.00690000 -0.00343014 0.02024160
v 0.00860000 -0.00364031 0.02003143
v 0.00690000 -0.00364031 0.02003143
v 0.00860000 -0.00390514 0.01989649
v 0.00690000 -0.00390514 0.01989649
v 0.00860000 -0.00419870 0.01985000
v 0.00690000 -0.00419870 0.01985000
v 0.00860000 0.00430130 0.01985000
v 0.00690000 0.00430130 0.01985000
v 0.00860000 0.00400773 0.01989649
v 0.00690000 0.00400773 0.01989649
v 0.00860000 0.00374290 0.02003143
v 0.00690000 0.00374290 0.02003143
v 0.00860000 0.00353273 0.02024160
v 0.00690000 0.00353273 0.02024160
v 0.00860000 0.00339779 0.02050643
v 0.00690000 0.00339779 0.02050643
v 0.00860000 0.00335130 0.02080000
v 0.00690000 0.00335130 0.02080000
v 0.00860000 -0.00419870 0.01325000
v 0.00690000 -0.00419870 0.01325000
v 0.00860000 -0.00390514 0.01320350
v 0.00690000 -0.00390514 0.01320350
v 0.00860000 -0.00364031 0.01306856
v 0.00690000 -0.00364031 0.01306856
v 0.00860000 -0.00343014 0.01285839
v 0.00690000 -0.00343014 0.01285839
v 0.00860000 -0.00329520 0.01259356
v 0.00690000 -0.00329520 0.01259356
v 0.00860000 -0.00324870 0.01230000
v 0.00690000 -0.00324870 0.01230000
v 0.00860000 0.00305130 0.02080000
v 0.00860000 -0.00294870 0.02080000
v 0.00950000 0.00330130 0.01230000
v 0.00870000 0.00330130 0.01230000
v 0.00950000 0.00335024 0.01260902
v 0.00870000 0.00335024 0.01260902
v 0.00950000 0.00349228 0.01288778
v 0.00870000 0.00349228 0.01288778
v 0.00950000 0.00371351 0.01310902
v 0.00870000 0.00371351 0.01310902
v 0.00950000 0.00399228 0.01325106
v 0.00870000 0.00399228 0.01325106
v 0.00950000 0.00430130 0.01330000
v 0.00870000 0.00430130 0.01330000
v 0.00950000 -0.00419870 0.01330000
v 0.00870000 -0.00419870 0.01330000
v 0.00950000 -0.00388969 0.01325106
v 0.00870000 -0.00388969 0.01325106
v 0.00950000 -0.00361092 0.01310902
v 0.00870000 -0.00361092 0.01310902
v 0.00950000 -0.00338969 0.01288778
v 0.00870000 -0.00338969 0.01288778
v 0.00950000 -0.00324765 0.01260902
v 0.00870000 -0.00324765 0.01260902
v 0.00950000 -0.00319870 0.01230000
v 0.00870000 -0.00319870 0.01230000
v 0.00950000 0.00430130 0.01980000
v 0.00870000 0.00430130 0.01980000
v 0.00950000 0.00399228 0.01984894
v 0.00870000 0.00399228 0.01984894
v 0.00950000 0.00371351 0.01999098
v 0.00870000 0.00371351 0.01999098
v 0.00950000 0.00349228 0.02021221
v 0.00870000 0.00349228 0.02021221
v 0.00950000 0.00335024 0.02049098
v 0.00870000 0.00335024 0.02049098
v 0.00950000 0.00330130 0.02080000
v 0.00870000 0.00330130 0.02080000
v 0.00950000 -0.00319870 0.02080000
v 0.00870000 -0.00319870 0.02080000
v 0.00950000 -0.00324765 0.02049098
v 0.00870000 -0.00324765 0.02049098
v 0.00950000 -0.00338969 0.02021221
v 0.00870000 -0.00338969 0.02021221
v 0.00950000 -0.00361092 0.01999098
v 0.00870000 -0.00361092 0.01999098
v 0.00950000 -0.00388969 0.01984894
v 0.00870000 -0.00388969 0.01984894
v 0.00950000 -0.00419870 0.01980000
v 0.00870000 -0.00419870 0.01980000
v 0.00777000 -0.00244870 0.02050000
v 0.00777000 0.00255130 0.02050000
v 0.00777000 -0.00244870 0.01550000
v 0.00777000 0.00255130 0.01550000
v 0.00870000 0.00255130 0.01550000
v 0.00870000 0.00255130 0.02050000
v 0.00870000 -0.00244870 0.02050000
v 0.00870000 -0.00244870 0.01550000
v 0.00836115 0.00250130 0.01330000
v 0.00836115 -0.00239870 0.01330000
v 0.00725000 0.00250130 0.01330000
v 0.00725000 -0.00239870 0.01330000
v 0.00836115 0.00250130 0.01230000
v 0.00725000 0.00250130 0.01230000
v 0.00836115 -0.00239870 0.01230000
v 0.00725000 -0.00239870 0.01230000
v 0.00695000 -0.00269870 0.01500000
v 0.00695000 0.00280130 0.01500000
v 0.00695000 -0.00269870 0.01230000
v 0.00695000 0.00280130 0.01230000
v 0.00870000 0.00280130 0.01230000
v 0.00870000 0.00280130 0.01500000
v 0.00870000 -0.00269870 0.01500000
v 0.00870000 -0.00269870 0.01230000
v 0.00950000 0.00355130 0.01343700
v 0.00950000 0.00316429 0.01305000
v 0.00990000 0.00355130 0.01343700
v 0.00990000 0.00316429 0.01305000
v 0.00950000 0.00316429 0.02005000
v 0.00950000 0.00355130 0.01966299
v 0.00990000 0.00316429 0.02005000
v 0.00990000 0.00355130 0.01966299
v 0.00950000 -0.00344870 0.01966299
v 0.00950000 -0.00306170 0.02005000
v 0.00990000 -0.00344870 0.01966299
v 0.00990000 -0.00306170 0.02005000
v 0.00950000 -0.00306170 0.01305000
v 0.00950000 -0.00344870 0.01343700
v 0.00990000 -0.00306170 0.01305000
v 0.00990000 -0.00344870 0.01343700
v 0.00775000 0.00400130 0.01855000
v 0.00775000 0.00400130 0.01455000
v 0.00792500 0.00404819 0.01455000
v 0.00792500 0.00404819 0.01855000
v 0.00805311 0.00417630 0.01455000
v 0.00805311 0.00417630 0.01855000
v 0.00810000 0.00435130 0.01455000
v 0.00810000 0.00435130 0.01855000
v 0.00757500 0.00404819 0.01855000
v 0.00757500 0.00404819 0.01455000
v 0.00744689 0.00417630 0.01855000
v 0.00744689 0.00417630 0.01455000
v 0.00740000 0.00435130 0.01855000
v 0.00740000 0.00435130 0.01455000
v 0.00775000 -0.00389870 0.01455000
v 0.00775000 -0.00389870 0.01855000
v 0.00792500 -0.00394559 0.01855000
v 0.00792500 -0.00394559 0.01455000
v 0.00805311 -0.00407370 0.01855000
v 0.00805311 -0.00407370 0.01455000
v 0.00810000 -0.00424870 0.01855000
v 0.00810000 -0.00424870 0.01455000
v 0.00757500 -0.00394559 0.01455000
v 0.00757500 -0.00394559 0.01855000
v 0.00744689 -0.00407370 0.01455000
v 0.00744689 -0.00407370 0.01855000
v 0.00740000 -0.00424870 0.01455000
v 0.00740000 -0.00424870 0.01855000
v 0.00690000 0.00290130 0.01155000
v 0.00890000 0.00290130 0.01155000
v 0.00690000 0.00290130 0.01225000
v 0.00890000 0.00290130 0.01225000
v 0.00890000 -0.00279870 0.01155000
v 0.00890000 -0.00279870 0.01225000
v 0.00690000 -0.00279870 0.01155000
v 0.00690000 -0.00279870 0.01225000
v 0.00990000 -0.00494870 0.01281568
v 0.00690000 -0.00494870 0.01281568
v 0.00990000 -0.00368302 0.01155000
v 0.00690000 -0.00368302 0.01155000
v 0.00990000 -0.00368302 0.02155000
v 0.00690000 -0.00368302 0.02155000
v 0.00990000 -0.00494870 0.02028431
v 0.00690000 -0.00494870 0.02028431
v 0.00990000 0.00505130 0.02028431
v 0.00690000 0.00505130 0.02028431
v 0.00990000 0.00378561 0.02155000
v 0.00690000 0.00378561 0.02155000
v 0.00990000 0.00378561 0.01155000
v 0.00690000 0.00378561 0.01155000
v 0.00990000 0.00505130 0.01281568
v 0.00690000 0.00505130 0.01281568
v 0.00950000 0.00362318 0.01277900
v 0.00950000 0.00382229 0.01297811
v 0.00950000 0.00407318 0.01310595
v 0.00950000 0.00382229 0.02012188
v 0.00950000 0.00362318 0.02032099
v 0.00950000 0.00349535 0.02057188
v 0.00950000 0.00407318 0.01999405
v 0.00950000 0.00435130 0.01995000
v 0.00950000 0.00435130 0.01315000
v 0.00950000 -0.00352059 0.02032099
v 0.00950000 -0.00371970 0.02012188
v 0.00950000 -0.00397059 0.01999405
v 0.00950000 -0.00339275 0.02057188
v 0.00950000 -0.00334870 0.02085000
v 0.00950000 0.00345130 0.02085000
v 0.00950000 0.00349535 0.01252811
v 0.00950000 0.00345130 0.01225000
v 0.00950000 -0.00334870 0.01225000
v 0.00950000 -0.00339275 0.01252811
v 0.00950000 -0.00352059 0.01277900
v 0.00950000 -0.00371970 0.01297811
v 0.00950000 -0.00397059 0.01310595
v 0.00950000 -0.00424870 0.01315000
v 0.00950000 -0.00424870 0.01995000
v 0.00690000 0.00345130 0.01225000
v 0.00690000 0.00349535 0.01252811
v 0.00690000 0.00362318 0.01277900
v 0.00690000 0.00382229 0.01297811
v 0.00690000 0.00407318 0.01310595
v 0.00690000 0.00435130 0.01315000
v 0.00690000 0.00435130 0.01995000
v 0.00690000 0.00407318 0.01999405
v 0.00690000 0.00382229 0.02012188
v 0.00690000 0.00362318 0.02032099
v 0.00690000 0.00349535 0.02057188
v 0.00690000 0.00345130 0.02085000
v 0.00690000 -0.00334870 0.02085000
v 0.00690000 -0.00339275 0.02057188
v 0.00690000 -0.00352059 0.02032099
v 0.00690000 -0.00371970 0.02012188
v 0.00690000 -0.00397059 0.01999405
v 0.00690000 -0.00424870 0.01995000
v 0.00690000 -0.00424870 0.01315000
v 0.00690000 -0.00397059 0.01310595
v 0.00690000 -0.00371970 0.01297811
v 0.00690000 -0.00352059 0.01277900
v 0.00690000 -0.00339275 0.01252811
v 0.00690000 -0.00334870 0.01225000
v 0.00990000 -0.00299870 0.02000000
v 0.00960000 -0.00299870 0.02000000
v 0.00990000 -0.00339870 0.01960000
v 0.00960000 -0.00339870 0.01960000
v 0.00990000 -0.00339870 0.01350000
v 0.00960000 -0.00339870 0.01350000
v 0.00990000 -0.00299870 0.01310000
v 0.00960000 -0.00299870 0.01310000
v 0.00990000 0.00310130 0.01310000
v 0.00960000 0.00310130 0.01310000
v 0.00990000 0.00350130 0.01350000
v 0.00960000 0.00350130 0.01350000
v 0.00990000 0.00350130 0.01960000
v 0.00960000 0.00350130 0.01960000
v 0.00990000 0.00310130 0.02000000
v 0.00960000 0.00310130 0.02000000
v -0.00100000 -0.00362500 0.01099832
v -0.00100000 -0.00362500 0.02072832
v -0.00100000 -0.00230000 0.01099832
v -0.00100000 -0.00230000 0.02072832
v 0.00400000 -0.00100000 0.01099832
v 0.00490000 -0.00100000 0.01099832
v 0.00400000 -0.00100000 0.02072832
v 0.00490000 -0.00100000 0.02219832
v 0.00000000 -0.00100000 0.02072832
v 0.00000000 -0.00100000 0.02219832
v -0.00300000 -0.00462500 0.02072832
v -0.00200000 -0.00462500 0.02072832
v -0.00300000 -0.00462500 0.00822832
v -0.00200000 -0.00462500 0.01099832
v -0.00062584 -0.00462500 0.01099832
v -0.00070836 -0.00462500 0.01087178
v -0.00080000 -0.00462500 0.01050000
v -0.00070836 -0.00462500 0.01012822
v -0.00045445 -0.00462500 0.00984161
v -0.00009643 -0.00462500 0.00970583
v 0.00300000 -0.00462500 0.00822832
v 0.00028369 -0.00462500 0.00975199
v 0.00059881 -0.00462500 0.00996950
v 0.00077676 -0.00462500 0.01030855
v 0.00300000 -0.00462500 0.01099832
v 0.00077676 -0.00462500 0.01069145
v 0.00062585 -0.00462500 0.01099832
v -0.00100000 0.00300000 0.02219832
v -0.00100000 0.00300000 0.01099832
v -0.00100000 0.00170000 0.02219832
v -0.00100000 0.00170000 0.01099832
v 0.00790000 0.00293561 0.01155000
v 0.00790000 0.00373561 0.01155000
v 0.00690000 0.00293561 0.01155000
v 0.00690000 0.00373561 0.01155000
v 0.00690000 0.00373561 0.01100000
v 0.00790000 0.00373561 0.01100000
v 0.00690000 0.00293561 0.01100000
v 0.00790000 0.00293561 0.01100000
v 0.00690000 0.00560130 0.02033431
v 0.00690000 0.00560130 0.02219832
v 0.00690000 0.00505130 0.02033431
v 0.00690000 -0.00293302 0.01155000
v 0.00690000 0.00373561 0.02219832
v 0.00690000 0.00373561 0.02165000
v 0.00690000 0.00560130 0.01099832
v 0.00690000 0.00560130 0.01286568
v 0.00690000 0.00505130 0.01286568
v 0.00690000 -0.00559870 0.02219832
v 0.00690000 -0.00559870 0.02033431
v 0.00690000 -0.00504870 0.02033431
v 0.00690000 -0.00504870 0.01286568
v 0.00690000 -0.00373302 0.02165000
v 0.00690000 -0.00373302 0.02219832
v 0.00690000 -0.00293302 0.01100000
v 0.00690000 -0.00373302 0.01100000
v 0.00690000 -0.00559870 0.01099832
v 0.00690000 -0.00373302 0.01155000
v 0.00690000 -0.00559870 0.01286568
v -0.00300000 -0.00762500 0.02072832
v -0.00300000 -0.00762500 0.00822832
v 0.00307612 -0.00161732 0.02072832
v 0.00329290 -0.00129290 0.02072832
v 0.00361732 -0.00107613 0.02072832
v -0.00107612 -0.00400769 0.02072832
v 0.00300000 -0.00762500 0.02072832
v -0.00129289 -0.00433211 0.02072832
v -0.00161731 -0.00454888 0.02072832
v 0.00300000 -0.00200000 0.02072832
v 0.00000000 -0.00230000 0.02072832
v 0.00300000 -0.00762500 0.00822832
v 0.00300000 -0.00200000 0.01099832
v -0.00227000 -0.00762500 0.00822832
v -0.00227000 -0.00642500 0.00822832
v 0.00227000 -0.00642500 0.00822832
v 0.00227000 -0.00762500 0.00822832
v 0.00227000 -0.00762500 0.01450000
v -0.00148653 -0.00762500 0.01621555
v -0.00190964 -0.00762500 0.01572725
v -0.00217805 -0.00762500 0.01513953
v 0.00094300 -0.00762500 0.01656486
v 0.00148654 -0.00762500 0.01621555
v -0.00227000 -0.00762500 0.01450000
v 0.00190965 -0.00762500 0.01572725
v 0.00217805 -0.00762500 0.01513953
v -0.00094299 -0.00762500 0.01656486
v -0.00032305 -0.00762500 0.01674689
v 0.00032306 -0.00762500 0.01674689
v -0.00227000 -0.00642500 0.01450000
v 0.00227000 -0.00642500 0.01450000
v 0.00217805 -0.00642500 0.01513953
v 0.00190965 -0.00642500 0.01572725
v 0.00148654 -0.00642500 0.01621555
v 0.00094300 -0.00642500 0.01656486
v 0.00032306 -0.00642500 0.01674689
v -0.00032305 -0.00642500 0.01674689
v -0.00094299 -0.00642500 0.01656486
v -0.00148653 -0.00642500 0.01621555
v -0.00190964 -0.00642500 0.01572725
v -0.00217805 -0.00642500 0.01513953
v -0.00010848 -0.00642500 0.00960656
v -0.00051125 -0.00642500 0.00975931
v 0.00031915 -0.00642500 0.00965848
v 0.00067366 -0.00642500 0.00990319
v -0.00010848 -0.00642500 0.01539344
v -0.00051125 -0.00642500 0.01524069
v -0.00079691 -0.00642500 0.01491825
v -0.00079691 -0.00642500 0.01091825
v -0.00090000 -0.00642500 0.01050000
v -0.00079691 -0.00642500 0.01008175
v -0.00090000 -0.00642500 0.01450000
v -0.00079691 -0.00642500 0.01408175
v -0.00051125 -0.00642500 0.01375931
v 0.00031915 -0.00642500 0.01534151
v 0.00067366 -0.00642500 0.01509681
v 0.00067366 -0.00642500 0.01109681
v 0.00087385 -0.00642500 0.01071538
v -0.00010848 -0.00642500 0.01360656
v -0.00010848 -0.00642500 0.01139344
v -0.00051125 -0.00642500 0.01124069
v 0.00087385 -0.00642500 0.01471538
v 0.00087385 -0.00642500 0.01028462
v 0.00087385 -0.00642500 0.01428462
v 0.00067366 -0.00642500 0.01390319
v 0.00031915 -0.00642500 0.01365849
v 0.00031915 -0.00642500 0.01134151
v 0.00490000 0.00300000 0.01099832
v 0.00490000 0.00300000 0.02219832
v 0.00000000 0.00170000 0.02219832
v 0.00528269 0.00307612 0.02219832
v 0.00528269 -0.00107613 0.02219832
v 0.00790000 0.00373561 0.02219832
v 0.00560711 -0.00129290 0.02219832
v 0.00582388 -0.00161732 0.02219832
v 0.00590000 -0.00559870 0.02219832
v 0.00590000 -0.00200000 0.02219832
v 0.00790000 -0.00373302 0.02219832
v 0.00582388 0.00361731 0.02219832
v 0.00560711 0.00329289 0.02219832
v 0.00590000 0.00560130 0.02219832
v 0.00590000 0.00400000 0.02219832
v -0.00045445 -0.00462500 0.01515839
v -0.00009643 -0.00462500 0.01529417
v -0.00009643 -0.00632500 0.01529417
v 0.00000000 -0.00462500 0.01530000
v 0.00028369 -0.00632500 0.01524801
v 0.00028369 -0.00462500 0.01524801
v 0.00059881 -0.00632500 0.01503050
v 0.00059881 -0.00462500 0.01503050
v 0.00077676 -0.00632500 0.01469145
v 0.00077676 -0.00462500 0.01469145
v 0.00077676 -0.00632500 0.01430855
v 0.00077676 -0.00462500 0.01430855
v 0.00059881 -0.00632500 0.01396950
v 0.00059881 -0.00462500 0.01396950
v 0.00028369 -0.00632500 0.01375199
v 0.00028369 -0.00462500 0.01375199
v -0.00009643 -0.00632500 0.01370583
v -0.00009643 -0.00462500 0.01370583
v -0.00045445 -0.00632500 0.01384161
v -0.00045445 -0.00462500 0.01384161
v -0.00070836 -0.00632500 0.01412822
v -0.00070836 -0.00462500 0.01412822
v -0.00080000 -0.00632500 0.01450000
v -0.00080000 -0.00462500 0.01450000
v -0.00070836 -0.00632500 0.01487178
v -0.00070836 -0.00462500 0.01487178
v -0.00045445 -0.00632500 0.01515839
v -0.00070836 -0.00632500 0.01087178
v -0.00045445 -0.00632500 0.01115839
v -0.00045445 -0.00462500 0.01115839
v -0.00009643 -0.00632500 0.01129417
v -0.00009643 -0.00462500 0.01129417
v 0.00028369 -0.00632500 0.01124801
v 0.00028369 -0.00462500 0.01124801
v 0.00059881 -0.00632500 0.01103050
v 0.00059881 -0.00462500 0.01103050
v 0.00077676 -0.00632500 0.01069145
v 0.00077676 -0.00632500 0.01030855
v 0.00059881 -0.00632500 0.00996950
v 0.00028369 -0.00632500 0.00975199
v -0.00009643 -0.00632500 0.00970583
v -0.00045445 -0.00632500 0.00984161
v -0.00070836 -0.00632500 0.01012822
v -0.00080000 -0.00632500 0.01050000
v 0.00000000 0.00170000 0.01099832
v 0.00582388 -0.00161732 0.01099832
v 0.00560711 -0.00129290 0.01099832
v 0.00528269 0.00307612 0.01099832
v 0.00000000 -0.00230000 0.01099832
v -0.00107612 -0.00400769 0.01099832
v -0.00129289 -0.00433211 0.01099832
v -0.00161731 -0.00454888 0.01099832
v 0.00560711 0.00329289 0.01099832
v 0.00582388 0.00361731 0.01099832
v 0.00590000 0.00400000 0.01099832
v 0.00590000 0.00560130 0.01099832
v 0.00590000 -0.00200000 0.01099832
v 0.00590000 -0.00559870 0.01099832
v 0.00361732 -0.00107613 0.01099832
v 0.00528269 -0.00107613 0.01099832
v 0.00329290 -0.00129290 0.01099832
v 0.00307612 -0.00161732 0.01099832
v 0.00790000 -0.00559870 0.01286568
v 0.00790000 -0.00559870 0.02033431
v 0.00790000 0.00560130 0.01286568
v 0.00790000 0.00560130 0.02033431
v 0.00790000 -0.00504870 0.02033431
v 0.00790000 -0.00504870 0.01286568
v 0.00790000 0.00373561 0.02165000
v 0.00790000 -0.00373302 0.02165000
v 0.00790000 -0.00293302 0.01155000
v 0.00790000 -0.00373302 0.01155000
v 0.00790000 -0.00373302 0.01100000
v 0.00790000 -0.00293302 0.01100000
v 0.00000000 -0.00462500 0.01450000
v 0.00000000 -0.00070000 0.01750550
v 0.00000000 -0.00050706 0.01742558
v 0.00000000 -0.00030000 0.01219832
v 0.00000000 -0.00009295 0.01222558
v 0.00000000 0.00039282 0.01859832
v 0.00000000 0.00026568 0.01876400
v 0.00000000 0.00010000 0.01889114
v 0.00000000 -0.00009295 0.01897106
v 0.00000000 -0.00107275 0.01799126
v 0.00000000 0.00010000 0.01230550
v 0.00000000 0.00026568 0.01243263
v 0.00000000 0.00039282 0.01259832
v 0.00000000 -0.00030000 0.01899832
v 0.00000000 -0.00050706 0.01897106
v 0.00000000 -0.00070000 0.01889114
v 0.00000000 -0.00086569 0.01876400
v 0.00000000 -0.00099283 0.01859832
v 0.00000000 -0.00099283 0.01779832
v 0.00000000 -0.00086569 0.01763263
v 0.00000000 -0.00030000 0.01739832
v 0.00000000 0.00026568 0.01356400
v 0.00000000 0.00010000 0.01369114
v 0.00000000 0.00047274 0.01279126
v 0.00000000 0.00050000 0.01299832
v 0.00000000 0.00047274 0.01320537
v 0.00000000 0.00010000 0.01750550
v 0.00000000 0.00026568 0.01763263
v 0.00000000 0.00039282 0.01779832
v 0.00000000 0.00047274 0.01799126
v 0.00000000 0.00050000 0.01819832
v 0.00000000 0.00047274 0.01840537
v 0.00000000 -0.00107275 0.01840537
v 0.00000000 -0.00110000 0.01819832
v 0.00000000 -0.00009295 0.01742558
v 0.00000000 0.00039282 0.01339832
v 0.00000000 -0.00070000 0.01369114
v 0.00000000 -0.00086569 0.01356400
v 0.00000000 -0.00009295 0.01377106
v 0.00000000 -0.00030000 0.01379832
v 0.00000000 -0.00050706 0.01377106
v 0.00000000 -0.00099283 0.01339832
v 0.00000000 -0.00107275 0.01320537
v 0.00000000 -0.00110000 0.01299832
v 0.00000000 -0.00107275 0.01279126
v 0.00000000 -0.00099283 0.01259832
v 0.00000000 -0.00086569 0.01243263
v 0.00000000 -0.00070000 0.01230550
v 0.00000000 -0.00050706 0.01222558
v 0.00337554 -0.00030000 0.01819832
v 0.00300000 0.00024126 0.01788582
v 0.00300000 0.00001250 0.01765705
v 0.00300000 0.00032500 0.01819832
v 0.00300000 -0.00061250 0.01765705
v 0.00300000 -0.00084127 0.01788582
v 0.00300000 -0.00030000 0.01757332
v 0.00300000 -0.00084127 0.01851082
v 0.00300000 -0.00061250 0.01873958
v 0.00300000 -0.00092500 0.01819832
v 0.00300000 0.00001250 0.01873958
v 0.00300000 0.00024126 0.01851082
v 0.00300000 -0.00030000 0.01882332
v 0.00017500 0.00030370 0.01803656
v 0.00017500 0.00024126 0.01788582
v 0.00017500 0.00014194 0.01775638
v 0.00017500 0.00001250 0.01765705
v 0.00017500 -0.00013824 0.01759461
v 0.00017500 -0.00030000 0.01757332
v 0.00017500 -0.00046177 0.01759461
v 0.00017500 -0.00061250 0.01765705
v 0.00017500 -0.00074195 0.01775638
v 0.00017500 -0.00084127 0.01788582
v 0.00017500 -0.00090371 0.01803656
v 0.00017500 -0.00092500 0.01819832
v 0.00017500 -0.00090371 0.01836008
v 0.00017500 -0.00084127 0.01851082
v 0.00017500 -0.00074195 0.01864026
v 0.00017500 -0.00061250 0.01873958
v 0.00017500 -0.00046177 0.01880202
v 0.00017500 -0.00030000 0.01882332
v 0.00017500 -0.00013824 0.01880202
v 0.00017500 0.00001250 0.01873958
v 0.00017500 0.00014194 0.01864026
v 0.00017500 0.00024126 0.01851082
v 0.00017500 0.00030370 0.01836008
v 0.00017500 0.00032500 0.01819832
v 0.00337554 -0.00030000 0.01299832
v 0.00300000 0.00024126 0.01268582
v 0.00300000 0.00001250 0.01245705
v 0.00300000 0.00032500 0.01299832
v 0.00300000 -0.00061250 0.01245705
v 0.00300000 -0.00084127 0.01268582
v 0.00300000 -0.00030000 0.01237332
v 0.00300000 -0.00084127 0.01331082
v 0.00300000 -0.00061250 0.01353958
v 0.00300000 -0.00092500 0.01299832
v 0.00300000 0.00001250 0.01353958
v 0.00300000 0.00024126 0.01331082
v 0.00300000 -0.00030000 0.01362332
v 0.00017500 0.00030370 0.01283656
v 0.00017500 0.00024126 0.01268582
v 0.00017500 0.00014194 0.01255638
v 0.00017500 0.00001250 0.01245705
v 0.00017500 -0.00013824 0.01239461
v 0.00017500 -0.00030000 0.01237332
v 0.00017500 -0.00046177 0.01239461
v 0.00017500 -0.00061250 0.01245705
v 0.00017500 -0.00074195 0.01255638
v 0.00017500 -0.00084127 0.01268582
v 0.00017500 -0.00090371 0.01283656
v 0.00017500 -0.00092500 0.01299832
v 0.00017500 -0.00090371 0.01316008
v 0.00017500 -0.00084127 0.01331082
v 0.00017500 -0.00074195 0.01344026
v 0.00017500 -0.00061250 0.01353958
v 0.00017500 -0.00046177 0.01360202
v 0.00017500 -0.00030000 0.01362332
v 0.00017500 -0.00013824 0.01360202
v 0.00017500 0.00001250 0.01353958
v 0.00017500 0.00014194 0.01344026
v 0.00017500 0.00024126 0.01331082
v 0.00017500 0.00030370 0.01316008
v 0.00017500 0.00032500 0.01299832
v 0.00790000 0.00505130 0.01286568
v 0.00790000 0.00505130 0.02033431
f 1 2 3
f 1 3 4
f 4 3 5
f 4 5 6
f 6 5 7
f 6 7 8
f 8 7 9
f 8 9 10
f 10 9 11
f 10 11 12
f 12 11 13
f 12 13 14
f 14 13 15
f 14 15 16
f 16 15 17
f 16 17 18
f 18 17 19
f 18 19 20
f 20 19 21
f 20 21 22
f 22 21 23
f 22 23 24
f 25 24 26
f 26 24 23
f 1 27 2
f 2 27 28
f 29 30 31
f 31 30 32
f 31 32 33
f 33 32 34
f 33 34 35
f 35 34 36
f 35 36 37
f 37 36 38
f 37 38 39
f 39 38 40
f 39 40 41
f 41 40 42
f 41 42 43
f 43 42 44
f 43 44 45
f 45 44 46
f 45 46 47
f 47 46 48
f 47 48 49
f 49 48 50
f 49 50 51
f 51 50 52
f 51 52 53
f 53 52 54
f 53 54 55
f 55 54 56
f 55 56 57
f 57 56 58
f 59 57 58
f 30 29 60
f 60 29 61
f 60 61 62
f 62 61 63
f 62 63 64
f 64 63 65
f 64 65 66
f 66 65 67
f 66 67 68
f 68 67 69
f 68 69 70
f 70 69 71
f 70 71 72
f 72 71 73
f 72 73 74
f 74 73 75
f 74 75 76
f 76 75 77
f 76 77 78
f 78 77 79
f 78 79 80
f 80 79 81
f 80 81 82
f 82 81 83
f 82 83 84
f 84 83 59
f 84 59 85
f 85 59 58
f 86 87 26
f 26 87 88
f 89 90 91
f 88 92 26
f 26 92 93
f 26 93 94
f 95 96 94
f 97 98 99
f 99 98 89
f 28 100 101
f 102 103 104
f 104 103 105
f 105 103 106
f 105 106 107
f 107 106 108
f 108 106 109
f 108 109 110
f 110 109 111
f 111 109 112
f 111 112 113
f 98 26 89
f 89 26 94
f 89 94 90
f 90 94 96
f 91 114 89
f 89 114 115
f 89 115 116
f 116 115 117
f 118 119 117
f 117 119 120
f 117 120 116
f 98 121 122
f 101 123 28
f 28 123 124
f 28 124 2
f 104 125 102
f 102 125 126
f 102 126 127
f 97 128 98
f 98 128 129
f 98 129 121
f 130 131 87
f 87 131 132
f 87 132 88
f 133 134 2
f 2 134 135
f 2 135 3
f 3 135 136
f 86 26 137
f 137 26 23
f 137 23 138
f 139 140 141
f 126 142 127
f 127 142 143
f 127 143 141
f 141 143 144
f 141 144 139
f 113 112 145
f 145 112 146
f 145 146 147
f 148 149 122
f 122 149 150
f 122 150 98
f 124 151 2
f 2 151 152
f 2 152 133
f 133 152 130
f 133 130 153
f 153 130 87
f 139 154 140
f 140 154 155
f 140 155 118
f 118 155 156
f 118 156 119
f 100 28 94
f 94 28 157
f 94 157 95
f 158 9 159
f 159 9 7
f 159 7 136
f 136 7 5
f 136 5 3
f 160 13 158
f 158 13 11
f 158 11 9
f 23 21 138
f 138 21 19
f 138 19 161
f 161 19 17
f 161 17 160
f 160 17 15
f 160 15 13
f 147 146 162
f 162 146 163
f 162 163 28
f 28 163 164
f 28 164 157
f 25 165 166
f 165 167 168
f 168 167 169
f 168 169 170
f 171 1 172
f 172 1 173
f 27 174 175
f 175 174 176
f 78 80 177
f 178 179 176
f 176 179 180
f 176 180 175
f 181 182 165
f 165 182 183
f 165 183 167
f 171 184 1
f 1 184 185
f 1 185 27
f 27 185 186
f 27 186 174
f 187 84 85
f 188 189 178
f 178 189 190
f 178 190 179
f 191 192 188
f 188 192 193
f 188 193 189
f 25 194 165
f 165 194 195
f 165 195 196
f 177 80 197
f 197 80 82
f 197 82 84
f 198 199 191
f 191 199 200
f 191 200 192
f 201 202 203
f 203 202 204
f 203 204 198
f 198 204 205
f 198 205 199
f 196 206 165
f 165 206 207
f 165 207 181
f 78 177 76
f 76 177 173
f 76 173 74
f 74 173 1
f 74 1 72
f 186 208 174
f 174 208 209
f 174 209 210
f 6 66 4
f 4 66 68
f 4 68 1
f 1 68 70
f 1 70 72
f 169 211 170
f 170 211 212
f 170 212 213
f 52 214 54
f 54 214 215
f 54 215 56
f 166 216 25
f 25 216 217
f 25 217 218
f 18 20 40
f 219 220 201
f 201 220 221
f 201 221 202
f 212 222 213
f 213 222 223
f 213 223 224
f 225 226 218
f 218 226 227
f 218 227 25
f 25 227 228
f 25 228 24
f 24 228 229
f 230 231 218
f 218 231 232
f 218 232 225
f 223 233 224
f 224 233 234
f 224 234 235
f 40 20 42
f 42 20 22
f 42 22 44
f 44 22 24
f 44 24 46
f 46 24 229
f 46 229 48
f 40 38 18
f 18 38 36
f 18 36 16
f 16 36 34
f 16 34 14
f 14 34 32
f 14 32 12
f 12 32 30
f 12 30 10
f 10 30 60
f 10 60 8
f 8 60 62
f 8 62 6
f 6 62 64
f 6 64 66
f 234 236 235
f 235 236 237
f 235 237 219
f 219 237 238
f 219 238 220
f 187 85 215
f 215 85 58
f 215 58 56
f 48 229 50
f 50 229 239
f 50 239 52
f 52 239 240
f 52 240 214
f 210 241 174
f 174 241 242
f 174 242 243
f 243 242 244
f 243 244 218
f 218 244 245
f 218 245 230
f 245 246 230
f 230 246 247
f 230 247 231
f 231 247 248
f 231 248 232
f 232 248 249
f 232 249 225
f 225 249 250
f 225 250 226
f 226 250 251
f 226 251 227
f 227 251 252
f 227 252 228
f 228 252 253
f 228 253 229
f 229 253 254
f 229 254 239
f 239 254 255
f 239 255 240
f 240 255 256
f 240 256 214
f 214 256 257
f 214 257 215
f 215 257 258
f 215 258 187
f 187 258 259
f 187 259 84
f 84 259 260
f 84 260 197
f 246 245 261
f 261 245 244
f 261 244 262
f 262 244 242
f 262 242 263
f 263 242 241
f 263 241 264
f 264 241 210
f 264 210 265
f 265 210 209
f 265 209 266
f 266 209 208
f 266 208 267
f 267 208 186
f 267 186 268
f 268 186 185
f 268 185 269
f 269 185 184
f 269 184 270
f 270 184 171
f 270 171 271
f 271 171 172
f 271 172 272
f 272 172 173
f 272 173 273
f 273 173 177
f 273 177 260
f 260 177 197
f 130 259 131
f 131 259 258
f 131 258 132
f 132 258 257
f 257 256 132
f 132 256 255
f 132 255 88
f 88 255 254
f 88 254 92
f 92 254 253
f 253 252 92
f 92 252 251
f 92 251 93
f 248 94 249
f 249 94 93
f 249 93 250
f 250 93 251
f 248 247 94
f 94 247 246
f 94 246 100
f 100 246 261
f 261 262 100
f 100 262 263
f 100 263 101
f 263 264 101
f 101 264 265
f 101 265 123
f 265 266 123
f 123 266 267
f 123 267 124
f 267 268 124
f 124 268 269
f 124 269 151
f 269 270 151
f 151 270 271
f 151 271 152
f 271 272 152
f 152 272 273
f 152 273 130
f 130 273 260
f 130 260 259
f 160 33 161
f 161 33 35
f 35 37 161
f 161 37 39
f 161 39 138
f 138 39 41
f 138 41 137
f 41 43 137
f 137 43 45
f 137 45 86
f 86 45 47
f 53 87 51
f 51 87 86
f 51 86 49
f 49 86 47
f 53 55 87
f 87 55 57
f 87 57 153
f 153 57 59
f 59 83 153
f 153 83 81
f 153 81 133
f 81 79 133
f 133 79 77
f 133 77 134
f 77 75 134
f 134 75 73
f 134 73 135
f 135 73 71
f 135 71 136
f 136 71 69
f 69 67 136
f 136 67 65
f 136 65 159
f 65 63 159
f 159 63 61
f 159 61 158
f 158 61 29
f 158 29 160
f 160 29 31
f 160 31 33
f 162 28 27
f 27 175 162
f 162 175 180
f 162 180 147
f 147 180 179
f 147 179 145
f 145 179 190
f 145 190 113
f 113 190 189
f 113 189 111
f 111 189 193
f 111 193 110
f 110 193 192
f 110 192 108
f 108 192 200
f 108 200 107
f 107 200 199
f 107 199 105
f 105 199 205
f 105 205 104
f 104 205 204
f 104 204 125
f 125 204 202
f 125 202 126
f 126 202 221
f 126 221 142
f 142 221 220
f 142 220 143
f 143 220 238
f 143 238 144
f 144 238 237
f 144 237 139
f 139 237 236
f 139 236 154
f 194 25 26
f 26 98 194
f 194 98 150
f 194 150 195
f 195 150 149
f 195 149 196
f 196 149 148
f 196 148 206
f 206 148 122
f 206 122 207
f 207 122 121
f 207 121 181
f 181 121 129
f 181 129 182
f 182 129 128
f 182 128 183
f 183 128 97
f 183 97 167
f 167 97 99
f 167 99 169
f 169 99 89
f 169 89 211
f 211 89 116
f 211 116 212
f 212 116 120
f 212 120 222
f 222 120 119
f 222 119 223
f 223 119 156
f 223 156 233
f 233 156 155
f 233 155 234
f 234 155 154
f 234 154 236
f 140 235 141
f 141 235 219
f 141 219 127
f 127 219 201
f 127 201 102
f 102 201 203
f 102 203 103
f 103 203 198
f 103 198 106
f 106 198 191
f 106 191 109
f 109 191 188
f 109 188 112
f 112 188 178
f 112 178 146
f 146 178 176
f 146 176 163
f 163 176 174
f 163 174 164
f 164 174 243
f 164 243 157
f 157 243 218
f 157 218 95
f 95 218 217
f 95 217 96
f 96 217 216
f 96 216 90
f 90 216 166
f 90 166 91
f 91 166 165
f 91 165 114
f 114 165 168
f 114 168 115
f 115 168 170
f 115 170 117
f 117 170 213
f 117 213 118
f 118 213 224
f 118 224 140
f 140 224 235
f 274 275 276
f 276 275 277
f 278 279 280
f 280 279 281
f 282 283 284
f 284 283 285
f 286 287 288
f 288 287 289
f 284 285 287
f 287 285 289
f 274 276 278
f 278 276 279
f 290 291 292
f 292 291 293
f 292 293 294
f 294 293 295
f 294 295 296
f 296 295 297
f 298 299 300
f 300 299 301
f 300 301 302
f 302 301 303
f 302 303 304
f 304 303 305
f 305 291 304
f 304 291 290
f 299 298 288
f 288 298 306
f 288 306 286
f 286 306 307
f 275 308 277
f 277 308 309
f 277 309 297
f 297 309 296
f 305 303 285
f 305 285 291
f 291 285 283
f 291 283 293
f 288 289 299
f 299 289 285
f 299 285 301
f 301 285 303
f 279 276 297
f 297 276 277
f 310 311 283
f 283 311 281
f 283 281 293
f 293 281 279
f 293 279 295
f 295 279 297
f 312 313 314
f 315 316 317
f 317 316 312
f 317 312 318
f 318 312 314
f 319 320 321
f 319 321 322
f 323 324 321
f 321 324 325
f 321 325 322
f 321 313 323
f 323 313 312
f 323 312 324
f 324 312 316
f 324 316 325
f 325 316 315
f 325 315 322
f 322 315 317
f 322 317 319
f 319 317 318
f 319 318 320
f 320 318 314
f 326 327 328
f 329 330 331
f 331 330 326
f 331 326 332
f 332 326 328
f 333 334 335
f 336 333 337
f 337 333 335
f 337 335 338
f 338 335 339
f 334 331 335
f 335 331 332
f 335 332 339
f 339 332 328
f 339 328 338
f 338 328 327
f 338 327 337
f 337 327 326
f 337 326 336
f 336 326 330
f 336 330 333
f 333 330 329
f 340 341 342
f 342 341 343
f 342 343 344
f 344 343 345
f 344 345 346
f 346 345 347
f 346 347 348
f 348 347 349
f 348 349 350
f 350 349 351
f 352 353 354
f 354 353 355
f 354 355 356
f 356 355 357
f 356 357 358
f 358 357 359
f 358 359 360
f 360 359 361
f 360 361 362
f 362 361 363
f 364 365 366
f 366 365 367
f 366 367 368
f 368 367 369
f 368 369 370
f 370 369 371
f 370 371 372
f 372 371 373
f 372 373 374
f 374 373 375
f 376 377 378
f 378 377 379
f 378 379 380
f 380 379 381
f 380 381 382
f 382 381 383
f 382 383 384
f 384 383 385
f 384 385 386
f 386 385 387
f 366 368 284
f 374 388 372
f 372 388 282
f 286 307 340
f 284 368 282
f 282 368 370
f 282 370 372
f 340 342 286
f 286 342 344
f 286 344 287
f 287 344 346
f 346 348 287
f 287 348 350
f 287 350 284
f 284 350 364
f 284 364 366
f 379 377 363
f 298 300 349
f 349 347 298
f 298 347 345
f 298 345 306
f 306 345 343
f 306 343 341
f 383 296 385
f 385 296 309
f 385 309 387
f 383 381 296
f 296 381 379
f 296 379 294
f 294 379 363
f 359 373 361
f 361 373 290
f 361 290 363
f 363 290 292
f 363 292 294
f 353 375 355
f 355 375 373
f 355 373 357
f 357 373 359
f 373 371 290
f 290 371 369
f 290 369 304
f 304 369 367
f 304 367 302
f 302 367 365
f 302 365 300
f 300 365 351
f 300 351 349
f 388 374 310
f 310 374 375
f 310 375 311
f 311 375 353
f 311 353 389
f 389 353 352
f 306 341 307
f 307 341 340
f 313 365 314
f 314 365 364
f 314 364 320
f 320 364 350
f 320 350 321
f 321 350 351
f 321 351 313
f 313 351 365
f 334 376 331
f 331 376 362
f 331 362 329
f 329 362 363
f 329 363 333
f 333 363 377
f 333 377 334
f 334 377 376
f 376 274 362
f 362 274 278
f 362 278 360
f 280 389 352
f 376 378 274
f 274 378 380
f 274 380 275
f 352 354 280
f 280 354 356
f 280 356 278
f 278 356 358
f 278 358 360
f 386 308 384
f 384 308 275
f 384 275 382
f 382 275 380
f 308 386 309
f 309 386 387
f 281 311 280
f 280 311 389
f 282 388 283
f 283 388 310
f 390 391 392
f 392 391 393
f 392 393 394
f 394 393 395
f 394 395 396
f 396 395 397
f 396 397 398
f 398 397 399
f 398 399 400
f 400 399 401
f 402 403 404
f 404 403 405
f 404 405 406
f 406 405 407
f 406 407 408
f 408 407 409
f 408 409 410
f 410 409 411
f 410 411 412
f 412 411 413
f 414 415 416
f 416 415 417
f 416 417 418
f 418 417 419
f 418 419 420
f 420 419 421
f 420 421 422
f 422 421 423
f 422 423 424
f 424 423 425
f 426 427 428
f 428 427 429
f 428 429 430
f 430 429 431
f 430 431 432
f 432 431 433
f 432 433 434
f 434 433 435
f 434 435 436
f 436 435 437
f 425 427 424
f 424 427 426
f 402 436 403
f 403 436 437
f 414 400 415
f 415 400 401
f 438 439 440
f 440 439 441
f 441 439 442
f 442 439 443
f 439 438 443
f 443 438 444
f 438 440 444
f 444 440 445
f 440 441 445
f 445 441 442
f 446 447 448
f 448 447 449
f 446 448 450
f 450 448 451
f 447 446 452
f 452 446 450
f 449 447 453
f 453 447 452
f 448 449 451
f 451 449 453
f 422 424 426
f 406 408 434
f 408 410 434
f 434 410 412
f 434 412 432
f 432 412 390
f 436 402 434
f 434 402 404
f 434 404 406
f 426 428 396
f 396 428 430
f 396 430 394
f 394 430 432
f 394 432 392
f 392 432 390
f 400 414 398
f 398 414 416
f 398 416 396
f 396 416 418
f 396 418 426
f 426 418 420
f 426 420 422
f 454 455 456
f 456 455 457
f 457 455 458
f 458 455 459
f 455 454 459
f 459 454 460
f 454 456 460
f 460 456 461
f 458 391 390
f 412 413 461
f 412 461 390
f 390 461 458
f 458 461 450
f 458 450 457
f 457 450 451
f 457 451 456
f 456 451 453
f 456 453 461
f 461 453 452
f 461 452 450
f 401 399 459
f 460 445 459
f 459 445 442
f 409 407 460
f 399 397 459
f 459 397 395
f 459 395 458
f 458 395 393
f 458 393 391
f 443 444 427
f 409 460 411
f 411 460 461
f 411 461 413
f 427 425 443
f 443 425 423
f 443 423 442
f 442 423 421
f 421 419 442
f 442 419 417
f 442 417 459
f 459 417 415
f 459 415 401
f 407 405 460
f 460 405 403
f 460 403 445
f 445 403 437
f 445 437 435
f 435 433 445
f 445 433 431
f 445 431 444
f 444 431 429
f 444 429 427
f 462 463 464
f 464 463 465
f 466 467 468
f 468 467 469
f 470 471 472
f 472 471 473
f 474 475 476
f 476 475 477
f 478 479 480
f 478 480 481
f 481 480 482
f 481 482 483
f 483 482 484
f 483 484 485
f 479 478 486
f 479 486 487
f 487 486 488
f 487 488 489
f 489 488 490
f 489 490 491
f 482 480 484
f 484 480 479
f 479 487 484
f 484 487 489
f 484 489 491
f 488 486 478
f 490 488 485
f 485 488 478
f 485 478 483
f 483 478 481
f 492 493 494
f 492 494 495
f 495 494 496
f 495 496 497
f 497 496 498
f 497 498 499
f 493 492 500
f 493 500 501
f 501 500 502
f 501 502 503
f 503 502 504
f 503 504 505
f 495 497 499
f 500 492 502
f 502 492 495
f 502 495 504
f 504 495 499
f 494 493 501
f 498 496 505
f 505 496 494
f 505 494 503
f 503 494 501
f 506 507 508
f 508 507 509
f 507 510 509
f 509 510 511
f 510 512 511
f 511 512 513
f 514 515 516
f 516 515 517
f 518 519 520
f 520 519 521
f 522 523 524
f 524 523 525
f 526 527 528
f 528 527 529
f 477 475 472
f 472 475 470
f 465 463 476
f 476 463 474
f 469 467 464
f 464 467 462
f 473 471 468
f 468 471 466
f 530 463 531
f 531 463 462
f 531 462 532
f 533 467 534
f 534 467 466
f 534 466 535
f 533 536 467
f 467 536 537
f 467 537 462
f 462 537 538
f 462 538 532
f 539 471 540
f 540 471 470
f 540 470 541
f 539 542 471
f 471 542 543
f 471 543 466
f 466 543 544
f 466 544 535
f 530 545 463
f 463 545 546
f 463 546 474
f 474 546 547
f 547 548 474
f 474 548 549
f 474 549 475
f 475 549 550
f 550 551 475
f 475 551 552
f 475 552 470
f 470 552 553
f 470 553 541
f 554 546 545
f 554 545 555
f 555 545 530
f 555 530 556
f 556 530 531
f 556 531 557
f 557 531 532
f 557 532 558
f 558 532 538
f 558 538 559
f 560 537 536
f 560 536 561
f 561 536 533
f 561 533 562
f 562 533 534
f 562 534 563
f 563 534 535
f 563 535 564
f 564 535 544
f 564 544 565
f 566 543 542
f 566 542 567
f 567 542 539
f 567 539 568
f 568 539 540
f 568 540 569
f 569 540 541
f 569 541 570
f 570 541 553
f 570 553 571
f 572 552 551
f 572 551 573
f 573 551 550
f 573 550 574
f 574 550 549
f 574 549 575
f 575 549 548
f 575 548 576
f 576 548 547
f 576 547 577
f 484 538 485
f 485 538 537
f 485 537 490
f 490 537 560
f 490 560 491
f 491 560 559
f 491 559 484
f 484 559 538
f 566 565 543
f 543 565 544
f 513 577 511
f 511 577 547
f 511 547 509
f 509 547 546
f 509 546 508
f 508 546 554
f 527 506 508
f 508 554 527
f 527 554 555
f 527 555 556
f 556 557 527
f 527 557 558
f 527 558 529
f 529 558 559
f 529 559 523
f 559 560 523
f 523 560 561
f 523 561 562
f 562 563 523
f 523 563 564
f 523 564 525
f 525 564 565
f 525 565 519
f 565 566 519
f 519 566 567
f 519 567 568
f 515 573 574
f 568 569 519
f 519 569 570
f 519 570 521
f 521 570 571
f 521 571 515
f 515 571 572
f 515 572 573
f 513 512 577
f 577 512 517
f 577 517 576
f 576 517 515
f 576 515 575
f 575 515 574
f 520 521 514
f 514 521 515
f 524 525 518
f 518 525 519
f 528 529 522
f 522 529 523
f 506 527 507
f 507 527 526
f 507 526 510
f 510 526 516
f 510 516 512
f 512 516 517
f 499 552 504
f 504 552 572
f 504 572 505
f 505 572 571
f 505 571 498
f 498 571 553
f 498 553 499
f 499 553 552
f 477 514 476
f 476 514 516
f 476 516 465
f 465 516 526
f 465 526 464
f 464 526 528
f 464 528 469
f 469 528 522
f 469 522 468
f 468 522 524
f 468 524 473
f 473 524 518
f 473 518 472
f 472 518 520
f 472 520 477
f 477 520 514
f 578 579 580
f 580 579 581
f 582 583 584
f 584 583 585
f 586 587 588
f 588 587 589
f 590 591 592
f 592 591 593
f 589 587 591
f 591 587 585
f 591 585 593
f 593 585 583
f 593 583 579
f 579 583 581
f 588 589 590
f 590 589 591
f 592 593 578
f 578 593 579
f 580 581 582
f 582 581 583
f 584 585 586
f 586 585 587
f 588 590 592
f 584 586 582
f 582 586 588
f 582 588 580
f 580 588 592
f 580 592 578
f 594 595 596
f 596 595 597
f 598 599 600
f 600 599 601
f 600 601 602
f 602 601 603
f 604 605 606
f 606 605 607
f 608 609 607
f 607 609 610
f 607 610 606
f 606 610 611
f 611 612 606
f 606 612 613
f 606 613 614
f 614 613 615
f 615 616 614
f 614 616 617
f 614 617 618
f 618 617 619
f 618 619 620
f 621 622 623
f 623 622 624
f 625 626 627
f 627 626 628
f 629 630 631
f 631 630 632
f 632 630 625
f 625 630 626
f 633 634 635
f 635 634 636
f 634 637 638
f 639 640 641
f 631 639 629
f 629 639 641
f 629 641 628
f 628 641 627
f 642 643 644
f 645 646 644
f 644 646 647
f 644 647 642
f 648 649 650
f 634 638 636
f 636 638 646
f 636 646 651
f 651 646 645
f 651 645 649
f 649 645 652
f 649 652 650
f 650 639 648
f 648 639 631
f 648 631 636
f 636 631 627
f 636 627 635
f 635 627 641
f 604 606 653
f 653 606 654
f 655 656 602
f 602 656 657
f 602 657 600
f 595 658 659
f 658 660 659
f 659 660 661
f 659 661 653
f 653 661 605
f 653 605 604
f 655 602 662
f 662 602 663
f 662 663 659
f 659 663 597
f 659 597 595
f 664 614 618
f 665 662 618
f 618 662 659
f 618 659 664
f 666 654 667
f 667 654 606
f 667 606 668
f 668 606 614
f 668 614 669
f 669 614 664
f 669 664 670
f 670 664 659
f 671 653 672
f 672 653 673
f 674 675 659
f 673 653 676
f 676 653 654
f 676 654 666
f 675 677 659
f 659 677 678
f 659 678 670
f 671 679 653
f 653 679 680
f 653 680 659
f 659 680 681
f 659 681 674
f 667 682 666
f 666 682 676
f 683 670 684
f 684 670 678
f 684 678 685
f 685 678 677
f 685 677 686
f 686 677 675
f 686 675 687
f 687 675 674
f 687 674 688
f 688 674 681
f 688 681 689
f 689 681 680
f 689 680 690
f 690 680 679
f 690 679 691
f 691 679 671
f 691 671 692
f 692 671 672
f 692 672 693
f 693 672 673
f 693 673 682
f 682 673 676
f 683 668 670
f 670 668 669
f 667 694 695
f 694 667 696
f 696 667 668
f 696 668 697
f 698 690 699
f 699 690 691
f 699 691 700
f 701 682 702
f 702 682 667
f 702 667 703
f 703 667 695
f 691 692 700
f 700 692 693
f 700 693 704
f 704 693 682
f 704 682 705
f 705 682 706
f 707 708 686
f 683 709 710
f 711 706 712
f 712 706 682
f 712 682 713
f 713 682 701
f 686 708 685
f 685 708 714
f 685 714 684
f 683 710 668
f 668 710 715
f 668 715 697
f 686 687 707
f 707 687 688
f 707 688 698
f 698 688 689
f 698 689 690
f 684 714 683
f 683 714 716
f 683 716 709
f 709 716 717
f 709 717 718
f 711 712 718
f 718 712 719
f 718 719 709
f 720 622 721
f 721 622 621
f 621 623 721
f 721 623 722
f 721 722 723
f 603 601 637
f 637 601 724
f 637 724 725
f 725 724 726
f 725 726 727
f 728 642 729
f 729 642 647
f 729 647 727
f 727 647 730
f 727 730 725
f 731 732 637
f 637 732 723
f 637 723 603
f 603 723 722
f 634 733 637
f 637 733 734
f 637 734 731
f 735 736 737
f 737 736 738
f 737 738 739
f 739 738 740
f 739 740 741
f 741 740 742
f 741 742 743
f 743 742 744
f 743 744 745
f 745 744 746
f 745 746 747
f 747 746 748
f 747 748 749
f 749 748 750
f 749 750 751
f 751 750 752
f 751 752 753
f 753 752 754
f 753 754 755
f 755 754 756
f 755 756 757
f 757 756 758
f 757 758 759
f 759 758 760
f 759 760 761
f 761 760 735
f 761 735 737
f 755 705 753
f 753 705 706
f 753 706 751
f 751 706 711
f 751 711 749
f 749 711 718
f 749 718 747
f 747 718 717
f 747 717 745
f 745 717 716
f 745 716 743
f 743 716 714
f 743 714 741
f 741 714 708
f 741 708 739
f 739 708 707
f 739 707 737
f 737 707 698
f 737 698 761
f 761 698 699
f 761 699 759
f 759 699 700
f 759 700 757
f 757 700 704
f 757 704 755
f 755 704 705
f 762 608 763
f 763 608 764
f 763 764 765
f 765 764 766
f 765 766 767
f 767 766 768
f 767 768 769
f 768 770 769
f 769 770 620
f 769 620 771
f 771 620 619
f 771 619 772
f 772 619 617
f 772 617 773
f 773 617 616
f 773 616 774
f 774 616 615
f 774 615 775
f 775 615 613
f 775 613 776
f 776 613 612
f 776 612 777
f 777 612 611
f 777 611 778
f 778 611 610
f 778 610 762
f 762 610 609
f 762 609 608
f 777 703 776
f 776 703 695
f 776 695 775
f 775 695 694
f 775 694 774
f 774 694 696
f 774 696 773
f 773 696 697
f 773 697 772
f 772 697 715
f 772 715 771
f 771 715 710
f 771 710 769
f 769 710 709
f 769 709 767
f 767 709 719
f 767 719 765
f 765 719 712
f 765 712 763
f 763 712 713
f 763 713 762
f 762 713 701
f 762 701 778
f 778 701 702
f 778 702 777
f 777 702 703
f 624 622 779
f 779 622 720
f 780 781 782
f 596 783 594
f 594 783 618
f 594 618 784
f 784 618 620
f 784 620 785
f 785 620 608
f 785 608 786
f 786 608 607
f 782 787 650
f 650 787 788
f 650 788 639
f 639 788 789
f 639 789 790
f 780 782 791
f 791 782 650
f 791 650 792
f 793 779 598
f 598 779 720
f 598 720 599
f 599 720 782
f 599 782 794
f 794 782 781
f 793 795 779
f 779 795 796
f 779 796 783
f 783 796 665
f 783 665 618
f 643 642 728
f 792 650 652
f 797 798 652
f 652 798 643
f 652 643 792
f 792 643 728
f 791 792 729
f 729 792 728
f 734 733 789
f 789 733 790
f 790 733 633
f 633 733 634
f 639 790 640
f 640 790 633
f 640 633 799
f 799 633 800
f 801 802 644
f 644 802 645
f 798 801 643
f 643 801 644
f 802 797 645
f 645 797 652
f 798 797 801
f 801 797 802
f 803 804 638
f 638 804 646
f 803 638 725
f 725 638 637
f 804 730 646
f 646 730 647
f 804 803 730
f 730 803 725
f 636 651 805
f 805 651 806
f 807 806 649
f 649 806 651
f 807 649 808
f 808 649 648
f 626 630 628
f 628 630 629
f 805 806 808
f 808 806 807
f 595 594 658
f 658 594 784
f 658 784 660
f 660 784 785
f 660 785 661
f 661 785 786
f 661 786 605
f 605 786 607
f 734 789 731
f 731 789 788
f 731 788 732
f 732 788 787
f 732 787 723
f 723 787 782
f 723 782 721
f 721 782 720
f 791 729 780
f 780 729 727
f 780 727 781
f 781 727 726
f 781 726 794
f 794 726 724
f 794 724 599
f 599 724 601
f 632 625 631
f 631 625 627
f 648 636 808
f 808 636 805
f 608 620 770
f 768 766 770
f 770 766 764
f 770 764 608
f 738 736 809
f 738 809 740
f 746 744 809
f 809 744 742
f 809 742 740
f 752 750 809
f 809 750 748
f 809 748 746
f 758 756 809
f 809 756 754
f 809 754 752
f 736 735 809
f 809 735 760
f 809 760 758
f 783 596 663
f 663 596 597
f 624 779 623
f 623 779 722
f 810 811 783
f 783 812 779
f 779 812 813
f 602 603 814
f 814 603 722
f 814 815 602
f 602 815 816
f 602 816 817
f 818 783 663
f 813 819 779
f 779 819 820
f 779 820 821
f 817 822 602
f 602 822 823
f 602 823 663
f 823 824 663
f 663 824 825
f 663 825 826
f 818 827 783
f 783 827 828
f 783 828 810
f 829 830 831
f 821 832 779
f 779 832 833
f 779 833 834
f 835 836 779
f 779 836 837
f 837 838 779
f 779 838 839
f 779 839 722
f 722 839 840
f 722 840 814
f 826 841 663
f 663 841 842
f 663 842 818
f 835 779 843
f 843 779 834
f 843 834 829
f 829 834 844
f 829 844 830
f 845 846 811
f 831 847 829
f 829 847 848
f 829 848 811
f 811 848 849
f 811 849 845
f 846 850 811
f 811 850 851
f 811 851 783
f 783 851 852
f 852 853 783
f 783 853 854
f 783 854 855
f 855 856 783
f 783 856 857
f 783 857 812
f 858 859 860
f 861 859 858
f 858 862 863
f 864 862 858
f 860 864 858
f 858 865 866
f 867 865 858
f 863 867 858
f 858 868 869
f 870 868 858
f 866 870 858
f 869 861 858
f 871 859 861
f 871 872 859
f 859 872 873
f 859 873 860
f 873 874 860
f 860 874 875
f 860 875 864
f 875 876 864
f 864 876 877
f 864 877 862
f 877 878 862
f 862 878 879
f 862 879 863
f 879 880 863
f 863 880 881
f 863 881 867
f 881 882 867
f 867 882 883
f 867 883 865
f 883 884 865
f 865 884 885
f 865 885 866
f 885 886 866
f 866 886 887
f 866 887 870
f 887 888 870
f 870 888 889
f 870 889 868
f 889 890 868
f 868 890 891
f 868 891 869
f 891 892 869
f 869 892 893
f 869 893 861
f 861 893 894
f 861 894 871
f 871 838 872
f 872 838 837
f 872 837 873
f 873 837 836
f 873 836 874
f 874 836 835
f 874 835 875
f 875 835 843
f 875 843 876
f 876 843 829
f 876 829 877
f 877 829 811
f 877 811 878
f 878 811 810
f 878 810 879
f 879 810 828
f 879 828 880
f 880 828 827
f 880 827 881
f 881 827 818
f 881 818 882
f 882 818 842
f 882 842 883
f 883 842 841
f 883 841 884
f 884 841 826
f 884 826 885
f 885 826 825
f 885 825 886
f 886 825 824
f 886 824 887
f 887 824 823
f 887 823 888
f 888 823 822
f 888 822 889
f 889 822 817
f 889 817 890
f 890 817 816
f 890 816 891
f 891 816 815
f 891 815 892
f 892 815 814
f 892 814 893
f 893 814 840
f 893 840 894
f 894 840 839
f 894 839 871
f 871 839 838
f 895 896 897
f 898 896 895
f 895 899 900
f 901 899 895
f 897 901 895
f 895 902 903
f 904 902 895
f 900 904 895
f 895 905 906
f 907 905 895
f 903 907 895
f 906 898 895
f 896 898 908
f 908 909 896
f 896 909 910
f 896 910 897
f 910 911 897
f 897 911 912
f 897 912 901
f 912 913 901
f 901 913 914
f 901 914 899
f 914 915 899
f 899 915 916
f 899 916 900
f 916 917 900
f 900 917 918
f 900 918 904
f 918 919 904
f 904 919 920
f 904 920 902
f 920 921 902
f 902 921 922
f 902 922 903
f 922 923 903
f 903 923 924
f 903 924 907
f 924 925 907
f 907 925 926
f 907 926 905
f 926 927 905
f 905 927 928
f 905 928 906
f 928 929 906
f 906 929 930
f 906 930 898
f 898 930 931
f 898 931 908
f 908 832 909
f 909 832 821
f 909 821 910
f 910 821 820
f 910 820 911
f 911 820 819
f 911 819 912
f 912 819 813
f 912 813 913
f 913 813 812
f 913 812 914
f 914 812 857
f 914 857 915
f 915 857 856
f 915 856 916
f 916 856 855
f 916 855 917
f 917 855 854
f 917 854 918
f 918 854 853
f 918 853 919
f 919 853 852
f 919 852 920
f 920 852 851
f 920 851 921
f 921 851 850
f 921 850 922
f 922 850 846
f 922 846 923
f 923 846 845
f 923 845 924
f 924 845 849
f 924 849 925
f 925 849 848
f 925 848 926
f 926 848 847
f 926 847 927
f 927 847 831
f 927 831 928
f 928 831 830
f 928 830 929
f 929 830 844
f 929 844 930
f 930 844 834
f 930 834 931
f 931 834 833
f 931 833 908
f 908 833 832
f 932 933 641
f 641 933 635
f 640 799 641
f 641 799 932
f 635 933 633
f 633 933 800
f 799 800 932
f 932 800 933
f 662 665 655
f 655 665 796
f 655 796 656
f 656 796 795
f 656 795 657
f 657 795 793
f 657 793 600
f 600 793 598

