# https://github.com/mikedh/trimesh

o left_hand_thumb_PIP_link.STL
v 0.01011079 0.00340130 0.01886510
v 0.01015932 0.00285130 0.01948194
v 0.00911387 0.00340130 0.01894353
v 0.00916240 0.00285130 0.01956038
v 0.00964019 0.00340130 0.01288358
v 0.00864327 0.00340130 0.01296202
v 0.00960882 0.00300130 0.01248481
v 0.00861190 0.00300130 0.01256325
v 0.00960882 -0.00299870 0.01248481
v 0.00861190 -0.00299870 0.01256325
v 0.00964019 -0.00339870 0.01288358
v 0.00864327 -0.00339870 0.01296202
v 0.01015932 -0.00284870 0.01948194
v 0.01011079 -0.00339870 0.01886510
v 0.00916240 -0.00284870 0.01956038
v 0.00911387 -0.00339870 0.01894353
v 0.00827877 0.00265130 0.01725383
v 0.00897661 0.00265130 0.01719892
v 0.00828087 0.00275130 0.01728054
v 0.00897871 0.00275130 0.01722564
v 0.00828661 0.00282451 0.01735352
v 0.00898445 0.00282451 0.01729861
v 0.00829445 0.00285130 0.01745321
v 0.00899230 0.00285130 0.01739831
v 0.00829445 -0.00284870 0.01745321
v 0.00899230 -0.00284870 0.01739831
v 0.00828661 -0.00282190 0.01735352
v 0.00898445 -0.00282190 0.01729861
v 0.00828087 -0.00274870 0.01728054
v 0.00897871 -0.00274870 0.01722564
v 0.00827877 -0.00264870 0.01725383
v 0.00897661 -0.00264870 0.01719892
v 0.00851407 -0.00284870 0.02024458
v 0.01020883 -0.00284870 0.02011125
v 0.01020883 0.00285130 0.02011125
v 0.00851407 0.00285130 0.02024458
v 0.00854523 -0.00299870 0.01171587
v 0.00854523 0.00300130 0.01171587
v 0.00849665 -0.00404870 0.01347510
v 0.00844323 -0.00424870 0.01347930
v 0.00924076 -0.00424870 0.01341655
v 0.00884200 -0.00384870 0.01344793
v 0.00864261 -0.00390229 0.01346361
v 0.00904138 -0.00390229 0.01343224
v 0.00918734 -0.00404870 0.01342076
v 0.00957950 -0.00404870 0.01840535
v 0.00963293 -0.00424870 0.01840115
v 0.00883539 -0.00424870 0.01846390
v 0.00943354 -0.00390229 0.01841684
v 0.00888882 -0.00404870 0.01845969
v 0.00903478 -0.00390229 0.01844821
v 0.00923416 -0.00384870 0.01843252
v 0.00864261 0.00390489 0.01346361
v 0.00884200 0.00385130 0.01344793
v 0.00904138 0.00390489 0.01343224
v 0.00844323 0.00425130 0.01347930
v 0.00849665 0.00405130 0.01347510
v 0.00924076 0.00425130 0.01341655
v 0.00918734 0.00405130 0.01342076
v 0.00883539 0.00425130 0.01846390
v 0.00963293 0.00425130 0.01840115
v 0.00957950 0.00405130 0.01840535
v 0.00888882 0.00405130 0.01845969
v 0.00903478 0.00390489 0.01844821
v 0.00923416 0.00385130 0.01843252
v 0.00943354 0.00390489 0.01841684
v 0.01020883 -0.00329870 0.02011125
v 0.00851407 -0.00329870 0.02024458
v 0.01018580 -0.00334519 0.01981859
v 0.00849104 -0.00334519 0.01995192
v 0.01016503 -0.00348013 0.01955457
v 0.00847027 -0.00348013 0.01968791
v 0.01014855 -0.00369030 0.01934505
v 0.00845378 -0.00369030 0.01947839
v 0.01013796 -0.00395513 0.01921053
v 0.00844320 -0.00395513 0.01934386
v 0.01013432 -0.00424870 0.01916417
v 0.00843955 -0.00424870 0.01929751
v 0.00954215 0.00330130 0.01163743
v 0.00784739 0.00330130 0.01177077
v 0.00956518 0.00334780 0.01193010
v 0.00787041 0.00334780 0.01206343
v 0.00958595 0.00348274 0.01219411
v 0.00789118 0.00348274 0.01232744
v 0.00960243 0.00369291 0.01240363
v 0.00790767 0.00369291 0.01253697
v 0.00961301 0.00395774 0.01253815
v 0.00791825 0.00395774 0.01267149
v 0.00961666 0.00425130 0.01258451
v 0.00792190 0.00425130 0.01271784
v 0.00961666 -0.00424870 0.01258451
v 0.00792190 -0.00424870 0.01271784
v 0.00961301 -0.00395513 0.01253815
v 0.00791825 -0.00395513 0.01267149
v 0.00960243 -0.00369030 0.01240363
v 0.00790767 -0.00369030 0.01253697
v 0.00958595 -0.00348013 0.01219411
v 0.00789118 -0.00348013 0.01232744
v 0.00956518 -0.00334519 0.01193010
v 0.00787041 -0.00334519 0.01206343
v 0.00954215 -0.00329870 0.01163743
v 0.00784739 -0.00329870 0.01177077
v 0.01013432 0.00425130 0.01916417
v 0.00843955 0.00425130 0.01929751
v 0.01013796 0.00395774 0.01921053
v 0.00844320 0.00395774 0.01934386
v 0.01014855 0.00369291 0.01934505
v 0.00845378 0.00369291 0.01947839
v 0.01016503 0.00348274 0.01955457
v 0.00847027 0.00348274 0.01968791
v 0.01018580 0.00334780 0.01981859
v 0.00849104 0.00334780 0.01995192
v 0.01020883 0.00330130 0.02011125
v 0.00851407 0.00330130 0.02024458
v 0.00954215 -0.00299870 0.01163743
v 0.00954215 0.00300130 0.01163743
v 0.01110606 -0.00324870 0.02004066
v 0.01030852 -0.00324870 0.02010341
v 0.01108182 -0.00329764 0.01973259
v 0.01028428 -0.00329764 0.01979534
v 0.01105995 -0.00343968 0.01945468
v 0.01026242 -0.00343968 0.01951743
v 0.01104260 -0.00366091 0.01923413
v 0.01024507 -0.00366091 0.01929688
v 0.01103146 -0.00393968 0.01909253
v 0.01023393 -0.00393968 0.01915528
v 0.01102762 -0.00424870 0.01904374
v 0.01023009 -0.00424870 0.01910649
v 0.01102762 0.00425130 0.01904374
v 0.01023009 0.00425130 0.01910649
v 0.01103146 0.00394229 0.01909253
v 0.01023393 0.00394229 0.01915528
v 0.01104260 0.00366352 0.01923413
v 0.01024507 0.00366352 0.01929688
v 0.01105995 0.00344229 0.01945468
v 0.01026242 0.00344229 0.01951743
v 0.01108182 0.00330025 0.01973259
v 0.01028428 0.00330025 0.01979534
v 0.01110606 0.00325130 0.02004066
v 0.01030852 0.00325130 0.02010341
v 0.01051781 -0.00424870 0.01256376
v 0.00972028 -0.00424870 0.01262651
v 0.01051397 -0.00393968 0.01251497
v 0.00971644 -0.00393968 0.01257772
v 0.01050283 -0.00366091 0.01237337
v 0.00970530 -0.00366091 0.01243612
v 0.01048548 -0.00343968 0.01215282
v 0.00968794 -0.00343968 0.01221556
v 0.01046361 -0.00329764 0.01187491
v 0.00966608 -0.00329764 0.01193766
v 0.01043938 -0.00324870 0.01156684
v 0.00964184 -0.00324870 0.01162959
v 0.01043938 0.00325130 0.01156684
v 0.00964184 0.00325130 0.01162959
v 0.01046361 0.00330025 0.01187491
v 0.00966608 0.00330025 0.01193766
v 0.01048548 0.00344229 0.01215282
v 0.00968794 0.00344229 0.01221556
v 0.01050283 0.00366352 0.01237337
v 0.00970530 0.00366352 0.01243612
v 0.01051397 0.00394229 0.01251497
v 0.00971644 0.00394229 0.01257772
v 0.01051781 0.00425130 0.01256376
v 0.00972028 0.00425130 0.01262651
v 0.00873824 0.00250130 0.01200161
v 0.00873824 -0.00249870 0.01200161
v 0.00913040 0.00250130 0.01698621
v 0.00913040 -0.00249870 0.01698621
v 0.01005754 -0.00249870 0.01691326
v 0.00966537 -0.00249870 0.01192867
v 0.00966537 0.00250130 0.01192867
v 0.01005754 0.00250130 0.01691326
v 0.00989228 -0.00244870 0.01913306
v 0.00989228 0.00245130 0.01913306
v 0.00878455 -0.00244870 0.01922021
v 0.00878455 0.00245130 0.01922021
v 0.00997072 -0.00244870 0.02012998
v 0.00886299 -0.00244870 0.02021713
v 0.00997072 0.00245130 0.02012998
v 0.00886299 0.00245130 0.02021713
v 0.00835214 0.00275130 0.01754898
v 0.00835214 -0.00274870 0.01754898
v 0.00856391 0.00275130 0.02024066
v 0.00856391 -0.00274870 0.02024066
v 0.01030852 -0.00274870 0.02010341
v 0.01009675 -0.00274870 0.01741172
v 0.01009675 0.00275130 0.01741172
v 0.01030852 0.00275130 0.02010341
v 0.01101688 -0.00349870 0.01890716
v 0.01104723 -0.00311169 0.01929297
v 0.01141565 -0.00349870 0.01887578
v 0.01144600 -0.00311169 0.01926160
v 0.01049820 -0.00311169 0.01231453
v 0.01052856 -0.00349870 0.01270035
v 0.01089697 -0.00311169 0.01228316
v 0.01092732 -0.00349870 0.01266897
v 0.01052856 0.00350130 0.01270035
v 0.01049820 0.00311430 0.01231453
v 0.01092732 0.00350130 0.01266897
v 0.01089697 0.00311430 0.01228316
v 0.01104723 0.00311430 0.01929297
v 0.01101688 0.00350130 0.01890716
v 0.01144600 0.00311430 0.01926160
v 0.01141565 0.00350130 0.01887578
v 0.00887124 -0.00394870 0.01394717
v 0.00918497 -0.00394870 0.01793485
v 0.00935943 -0.00399559 0.01792112
v 0.00904570 -0.00399559 0.01393344
v 0.00948715 -0.00412370 0.01791107
v 0.00917342 -0.00412370 0.01392340
v 0.00953390 -0.00429870 0.01790740
v 0.00922016 -0.00429870 0.01391972
v 0.00869678 -0.00399559 0.01396090
v 0.00901051 -0.00399559 0.01794857
v 0.00856907 -0.00412370 0.01397094
v 0.00888280 -0.00412370 0.01795862
v 0.00852232 -0.00429870 0.01397462
v 0.00883605 -0.00429870 0.01796230
v 0.00918497 0.00395130 0.01793485
v 0.00887124 0.00395130 0.01394717
v 0.00904570 0.00399819 0.01393344
v 0.00935943 0.00399819 0.01792112
v 0.00917342 0.00412630 0.01392340
v 0.00948715 0.00412630 0.01791107
v 0.00922016 0.00430130 0.01391972
v 0.00953390 0.00430130 0.01790740
v 0.00901051 0.00399819 0.01794857
v 0.00869678 0.00399819 0.01396090
v 0.00888280 0.00412630 0.01795862
v 0.00856907 0.00412630 0.01397094
v 0.00883605 0.00430130 0.01796230
v 0.00852232 0.00430130 0.01397462
v 0.00857289 -0.00284870 0.02099227
v 0.01056673 -0.00284870 0.02083541
v 0.00851799 -0.00284870 0.02029443
v 0.01051183 -0.00284870 0.02013757
v 0.01056673 0.00285130 0.02083541
v 0.01051183 0.00285130 0.02013757
v 0.00857289 0.00285130 0.02099227
v 0.00851799 0.00285130 0.02029443
v 0.01146438 0.00500130 0.01949519
v 0.00847362 0.00500130 0.01973049
v 0.01156365 0.00373562 0.02075697
v 0.00857289 0.00373562 0.02099227
v 0.01077932 0.00373562 0.01078778
v 0.00778856 0.00373562 0.01102308
v 0.01087859 0.00500130 0.01204957
v 0.00788783 0.00500130 0.01228487
v 0.01087859 -0.00499870 0.01204957
v 0.00788783 -0.00499870 0.01228487
v 0.01077932 -0.00373301 0.01078778
v 0.00778856 -0.00373301 0.01102308
v 0.01156365 -0.00373301 0.02075697
v 0.00857289 -0.00373301 0.02099227
v 0.01146438 -0.00499870 0.01949519
v 0.00847362 -0.00499870 0.01973049
v 0.01106849 -0.00357058 0.01956313
v 0.01105287 -0.00376969 0.01936463
v 0.01104284 -0.00402058 0.01923719
v 0.01049256 -0.00376969 0.01224287
v 0.01047695 -0.00357058 0.01204437
v 0.01045727 -0.00344275 0.01179426
v 0.01050259 -0.00402058 0.01237031
v 0.01050605 -0.00429870 0.01241423
v 0.01103939 -0.00429870 0.01919328
v 0.01047695 0.00357319 0.01204437
v 0.01049256 0.00377230 0.01224287
v 0.01050259 0.00402319 0.01237031
v 0.01045727 0.00344535 0.01179426
v 0.01043546 0.00340130 0.01151700
v 0.01043546 -0.00339870 0.01151700
v 0.01108816 -0.00344275 0.01981325
v 0.01110998 -0.00339870 0.02009051
v 0.01110998 0.00340130 0.02009051
v 0.01108816 0.00344535 0.01981325
v 0.01106849 0.00357319 0.01956313
v 0.01105287 0.00377230 0.01936463
v 0.01104284 0.00402319 0.01923719
v 0.01103939 0.00430130 0.01919328
v 0.01050605 0.00430130 0.01241423
v 0.00851799 -0.00339870 0.02029443
v 0.00849617 -0.00344275 0.02001717
v 0.00847650 -0.00357058 0.01976705
v 0.00846088 -0.00376969 0.01956856
v 0.00845085 -0.00402058 0.01944112
v 0.00844740 -0.00429870 0.01939720
v 0.00791406 -0.00429870 0.01261815
v 0.00791060 -0.00402058 0.01257424
v 0.00790057 -0.00376969 0.01244680
v 0.00788496 -0.00357058 0.01224830
v 0.00786528 -0.00344275 0.01199818
v 0.00784347 -0.00339870 0.01172092
v 0.00784347 0.00340130 0.01172092
v 0.00786528 0.00344535 0.01199818
v 0.00788496 0.00357319 0.01224830
v 0.00790057 0.00377230 0.01244680
v 0.00791060 0.00402319 0.01257424
v 0.00791406 0.00430130 0.01261815
v 0.00844740 0.00430130 0.01939720
v 0.00845085 0.00402319 0.01944112
v 0.00846088 0.00377230 0.01956856
v 0.00847650 0.00357319 0.01976705
v 0.00849617 0.00344535 0.02001717
v 0.00851799 0.00340130 0.02029443
v 0.01090089 0.00305130 0.01233301
v 0.01060182 0.00305130 0.01235654
v 0.01093226 0.00345130 0.01273177
v 0.01063319 0.00345130 0.01275530
v 0.01141070 0.00345130 0.01881298
v 0.01111163 0.00345130 0.01883651
v 0.01144208 0.00305130 0.01921175
v 0.01114300 0.00305130 0.01923528
v 0.01144208 -0.00304870 0.01921175
v 0.01114300 -0.00304870 0.01923528
v 0.01141070 -0.00344870 0.01881298
v 0.01111163 -0.00344870 0.01883651
v 0.01093226 -0.00344870 0.01273177
v 0.01063319 -0.00344870 0.01275530
v 0.01090089 -0.00304870 0.01233301
v 0.01060182 -0.00304870 0.01235654
v -0.00013429 -0.00362500 0.01104287
v 0.00062886 -0.00362500 0.02074290
v -0.00013429 -0.00230000 0.01104287
v 0.00062886 -0.00230000 0.02074290
v 0.00485031 -0.00100000 0.01065071
v 0.00574753 -0.00100000 0.01058012
v 0.00561346 -0.00100000 0.02035073
v 0.00662598 -0.00100000 0.02174561
v 0.00162578 -0.00100000 0.02066446
v 0.00174107 -0.00100000 0.02212993
v -0.00136498 -0.00462500 0.02089976
v -0.00036806 -0.00462500 0.02082133
v -0.00234539 -0.00462500 0.00843827
v -0.00113121 -0.00462500 0.01112130
v 0.00023871 -0.00462500 0.01101352
v 0.00014652 -0.00462500 0.01089385
v 0.00002601 -0.00462500 0.01053040
v 0.00008820 -0.00462500 0.01015258
v 0.00031885 -0.00462500 0.00984694
v 0.00066512 -0.00462500 0.00968350
v 0.00363613 -0.00462500 0.00796767
v 0.00104768 -0.00462500 0.00969969
v 0.00137890 -0.00462500 0.00989182
v 0.00158289 -0.00462500 0.01021587
v 0.00385339 -0.00462500 0.01072914
v 0.00161292 -0.00462500 0.01059759
v 0.00148654 -0.00462500 0.01091535
v 0.00074415 0.00300000 0.02220837
v -0.00013429 0.00300000 0.01104287
v 0.00074415 0.00170000 0.02220837
v -0.00013429 0.00170000 0.01104287
v 0.00878156 0.00293562 0.01089480
v 0.00878156 0.00373562 0.01089480
v 0.00778464 0.00293562 0.01097323
v 0.00778464 0.00373562 0.01097323
v 0.00774150 0.00373562 0.01042493
v 0.00873842 0.00373562 0.01034650
v 0.00774150 0.00293562 0.01042493
v 0.00873842 0.00293562 0.01034650
v 0.00847362 0.00560130 0.01973049
v 0.00861982 0.00560130 0.02158875
v 0.00847362 0.00505130 0.01973049
v 0.00778464 -0.00293301 0.01097323
v 0.00861982 0.00373562 0.02158875
v 0.00857681 0.00373562 0.02104212
v 0.00774137 0.00560130 0.01042325
v 0.00788783 0.00560130 0.01228487
v 0.00788783 0.00505130 0.01228487
v 0.00861982 -0.00559870 0.02158875
v 0.00847362 -0.00559870 0.01973049
v 0.00847362 -0.00504870 0.01973049
v 0.00788783 -0.00504870 0.01228487
v 0.00857681 -0.00373301 0.02104212
v 0.00861982 -0.00373301 0.02158875
v 0.00774150 -0.00293301 0.01042493
v 0.00774150 -0.00373301 0.01042493
v 0.00774137 -0.00559870 0.01042325
v 0.00778464 -0.00373301 0.01097323
v 0.00788783 -0.00559870 0.01228487
v -0.00136498 -0.00762500 0.02089976
v -0.00234539 -0.00762500 0.00843827
v 0.00469242 -0.00161732 0.02042319
v 0.00490853 -0.00129289 0.02040619
v 0.00523195 -0.00107612 0.02038075
v 0.00055297 -0.00400768 0.02074887
v 0.00461654 -0.00762500 0.02042916
v 0.00033687 -0.00433211 0.02076587
v 0.00001344 -0.00454888 0.02079131
v 0.00461654 -0.00200000 0.02042916
v 0.00162578 -0.00230000 0.02066446
v 0.00363613 -0.00762500 0.00796767
v 0.00385339 -0.00200000 0.01072914
v -0.00161764 -0.00762500 0.00838101
v -0.00161764 -0.00642500 0.00838101
v 0.00290838 -0.00642500 0.00802493
v 0.00290838 -0.00762500 0.00802493
v 0.00340028 -0.00762500 0.01427729
v -0.00021013 -0.00762500 0.01628219
v -0.00067023 -0.00762500 0.01582858
v -0.00098391 -0.00762500 0.01526372
v 0.00223931 -0.00762500 0.01643987
v 0.00275378 -0.00762500 0.01604901
v -0.00112573 -0.00762500 0.01463337
v 0.00313729 -0.00762500 0.01552903
v 0.00335877 -0.00762500 0.01492206
v 0.00035914 -0.00762500 0.01658780
v 0.00099144 -0.00762500 0.01672064
v 0.00163556 -0.00762500 0.01666997
v -0.00112573 -0.00642500 0.01463337
v 0.00340028 -0.00642500 0.01427729
v 0.00335877 -0.00642500 0.01492206
v 0.00313729 -0.00642500 0.01552903
v 0.00275378 -0.00642500 0.01604901
v 0.00223931 -0.00642500 0.01643987
v 0.00163556 -0.00642500 0.01666997
v 0.00099144 -0.00642500 0.01672064
v 0.00035914 -0.00642500 0.01658780
v -0.00021013 -0.00642500 0.01628219
v -0.00067023 -0.00642500 0.01582858
v -0.00098391 -0.00642500 0.01526372
v 0.00064532 -0.00642500 0.00958548
v 0.00025577 -0.00642500 0.00976935
v 0.00107570 -0.00642500 0.00960370
v 0.00144832 -0.00642500 0.00981984
v 0.00109920 -0.00642500 0.01535453
v 0.00068568 -0.00642500 0.01523383
v 0.00037562 -0.00642500 0.01493480
v 0.00006189 -0.00642500 0.01094712
v -0.00007368 -0.00642500 0.01053824
v -0.00000372 -0.00642500 0.01011320
v 0.00024005 -0.00642500 0.01452592
v 0.00031001 -0.00642500 0.01410087
v 0.00056950 -0.00642500 0.01375703
v 0.00152144 -0.00642500 0.01526922
v 0.00185567 -0.00642500 0.01499747
v 0.00154194 -0.00642500 0.01100979
v 0.00171159 -0.00642500 0.01061384
v 0.00095905 -0.00642500 0.01357315
v 0.00078547 -0.00642500 0.01136685
v 0.00037195 -0.00642500 0.01124616
v 0.00202532 -0.00642500 0.01460151
v 0.00167781 -0.00642500 0.01018440
v 0.00199154 -0.00642500 0.01417207
v 0.00176205 -0.00642500 0.01380752
v 0.00138943 -0.00642500 0.01359138
v 0.00120771 -0.00642500 0.01128154
v 0.00574753 0.00300000 0.01058012
v 0.00662598 0.00300000 0.02174561
v 0.00174107 0.00170000 0.02212993
v 0.00700748 0.00307612 0.02171560
v 0.00700748 -0.00107612 0.02171560
v 0.00961674 0.00373562 0.02151032
v 0.00733091 -0.00129289 0.02169015
v 0.00754701 -0.00161732 0.02167315
v 0.00762290 -0.00559870 0.02166718
v 0.00762290 -0.00200000 0.02166718
v 0.00961674 -0.00373301 0.02151032
v 0.00754701 0.00361732 0.02167315
v 0.00733091 0.00329289 0.02169015
v 0.00762290 0.00560130 0.02166718
v 0.00762290 0.00400000 0.02166718
v 0.00073586 -0.00462500 0.01514733
v 0.00110343 -0.00462500 0.01525461
v 0.00110343 -0.00632500 0.01525461
v 0.00120002 -0.00462500 0.01525287
v 0.00147875 -0.00632500 0.01517879
v 0.00147875 -0.00462500 0.01517879
v 0.00177585 -0.00632500 0.01493723
v 0.00177585 -0.00462500 0.01493723
v 0.00192665 -0.00632500 0.01458527
v 0.00192665 -0.00462500 0.01458527
v 0.00189662 -0.00632500 0.01420355
v 0.00189662 -0.00462500 0.01420355
v 0.00169263 -0.00632500 0.01387950
v 0.00169263 -0.00462500 0.01387950
v 0.00136142 -0.00632500 0.01368737
v 0.00136142 -0.00462500 0.01368737
v 0.00097885 -0.00632500 0.01367117
v 0.00097885 -0.00462500 0.01367117
v 0.00063258 -0.00632500 0.01383462
v 0.00063258 -0.00462500 0.01383462
v 0.00040193 -0.00632500 0.01414026
v 0.00040193 -0.00462500 0.01414026
v 0.00033974 -0.00632500 0.01451808
v 0.00033974 -0.00462500 0.01451808
v 0.00046025 -0.00632500 0.01488152
v 0.00046025 -0.00462500 0.01488152
v 0.00073586 -0.00632500 0.01514733
v 0.00014652 -0.00632500 0.01089385
v 0.00042213 -0.00632500 0.01115966
v 0.00042213 -0.00462500 0.01115966
v 0.00078970 -0.00632500 0.01126694
v 0.00078970 -0.00462500 0.01126694
v 0.00116502 -0.00632500 0.01119111
v 0.00116502 -0.00462500 0.01119111
v 0.00146212 -0.00632500 0.01094955
v 0.00146212 -0.00462500 0.01094955
v 0.00161292 -0.00632500 0.01059759
v 0.00158289 -0.00632500 0.01021587
v 0.00137890 -0.00632500 0.00989182
v 0.00104768 -0.00632500 0.00969969
v 0.00066512 -0.00632500 0.00968350
v 0.00031885 -0.00632500 0.00984694
v 0.00008820 -0.00632500 0.01015258
v 0.00002601 -0.00632500 0.01053040
v 0.00086263 0.00170000 0.01096444
v 0.00666857 -0.00161732 0.01050765
v 0.00645246 -0.00129289 0.01052466
v 0.00612904 0.00307612 0.01055010
v 0.00086263 -0.00230000 0.01096444
v -0.00021018 -0.00400768 0.01104884
v -0.00042628 -0.00433211 0.01106584
v -0.00074971 -0.00454888 0.01109129
v 0.00645246 0.00329289 0.01052466
v 0.00666857 0.00361732 0.01050765
v 0.00674445 0.00400000 0.01050168
v 0.00674445 0.00560130 0.01050168
v 0.00674445 -0.00200000 0.01050168
v 0.00674445 -0.00559870 0.01050168
v 0.00446880 -0.00107612 0.01068072
v 0.00612904 -0.00107612 0.01055010
v 0.00414538 -0.00129289 0.01070617
v 0.00392927 -0.00161732 0.01072317
v 0.00888475 -0.00559870 0.01220643
v 0.00947054 -0.00559870 0.01965205
v 0.00888475 0.00560130 0.01220643
v 0.00947054 0.00560130 0.01965205
v 0.00947054 -0.00504870 0.01965205
v 0.00888475 -0.00504870 0.01220643
v 0.00957373 0.00373562 0.02096369
v 0.00957373 -0.00373301 0.02096369
v 0.00878156 -0.00293301 0.01089480
v 0.00878156 -0.00373301 0.01089480
v 0.00873842 -0.00373301 0.01034650
v 0.00873842 -0.00293301 0.01034650
v 0.00113727 -0.00462500 0.01445533
v 0.00137300 -0.00070000 0.01745157
v 0.00136673 -0.00050706 0.01737190
v 0.00095675 -0.00030000 0.01216074
v 0.00095888 -0.00009294 0.01218792
v 0.00145872 0.00039282 0.01854102
v 0.00147171 0.00026569 0.01870620
v 0.00148168 0.00010000 0.01883294
v 0.00148795 -0.00009294 0.01891262
v 0.00141110 -0.00107274 0.01793584
v 0.00096515 0.00010000 0.01226759
v 0.00097512 0.00026569 0.01239433
v 0.00098812 0.00039282 0.01255951
v 0.00149009 -0.00030000 0.01893979
v 0.00148795 -0.00050706 0.01891262
v 0.00148168 -0.00070000 0.01883294
v 0.00147171 -0.00086569 0.01870620
v 0.00145872 -0.00099282 0.01854102
v 0.00139597 -0.00099282 0.01774349
v 0.00138297 -0.00086569 0.01757831
v 0.00136460 -0.00030000 0.01734472
v 0.00106386 0.00026569 0.01352222
v 0.00107383 0.00010000 0.01364896
v 0.00100325 0.00047274 0.01275186
v 0.00101949 0.00050000 0.01295828
v 0.00103573 0.00047274 0.01316469
v 0.00137300 0.00010000 0.01745157
v 0.00138297 0.00026569 0.01757831
v 0.00139597 0.00039282 0.01774349
v 0.00141110 0.00047274 0.01793584
v 0.00142734 0.00050000 0.01814226
v 0.00144358 0.00047274 0.01834867
v 0.00144358 -0.00107274 0.01834867
v 0.00142734 -0.00110000 0.01814226
v 0.00136673 -0.00009294 0.01737190
v 0.00105087 0.00039282 0.01335704
v 0.00107383 -0.00070000 0.01364896
v 0.00106386 -0.00086569 0.01352222
v 0.00108010 -0.00009294 0.01372864
v 0.00108224 -0.00030000 0.01375581
v 0.00108010 -0.00050706 0.01372864
v 0.00105087 -0.00099282 0.01335704
v 0.00103573 -0.00107274 0.01316469
v 0.00101949 -0.00110000 0.01295828
v 0.00100325 -0.00107274 0.01275186
v 0.00098812 -0.00099282 0.01255951
v 0.00097512 -0.00086569 0.01239433
v 0.00096515 -0.00070000 0.01226759
v 0.00095888 -0.00050706 0.01218792
v 0.00479248 -0.00030000 0.01787750
v 0.00439359 0.00024127 0.01759542
v 0.00437565 0.00001250 0.01736736
v 0.00441810 0.00032500 0.01790696
v 0.00437565 -0.00061250 0.01736736
v 0.00439359 -0.00084127 0.01759542
v 0.00436908 -0.00030000 0.01728388
v 0.00444261 -0.00084127 0.01821850
v 0.00446055 -0.00061250 0.01844656
v 0.00441810 -0.00092500 0.01790696
v 0.00446055 0.00001250 0.01844656
v 0.00444261 0.00024127 0.01821850
v 0.00446712 -0.00030000 0.01853003
v 0.00158912 0.00030370 0.01796727
v 0.00157729 0.00024127 0.01781699
v 0.00156714 0.00014194 0.01768795
v 0.00155935 0.00001250 0.01758893
v 0.00155445 -0.00013824 0.01752669
v 0.00155278 -0.00030000 0.01750546
v 0.00155445 -0.00046176 0.01752669
v 0.00155935 -0.00061250 0.01758893
v 0.00156714 -0.00074194 0.01768795
v 0.00157729 -0.00084127 0.01781699
v 0.00158912 -0.00090370 0.01796727
v 0.00160180 -0.00092500 0.01812853
v 0.00161449 -0.00090370 0.01828980
v 0.00162631 -0.00084127 0.01844007
v 0.00163647 -0.00074194 0.01856911
v 0.00164426 -0.00061250 0.01866813
v 0.00164915 -0.00046176 0.01873038
v 0.00165082 -0.00030000 0.01875161
v 0.00164915 -0.00013824 0.01873038
v 0.00164426 0.00001250 0.01866813
v 0.00163647 0.00014194 0.01856911
v 0.00162631 0.00024127 0.01844007
v 0.00161449 0.00030370 0.01828980
v 0.00160180 0.00032500 0.01812853
v 0.00438463 -0.00030000 0.01269352
v 0.00398574 0.00024127 0.01241144
v 0.00396780 0.00001250 0.01218338
v 0.00401025 0.00032500 0.01272298
v 0.00396780 -0.00061250 0.01218338
v 0.00398574 -0.00084127 0.01241144
v 0.00396123 -0.00030000 0.01209990
v 0.00403476 -0.00084127 0.01303452
v 0.00405270 -0.00061250 0.01326258
v 0.00401025 -0.00092500 0.01272298
v 0.00405270 0.00001250 0.01326258
v 0.00403476 0.00024127 0.01303452
v 0.00405927 -0.00030000 0.01334605
v 0.00118127 0.00030370 0.01278329
v 0.00116944 0.00024127 0.01263301
v 0.00115929 0.00014194 0.01250397
v 0.00115150 0.00001250 0.01240495
v 0.00114660 -0.00013824 0.01234271
v 0.00114493 -0.00030000 0.01232148
v 0.00114660 -0.00046176 0.01234271
v 0.00115150 -0.00061250 0.01240495
v 0.00115929 -0.00074194 0.01250397
v 0.00116944 -0.00084127 0.01263301
v 0.00118127 -0.00090370 0.01278329
v 0.00119395 -0.00092500 0.01294455
v 0.00120664 -0.00090370 0.01310581
v 0.00121846 -0.00084127 0.01325609
v 0.00122862 -0.00074194 0.01338513
v 0.00123641 -0.00061250 0.01348415
v 0.00124130 -0.00046176 0.01354639
v 0.00124297 -0.00030000 0.01356762
v 0.00124130 -0.00013824 0.01354639
v 0.00123641 0.00001250 0.01348415
v 0.00122862 0.00014194 0.01338513
v 0.00121846 0.00024127 0.01325609
v 0.00120664 0.00030370 0.01310581
v 0.00119395 0.00032500 0.01294455
v 0.00888475 0.00505130 0.01220643
v 0.00947054 0.00505130 0.01965205
v 0.00338034 -0.00762499 0.01427886
v 0.00338034 -0.00642503 0.01427886
v 0.00335675 -0.00642503 0.01482468
v 0.00335675 -0.00762499 0.01482468
v 0.00313310 -0.00642503 0.01549416
v 0.00313310 -0.00762499 0.01549416
v 0.00271304 -0.00642503 0.01606140
v 0.00271304 -0.00762499 0.01606140
v 0.00213790 -0.00642503 0.01647058
v 0.00213790 -0.00762499 0.01647058
v 0.00162269 -0.00642503 0.01665235
v 0.00162269 -0.00762499 0.01665235
v 0.00111362 -0.00642503 0.01670521
v 0.00111362 -0.00762499 0.01670521
v 0.00042104 -0.00642503 0.01658829
v 0.00042104 -0.00762499 0.01658829
v -0.00020175 -0.00642503 0.01626351
v -0.00020175 -0.00762499 0.01626351
v -0.00069405 -0.00642503 0.01576253
v -0.00069405 -0.00762499 0.01576253
v -0.00100788 -0.00642503 0.01513416
v -0.00100788 -0.00762499 0.01513416
v -0.00110579 -0.00642503 0.01463181
v -0.00110579 -0.00762499 0.01463181
v -0.00164094 -0.00762499 0.00782994
v -0.00164093 -0.00642503 0.00782994
v 0.00284521 -0.00762499 0.00747700
v 0.00284521 -0.00642503 0.00747700
v 0.00137459 -0.00672496 0.01552943
v 0.00156876 -0.00762499 0.01640823
v 0.00111064 -0.00672496 0.01555501
v 0.00108886 -0.00762499 0.01645475
v 0.00084825 -0.00672496 0.01551668
v 0.00061177 -0.00762499 0.01638506
v 0.00060265 -0.00672496 0.01541667
v 0.00016523 -0.00762499 0.01620322
v 0.00038812 -0.00672496 0.01526079
v -0.00022482 -0.00762499 0.01591981
v 0.00021713 -0.00672496 0.01505810
v -0.00053572 -0.00762499 0.01555128
v 0.00009961 -0.00672496 0.01482038
v -0.00074938 -0.00762499 0.01511906
v 0.00004240 -0.00672496 0.01456145
v -0.00085340 -0.00762499 0.01464827
v 0.00004882 -0.00672496 0.01429635
v -0.00084173 -0.00762499 0.01416627
v 0.00011850 -0.00672496 0.01404048
v -0.00071504 -0.00762499 0.01370106
v 0.00024738 -0.00672496 0.01380873
v -0.00048071 -0.00762499 0.01327969
v 0.00042799 -0.00672496 0.01361455
v -0.00015234 -0.00762499 0.01292664
v 0.00064981 -0.00672496 0.01346924
v 0.00025097 -0.00762499 0.01266244
v 0.00085476 -0.00672496 0.01339223
v 0.00062361 -0.00762499 0.01252242
v 0.00089996 -0.00672496 0.01338124
v 0.00070579 -0.00762499 0.01250243
v 0.00094558 -0.00672496 0.01337216
v 0.00202358 -0.00762499 0.01624823
v 0.00162474 -0.00672496 0.01544142
v 0.00242689 -0.00762499 0.01598402
v 0.00184656 -0.00672496 0.01529611
v 0.00275526 -0.00762499 0.01563097
v 0.00202716 -0.00672496 0.01510194
v 0.00298959 -0.00762499 0.01520960
v 0.00215605 -0.00672496 0.01487018
v 0.00311627 -0.00762499 0.01474440
v 0.00222572 -0.00672496 0.01461432
v 0.00312795 -0.00762499 0.01426239
v 0.00223214 -0.00672496 0.01434922
v 0.00302393 -0.00762499 0.01379160
v 0.00217493 -0.00672496 0.01409028
v 0.00281026 -0.00762499 0.01335938
v 0.00205742 -0.00672496 0.01385256
v 0.00249937 -0.00762499 0.01299086
v 0.00188643 -0.00672496 0.01364987
v 0.00210932 -0.00762499 0.01270744
v 0.00167190 -0.00672496 0.01349399
v 0.00166278 -0.00762499 0.01252561
v 0.00142630 -0.00672496 0.01339398
v 0.00118569 -0.00762499 0.01245592
v 0.00116390 -0.00672496 0.01335565
v 0.00098041 -0.00762499 0.01246149
v 0.00078874 -0.00762499 0.01248593
v 0.00024738 -0.00642503 0.01380873
v 0.00064981 -0.00642503 0.01346924
v -0.00021412 -0.00642503 0.01083271
v -0.00687141 -0.00642503 -0.00409679
v -0.00183687 -0.00642503 0.00079115
v -0.00199627 -0.00642503 0.00012216
v -0.00026491 -0.00642503 0.01030867
v -0.00006635 -0.00642503 0.00982105
v 0.00033608 -0.00642503 0.00948156
v -0.00091103 -0.00642503 0.00178045
v -0.00146028 -0.00642503 0.00136659
v -0.00789041 -0.00642503 -0.00131963
v -0.00197029 -0.00642503 0.00775358
v -0.00751039 -0.00642503 -0.00275572
v 0.00085017 -0.00642503 0.00936798
v 0.00135817 -0.00642503 0.00950631
v 0.00146028 -0.00642503 -0.00136659
v 0.00183687 -0.00642503 -0.00079115
v 0.00706647 -0.00642503 -0.00375034
v 0.00763265 -0.00642503 -0.00239637
v 0.00199627 -0.00642503 -0.00012216
v 0.00794198 -0.00642503 -0.00096175
v 0.00798403 -0.00642503 0.00050523
v 0.00191963 -0.00642503 0.00056127
v 0.00775739 -0.00642503 0.00195521
v 0.00726969 -0.00642503 0.00333939
v 0.00161602 -0.00642503 0.00117834
v 0.00653735 -0.00642503 0.00461119
v -0.00191963 -0.00642503 -0.00056127
v -0.00161602 -0.00642503 -0.00117834
v -0.00599550 -0.00642503 -0.00529660
v -0.00112133 -0.00642503 -0.00165609
v -0.00049406 -0.00642503 -0.00193802
v -0.00366081 -0.00642503 -0.00711326
v -0.00491286 -0.00642503 -0.00631378
v -0.00739268 -0.00642503 0.00305749
v -0.00669994 -0.00642503 0.00437160
v 0.00174369 -0.00642503 0.00986488
v 0.00191841 -0.00642503 0.01036154
v 0.00626247 -0.00642503 -0.00497810
v 0.00524772 -0.00642503 -0.00603833
v 0.00091103 -0.00642503 -0.00178045
v -0.00799836 -0.00642503 0.00016196
v -0.00783052 -0.00642503 0.00163797
v 0.00106086 -0.00642503 0.01154175
v 0.00053452 -0.00642503 0.01152900
v 0.00007439 -0.00642503 0.01127312
v 0.00167190 -0.00642503 0.01349399
v 0.00205742 -0.00642503 0.01385256
v 0.00223214 -0.00642503 0.01434922
v 0.00215605 -0.00642503 0.01487018
v 0.00004882 -0.00642503 0.01429635
v 0.00009961 -0.00642503 0.01482038
v -0.00015492 -0.00642503 -0.00799850
v -0.00012216 -0.00642503 -0.00199627
v 0.00025407 -0.00642503 -0.00198380
v 0.00405636 -0.00642503 -0.00689535
v 0.00272850 -0.00642503 -0.00752033
v 0.00130881 -0.00642503 -0.00789221
v 0.00558499 -0.00642503 0.00572781
v 0.00112133 -0.00642503 0.00165609
v 0.00444469 -0.00642503 0.00665167
v -0.00577617 -0.00642503 0.00553497
v -0.00465324 -0.00642503 0.00650749
v -0.00336986 -0.00642503 0.00725562
v 0.00184232 -0.00642503 0.01088250
v 0.00153283 -0.00642503 0.01130843
v 0.00116390 -0.00642503 0.01335565
v -0.00048864 -0.00642503 -0.00798506
v -0.00082557 -0.00642503 -0.00795729
v -0.00228255 -0.00642503 -0.00766746
v -0.00025407 -0.00642503 0.00198380
v 0.00137459 -0.00642503 0.01552943
v 0.00184656 -0.00642503 0.01529611
v 0.00084825 -0.00642503 0.01551668
v 0.00038812 -0.00642503 0.01526079
v 0.00315481 -0.00642503 0.00735168
v 0.00049406 -0.00642503 0.00193802
v 0.00012216 -0.00642503 0.00199627
v -0.00199627 -0.00762499 0.00012216
v -0.00183687 -0.00762499 0.00079115
v -0.00789041 -0.00762499 -0.00131963
v -0.00191963 -0.00762499 -0.00056127
v -0.00751039 -0.00762499 -0.00275572
v -0.00161602 -0.00762499 -0.00117834
v 0.00267586 -0.00762499 0.01122193
v 0.00244152 -0.00762499 0.01164330
v 0.00211316 -0.00762499 0.01199634
v 0.00049406 -0.00762499 0.00193802
v 0.00315481 -0.00762499 0.00735168
v 0.00112133 -0.00762499 0.00165609
v 0.00170985 -0.00762499 0.01226055
v 0.00161602 -0.00762499 0.00117834
v 0.00558499 -0.00762499 0.00572781
v 0.00444469 -0.00762499 0.00665167
v -0.00739268 -0.00762499 0.00305749
v -0.00783052 -0.00762499 0.00163797
v -0.00799836 -0.00762499 0.00016196
v 0.00280254 -0.00762499 0.01075672
v 0.00281422 -0.00762499 0.01027471
v 0.00271020 -0.00762499 0.00980392
v 0.00077513 -0.00762499 0.01246707
v 0.00191963 -0.00762499 0.00056127
v 0.00726969 -0.00762499 0.00333939
v 0.00653735 -0.00762499 0.00461119
v 0.00199627 -0.00762499 -0.00012216
v 0.00798403 -0.00762499 0.00050523
v 0.00775739 -0.00762499 0.00195521
v -0.00197029 -0.00762499 0.00775358
v -0.00336986 -0.00762499 0.00725562
v -0.00465324 -0.00762499 0.00650749
v 0.00125502 -0.00762499 0.01242055
v 0.00183687 -0.00762499 -0.00079115
v 0.00763265 -0.00762499 -0.00239637
v 0.00794198 -0.00762499 -0.00096175
v 0.00091103 -0.00762499 -0.00178045
v 0.00524772 -0.00762499 -0.00603833
v 0.00146028 -0.00762499 -0.00136659
v 0.00626247 -0.00762499 -0.00497810
v 0.00706647 -0.00762499 -0.00375034
v -0.00577617 -0.00762499 0.00553497
v -0.00669994 -0.00762499 0.00437160
v 0.00249653 -0.00762499 0.00937170
v 0.00218564 -0.00762499 0.00900318
v 0.00179559 -0.00762499 0.00871976
v -0.00687141 -0.00762499 -0.00409679
v -0.00599550 -0.00762499 -0.00529660
v -0.00112133 -0.00762499 -0.00165609
v -0.00014850 -0.00762499 0.01221555
v 0.00029804 -0.00762499 0.01239738
v -0.00146028 -0.00762499 0.00136659
v -0.00091103 -0.00762499 0.00178045
v -0.00025407 -0.00762499 0.00198380
v 0.00025407 -0.00762499 -0.00198380
v 0.00272850 -0.00762499 -0.00752033
v 0.00405636 -0.00762499 -0.00689535
v -0.00491286 -0.00762499 -0.00631378
v -0.00366081 -0.00762499 -0.00711326
v -0.00049406 -0.00762499 -0.00193802
v -0.00079444 -0.00762499 0.00929201
v -0.00102877 -0.00762499 0.00971338
v -0.00115546 -0.00762499 0.01017859
v -0.00116713 -0.00762499 0.01066059
v -0.00106311 -0.00762499 0.01113139
v 0.00030988 -0.00762499 0.00853474
v -0.00006276 -0.00762499 0.00867476
v -0.00046607 -0.00762499 0.00893896
v -0.00228255 -0.00762499 -0.00766746
v -0.00082557 -0.00762499 -0.00795729
v -0.00012216 -0.00762499 -0.00199627
v -0.00048864 -0.00762499 -0.00798506
v -0.00015492 -0.00762499 -0.00799850
v 0.00130881 -0.00762499 -0.00789221
v -0.00084945 -0.00762499 0.01156360
v -0.00053855 -0.00762499 0.01193213
v 0.00134904 -0.00762499 0.00853793
v 0.00087196 -0.00762499 0.00846824
v 0.00012216 -0.00762499 0.00199627
v 0.00047501 -0.00762499 0.00849826
v 0.00039206 -0.00762499 0.00851475
v 0.00058623 -0.00672496 0.00939356
v 0.00054103 -0.00672496 0.00940455
v 0.00033608 -0.00672496 0.00948156
v 0.00011425 -0.00672496 0.00962687
v -0.00006635 -0.00672496 0.00982105
v -0.00019523 -0.00672496 0.01005280
v -0.00026491 -0.00672496 0.01030867
v -0.00027133 -0.00672496 0.01057377
v -0.00021412 -0.00672496 0.01083271
v -0.00009660 -0.00672496 0.01107043
v 0.00007439 -0.00672496 0.01127312
v 0.00028892 -0.00672496 0.01142900
v 0.00053452 -0.00672496 0.01152900
v 0.00079691 -0.00672496 0.01156733
v 0.00106086 -0.00672496 0.01154175
v 0.00063185 -0.00672496 0.00938448
v 0.00085017 -0.00672496 0.00936798
v 0.00111257 -0.00672496 0.00940630
v 0.00135817 -0.00672496 0.00950631
v 0.00157270 -0.00672496 0.00966219
v 0.00174369 -0.00672496 0.00986488
v 0.00186120 -0.00672496 0.01010260
v 0.00191841 -0.00672496 0.01036154
v 0.00191199 -0.00672496 0.01062664
v 0.00184232 -0.00672496 0.01088250
v 0.00171343 -0.00672496 0.01111426
v 0.00153283 -0.00672496 0.01130843
v 0.00131101 -0.00672496 0.01145374
f 1 2 3
f 3 2 4
f 5 6 7
f 7 6 8
f 9 10 11
f 11 10 12
f 13 14 15
f 15 14 16
f 11 12 14
f 14 12 16
f 1 3 5
f 5 3 6
f 17 18 19
f 19 18 20
f 19 20 21
f 21 20 22
f 21 22 23
f 23 22 24
f 25 26 27
f 27 26 28
f 27 28 29
f 29 28 30
f 29 30 31
f 31 30 32
f 32 18 31
f 31 18 17
f 26 25 15
f 15 25 33
f 15 33 13
f 13 33 34
f 2 35 4
f 4 35 36
f 4 36 24
f 24 36 23
f 32 30 12
f 32 12 18
f 18 12 10
f 18 10 20
f 15 16 26
f 26 16 12
f 26 12 28
f 28 12 30
f 6 3 24
f 24 3 4
f 37 38 10
f 10 38 8
f 10 8 20
f 20 8 6
f 20 6 22
f 22 6 24
f 39 40 41
f 42 43 44
f 44 43 39
f 44 39 45
f 45 39 41
f 46 47 48
f 46 48 49
f 50 51 48
f 48 51 52
f 48 52 49
f 48 40 50
f 50 40 39
f 50 39 51
f 51 39 43
f 51 43 52
f 52 43 42
f 52 42 49
f 49 42 44
f 49 44 46
f 46 44 45
f 46 45 47
f 47 45 41
f 53 54 55
f 56 57 58
f 58 57 53
f 58 53 59
f 59 53 55
f 60 61 62
f 63 60 64
f 64 60 62
f 64 62 65
f 65 62 66
f 61 58 62
f 62 58 59
f 62 59 66
f 66 59 55
f 66 55 65
f 65 55 54
f 65 54 64
f 64 54 53
f 64 53 63
f 63 53 57
f 63 57 60
f 60 57 56
f 67 68 69
f 69 68 70
f 69 70 71
f 71 70 72
f 71 72 73
f 73 72 74
f 73 74 75
f 75 74 76
f 75 76 77
f 77 76 78
f 79 80 81
f 81 80 82
f 81 82 83
f 83 82 84
f 83 84 85
f 85 84 86
f 85 86 87
f 87 86 88
f 87 88 89
f 89 88 90
f 91 92 93
f 93 92 94
f 93 94 95
f 95 94 96
f 95 96 97
f 97 96 98
f 97 98 99
f 99 98 100
f 99 100 101
f 101 100 102
f 103 104 105
f 105 104 106
f 105 106 107
f 107 106 108
f 107 108 109
f 109 108 110
f 109 110 111
f 111 110 112
f 111 112 113
f 113 112 114
f 93 95 11
f 101 115 99
f 99 115 9
f 13 34 67
f 11 95 9
f 9 95 97
f 9 97 99
f 67 69 13
f 13 69 71
f 13 71 14
f 14 71 73
f 73 75 14
f 14 75 77
f 14 77 11
f 11 77 91
f 11 91 93
f 106 104 90
f 25 27 76
f 76 74 25
f 25 74 72
f 25 72 33
f 33 72 70
f 33 70 68
f 110 23 112
f 112 23 36
f 112 36 114
f 110 108 23
f 23 108 106
f 23 106 21
f 21 106 90
f 86 100 88
f 88 100 17
f 88 17 90
f 90 17 19
f 90 19 21
f 80 102 82
f 82 102 100
f 82 100 84
f 84 100 86
f 100 98 17
f 17 98 96
f 17 96 31
f 31 96 94
f 31 94 29
f 29 94 92
f 29 92 27
f 27 92 78
f 27 78 76
f 115 101 37
f 37 101 102
f 37 102 38
f 38 102 80
f 38 80 116
f 116 80 79
f 33 68 34
f 34 68 67
f 40 92 41
f 41 92 91
f 41 91 47
f 47 91 77
f 47 77 48
f 48 77 78
f 48 78 40
f 40 78 92
f 61 103 58
f 58 103 89
f 58 89 56
f 56 89 90
f 56 90 60
f 60 90 104
f 60 104 61
f 61 104 103
f 103 1 89
f 89 1 5
f 89 5 87
f 7 116 79
f 103 105 1
f 1 105 107
f 1 107 2
f 79 81 7
f 7 81 83
f 7 83 5
f 5 83 85
f 5 85 87
f 113 35 111
f 111 35 2
f 111 2 109
f 109 2 107
f 35 113 36
f 36 113 114
f 8 38 7
f 7 38 116
f 9 115 10
f 10 115 37
f 117 118 119
f 119 118 120
f 119 120 121
f 121 120 122
f 121 122 123
f 123 122 124
f 123 124 125
f 125 124 126
f 125 126 127
f 127 126 128
f 129 130 131
f 131 130 132
f 131 132 133
f 133 132 134
f 133 134 135
f 135 134 136
f 135 136 137
f 137 136 138
f 137 138 139
f 139 138 140
f 141 142 143
f 143 142 144
f 143 144 145
f 145 144 146
f 145 146 147
f 147 146 148
f 147 148 149
f 149 148 150
f 149 150 151
f 151 150 152
f 153 154 155
f 155 154 156
f 155 156 157
f 157 156 158
f 157 158 159
f 159 158 160
f 159 160 161
f 161 160 162
f 161 162 163
f 163 162 164
f 152 154 151
f 151 154 153
f 129 163 130
f 130 163 164
f 141 127 142
f 142 127 128
f 165 166 167
f 167 166 168
f 168 166 169
f 169 166 170
f 166 165 170
f 170 165 171
f 165 167 171
f 171 167 172
f 167 168 172
f 172 168 169
f 173 174 175
f 175 174 176
f 173 175 177
f 177 175 178
f 174 173 179
f 179 173 177
f 176 174 180
f 180 174 179
f 175 176 178
f 178 176 180
f 149 151 153
f 133 135 161
f 135 137 161
f 161 137 139
f 161 139 159
f 159 139 117
f 163 129 161
f 161 129 131
f 161 131 133
f 153 155 123
f 123 155 157
f 123 157 121
f 121 157 159
f 121 159 119
f 119 159 117
f 127 141 125
f 125 141 143
f 125 143 123
f 123 143 145
f 123 145 153
f 153 145 147
f 153 147 149
f 181 182 183
f 183 182 184
f 184 182 185
f 185 182 186
f 182 181 186
f 186 181 187
f 181 183 187
f 187 183 188
f 185 118 117
f 139 140 188
f 139 188 117
f 117 188 185
f 185 188 177
f 185 177 184
f 184 177 178
f 184 178 183
f 183 178 180
f 183 180 188
f 188 180 179
f 188 179 177
f 128 126 186
f 187 172 186
f 186 172 169
f 136 134 187
f 126 124 186
f 186 124 122
f 186 122 185
f 185 122 120
f 185 120 118
f 170 171 154
f 136 187 138
f 138 187 188
f 138 188 140
f 154 152 170
f 170 152 150
f 170 150 169
f 169 150 148
f 148 146 169
f 169 146 144
f 169 144 186
f 186 144 142
f 186 142 128
f 134 132 187
f 187 132 130
f 187 130 172
f 172 130 164
f 172 164 162
f 162 160 172
f 172 160 158
f 172 158 171
f 171 158 156
f 171 156 154
f 189 190 191
f 191 190 192
f 193 194 195
f 195 194 196
f 197 198 199
f 199 198 200
f 201 202 203
f 203 202 204
f 205 206 207
f 205 207 208
f 208 207 209
f 208 209 210
f 210 209 211
f 210 211 212
f 206 205 213
f 206 213 214
f 214 213 215
f 214 215 216
f 216 215 217
f 216 217 218
f 209 207 211
f 211 207 206
f 206 214 211
f 211 214 216
f 211 216 218
f 215 213 205
f 217 215 212
f 212 215 205
f 212 205 210
f 210 205 208
f 219 220 221
f 219 221 222
f 222 221 223
f 222 223 224
f 224 223 225
f 224 225 226
f 220 219 227
f 220 227 228
f 228 227 229
f 228 229 230
f 230 229 231
f 230 231 232
f 222 224 226
f 227 219 229
f 229 219 222
f 229 222 231
f 231 222 226
f 221 220 228
f 225 223 232
f 232 223 221
f 232 221 230
f 230 221 228
f 233 234 235
f 235 234 236
f 234 237 236
f 236 237 238
f 237 239 238
f 238 239 240
f 241 242 243
f 243 242 244
f 245 246 247
f 247 246 248
f 249 250 251
f 251 250 252
f 253 254 255
f 255 254 256
f 204 202 199
f 199 202 197
f 192 190 203
f 203 190 201
f 196 194 191
f 191 194 189
f 200 198 195
f 195 198 193
f 257 190 258
f 258 190 189
f 258 189 259
f 260 194 261
f 261 194 193
f 261 193 262
f 260 263 194
f 194 263 264
f 194 264 189
f 189 264 265
f 189 265 259
f 266 198 267
f 267 198 197
f 267 197 268
f 266 269 198
f 198 269 270
f 198 270 193
f 193 270 271
f 193 271 262
f 257 272 190
f 190 272 273
f 190 273 201
f 201 273 274
f 274 275 201
f 201 275 276
f 201 276 202
f 202 276 277
f 277 278 202
f 202 278 279
f 202 279 197
f 197 279 280
f 197 280 268
f 281 273 272
f 281 272 282
f 282 272 257
f 282 257 283
f 283 257 258
f 283 258 284
f 284 258 259
f 284 259 285
f 285 259 265
f 285 265 286
f 287 264 263
f 287 263 288
f 288 263 260
f 288 260 289
f 289 260 261
f 289 261 290
f 290 261 262
f 290 262 291
f 291 262 271
f 291 271 292
f 293 270 269
f 293 269 294
f 294 269 266
f 294 266 295
f 295 266 267
f 295 267 296
f 296 267 268
f 296 268 297
f 297 268 280
f 297 280 298
f 299 279 278
f 299 278 300
f 300 278 277
f 300 277 301
f 301 277 276
f 301 276 302
f 302 276 275
f 302 275 303
f 303 275 274
f 303 274 304
f 211 265 212
f 212 265 264
f 212 264 217
f 217 264 287
f 217 287 218
f 218 287 286
f 218 286 211
f 211 286 265
f 293 292 270
f 270 292 271
f 240 304 238
f 238 304 274
f 238 274 236
f 236 274 273
f 236 273 235
f 235 273 281
f 254 233 235
f 235 281 254
f 254 281 282
f 254 282 283
f 283 284 254
f 254 284 285
f 254 285 256
f 256 285 286
f 256 286 250
f 286 287 250
f 250 287 288
f 250 288 289
f 289 290 250
f 250 290 291
f 250 291 252
f 252 291 292
f 252 292 246
f 292 293 246
f 246 293 294
f 246 294 295
f 242 300 301
f 295 296 246
f 246 296 297
f 246 297 248
f 248 297 298
f 248 298 242
f 242 298 299
f 242 299 300
f 240 239 304
f 304 239 244
f 304 244 303
f 303 244 242
f 303 242 302
f 302 242 301
f 247 248 241
f 241 248 242
f 251 252 245
f 245 252 246
f 255 256 249
f 249 256 250
f 233 254 234
f 234 254 253
f 234 253 237
f 237 253 243
f 237 243 239
f 239 243 244
f 226 279 231
f 231 279 299
f 231 299 232
f 232 299 298
f 232 298 225
f 225 298 280
f 225 280 226
f 226 280 279
f 204 241 203
f 203 241 243
f 203 243 192
f 192 243 253
f 192 253 191
f 191 253 255
f 191 255 196
f 196 255 249
f 196 249 195
f 195 249 251
f 195 251 200
f 200 251 245
f 200 245 199
f 199 245 247
f 199 247 204
f 204 247 241
f 305 306 307
f 307 306 308
f 309 310 311
f 311 310 312
f 313 314 315
f 315 314 316
f 317 318 319
f 319 318 320
f 316 314 318
f 318 314 312
f 318 312 320
f 320 312 310
f 320 310 306
f 306 310 308
f 315 316 317
f 317 316 318
f 319 320 305
f 305 320 306
f 307 308 309
f 309 308 310
f 311 312 313
f 313 312 314
f 315 317 319
f 311 313 309
f 309 313 315
f 309 315 307
f 307 315 319
f 307 319 305
f 321 322 323
f 323 322 324
f 325 326 327
f 327 326 328
f 327 328 329
f 329 328 330
f 331 332 333
f 333 332 334
f 335 336 334
f 334 336 337
f 334 337 333
f 333 337 338
f 338 339 333
f 333 339 340
f 333 340 341
f 341 340 342
f 342 343 341
f 341 343 344
f 341 344 345
f 345 344 346
f 345 346 347
f 348 349 350
f 350 349 351
f 352 353 354
f 354 353 355
f 356 357 358
f 358 357 359
f 359 357 352
f 352 357 353
f 360 361 362
f 362 361 363
f 361 364 365
f 366 367 368
f 358 366 356
f 356 366 368
f 356 368 355
f 355 368 354
f 369 370 371
f 372 373 371
f 371 373 374
f 371 374 369
f 375 376 377
f 361 365 363
f 363 365 373
f 363 373 378
f 378 373 372
f 378 372 376
f 376 372 379
f 376 379 377
f 377 366 375
f 375 366 358
f 375 358 363
f 363 358 354
f 363 354 362
f 362 354 368
f 331 333 380
f 380 333 381
f 382 383 329
f 329 383 384
f 329 384 327
f 322 385 386
f 385 387 386
f 386 387 388
f 386 388 380
f 380 388 332
f 380 332 331
f 382 329 389
f 389 329 390
f 389 390 386
f 386 390 324
f 386 324 322
f 391 341 345
f 392 389 345
f 345 389 386
f 345 386 391
f 393 381 394
f 394 381 333
f 394 333 395
f 395 333 341
f 395 341 396
f 396 341 391
f 396 391 397
f 397 391 386
f 398 380 399
f 399 380 400
f 401 402 386
f 400 380 403
f 403 380 381
f 403 381 393
f 402 404 386
f 386 404 405
f 386 405 397
f 398 406 380
f 380 406 407
f 380 407 386
f 386 407 408
f 386 408 401
f 394 409 393
f 393 409 403
f 410 397 411
f 411 397 405
f 411 405 412
f 412 405 404
f 412 404 413
f 413 404 402
f 413 402 414
f 414 402 401
f 414 401 415
f 415 401 408
f 415 408 416
f 416 408 407
f 416 407 417
f 417 407 406
f 417 406 418
f 418 406 398
f 418 398 419
f 419 398 399
f 419 399 420
f 420 399 400
f 420 400 409
f 409 400 403
f 410 395 397
f 397 395 396
f 394 421 422
f 421 394 423
f 423 394 395
f 423 395 424
f 425 417 426
f 426 417 418
f 426 418 427
f 428 409 429
f 429 409 394
f 429 394 430
f 430 394 422
f 418 419 427
f 427 419 420
f 427 420 431
f 431 420 409
f 431 409 432
f 432 409 433
f 434 435 413
f 410 436 437
f 438 433 439
f 439 433 409
f 439 409 440
f 440 409 428
f 413 435 412
f 412 435 441
f 412 441 411
f 410 437 395
f 395 437 442
f 395 442 424
f 413 414 434
f 434 414 415
f 434 415 425
f 425 415 416
f 425 416 417
f 411 441 410
f 410 441 443
f 410 443 436
f 436 443 444
f 436 444 445
f 438 439 445
f 445 439 446
f 445 446 436
f 447 349 448
f 448 349 348
f 348 350 448
f 448 350 449
f 448 449 450
f 330 328 364
f 364 328 451
f 364 451 452
f 452 451 453
f 452 453 454
f 455 369 456
f 456 369 374
f 456 374 454
f 454 374 457
f 454 457 452
f 458 459 364
f 364 459 450
f 364 450 330
f 330 450 449
f 361 460 364
f 364 460 461
f 364 461 458
f 462 463 464
f 464 463 465
f 464 465 466
f 466 465 467
f 466 467 468
f 468 467 469
f 468 469 470
f 470 469 471
f 470 471 472
f 472 471 473
f 472 473 474
f 474 473 475
f 474 475 476
f 476 475 477
f 476 477 478
f 478 477 479
f 478 479 480
f 480 479 481
f 480 481 482
f 482 481 483
f 482 483 484
f 484 483 485
f 484 485 486
f 486 485 487
f 486 487 488
f 488 487 462
f 488 462 464
f 482 432 480
f 480 432 433
f 480 433 478
f 478 433 438
f 478 438 476
f 476 438 445
f 476 445 474
f 474 445 444
f 474 444 472
f 472 444 443
f 472 443 470
f 470 443 441
f 470 441 468
f 468 441 435
f 468 435 466
f 466 435 434
f 466 434 464
f 464 434 425
f 464 425 488
f 488 425 426
f 488 426 486
f 486 426 427
f 486 427 484
f 484 427 431
f 484 431 482
f 482 431 432
f 489 335 490
f 490 335 491
f 490 491 492
f 492 491 493
f 492 493 494
f 494 493 495
f 494 495 496
f 495 497 496
f 496 497 347
f 496 347 498
f 498 347 346
f 498 346 499
f 499 346 344
f 499 344 500
f 500 344 343
f 500 343 501
f 501 343 342
f 501 342 502
f 502 342 340
f 502 340 503
f 503 340 339
f 503 339 504
f 504 339 338
f 504 338 505
f 505 338 337
f 505 337 489
f 489 337 336
f 489 336 335
f 504 430 503
f 503 430 422
f 503 422 502
f 502 422 421
f 502 421 501
f 501 421 423
f 501 423 500
f 500 423 424
f 500 424 499
f 499 424 442
f 499 442 498
f 498 442 437
f 498 437 496
f 496 437 436
f 496 436 494
f 494 436 446
f 494 446 492
f 492 446 439
f 492 439 490
f 490 439 440
f 490 440 489
f 489 440 428
f 489 428 505
f 505 428 429
f 505 429 504
f 504 429 430
f 351 349 506
f 506 349 447
f 507 508 509
f 323 510 321
f 321 510 345
f 321 345 511
f 511 345 347
f 511 347 512
f 512 347 335
f 512 335 513
f 513 335 334
f 509 514 377
f 377 514 515
f 377 515 366
f 366 515 516
f 366 516 517
f 507 509 518
f 518 509 377
f 518 377 519
f 520 506 325
f 325 506 447
f 325 447 326
f 326 447 509
f 326 509 521
f 521 509 508
f 520 522 506
f 506 522 523
f 506 523 510
f 510 523 392
f 510 392 345
f 370 369 455
f 519 377 379
f 524 525 379
f 379 525 370
f 379 370 519
f 519 370 455
f 518 519 456
f 456 519 455
f 461 460 516
f 516 460 517
f 517 460 360
f 360 460 361
f 366 517 367
f 367 517 360
f 367 360 526
f 526 360 527
f 528 529 371
f 371 529 372
f 525 528 370
f 370 528 371
f 529 524 372
f 372 524 379
f 525 524 528
f 528 524 529
f 530 531 365
f 365 531 373
f 530 365 452
f 452 365 364
f 531 457 373
f 373 457 374
f 531 530 457
f 457 530 452
f 363 378 532
f 532 378 533
f 534 533 376
f 376 533 378
f 534 376 535
f 535 376 375
f 353 357 355
f 355 357 356
f 532 533 535
f 535 533 534
f 322 321 385
f 385 321 511
f 385 511 387
f 387 511 512
f 387 512 388
f 388 512 513
f 388 513 332
f 332 513 334
f 461 516 458
f 458 516 515
f 458 515 459
f 459 515 514
f 459 514 450
f 450 514 509
f 450 509 448
f 448 509 447
f 518 456 507
f 507 456 454
f 507 454 508
f 508 454 453
f 508 453 521
f 521 453 451
f 521 451 326
f 326 451 328
f 359 352 358
f 358 352 354
f 375 363 535
f 535 363 532
f 335 347 497
f 495 493 497
f 497 493 491
f 497 491 335
f 465 463 536
f 465 536 467
f 473 471 536
f 536 471 469
f 536 469 467
f 479 477 536
f 536 477 475
f 536 475 473
f 485 483 536
f 536 483 481
f 536 481 479
f 463 462 536
f 536 462 487
f 536 487 485
f 510 323 390
f 390 323 324
f 351 506 350
f 350 506 449
f 537 538 510
f 510 539 506
f 506 539 540
f 329 330 541
f 541 330 449
f 541 542 329
f 329 542 543
f 329 543 544
f 545 510 390
f 540 546 506
f 506 546 547
f 506 547 548
f 544 549 329
f 329 549 550
f 329 550 390
f 550 551 390
f 390 551 552
f 390 552 553
f 545 554 510
f 510 554 555
f 510 555 537
f 556 557 558
f 548 559 506
f 506 559 560
f 506 560 561
f 562 563 506
f 506 563 564
f 564 565 506
f 506 565 566
f 506 566 449
f 449 566 567
f 449 567 541
f 553 568 390
f 390 568 569
f 390 569 545
f 562 506 570
f 570 506 561
f 570 561 556
f 556 561 571
f 556 571 557
f 572 573 538
f 558 574 556
f 556 574 575
f 556 575 538
f 538 575 576
f 538 576 572
f 573 577 538
f 538 577 578
f 538 578 510
f 510 578 579
f 579 580 510
f 510 580 581
f 510 581 582
f 582 583 510
f 510 583 584
f 510 584 539
f 585 586 587
f 588 586 585
f 585 589 590
f 591 589 585
f 587 591 585
f 585 592 593
f 594 592 585
f 590 594 585
f 585 595 596
f 597 595 585
f 593 597 585
f 596 588 585
f 598 586 588
f 598 599 586
f 586 599 600
f 586 600 587
f 600 601 587
f 587 601 602
f 587 602 591
f 602 603 591
f 591 603 604
f 591 604 589
f 604 605 589
f 589 605 606
f 589 606 590
f 606 607 590
f 590 607 608
f 590 608 594
f 608 609 594
f 594 609 610
f 594 610 592
f 610 611 592
f 592 611 612
f 592 612 593
f 612 613 593
f 593 613 614
f 593 614 597
f 614 615 597
f 597 615 616
f 597 616 595
f 616 617 595
f 595 617 618
f 595 618 596
f 618 619 596
f 596 619 620
f 596 620 588
f 588 620 621
f 588 621 598
f 598 565 599
f 599 565 564
f 599 564 600
f 600 564 563
f 600 563 601
f 601 563 562
f 601 562 602
f 602 562 570
f 602 570 603
f 603 570 556
f 603 556 604
f 604 556 538
f 604 538 605
f 605 538 537
f 605 537 606
f 606 537 555
f 606 555 607
f 607 555 554
f 607 554 608
f 608 554 545
f 608 545 609
f 609 545 569
f 609 569 610
f 610 569 568
f 610 568 611
f 611 568 553
f 611 553 612
f 612 553 552
f 612 552 613
f 613 552 551
f 613 551 614
f 614 551 550
f 614 550 615
f 615 550 549
f 615 549 616
f 616 549 544
f 616 544 617
f 617 544 543
f 617 543 618
f 618 543 542
f 618 542 619
f 619 542 541
f 619 541 620
f 620 541 567
f 620 567 621
f 621 567 566
f 621 566 598
f 598 566 565
f 622 623 624
f 625 623 622
f 622 626 627
f 628 626 622
f 624 628 622
f 622 629 630
f 631 629 622
f 627 631 622
f 622 632 633
f 634 632 622
f 630 634 622
f 633 625 622
f 623 625 635
f 635 636 623
f 623 636 637
f 623 637 624
f 637 638 624
f 624 638 639
f 624 639 628
f 639 640 628
f 628 640 641
f 628 641 626
f 641 642 626
f 626 642 643
f 626 643 627
f 643 644 627
f 627 644 645
f 627 645 631
f 645 646 631
f 631 646 647
f 631 647 629
f 647 648 629
f 629 648 649
f 629 649 630
f 649 650 630
f 630 650 651
f 630 651 634
f 651 652 634
f 634 652 653
f 634 653 632
f 653 654 632
f 632 654 655
f 632 655 633
f 655 656 633
f 633 656 657
f 633 657 625
f 625 657 658
f 625 658 635
f 635 559 636
f 636 559 548
f 636 548 637
f 637 548 547
f 637 547 638
f 638 547 546
f 638 546 639
f 639 546 540
f 639 540 640
f 640 540 539
f 640 539 641
f 641 539 584
f 641 584 642
f 642 584 583
f 642 583 643
f 643 583 582
f 643 582 644
f 644 582 581
f 644 581 645
f 645 581 580
f 645 580 646
f 646 580 579
f 646 579 647
f 647 579 578
f 647 578 648
f 648 578 577
f 648 577 649
f 649 577 573
f 649 573 650
f 650 573 572
f 650 572 651
f 651 572 576
f 651 576 652
f 652 576 575
f 652 575 653
f 653 575 574
f 653 574 654
f 654 574 558
f 654 558 655
f 655 558 557
f 655 557 656
f 656 557 571
f 656 571 657
f 657 571 561
f 657 561 658
f 658 561 560
f 658 560 635
f 635 560 559
f 659 660 368
f 368 660 362
f 367 526 368
f 368 526 659
f 362 660 360
f 360 660 527
f 526 527 659
f 659 527 660
f 389 392 382
f 382 392 523
f 382 523 383
f 383 523 522
f 383 522 384
f 384 522 520
f 384 520 327
f 327 520 325
f 661 662 663
f 661 663 664
f 664 663 665
f 664 665 666
f 666 665 667
f 666 667 668
f 668 667 669
f 668 669 670
f 670 669 671
f 670 671 672
f 672 671 673
f 672 673 674
f 674 673 675
f 674 675 676
f 676 675 677
f 676 677 678
f 678 677 679
f 678 679 680
f 680 679 681
f 680 681 682
f 682 681 683
f 682 683 684
f 685 684 686
f 686 684 683
f 661 687 662
f 662 687 688
f 689 690 691
f 691 690 692
f 691 692 693
f 693 692 694
f 693 694 695
f 695 694 696
f 695 696 697
f 697 696 698
f 697 698 699
f 699 698 700
f 699 700 701
f 701 700 702
f 701 702 703
f 703 702 704
f 703 704 705
f 705 704 706
f 705 706 707
f 707 706 708
f 707 708 709
f 709 708 710
f 709 710 711
f 711 710 712
f 711 712 713
f 713 712 714
f 713 714 715
f 715 714 716
f 715 716 717
f 717 716 718
f 719 717 718
f 690 689 720
f 720 689 721
f 720 721 722
f 722 721 723
f 722 723 724
f 724 723 725
f 724 725 726
f 726 725 727
f 726 727 728
f 728 727 729
f 728 729 730
f 730 729 731
f 730 731 732
f 732 731 733
f 732 733 734
f 734 733 735
f 734 735 736
f 736 735 737
f 736 737 738
f 738 737 739
f 738 739 740
f 740 739 741
f 740 741 742
f 742 741 743
f 742 743 744
f 744 743 719
f 744 719 745
f 745 719 718
f 746 747 686
f 686 747 748
f 749 750 751
f 748 752 686
f 686 752 753
f 686 753 754
f 755 756 754
f 757 758 759
f 759 758 749
f 688 760 761
f 762 763 764
f 764 763 765
f 765 763 766
f 765 766 767
f 767 766 768
f 768 766 769
f 768 769 770
f 770 769 771
f 771 769 772
f 771 772 773
f 758 686 749
f 749 686 754
f 749 754 750
f 750 754 756
f 751 774 749
f 749 774 775
f 749 775 776
f 776 775 777
f 778 779 777
f 777 779 780
f 777 780 776
f 758 781 782
f 761 783 688
f 688 783 784
f 688 784 662
f 764 785 762
f 762 785 786
f 762 786 787
f 757 788 758
f 758 788 789
f 758 789 781
f 790 791 747
f 747 791 792
f 747 792 748
f 793 794 662
f 662 794 795
f 662 795 663
f 663 795 796
f 746 686 797
f 797 686 683
f 797 683 798
f 799 800 801
f 786 802 787
f 787 802 803
f 787 803 801
f 801 803 804
f 801 804 799
f 773 772 805
f 805 772 806
f 805 806 807
f 808 809 782
f 782 809 810
f 782 810 758
f 784 811 662
f 662 811 812
f 662 812 793
f 793 812 790
f 793 790 813
f 813 790 747
f 799 814 800
f 800 814 815
f 800 815 778
f 778 815 816
f 778 816 779
f 760 688 754
f 754 688 817
f 754 817 755
f 818 669 819
f 819 669 667
f 819 667 796
f 796 667 665
f 796 665 663
f 820 673 818
f 818 673 671
f 818 671 669
f 683 681 798
f 798 681 679
f 798 679 821
f 821 679 677
f 821 677 820
f 820 677 675
f 820 675 673
f 807 806 822
f 822 806 823
f 822 823 688
f 688 823 824
f 688 824 817
f 685 825 826
f 825 827 828
f 828 827 829
f 828 829 830
f 831 661 832
f 832 661 833
f 687 834 835
f 835 834 836
f 738 740 837
f 838 839 836
f 836 839 840
f 836 840 835
f 841 842 825
f 825 842 843
f 825 843 827
f 831 844 661
f 661 844 845
f 661 845 687
f 687 845 846
f 687 846 834
f 847 744 745
f 848 849 838
f 838 849 850
f 838 850 839
f 851 852 848
f 848 852 853
f 848 853 849
f 685 854 825
f 825 854 855
f 825 855 856
f 837 740 857
f 857 740 742
f 857 742 744
f 858 859 851
f 851 859 860
f 851 860 852
f 861 862 863
f 863 862 864
f 863 864 858
f 858 864 865
f 858 865 859
f 856 866 825
f 825 866 867
f 825 867 841
f 738 837 736
f 736 837 833
f 736 833 734
f 734 833 661
f 734 661 732
f 846 868 834
f 834 868 869
f 834 869 870
f 666 726 664
f 664 726 728
f 664 728 661
f 661 728 730
f 661 730 732
f 829 871 830
f 830 871 872
f 830 872 873
f 712 874 714
f 714 874 875
f 714 875 716
f 826 876 685
f 685 876 877
f 685 877 878
f 678 680 700
f 879 880 861
f 861 880 881
f 861 881 862
f 872 882 873
f 873 882 883
f 873 883 884
f 885 886 878
f 878 886 887
f 878 887 685
f 685 887 888
f 685 888 684
f 684 888 889
f 890 891 878
f 878 891 892
f 878 892 885
f 883 893 884
f 884 893 894
f 884 894 895
f 700 680 702
f 702 680 682
f 702 682 704
f 704 682 684
f 704 684 706
f 706 684 889
f 706 889 708
f 700 698 678
f 678 698 696
f 678 696 676
f 676 696 694
f 676 694 674
f 674 694 692
f 674 692 672
f 672 692 690
f 672 690 670
f 670 690 720
f 670 720 668
f 668 720 722
f 668 722 666
f 666 722 724
f 666 724 726
f 894 896 895
f 895 896 897
f 895 897 879
f 879 897 898
f 879 898 880
f 847 745 875
f 875 745 718
f 875 718 716
f 708 889 710
f 710 889 899
f 710 899 712
f 712 899 900
f 712 900 874
f 870 901 834
f 834 901 902
f 834 902 903
f 903 902 904
f 903 904 878
f 878 904 905
f 878 905 890
f 905 906 890
f 890 906 907
f 890 907 891
f 891 907 908
f 891 908 892
f 892 908 909
f 892 909 885
f 885 909 910
f 885 910 886
f 886 910 911
f 886 911 887
f 887 911 912
f 887 912 888
f 888 912 913
f 888 913 889
f 889 913 914
f 889 914 899
f 899 914 915
f 899 915 900
f 900 915 916
f 900 916 874
f 874 916 917
f 874 917 875
f 875 917 918
f 875 918 847
f 847 918 919
f 847 919 744
f 744 919 920
f 744 920 857
f 906 905 921
f 921 905 904
f 921 904 922
f 922 904 902
f 922 902 923
f 923 902 901
f 923 901 924
f 924 901 870
f 924 870 925
f 925 870 869
f 925 869 926
f 926 869 868
f 926 868 927
f 927 868 846
f 927 846 928
f 928 846 845
f 928 845 929
f 929 845 844
f 929 844 930
f 930 844 831
f 930 831 931
f 931 831 832
f 931 832 932
f 932 832 833
f 932 833 933
f 933 833 837
f 933 837 920
f 920 837 857
f 790 919 791
f 791 919 918
f 791 918 792
f 792 918 917
f 917 916 792
f 792 916 915
f 792 915 748
f 748 915 914
f 748 914 752
f 752 914 913
f 913 912 752
f 752 912 911
f 752 911 753
f 908 754 909
f 909 754 753
f 909 753 910
f 910 753 911
f 908 907 754
f 754 907 906
f 754 906 760
f 760 906 921
f 921 922 760
f 760 922 923
f 760 923 761
f 923 924 761
f 761 924 925
f 761 925 783
f 925 926 783
f 783 926 927
f 783 927 784
f 927 928 784
f 784 928 929
f 784 929 811
f 929 930 811
f 811 930 931
f 811 931 812
f 931 932 812
f 812 932 933
f 812 933 790
f 790 933 920
f 790 920 919
f 820 693 821
f 821 693 695
f 695 697 821
f 821 697 699
f 821 699 798
f 798 699 701
f 798 701 797
f 701 703 797
f 797 703 705
f 797 705 746
f 746 705 707
f 713 747 711
f 711 747 746
f 711 746 709
f 709 746 707
f 713 715 747
f 747 715 717
f 747 717 813
f 813 717 719
f 719 743 813
f 813 743 741
f 813 741 793
f 741 739 793
f 793 739 737
f 793 737 794
f 737 735 794
f 794 735 733
f 794 733 795
f 795 733 731
f 795 731 796
f 796 731 729
f 729 727 796
f 796 727 725
f 796 725 819
f 725 723 819
f 819 723 721
f 819 721 818
f 818 721 689
f 818 689 820
f 820 689 691
f 820 691 693
f 822 688 687
f 687 835 822
f 822 835 840
f 822 840 807
f 807 840 839
f 807 839 805
f 805 839 850
f 805 850 773
f 773 850 849
f 773 849 771
f 771 849 853
f 771 853 770
f 770 853 852
f 770 852 768
f 768 852 860
f 768 860 767
f 767 860 859
f 767 859 765
f 765 859 865
f 765 865 764
f 764 865 864
f 764 864 785
f 785 864 862
f 785 862 786
f 786 862 881
f 786 881 802
f 802 881 880
f 802 880 803
f 803 880 898
f 803 898 804
f 804 898 897
f 804 897 799
f 799 897 896
f 799 896 814
f 854 685 686
f 686 758 854
f 854 758 810
f 854 810 855
f 855 810 809
f 855 809 856
f 856 809 808
f 856 808 866
f 866 808 782
f 866 782 867
f 867 782 781
f 867 781 841
f 841 781 789
f 841 789 842
f 842 789 788
f 842 788 843
f 843 788 757
f 843 757 827
f 827 757 759
f 827 759 829
f 829 759 749
f 829 749 871
f 871 749 776
f 871 776 872
f 872 776 780
f 872 780 882
f 882 780 779
f 882 779 883
f 883 779 816
f 883 816 893
f 893 816 815
f 893 815 894
f 894 815 814
f 894 814 896
f 800 895 801
f 801 895 879
f 801 879 787
f 787 879 861
f 787 861 762
f 762 861 863
f 762 863 763
f 763 863 858
f 763 858 766
f 766 858 851
f 766 851 769
f 769 851 848
f 769 848 772
f 772 848 838
f 772 838 806
f 806 838 836
f 806 836 823
f 823 836 834
f 823 834 824
f 824 834 903
f 824 903 817
f 817 903 878
f 817 878 755
f 755 878 877
f 755 877 756
f 756 877 876
f 756 876 750
f 750 876 826
f 750 826 751
f 751 826 825
f 751 825 774
f 774 825 828
f 774 828 775
f 775 828 830
f 775 830 777
f 777 830 873
f 777 873 778
f 778 873 884
f 778 884 800
f 800 884 895

