# https://github.com/mikedh/trimesh

o left_hand_pinky_DIP_link.STL
v 0.00860000 -0.00340000 0.01359832
v 0.00860000 -0.00285000 0.01297957
v 0.00760000 -0.00340000 0.01359832
v 0.00760000 -0.00285000 0.01297957
v 0.00860000 -0.00340000 0.01959832
v 0.00760000 -0.00340000 0.01959832
v 0.00860000 -0.00300000 0.01999832
v 0.00760000 -0.00300000 0.01999832
v 0.00860000 0.00300000 0.01999832
v 0.00760000 0.00300000 0.01999832
v 0.00860000 0.00340000 0.01959832
v 0.00760000 0.00340000 0.01959832
v 0.00860000 0.00285000 0.01297957
v 0.00860000 0.00340000 0.01359832
v 0.00760000 0.00285000 0.01297957
v 0.00760000 0.00340000 0.01359832
v 0.00690000 -0.00265000 0.01534832
v 0.00760000 -0.00265000 0.01534832
v 0.00690000 -0.00275000 0.01532152
v 0.00760000 -0.00275000 0.01532152
v 0.00690000 -0.00282320 0.01524832
v 0.00760000 -0.00282320 0.01524832
v 0.00690000 -0.00285000 0.01514832
v 0.00760000 -0.00285000 0.01514832
v 0.00690000 0.00285000 0.01514832
v 0.00760000 0.00285000 0.01514832
v 0.00690000 0.00282320 0.01524832
v 0.00760000 0.00282320 0.01524832
v 0.00690000 0.00275000 0.01532152
v 0.00760000 0.00275000 0.01532152
v 0.00690000 0.00265000 0.01534832
v 0.00760000 0.00265000 0.01534832
v 0.00690000 0.00285000 0.01234832
v 0.00860000 0.00285000 0.01234832
v 0.00860000 -0.00285000 0.01234832
v 0.00690000 -0.00285000 0.01234832
v 0.00760000 0.00300000 0.02084832
v 0.00760000 -0.00300000 0.02084832
v 0.00741359 0.00405000 0.01909832
v 0.00736000 0.00425000 0.01909832
v 0.00816000 0.00425000 0.01909832
v 0.00776000 0.00385000 0.01909832
v 0.00756000 0.00390359 0.01909832
v 0.00796000 0.00390359 0.01909832
v 0.00810641 0.00405000 0.01909832
v 0.00810641 0.00405000 0.01409832
v 0.00816000 0.00425000 0.01409832
v 0.00736000 0.00425000 0.01409832
v 0.00796000 0.00390359 0.01409832
v 0.00741359 0.00405000 0.01409832
v 0.00756000 0.00390359 0.01409832
v 0.00776000 0.00385000 0.01409832
v 0.00756000 -0.00390359 0.01909832
v 0.00776000 -0.00385000 0.01909832
v 0.00796000 -0.00390359 0.01909832
v 0.00736000 -0.00425000 0.01909832
v 0.00741359 -0.00405000 0.01909832
v 0.00816000 -0.00425000 0.01909832
v 0.00810641 -0.00405000 0.01909832
v 0.00736000 -0.00425000 0.01409832
v 0.00816000 -0.00425000 0.01409832
v 0.00810641 -0.00405000 0.01409832
v 0.00741359 -0.00405000 0.01409832
v 0.00756000 -0.00390359 0.01409832
v 0.00776000 -0.00385000 0.01409832
v 0.00796000 -0.00390359 0.01409832
v 0.00860000 0.00330000 0.01234832
v 0.00690000 0.00330000 0.01234832
v 0.00860000 0.00334650 0.01264188
v 0.00690000 0.00334650 0.01264188
v 0.00860000 0.00348143 0.01290671
v 0.00690000 0.00348143 0.01290671
v 0.00860000 0.00369160 0.01311688
v 0.00690000 0.00369160 0.01311688
v 0.00860000 0.00395643 0.01325182
v 0.00690000 0.00395643 0.01325182
v 0.00860000 0.00425000 0.01329832
v 0.00690000 0.00425000 0.01329832
v 0.00860000 -0.00330000 0.02084832
v 0.00690000 -0.00330000 0.02084832
v 0.00860000 -0.00334650 0.02055475
v 0.00690000 -0.00334650 0.02055475
v 0.00860000 -0.00348143 0.02028992
v 0.00690000 -0.00348143 0.02028992
v 0.00860000 -0.00369160 0.02007975
v 0.00690000 -0.00369160 0.02007975
v 0.00860000 -0.00395643 0.01994481
v 0.00690000 -0.00395643 0.01994481
v 0.00860000 -0.00425000 0.01989832
v 0.00690000 -0.00425000 0.01989832
v 0.00860000 0.00425000 0.01989832
v 0.00690000 0.00425000 0.01989832
v 0.00860000 0.00395643 0.01994481
v 0.00690000 0.00395643 0.01994481
v 0.00860000 0.00369160 0.02007975
v 0.00690000 0.00369160 0.02007975
v 0.00860000 0.00348143 0.02028992
v 0.00690000 0.00348143 0.02028992
v 0.00860000 0.00334650 0.02055475
v 0.00690000 0.00334650 0.02055475
v 0.00860000 0.00330000 0.02084832
v 0.00690000 0.00330000 0.02084832
v 0.00860000 -0.00425000 0.01329832
v 0.00690000 -0.00425000 0.01329832
v 0.00860000 -0.00395643 0.01325182
v 0.00690000 -0.00395643 0.01325182
v 0.00860000 -0.00369160 0.01311688
v 0.00690000 -0.00369160 0.01311688
v 0.00860000 -0.00348143 0.01290671
v 0.00690000 -0.00348143 0.01290671
v 0.00860000 -0.00334650 0.01264188
v 0.00690000 -0.00334650 0.01264188
v 0.00860000 -0.00330000 0.01234832
v 0.00690000 -0.00330000 0.01234832
v 0.00860000 0.00300000 0.02084832
v 0.00860000 -0.00300000 0.02084832
v 0.00950000 0.00325000 0.01234832
v 0.00870000 0.00325000 0.01234832
v 0.00950000 0.00329894 0.01265734
v 0.00870000 0.00329894 0.01265734
v 0.00950000 0.00344098 0.01293610
v 0.00870000 0.00344098 0.01293610
v 0.00950000 0.00366221 0.01315734
v 0.00870000 0.00366221 0.01315734
v 0.00950000 0.00394098 0.01329937
v 0.00870000 0.00394098 0.01329937
v 0.00950000 0.00425000 0.01334832
v 0.00870000 0.00425000 0.01334832
v 0.00950000 -0.00425000 0.01334832
v 0.00870000 -0.00425000 0.01334832
v 0.00950000 -0.00394098 0.01329937
v 0.00870000 -0.00394098 0.01329937
v 0.00950000 -0.00366221 0.01315734
v 0.00870000 -0.00366221 0.01315734
v 0.00950000 -0.00344098 0.01293610
v 0.00870000 -0.00344098 0.01293610
v 0.00950000 -0.00329894 0.01265734
v 0.00870000 -0.00329894 0.01265734
v 0.00950000 -0.00325000 0.01234832
v 0.00870000 -0.00325000 0.01234832
v 0.00950000 0.00425000 0.01984832
v 0.00870000 0.00425000 0.01984832
v 0.00950000 0.00394098 0.01989726
v 0.00870000 0.00394098 0.01989726
v 0.00950000 0.00366221 0.02003930
v 0.00870000 0.00366221 0.02003930
v 0.00950000 0.00344098 0.02026053
v 0.00870000 0.00344098 0.02026053
v 0.00950000 0.00329894 0.02053930
v 0.00870000 0.00329894 0.02053930
v 0.00950000 0.00325000 0.02084832
v 0.00870000 0.00325000 0.02084832
v 0.00950000 -0.00325000 0.02084832
v 0.00870000 -0.00325000 0.02084832
v 0.00950000 -0.00329894 0.02053930
v 0.00870000 -0.00329894 0.02053930
v 0.00950000 -0.00344098 0.02026053
v 0.00870000 -0.00344098 0.02026053
v 0.00950000 -0.00366221 0.02003930
v 0.00870000 -0.00366221 0.02003930
v 0.00950000 -0.00394098 0.01989726
v 0.00870000 -0.00394098 0.01989726
v 0.00950000 -0.00425000 0.01984832
v 0.00870000 -0.00425000 0.01984832
v 0.00777000 -0.00250000 0.02054832
v 0.00777000 0.00250000 0.02054832
v 0.00777000 -0.00250000 0.01554832
v 0.00777000 0.00250000 0.01554832
v 0.00870000 0.00250000 0.01554832
v 0.00870000 0.00250000 0.02054832
v 0.00870000 -0.00250000 0.02054832
v 0.00870000 -0.00250000 0.01554832
v 0.00836115 0.00245000 0.01334832
v 0.00836115 -0.00245000 0.01334832
v 0.00725000 0.00245000 0.01334832
v 0.00725000 -0.00245000 0.01334832
v 0.00836115 0.00245000 0.01234832
v 0.00725000 0.00245000 0.01234832
v 0.00836115 -0.00245000 0.01234832
v 0.00725000 -0.00245000 0.01234832
v 0.00695000 -0.00275000 0.01504832
v 0.00695000 0.00275000 0.01504832
v 0.00695000 -0.00275000 0.01234832
v 0.00695000 0.00275000 0.01234832
v 0.00870000 0.00275000 0.01234832
v 0.00870000 0.00275000 0.01504832
v 0.00870000 -0.00275000 0.01504832
v 0.00870000 -0.00275000 0.01234832
v 0.00950000 0.00350000 0.01348532
v 0.00950000 0.00311299 0.01309832
v 0.00990000 0.00350000 0.01348532
v 0.00990000 0.00311299 0.01309832
v 0.00950000 0.00311299 0.02009832
v 0.00950000 0.00350000 0.01971131
v 0.00990000 0.00311299 0.02009832
v 0.00990000 0.00350000 0.01971131
v 0.00950000 -0.00350000 0.01971131
v 0.00950000 -0.00311299 0.02009832
v 0.00990000 -0.00350000 0.01971131
v 0.00990000 -0.00311299 0.02009832
v 0.00950000 -0.00311299 0.01309832
v 0.00950000 -0.00350000 0.01348532
v 0.00990000 -0.00311299 0.01309832
v 0.00990000 -0.00350000 0.01348532
v 0.00775000 0.00395000 0.01859832
v 0.00775000 0.00395000 0.01459832
v 0.00792500 0.00399689 0.01459832
v 0.00792500 0.00399689 0.01859832
v 0.00805311 0.00412500 0.01459832
v 0.00805311 0.00412500 0.01859832
v 0.00810000 0.00430000 0.01459832
v 0.00810000 0.00430000 0.01859832
v 0.00757500 0.00399689 0.01859832
v 0.00757500 0.00399689 0.01459832
v 0.00744689 0.00412500 0.01859832
v 0.00744689 0.00412500 0.01459832
v 0.00740000 0.00430000 0.01859832
v 0.00740000 0.00430000 0.01459832
v 0.00775000 -0.00395000 0.01459832
v 0.00775000 -0.00395000 0.01859832
v 0.00792500 -0.00399689 0.01859832
v 0.00792500 -0.00399689 0.01459832
v 0.00805311 -0.00412500 0.01859832
v 0.00805311 -0.00412500 0.01459832
v 0.00810000 -0.00430000 0.01859832
v 0.00810000 -0.00430000 0.01459832
v 0.00757500 -0.00399689 0.01459832
v 0.00757500 -0.00399689 0.01859832
v 0.00744689 -0.00412500 0.01459832
v 0.00744689 -0.00412500 0.01859832
v 0.00740000 -0.00430000 0.01459832
v 0.00740000 -0.00430000 0.01859832
v 0.00690000 0.00285000 0.01159832
v 0.00890000 0.00285000 0.01159832
v 0.00690000 0.00285000 0.01229832
v 0.00890000 0.00285000 0.01229832
v 0.00890000 -0.00285000 0.01159832
v 0.00890000 -0.00285000 0.01229832
v 0.00690000 -0.00285000 0.01159832
v 0.00690000 -0.00285000 0.01229832
v 0.00990000 -0.00500000 0.01286400
v 0.00690000 -0.00500000 0.01286400
v 0.00990000 -0.00373431 0.01159832
v 0.00690000 -0.00373431 0.01159832
v 0.00990000 -0.00373431 0.02159832
v 0.00690000 -0.00373431 0.02159832
v 0.00990000 -0.00500000 0.02033263
v 0.00690000 -0.00500000 0.02033263
v 0.00990000 0.00500000 0.02033263
v 0.00690000 0.00500000 0.02033263
v 0.00990000 0.00373431 0.02159832
v 0.00690000 0.00373431 0.02159832
v 0.00990000 0.00373431 0.01159832
v 0.00690000 0.00373431 0.01159832
v 0.00990000 0.00500000 0.01286400
v 0.00690000 0.00500000 0.01286400
v 0.00950000 0.00357188 0.01282733
v 0.00950000 0.00377099 0.01302643
v 0.00950000 0.00402188 0.01315427
v 0.00950000 0.00377099 0.02017020
v 0.00950000 0.00357188 0.02036931
v 0.00950000 0.00344405 0.02062020
v 0.00950000 0.00402188 0.02004237
v 0.00950000 0.00430000 0.01999832
v 0.00950000 0.00430000 0.01319832
v 0.00950000 -0.00357188 0.02036931
v 0.00950000 -0.00377099 0.02017020
v 0.00950000 -0.00402188 0.02004237
v 0.00950000 -0.00344405 0.02062020
v 0.00950000 -0.00340000 0.02089832
v 0.00950000 0.00340000 0.02089832
v 0.00950000 0.00344405 0.01257643
v 0.00950000 0.00340000 0.01229832
v 0.00950000 -0.00340000 0.01229832
v 0.00950000 -0.00344405 0.01257643
v 0.00950000 -0.00357188 0.01282733
v 0.00950000 -0.00377099 0.01302643
v 0.00950000 -0.00402188 0.01315427
v 0.00950000 -0.00430000 0.01319832
v 0.00950000 -0.00430000 0.01999832
v 0.00690000 0.00340000 0.01229832
v 0.00690000 0.00344405 0.01257643
v 0.00690000 0.00357188 0.01282733
v 0.00690000 0.00377099 0.01302643
v 0.00690000 0.00402188 0.01315427
v 0.00690000 0.00430000 0.01319832
v 0.00690000 0.00430000 0.01999832
v 0.00690000 0.00402188 0.02004237
v 0.00690000 0.00377099 0.02017020
v 0.00690000 0.00357188 0.02036931
v 0.00690000 0.00344405 0.02062020
v 0.00690000 0.00340000 0.02089832
v 0.00690000 -0.00340000 0.02089832
v 0.00690000 -0.00344405 0.02062020
v 0.00690000 -0.00357188 0.02036931
v 0.00690000 -0.00377099 0.02017020
v 0.00690000 -0.00402188 0.02004237
v 0.00690000 -0.00430000 0.01999832
v 0.00690000 -0.00430000 0.01319832
v 0.00690000 -0.00402188 0.01315427
v 0.00690000 -0.00377099 0.01302643
v 0.00690000 -0.00357188 0.01282733
v 0.00690000 -0.00344405 0.01257643
v 0.00690000 -0.00340000 0.01229832
v 0.00990000 -0.00305000 0.02004832
v 0.00960000 -0.00305000 0.02004832
v 0.00990000 -0.00345000 0.01964832
v 0.00960000 -0.00345000 0.01964832
v 0.00990000 -0.00345000 0.01354832
v 0.00960000 -0.00345000 0.01354832
v 0.00990000 -0.00305000 0.01314832
v 0.00960000 -0.00305000 0.01314832
v 0.00990000 0.00305000 0.01314832
v 0.00960000 0.00305000 0.01314832
v 0.00990000 0.00345000 0.01354832
v 0.00960000 0.00345000 0.01354832
v 0.00990000 0.00345000 0.01964832
v 0.00960000 0.00345000 0.01964832
v 0.00990000 0.00305000 0.02004832
v 0.00960000 0.00305000 0.02004832
v 0.00225000 -0.00762499 0.01450000
v 0.00225000 -0.00642503 0.01450000
v 0.00218367 -0.00642503 0.01504229
v 0.00218367 -0.00762499 0.01504229
v 0.00190820 -0.00642503 0.01569217
v 0.00190820 -0.00762499 0.01569217
v 0.00144495 -0.00642503 0.01622471
v 0.00144495 -0.00762499 0.01622471
v 0.00083949 -0.00642503 0.01658753
v 0.00083949 -0.00762499 0.01658753
v 0.00031160 -0.00642503 0.01672832
v 0.00031160 -0.00762499 0.01672832
v -0.00020005 -0.00642503 0.01674109
v -0.00020005 -0.00762499 0.01674109
v -0.00088133 -0.00642503 0.01657021
v -0.00088133 -0.00762499 0.01657021
v -0.00147672 -0.00642503 0.01619759
v -0.00147672 -0.00762499 0.01619759
v -0.00192821 -0.00642503 0.01565954
v -0.00192821 -0.00762499 0.01565954
v -0.00219179 -0.00642503 0.01500849
v -0.00219179 -0.00762499 0.01500849
v -0.00225000 -0.00642503 0.01450000
v -0.00225000 -0.00762499 0.01450000
v -0.00225001 -0.00762499 0.00767712
v -0.00225000 -0.00642503 0.00767712
v 0.00225000 -0.00762499 0.00767713
v 0.00225000 -0.00642503 0.00767713
v 0.00015234 -0.00672496 0.01558940
v 0.00027698 -0.00762499 0.01648073
v -0.00011280 -0.00672496 0.01559420
v -0.00020509 -0.00762499 0.01648946
v -0.00037138 -0.00672496 0.01553541
v -0.00067524 -0.00762499 0.01638257
v -0.00060838 -0.00672496 0.01541645
v -0.00110614 -0.00762499 0.01616627
v -0.00081002 -0.00672496 0.01524422
v -0.00147276 -0.00762499 0.01585313
v -0.00096459 -0.00672496 0.01502875
v -0.00175379 -0.00762499 0.01546136
v -0.00106309 -0.00672496 0.01478254
v -0.00193290 -0.00762499 0.01501371
v -0.00109982 -0.00672496 0.01451992
v -0.00199967 -0.00762499 0.01453621
v -0.00107263 -0.00672496 0.01425613
v -0.00195023 -0.00762499 0.01405661
v -0.00098310 -0.00672496 0.01400652
v -0.00178745 -0.00762499 0.01360277
v -0.00083643 -0.00672496 0.01378559
v -0.00152079 -0.00762499 0.01320108
v -0.00064116 -0.00672496 0.01360618
v -0.00116574 -0.00762499 0.01287487
v -0.00040862 -0.00672496 0.01347871
v -0.00074295 -0.00762499 0.01264311
v -0.00019826 -0.00672496 0.01341802
v -0.00036047 -0.00762499 0.01253275
v -0.00015234 -0.00672496 0.01341060
v -0.00027698 -0.00762499 0.01251927
v -0.00010615 -0.00672496 0.01340513
v 0.00074295 -0.00762499 0.01635689
v 0.00040862 -0.00672496 0.01552129
v 0.00116574 -0.00762499 0.01612513
v 0.00064116 -0.00672496 0.01539382
v 0.00152079 -0.00762499 0.01579892
v 0.00083643 -0.00672496 0.01521441
v 0.00178745 -0.00762499 0.01539723
v 0.00098310 -0.00672496 0.01499348
v 0.00195023 -0.00762499 0.01494339
v 0.00107263 -0.00672496 0.01474387
v 0.00199967 -0.00762499 0.01446379
v 0.00109982 -0.00672496 0.01448009
v 0.00193290 -0.00762499 0.01398629
v 0.00106309 -0.00672496 0.01421746
v 0.00175379 -0.00762499 0.01353864
v 0.00096459 -0.00672496 0.01397125
v 0.00147276 -0.00762499 0.01314687
v 0.00081002 -0.00672496 0.01375578
v 0.00110614 -0.00762499 0.01283373
v 0.00060838 -0.00672496 0.01358355
v 0.00067524 -0.00762499 0.01261743
v 0.00037138 -0.00672496 0.01346459
v 0.00020509 -0.00762499 0.01251054
v 0.00011280 -0.00672496 0.01340580
v 0.00000000 -0.00762499 0.01250000
v -0.00019299 -0.00762499 0.01250933
v -0.00083643 -0.00642503 0.01378559
v -0.00040862 -0.00642503 0.01347871
v -0.00106309 -0.00642503 0.01078254
v -0.00652892 -0.00642503 -0.00462312
v -0.00189326 -0.00642503 0.00064464
v -0.00199970 -0.00642503 -0.00003479
v -0.00107263 -0.00642503 0.01025613
v -0.00083643 -0.00642503 0.00978559
v -0.00040862 -0.00642503 0.00947871
v -0.00104787 -0.00642503 0.00170351
v -0.00156297 -0.00642503 0.00124785
v -0.00776260 -0.00642503 -0.00193443
v -0.00257235 -0.00642503 0.00757516
v -0.00727112 -0.00642503 -0.00333629
v 0.00011280 -0.00642503 0.00940580
v 0.00060838 -0.00642503 0.00958355
v 0.00156297 -0.00642503 -0.00124785
v 0.00189326 -0.00642503 -0.00064464
v 0.00733885 -0.00642503 -0.00318455
v 0.00779709 -0.00642503 -0.00179034
v 0.00199970 -0.00642503 0.00003479
v 0.00799295 -0.00642503 -0.00033588
v 0.00791981 -0.00642503 0.00112988
v 0.00186969 -0.00642503 0.00071011
v 0.00758014 -0.00642503 0.00255762
v 0.00698538 -0.00642503 0.00389929
v 0.00151862 -0.00642503 0.00130146
v 0.00615554 -0.00642503 0.00510973
v -0.00186969 -0.00642503 -0.00071011
v -0.00151862 -0.00642503 -0.00130146
v -0.00556160 -0.00642503 -0.00575053
v -0.00098798 -0.00642503 -0.00173893
v -0.00034053 -0.00642503 -0.00197080
v -0.00309163 -0.00642503 -0.00737847
v -0.00440251 -0.00642503 -0.00667966
v -0.00760971 -0.00642503 0.00246825
v -0.00702217 -0.00642503 0.00383264
v 0.00096459 -0.00642503 0.00997125
v 0.00109982 -0.00642503 0.01048008
v 0.00663362 -0.00642503 -0.00447158
v 0.00570515 -0.00642503 -0.00560814
v 0.00104787 -0.00642503 -0.00170351
v -0.00798642 -0.00642503 -0.00046587
v -0.00793487 -0.00642503 0.00101875
v 0.00015234 -0.00642503 0.01158940
v -0.00037138 -0.00642503 0.01153541
v -0.00081002 -0.00642503 0.01124422
v 0.00060838 -0.00642503 0.01358355
v 0.00096459 -0.00642503 0.01397125
v 0.00109982 -0.00642503 0.01448009
v 0.00098310 -0.00642503 0.01499348
v -0.00107263 -0.00642503 0.01425613
v -0.00106309 -0.00642503 0.01478254
v 0.00047290 -0.00642503 -0.00798601
v 0.00003479 -0.00642503 -0.00199970
v 0.00040888 -0.00642503 -0.00195776
v 0.00458469 -0.00642503 -0.00655596
v 0.00330993 -0.00642503 -0.00728315
v 0.00192379 -0.00642503 -0.00776525
v 0.00511854 -0.00642503 0.00614821
v 0.00098798 -0.00642503 0.00173893
v 0.00390929 -0.00642503 0.00697979
v -0.00619250 -0.00642503 0.00506488
v -0.00514930 -0.00642503 0.00612247
v -0.00392856 -0.00642503 0.00696896
v 0.00098310 -0.00642503 0.01099348
v 0.00064116 -0.00642503 0.01139382
v 0.00011280 -0.00642503 0.01340580
v 0.00013916 -0.00642503 -0.00799879
v -0.00019892 -0.00642503 -0.00799753
v -0.00167414 -0.00642503 -0.00782287
v -0.00040888 -0.00642503 0.00195776
v 0.00015234 -0.00642503 0.01558940
v 0.00064116 -0.00642503 0.01539382
v -0.00037138 -0.00642503 0.01553541
v -0.00081002 -0.00642503 0.01524422
v 0.00256848 -0.00642503 0.00757647
v 0.00034053 -0.00642503 0.00197080
v -0.00003479 -0.00642503 0.00199970
v -0.00199970 -0.00762499 -0.00003479
v -0.00189326 -0.00762499 0.00064464
v -0.00776260 -0.00762499 -0.00193443
v -0.00186969 -0.00762499 -0.00071011
v -0.00727112 -0.00762499 -0.00333629
v -0.00151862 -0.00762499 -0.00130146
v 0.00178745 -0.00762499 0.01139723
v 0.00152079 -0.00762499 0.01179892
v 0.00116574 -0.00762499 0.01212513
v 0.00034053 -0.00762499 0.00197080
v 0.00256848 -0.00762499 0.00757647
v 0.00098798 -0.00762499 0.00173893
v 0.00074295 -0.00762499 0.01235689
v 0.00151862 -0.00762499 0.00130146
v 0.00511854 -0.00762499 0.00614821
v 0.00390929 -0.00762499 0.00697979
v -0.00760971 -0.00762499 0.00246825
v -0.00793487 -0.00762499 0.00101875
v -0.00798642 -0.00762499 -0.00046587
v 0.00195023 -0.00762499 0.01094340
v 0.00199967 -0.00762499 0.01046379
v 0.00193290 -0.00762499 0.00998629
v -0.00020509 -0.00762499 0.01248946
v 0.00186969 -0.00762499 0.00071011
v 0.00698538 -0.00762499 0.00389929
v 0.00615554 -0.00762499 0.00510973
v 0.00199970 -0.00762499 0.00003479
v 0.00791981 -0.00762499 0.00112988
v 0.00758014 -0.00762499 0.00255762
v -0.00257235 -0.00762499 0.00757516
v -0.00392856 -0.00762499 0.00696896
v -0.00514930 -0.00762499 0.00612247
v 0.00027698 -0.00762499 0.01248073
v 0.00189326 -0.00762499 -0.00064464
v 0.00779709 -0.00762499 -0.00179034
v 0.00799295 -0.00762499 -0.00033588
v 0.00104787 -0.00762499 -0.00170351
v 0.00570515 -0.00762499 -0.00560814
v 0.00156297 -0.00762499 -0.00124785
v 0.00663362 -0.00762499 -0.00447158
v 0.00733885 -0.00762499 -0.00318455
v -0.00619250 -0.00762499 0.00506488
v -0.00702217 -0.00762499 0.00383264
v 0.00175379 -0.00762499 0.00953864
v 0.00147276 -0.00762499 0.00914687
v 0.00110614 -0.00762499 0.00883373
v -0.00652892 -0.00762499 -0.00462312
v -0.00556160 -0.00762499 -0.00575053
v -0.00098798 -0.00762499 -0.00173893
v -0.00110614 -0.00762499 0.01216627
v -0.00067524 -0.00762499 0.01238257
v -0.00156297 -0.00762499 0.00124785
v -0.00104787 -0.00762499 0.00170351
v -0.00040888 -0.00762499 0.00195776
v 0.00040888 -0.00762499 -0.00195776
v 0.00330993 -0.00762499 -0.00728315
v 0.00458469 -0.00762499 -0.00655596
v -0.00440251 -0.00762499 -0.00667966
v -0.00309163 -0.00762499 -0.00737847
v -0.00034053 -0.00762499 -0.00197080
v -0.00152079 -0.00762499 0.00920108
v -0.00178745 -0.00762499 0.00960277
v -0.00195023 -0.00762499 0.01005661
v -0.00199967 -0.00762499 0.01053621
v -0.00193290 -0.00762499 0.01101371
v -0.00036047 -0.00762499 0.00853275
v -0.00074295 -0.00762499 0.00864311
v -0.00116574 -0.00762499 0.00887487
v -0.00167414 -0.00762499 -0.00782287
v -0.00019892 -0.00762499 -0.00799753
v 0.00003479 -0.00762499 -0.00199970
v 0.00013916 -0.00762499 -0.00799879
v 0.00047290 -0.00762499 -0.00798601
v 0.00192379 -0.00762499 -0.00776525
v -0.00175379 -0.00762499 0.01146136
v -0.00147276 -0.00762499 0.01185313
v 0.00067524 -0.00762499 0.00861743
v 0.00020509 -0.00762499 0.00851054
v -0.00003479 -0.00762499 0.00199970
v -0.00019299 -0.00762499 0.00850933
v -0.00027698 -0.00762499 0.00851927
v -0.00015234 -0.00672496 0.00941060
v -0.00019826 -0.00672496 0.00941801
v -0.00040862 -0.00672496 0.00947871
v -0.00064116 -0.00672496 0.00960618
v -0.00083643 -0.00672496 0.00978559
v -0.00098310 -0.00672496 0.01000652
v -0.00107263 -0.00672496 0.01025613
v -0.00109982 -0.00672496 0.01051992
v -0.00106309 -0.00672496 0.01078254
v -0.00096459 -0.00672496 0.01102875
v -0.00081002 -0.00672496 0.01124422
v -0.00060838 -0.00672496 0.01141645
v -0.00037138 -0.00672496 0.01153541
v -0.00011280 -0.00672496 0.01159420
v 0.00015234 -0.00672496 0.01158940
v -0.00010615 -0.00672496 0.00940513
v 0.00011280 -0.00672496 0.00940580
v 0.00037138 -0.00672496 0.00946459
v 0.00060838 -0.00672496 0.00958355
v 0.00081002 -0.00672496 0.00975578
v 0.00096459 -0.00672496 0.00997125
v 0.00106309 -0.00672496 0.01021746
v 0.00109982 -0.00672496 0.01048008
v 0.00107263 -0.00672496 0.01074387
v 0.00098310 -0.00672496 0.01099348
v 0.00083643 -0.00672496 0.01121441
v 0.00064116 -0.00672496 0.01139382
v 0.00040862 -0.00672496 0.01152129
v -0.00100000 -0.00362500 0.01099832
v -0.00100000 -0.00362500 0.02072832
v -0.00100000 -0.00230000 0.01099832
v -0.00100000 -0.00230000 0.02072832
v 0.00400000 -0.00100000 0.01099832
v 0.00490000 -0.00100000 0.01099832
v 0.00400000 -0.00100000 0.02072832
v 0.00490000 -0.00100000 0.02219832
v 0.00000000 -0.00100000 0.02072832
v 0.00000000 -0.00100000 0.02219832
v -0.00300000 -0.00462500 0.02072832
v -0.00200000 -0.00462500 0.02072832
v -0.00300000 -0.00462500 0.00822832
v -0.00200000 -0.00462500 0.01099832
v -0.00062584 -0.00462500 0.01099832
v -0.00070836 -0.00462500 0.01087178
v -0.00080000 -0.00462500 0.01050000
v -0.00070836 -0.00462500 0.01012822
v -0.00045445 -0.00462500 0.00984161
v -0.00009643 -0.00462500 0.00970583
v 0.00300000 -0.00462500 0.00822832
v 0.00028368 -0.00462500 0.00975199
v 0.00059881 -0.00462500 0.00996950
v 0.00077675 -0.00462500 0.01030855
v 0.00300000 -0.00462500 0.01099832
v 0.00077675 -0.00462500 0.01069145
v 0.00062584 -0.00462500 0.01099832
v -0.00100000 0.00300000 0.02219832
v -0.00100000 0.00300000 0.01099832
v -0.00100000 0.00170000 0.02219832
v -0.00100000 0.00170000 0.01099832
v 0.00790000 0.00293562 0.01155000
v 0.00790000 0.00373562 0.01155000
v 0.00690000 0.00293562 0.01155000
v 0.00690000 0.00373562 0.01155000
v 0.00690000 0.00373562 0.01100000
v 0.00790000 0.00373562 0.01100000
v 0.00690000 0.00293562 0.01100000
v 0.00790000 0.00293562 0.01100000
v 0.00690000 0.00560130 0.02033431
v 0.00690000 0.00560130 0.02219832
v 0.00690000 0.00505130 0.02033431
v 0.00690000 -0.00293301 0.01155000
v 0.00690000 0.00373562 0.02219832
v 0.00690000 0.00373562 0.02165000
v 0.00690000 0.00560130 0.01099832
v 0.00690000 0.00560130 0.01286569
v 0.00690000 0.00505130 0.01286569
v 0.00690000 -0.00559870 0.02219832
v 0.00690000 -0.00559870 0.02033431
v 0.00690000 -0.00504870 0.02033431
v 0.00690000 -0.00504870 0.01286569
v 0.00690000 -0.00373301 0.02165000
v 0.00690000 -0.00373301 0.02219832
v 0.00690000 -0.00293301 0.01100000
v 0.00690000 -0.00373301 0.01100000
v 0.00690000 -0.00559870 0.01099832
v 0.00690000 -0.00373301 0.01155000
v 0.00690000 -0.00559870 0.01286569
v -0.00300000 -0.00762500 0.02072832
v -0.00300000 -0.00762500 0.00822832
v 0.00307612 -0.00161732 0.02072832
v 0.00329289 -0.00129289 0.02072832
v 0.00361732 -0.00107612 0.02072832
v -0.00107612 -0.00400768 0.02072832
v 0.00300000 -0.00762500 0.02072832
v -0.00129289 -0.00433211 0.02072832
v -0.00161732 -0.00454888 0.02072832
v 0.00300000 -0.00200000 0.02072832
v 0.00000000 -0.00230000 0.02072832
v 0.00300000 -0.00762500 0.00822832
v 0.00300000 -0.00200000 0.01099832
v -0.00227000 -0.00762500 0.00822832
v -0.00227000 -0.00642500 0.00822832
v 0.00227000 -0.00642500 0.00822832
v 0.00227000 -0.00762500 0.00822832
v 0.00227000 -0.00762500 0.01450000
v -0.00148653 -0.00762500 0.01621555
v -0.00190965 -0.00762500 0.01572726
v -0.00217805 -0.00762500 0.01513953
v 0.00094299 -0.00762500 0.01656486
v 0.00148653 -0.00762500 0.01621555
v -0.00227000 -0.00762500 0.01450000
v 0.00190965 -0.00762500 0.01572726
v 0.00217805 -0.00762500 0.01513953
v -0.00094299 -0.00762500 0.01656486
v -0.00032305 -0.00762500 0.01674690
v 0.00032305 -0.00762500 0.01674690
v -0.00227000 -0.00642500 0.01450000
v 0.00227000 -0.00642500 0.01450000
v 0.00217805 -0.00642500 0.01513953
v 0.00190965 -0.00642500 0.01572726
v 0.00148653 -0.00642500 0.01621555
v 0.00094299 -0.00642500 0.01656486
v 0.00032305 -0.00642500 0.01674690
v -0.00032305 -0.00642500 0.01674690
v -0.00094299 -0.00642500 0.01656486
v -0.00148653 -0.00642500 0.01621555
v -0.00190965 -0.00642500 0.01572726
v -0.00217805 -0.00642500 0.01513953
v -0.00010848 -0.00642500 0.00960656
v -0.00051126 -0.00642500 0.00975931
v 0.00031914 -0.00642500 0.00965849
v 0.00067366 -0.00642500 0.00990319
v -0.00010848 -0.00642500 0.01539344
v -0.00051126 -0.00642500 0.01524069
v -0.00079691 -0.00642500 0.01491825
v -0.00079691 -0.00642500 0.01091825
v -0.00090000 -0.00642500 0.01050000
v -0.00079691 -0.00642500 0.01008175
v -0.00090000 -0.00642500 0.01450000
v -0.00079691 -0.00642500 0.01408175
v -0.00051126 -0.00642500 0.01375931
v 0.00031914 -0.00642500 0.01534151
v 0.00067366 -0.00642500 0.01509681
v 0.00067366 -0.00642500 0.01109681
v 0.00087385 -0.00642500 0.01071538
v -0.00010848 -0.00642500 0.01360656
v -0.00010848 -0.00642500 0.01139344
v -0.00051126 -0.00642500 0.01124069
v 0.00087385 -0.00642500 0.01471538
v 0.00087385 -0.00642500 0.01028462
v 0.00087385 -0.00642500 0.01428462
v 0.00067366 -0.00642500 0.01390319
v 0.00031914 -0.00642500 0.01365849
v 0.00031914 -0.00642500 0.01134151
v 0.00490000 0.00300000 0.01099832
v 0.00490000 0.00300000 0.02219832
v 0.00000000 0.00170000 0.02219832
v 0.00528268 0.00307612 0.02219832
v 0.00528268 -0.00107612 0.02219832
v 0.00790000 0.00373562 0.02219832
v 0.00560711 -0.00129289 0.02219832
v 0.00582388 -0.00161732 0.02219832
v 0.00590000 -0.00559870 0.02219832
v 0.00590000 -0.00200000 0.02219832
v 0.00790000 -0.00373301 0.02219832
v 0.00582388 0.00361732 0.02219832
v 0.00560711 0.00329289 0.02219832
v 0.00590000 0.00560130 0.02219832
v 0.00590000 0.00400000 0.02219832
v -0.00045445 -0.00462500 0.01515839
v -0.00009643 -0.00462500 0.01529417
v -0.00009643 -0.00632500 0.01529417
v 0.00000000 -0.00462500 0.01530000
v 0.00028368 -0.00632500 0.01524801
v 0.00028368 -0.00462500 0.01524801
v 0.00059881 -0.00632500 0.01503050
v 0.00059881 -0.00462500 0.01503050
v 0.00077675 -0.00632500 0.01469145
v 0.00077675 -0.00462500 0.01469145
v 0.00077675 -0.00632500 0.01430855
v 0.00077675 -0.00462500 0.01430855
v 0.00059881 -0.00632500 0.01396950
v 0.00059881 -0.00462500 0.01396950
v 0.00028368 -0.00632500 0.01375199
v 0.00028368 -0.00462500 0.01375199
v -0.00009643 -0.00632500 0.01370583
v -0.00009643 -0.00462500 0.01370583
v -0.00045445 -0.00632500 0.01384161
v -0.00045445 -0.00462500 0.01384161
v -0.00070836 -0.00632500 0.01412822
v -0.00070836 -0.00462500 0.01412822
v -0.00080000 -0.00632500 0.01450000
v -0.00080000 -0.00462500 0.01450000
v -0.00070836 -0.00632500 0.01487178
v -0.00070836 -0.00462500 0.01487178
v -0.00045445 -0.00632500 0.01515839
v -0.00070836 -0.00632500 0.01087178
v -0.00045445 -0.00632500 0.01115839
v -0.00045445 -0.00462500 0.01115839
v -0.00009643 -0.00632500 0.01129417
v -0.00009643 -0.00462500 0.01129417
v 0.00028368 -0.00632500 0.01124801
v 0.00028368 -0.00462500 0.01124801
v 0.00059881 -0.00632500 0.01103050
v 0.00059881 -0.00462500 0.01103050
v 0.00077675 -0.00632500 0.01069145
v 0.00077675 -0.00632500 0.01030855
v 0.00059881 -0.00632500 0.00996950
v 0.00028368 -0.00632500 0.00975199
v -0.00009643 -0.00632500 0.00970583
v -0.00045445 -0.00632500 0.00984161
v -0.00070836 -0.00632500 0.01012822
v -0.00080000 -0.00632500 0.01050000
v 0.00000000 0.00170000 0.01099832
v 0.00582388 -0.00161732 0.01099832
v 0.00560711 -0.00129289 0.01099832
v 0.00528268 0.00307612 0.01099832
v 0.00000000 -0.00230000 0.01099832
v -0.00107612 -0.00400768 0.01099832
v -0.00129289 -0.00433211 0.01099832
v -0.00161732 -0.00454888 0.01099832
v 0.00560711 0.00329289 0.01099832
v 0.00582388 0.00361732 0.01099832
v 0.00590000 0.00400000 0.01099832
v 0.00590000 0.00560130 0.01099832
v 0.00590000 -0.00200000 0.01099832
v 0.00590000 -0.00559870 0.01099832
v 0.00361732 -0.00107612 0.01099832
v 0.00528268 -0.00107612 0.01099832
v 0.00329289 -0.00129289 0.01099832
v 0.00307612 -0.00161732 0.01099832
v 0.00790000 -0.00559870 0.01286569
v 0.00790000 -0.00559870 0.02033431
v 0.00790000 0.00560130 0.01286569
v 0.00790000 0.00560130 0.02033431
v 0.00790000 -0.00504870 0.02033431
v 0.00790000 -0.00504870 0.01286569
v 0.00790000 0.00373562 0.02165000
v 0.00790000 -0.00373301 0.02165000
v 0.00790000 -0.00293301 0.01155000
v 0.00790000 -0.00373301 0.01155000
v 0.00790000 -0.00373301 0.01100000
v 0.00790000 -0.00293301 0.01100000
v 0.00000000 -0.00462500 0.01450000
v 0.00000000 -0.00070000 0.01750550
v 0.00000000 -0.00050706 0.01742558
v 0.00000000 -0.00030000 0.01219832
v 0.00000000 -0.00009294 0.01222558
v 0.00000000 0.00039282 0.01859832
v 0.00000000 0.00026569 0.01876400
v 0.00000000 0.00010000 0.01889114
v 0.00000000 -0.00009294 0.01897106
v 0.00000000 -0.00107274 0.01799126
v 0.00000000 0.00010000 0.01230550
v 0.00000000 0.00026569 0.01243263
v 0.00000000 0.00039282 0.01259832
v 0.00000000 -0.00030000 0.01899832
v 0.00000000 -0.00050706 0.01897106
v 0.00000000 -0.00070000 0.01889114
v 0.00000000 -0.00086569 0.01876400
v 0.00000000 -0.00099282 0.01859832
v 0.00000000 -0.00099282 0.01779832
v 0.00000000 -0.00086569 0.01763263
v 0.00000000 -0.00030000 0.01739832
v 0.00000000 0.00026569 0.01356400
v 0.00000000 0.00010000 0.01369114
v 0.00000000 0.00047274 0.01279126
v 0.00000000 0.00050000 0.01299832
v 0.00000000 0.00047274 0.01320537
v 0.00000000 0.00010000 0.01750550
v 0.00000000 0.00026569 0.01763263
v 0.00000000 0.00039282 0.01779832
v 0.00000000 0.00047274 0.01799126
v 0.00000000 0.00050000 0.01819832
v 0.00000000 0.00047274 0.01840537
v 0.00000000 -0.00107274 0.01840537
v 0.00000000 -0.00110000 0.01819832
v 0.00000000 -0.00009294 0.01742558
v 0.00000000 0.00039282 0.01339832
v 0.00000000 -0.00070000 0.01369114
v 0.00000000 -0.00086569 0.01356400
v 0.00000000 -0.00009294 0.01377106
v 0.00000000 -0.00030000 0.01379832
v 0.00000000 -0.00050706 0.01377106
v 0.00000000 -0.00099282 0.01339832
v 0.00000000 -0.00107274 0.01320537
v 0.00000000 -0.00110000 0.01299832
v 0.00000000 -0.00107274 0.01279126
v 0.00000000 -0.00099282 0.01259832
v 0.00000000 -0.00086569 0.01243263
v 0.00000000 -0.00070000 0.01230550
v 0.00000000 -0.00050706 0.01222558
v 0.00337554 -0.00030000 0.01819832
v 0.00300000 0.00024127 0.01788582
v 0.00300000 0.00001250 0.01765705
v 0.00300000 0.00032500 0.01819832
v 0.00300000 -0.00061250 0.01765705
v 0.00300000 -0.00084127 0.01788582
v 0.00300000 -0.00030000 0.01757332
v 0.00300000 -0.00084127 0.01851082
v 0.00300000 -0.00061250 0.01873958
v 0.00300000 -0.00092500 0.01819832
v 0.00300000 0.00001250 0.01873958
v 0.00300000 0.00024127 0.01851082
v 0.00300000 -0.00030000 0.01882332
v 0.00017500 0.00030370 0.01803656
v 0.00017500 0.00024127 0.01788582
v 0.00017500 0.00014194 0.01775638
v 0.00017500 0.00001250 0.01765705
v 0.00017500 -0.00013824 0.01759461
v 0.00017500 -0.00030000 0.01757332
v 0.00017500 -0.00046176 0.01759461
v 0.00017500 -0.00061250 0.01765705
v 0.00017500 -0.00074194 0.01775638
v 0.00017500 -0.00084127 0.01788582
v 0.00017500 -0.00090370 0.01803656
v 0.00017500 -0.00092500 0.01819832
v 0.00017500 -0.00090370 0.01836008
v 0.00017500 -0.00084127 0.01851082
v 0.00017500 -0.00074194 0.01864026
v 0.00017500 -0.00061250 0.01873958
v 0.00017500 -0.00046176 0.01880202
v 0.00017500 -0.00030000 0.01882332
v 0.00017500 -0.00013824 0.01880202
v 0.00017500 0.00001250 0.01873958
v 0.00017500 0.00014194 0.01864026
v 0.00017500 0.00024127 0.01851082
v 0.00017500 0.00030370 0.01836008
v 0.00017500 0.00032500 0.01819832
v 0.00337554 -0.00030000 0.01299832
v 0.00300000 0.00024127 0.01268582
v 0.00300000 0.00001250 0.01245705
v 0.00300000 0.00032500 0.01299832
v 0.00300000 -0.00061250 0.01245705
v 0.00300000 -0.00084127 0.01268582
v 0.00300000 -0.00030000 0.01237332
v 0.00300000 -0.00084127 0.01331082
v 0.00300000 -0.00061250 0.01353958
v 0.00300000 -0.00092500 0.01299832
v 0.00300000 0.00001250 0.01353958
v 0.00300000 0.00024127 0.01331082
v 0.00300000 -0.00030000 0.01362332
v 0.00017500 0.00030370 0.01283656
v 0.00017500 0.00024127 0.01268582
v 0.00017500 0.00014194 0.01255638
v 0.00017500 0.00001250 0.01245705
v 0.00017500 -0.00013824 0.01239461
v 0.00017500 -0.00030000 0.01237332
v 0.00017500 -0.00046176 0.01239461
v 0.00017500 -0.00061250 0.01245705
v 0.00017500 -0.00074194 0.01255638
v 0.00017500 -0.00084127 0.01268582
v 0.00017500 -0.00090370 0.01283656
v 0.00017500 -0.00092500 0.01299832
v 0.00017500 -0.00090370 0.01316008
v 0.00017500 -0.00084127 0.01331082
v 0.00017500 -0.00074194 0.01344026
v 0.00017500 -0.00061250 0.01353958
v 0.00017500 -0.00046176 0.01360202
v 0.00017500 -0.00030000 0.01362332
v 0.00017500 -0.00013824 0.01360202
v 0.00017500 0.00001250 0.01353958
v 0.00017500 0.00014194 0.01344026
v 0.00017500 0.00024127 0.01331082
v 0.00017500 0.00030370 0.01316008
v 0.00017500 0.00032500 0.01299832
v 0.00790000 0.00505130 0.01286569
v 0.00790000 0.00505130 0.02033431
f 1 2 3
f 3 2 4
f 5 6 7
f 7 6 8
f 9 10 11
f 11 10 12
f 13 14 15
f 15 14 16
f 11 12 14
f 14 12 16
f 1 3 5
f 5 3 6
f 17 18 19
f 19 18 20
f 19 20 21
f 21 20 22
f 21 22 23
f 23 22 24
f 25 26 27
f 27 26 28
f 27 28 29
f 29 28 30
f 29 30 31
f 31 30 32
f 32 18 31
f 31 18 17
f 26 25 15
f 15 25 33
f 15 33 13
f 13 33 34
f 2 35 4
f 4 35 36
f 4 36 24
f 24 36 23
f 32 30 12
f 32 12 18
f 18 12 10
f 18 10 20
f 15 16 26
f 26 16 12
f 26 12 28
f 28 12 30
f 6 3 24
f 24 3 4
f 37 38 10
f 10 38 8
f 10 8 20
f 20 8 6
f 20 6 22
f 22 6 24
f 39 40 41
f 42 43 44
f 44 43 39
f 44 39 45
f 45 39 41
f 46 47 48
f 46 48 49
f 50 51 48
f 48 51 52
f 48 52 49
f 48 40 50
f 50 40 39
f 50 39 51
f 51 39 43
f 51 43 52
f 52 43 42
f 52 42 49
f 49 42 44
f 49 44 46
f 46 44 45
f 46 45 47
f 47 45 41
f 53 54 55
f 56 57 58
f 58 57 53
f 58 53 59
f 59 53 55
f 60 61 62
f 63 60 64
f 64 60 62
f 64 62 65
f 65 62 66
f 61 58 62
f 62 58 59
f 62 59 66
f 66 59 55
f 66 55 65
f 65 55 54
f 65 54 64
f 64 54 53
f 64 53 63
f 63 53 57
f 63 57 60
f 60 57 56
f 67 68 69
f 69 68 70
f 69 70 71
f 71 70 72
f 71 72 73
f 73 72 74
f 73 74 75
f 75 74 76
f 75 76 77
f 77 76 78
f 79 80 81
f 81 80 82
f 81 82 83
f 83 82 84
f 83 84 85
f 85 84 86
f 85 86 87
f 87 86 88
f 87 88 89
f 89 88 90
f 91 92 93
f 93 92 94
f 93 94 95
f 95 94 96
f 95 96 97
f 97 96 98
f 97 98 99
f 99 98 100
f 99 100 101
f 101 100 102
f 103 104 105
f 105 104 106
f 105 106 107
f 107 106 108
f 107 108 109
f 109 108 110
f 109 110 111
f 111 110 112
f 111 112 113
f 113 112 114
f 93 95 11
f 101 115 99
f 99 115 9
f 13 34 67
f 11 95 9
f 9 95 97
f 9 97 99
f 67 69 13
f 13 69 71
f 13 71 14
f 14 71 73
f 73 75 14
f 14 75 77
f 14 77 11
f 11 77 91
f 11 91 93
f 106 104 90
f 25 27 76
f 76 74 25
f 25 74 72
f 25 72 33
f 33 72 70
f 33 70 68
f 110 23 112
f 112 23 36
f 112 36 114
f 110 108 23
f 23 108 106
f 23 106 21
f 21 106 90
f 86 100 88
f 88 100 17
f 88 17 90
f 90 17 19
f 90 19 21
f 80 102 82
f 82 102 100
f 82 100 84
f 84 100 86
f 100 98 17
f 17 98 96
f 17 96 31
f 31 96 94
f 31 94 29
f 29 94 92
f 29 92 27
f 27 92 78
f 27 78 76
f 115 101 37
f 37 101 102
f 37 102 38
f 38 102 80
f 38 80 116
f 116 80 79
f 33 68 34
f 34 68 67
f 40 92 41
f 41 92 91
f 41 91 47
f 47 91 77
f 47 77 48
f 48 77 78
f 48 78 40
f 40 78 92
f 61 103 58
f 58 103 89
f 58 89 56
f 56 89 90
f 56 90 60
f 60 90 104
f 60 104 61
f 61 104 103
f 103 1 89
f 89 1 5
f 89 5 87
f 7 116 79
f 103 105 1
f 1 105 107
f 1 107 2
f 79 81 7
f 7 81 83
f 7 83 5
f 5 83 85
f 5 85 87
f 113 35 111
f 111 35 2
f 111 2 109
f 109 2 107
f 35 113 36
f 36 113 114
f 8 38 7
f 7 38 116
f 9 115 10
f 10 115 37
f 117 118 119
f 119 118 120
f 119 120 121
f 121 120 122
f 121 122 123
f 123 122 124
f 123 124 125
f 125 124 126
f 125 126 127
f 127 126 128
f 129 130 131
f 131 130 132
f 131 132 133
f 133 132 134
f 133 134 135
f 135 134 136
f 135 136 137
f 137 136 138
f 137 138 139
f 139 138 140
f 141 142 143
f 143 142 144
f 143 144 145
f 145 144 146
f 145 146 147
f 147 146 148
f 147 148 149
f 149 148 150
f 149 150 151
f 151 150 152
f 153 154 155
f 155 154 156
f 155 156 157
f 157 156 158
f 157 158 159
f 159 158 160
f 159 160 161
f 161 160 162
f 161 162 163
f 163 162 164
f 152 154 151
f 151 154 153
f 129 163 130
f 130 163 164
f 141 127 142
f 142 127 128
f 165 166 167
f 167 166 168
f 168 166 169
f 169 166 170
f 166 165 170
f 170 165 171
f 165 167 171
f 171 167 172
f 167 168 172
f 172 168 169
f 173 174 175
f 175 174 176
f 173 175 177
f 177 175 178
f 174 173 179
f 179 173 177
f 176 174 180
f 180 174 179
f 175 176 178
f 178 176 180
f 149 151 153
f 133 135 161
f 135 137 161
f 161 137 139
f 161 139 159
f 159 139 117
f 163 129 161
f 161 129 131
f 161 131 133
f 153 155 123
f 123 155 157
f 123 157 121
f 121 157 159
f 121 159 119
f 119 159 117
f 127 141 125
f 125 141 143
f 125 143 123
f 123 143 145
f 123 145 153
f 153 145 147
f 153 147 149
f 181 182 183
f 183 182 184
f 184 182 185
f 185 182 186
f 182 181 186
f 186 181 187
f 181 183 187
f 187 183 188
f 185 118 117
f 139 140 188
f 139 188 117
f 117 188 185
f 185 188 177
f 185 177 184
f 184 177 178
f 184 178 183
f 183 178 180
f 183 180 188
f 188 180 179
f 188 179 177
f 128 126 186
f 187 172 186
f 186 172 169
f 136 134 187
f 126 124 186
f 186 124 122
f 186 122 185
f 185 122 120
f 185 120 118
f 170 171 154
f 136 187 138
f 138 187 188
f 138 188 140
f 154 152 170
f 170 152 150
f 170 150 169
f 169 150 148
f 148 146 169
f 169 146 144
f 169 144 186
f 186 144 142
f 186 142 128
f 134 132 187
f 187 132 130
f 187 130 172
f 172 130 164
f 172 164 162
f 162 160 172
f 172 160 158
f 172 158 171
f 171 158 156
f 171 156 154
f 189 190 191
f 191 190 192
f 193 194 195
f 195 194 196
f 197 198 199
f 199 198 200
f 201 202 203
f 203 202 204
f 205 206 207
f 205 207 208
f 208 207 209
f 208 209 210
f 210 209 211
f 210 211 212
f 206 205 213
f 206 213 214
f 214 213 215
f 214 215 216
f 216 215 217
f 216 217 218
f 209 207 211
f 211 207 206
f 206 214 211
f 211 214 216
f 211 216 218
f 215 213 205
f 217 215 212
f 212 215 205
f 212 205 210
f 210 205 208
f 219 220 221
f 219 221 222
f 222 221 223
f 222 223 224
f 224 223 225
f 224 225 226
f 220 219 227
f 220 227 228
f 228 227 229
f 228 229 230
f 230 229 231
f 230 231 232
f 222 224 226
f 227 219 229
f 229 219 222
f 229 222 231
f 231 222 226
f 221 220 228
f 225 223 232
f 232 223 221
f 232 221 230
f 230 221 228
f 233 234 235
f 235 234 236
f 234 237 236
f 236 237 238
f 237 239 238
f 238 239 240
f 241 242 243
f 243 242 244
f 245 246 247
f 247 246 248
f 249 250 251
f 251 250 252
f 253 254 255
f 255 254 256
f 204 202 199
f 199 202 197
f 192 190 203
f 203 190 201
f 196 194 191
f 191 194 189
f 200 198 195
f 195 198 193
f 257 190 258
f 258 190 189
f 258 189 259
f 260 194 261
f 261 194 193
f 261 193 262
f 260 263 194
f 194 263 264
f 194 264 189
f 189 264 265
f 189 265 259
f 266 198 267
f 267 198 197
f 267 197 268
f 266 269 198
f 198 269 270
f 198 270 193
f 193 270 271
f 193 271 262
f 257 272 190
f 190 272 273
f 190 273 201
f 201 273 274
f 274 275 201
f 201 275 276
f 201 276 202
f 202 276 277
f 277 278 202
f 202 278 279
f 202 279 197
f 197 279 280
f 197 280 268
f 281 273 272
f 281 272 282
f 282 272 257
f 282 257 283
f 283 257 258
f 283 258 284
f 284 258 259
f 284 259 285
f 285 259 265
f 285 265 286
f 287 264 263
f 287 263 288
f 288 263 260
f 288 260 289
f 289 260 261
f 289 261 290
f 290 261 262
f 290 262 291
f 291 262 271
f 291 271 292
f 293 270 269
f 293 269 294
f 294 269 266
f 294 266 295
f 295 266 267
f 295 267 296
f 296 267 268
f 296 268 297
f 297 268 280
f 297 280 298
f 299 279 278
f 299 278 300
f 300 278 277
f 300 277 301
f 301 277 276
f 301 276 302
f 302 276 275
f 302 275 303
f 303 275 274
f 303 274 304
f 211 265 212
f 212 265 264
f 212 264 217
f 217 264 287
f 217 287 218
f 218 287 286
f 218 286 211
f 211 286 265
f 293 292 270
f 270 292 271
f 240 304 238
f 238 304 274
f 238 274 236
f 236 274 273
f 236 273 235
f 235 273 281
f 254 233 235
f 235 281 254
f 254 281 282
f 254 282 283
f 283 284 254
f 254 284 285
f 254 285 256
f 256 285 286
f 256 286 250
f 286 287 250
f 250 287 288
f 250 288 289
f 289 290 250
f 250 290 291
f 250 291 252
f 252 291 292
f 252 292 246
f 292 293 246
f 246 293 294
f 246 294 295
f 242 300 301
f 295 296 246
f 246 296 297
f 246 297 248
f 248 297 298
f 248 298 242
f 242 298 299
f 242 299 300
f 240 239 304
f 304 239 244
f 304 244 303
f 303 244 242
f 303 242 302
f 302 242 301
f 247 248 241
f 241 248 242
f 251 252 245
f 245 252 246
f 255 256 249
f 249 256 250
f 233 254 234
f 234 254 253
f 234 253 237
f 237 253 243
f 237 243 239
f 239 243 244
f 226 279 231
f 231 279 299
f 231 299 232
f 232 299 298
f 232 298 225
f 225 298 280
f 225 280 226
f 226 280 279
f 204 241 203
f 203 241 243
f 203 243 192
f 192 243 253
f 192 253 191
f 191 253 255
f 191 255 196
f 196 255 249
f 196 249 195
f 195 249 251
f 195 251 200
f 200 251 245
f 200 245 199
f 199 245 247
f 199 247 204
f 204 247 241
f 305 306 307
f 307 306 308
f 309 310 311
f 311 310 312
f 313 314 315
f 315 314 316
f 317 318 319
f 319 318 320
f 316 314 318
f 318 314 312
f 318 312 320
f 320 312 310
f 320 310 306
f 306 310 308
f 315 316 317
f 317 316 318
f 319 320 305
f 305 320 306
f 307 308 309
f 309 308 310
f 311 312 313
f 313 312 314
f 315 317 319
f 311 313 309
f 309 313 315
f 309 315 307
f 307 315 319
f 307 319 305
f 321 322 323
f 321 323 324
f 324 323 325
f 324 325 326
f 326 325 327
f 326 327 328
f 328 327 329
f 328 329 330
f 330 329 331
f 330 331 332
f 332 331 333
f 332 333 334
f 334 333 335
f 334 335 336
f 336 335 337
f 336 337 338
f 338 337 339
f 338 339 340
f 340 339 341
f 340 341 342
f 342 341 343
f 342 343 344
f 345 344 346
f 346 344 343
f 321 347 322
f 322 347 348
f 349 350 351
f 351 350 352
f 351 352 353
f 353 352 354
f 353 354 355
f 355 354 356
f 355 356 357
f 357 356 358
f 357 358 359
f 359 358 360
f 359 360 361
f 361 360 362
f 361 362 363
f 363 362 364
f 363 364 365
f 365 364 366
f 365 366 367
f 367 366 368
f 367 368 369
f 369 368 370
f 369 370 371
f 371 370 372
f 371 372 373
f 373 372 374
f 373 374 375
f 375 374 376
f 375 376 377
f 377 376 378
f 379 377 378
f 350 349 380
f 380 349 381
f 380 381 382
f 382 381 383
f 382 383 384
f 384 383 385
f 384 385 386
f 386 385 387
f 386 387 388
f 388 387 389
f 388 389 390
f 390 389 391
f 390 391 392
f 392 391 393
f 392 393 394
f 394 393 395
f 394 395 396
f 396 395 397
f 396 397 398
f 398 397 399
f 398 399 400
f 400 399 401
f 400 401 402
f 402 401 403
f 402 403 404
f 404 403 379
f 404 379 405
f 405 379 378
f 406 407 346
f 346 407 408
f 409 410 411
f 408 412 346
f 346 412 413
f 346 413 414
f 415 416 414
f 417 418 419
f 419 418 409
f 348 420 421
f 422 423 424
f 424 423 425
f 425 423 426
f 425 426 427
f 427 426 428
f 428 426 429
f 428 429 430
f 430 429 431
f 431 429 432
f 431 432 433
f 418 346 409
f 409 346 414
f 409 414 410
f 410 414 416
f 411 434 409
f 409 434 435
f 409 435 436
f 436 435 437
f 438 439 437
f 437 439 440
f 437 440 436
f 418 441 442
f 421 443 348
f 348 443 444
f 348 444 322
f 424 445 422
f 422 445 446
f 422 446 447
f 417 448 418
f 418 448 449
f 418 449 441
f 450 451 407
f 407 451 452
f 407 452 408
f 453 454 322
f 322 454 455
f 322 455 323
f 323 455 456
f 406 346 457
f 457 346 343
f 457 343 458
f 459 460 461
f 446 462 447
f 447 462 463
f 447 463 461
f 461 463 464
f 461 464 459
f 433 432 465
f 465 432 466
f 465 466 467
f 468 469 442
f 442 469 470
f 442 470 418
f 444 471 322
f 322 471 472
f 322 472 453
f 453 472 450
f 453 450 473
f 473 450 407
f 459 474 460
f 460 474 475
f 460 475 438
f 438 475 476
f 438 476 439
f 420 348 414
f 414 348 477
f 414 477 415
f 478 329 479
f 479 329 327
f 479 327 456
f 456 327 325
f 456 325 323
f 480 333 478
f 478 333 331
f 478 331 329
f 343 341 458
f 458 341 339
f 458 339 481
f 481 339 337
f 481 337 480
f 480 337 335
f 480 335 333
f 467 466 482
f 482 466 483
f 482 483 348
f 348 483 484
f 348 484 477
f 345 485 486
f 485 487 488
f 488 487 489
f 488 489 490
f 491 321 492
f 492 321 493
f 347 494 495
f 495 494 496
f 398 400 497
f 498 499 496
f 496 499 500
f 496 500 495
f 501 502 485
f 485 502 503
f 485 503 487
f 491 504 321
f 321 504 505
f 321 505 347
f 347 505 506
f 347 506 494
f 507 404 405
f 508 509 498
f 498 509 510
f 498 510 499
f 511 512 508
f 508 512 513
f 508 513 509
f 345 514 485
f 485 514 515
f 485 515 516
f 497 400 517
f 517 400 402
f 517 402 404
f 518 519 511
f 511 519 520
f 511 520 512
f 521 522 523
f 523 522 524
f 523 524 518
f 518 524 525
f 518 525 519
f 516 526 485
f 485 526 527
f 485 527 501
f 398 497 396
f 396 497 493
f 396 493 394
f 394 493 321
f 394 321 392
f 506 528 494
f 494 528 529
f 494 529 530
f 326 386 324
f 324 386 388
f 324 388 321
f 321 388 390
f 321 390 392
f 489 531 490
f 490 531 532
f 490 532 533
f 372 534 374
f 374 534 535
f 374 535 376
f 486 536 345
f 345 536 537
f 345 537 538
f 338 340 360
f 539 540 521
f 521 540 541
f 521 541 522
f 532 542 533
f 533 542 543
f 533 543 544
f 545 546 538
f 538 546 547
f 538 547 345
f 345 547 548
f 345 548 344
f 344 548 549
f 550 551 538
f 538 551 552
f 538 552 545
f 543 553 544
f 544 553 554
f 544 554 555
f 360 340 362
f 362 340 342
f 362 342 364
f 364 342 344
f 364 344 366
f 366 344 549
f 366 549 368
f 360 358 338
f 338 358 356
f 338 356 336
f 336 356 354
f 336 354 334
f 334 354 352
f 334 352 332
f 332 352 350
f 332 350 330
f 330 350 380
f 330 380 328
f 328 380 382
f 328 382 326
f 326 382 384
f 326 384 386
f 554 556 555
f 555 556 557
f 555 557 539
f 539 557 558
f 539 558 540
f 507 405 535
f 535 405 378
f 535 378 376
f 368 549 370
f 370 549 559
f 370 559 372
f 372 559 560
f 372 560 534
f 530 561 494
f 494 561 562
f 494 562 563
f 563 562 564
f 563 564 538
f 538 564 565
f 538 565 550
f 565 566 550
f 550 566 567
f 550 567 551
f 551 567 568
f 551 568 552
f 552 568 569
f 552 569 545
f 545 569 570
f 545 570 546
f 546 570 571
f 546 571 547
f 547 571 572
f 547 572 548
f 548 572 573
f 548 573 549
f 549 573 574
f 549 574 559
f 559 574 575
f 559 575 560
f 560 575 576
f 560 576 534
f 534 576 577
f 534 577 535
f 535 577 578
f 535 578 507
f 507 578 579
f 507 579 404
f 404 579 580
f 404 580 517
f 566 565 581
f 581 565 564
f 581 564 582
f 582 564 562
f 582 562 583
f 583 562 561
f 583 561 584
f 584 561 530
f 584 530 585
f 585 530 529
f 585 529 586
f 586 529 528
f 586 528 587
f 587 528 506
f 587 506 588
f 588 506 505
f 588 505 589
f 589 505 504
f 589 504 590
f 590 504 491
f 590 491 591
f 591 491 492
f 591 492 592
f 592 492 493
f 592 493 593
f 593 493 497
f 593 497 580
f 580 497 517
f 450 579 451
f 451 579 578
f 451 578 452
f 452 578 577
f 577 576 452
f 452 576 575
f 452 575 408
f 408 575 574
f 408 574 412
f 412 574 573
f 573 572 412
f 412 572 571
f 412 571 413
f 568 414 569
f 569 414 413
f 569 413 570
f 570 413 571
f 568 567 414
f 414 567 566
f 414 566 420
f 420 566 581
f 581 582 420
f 420 582 583
f 420 583 421
f 583 584 421
f 421 584 585
f 421 585 443
f 585 586 443
f 443 586 587
f 443 587 444
f 587 588 444
f 444 588 589
f 444 589 471
f 589 590 471
f 471 590 591
f 471 591 472
f 591 592 472
f 472 592 593
f 472 593 450
f 450 593 580
f 450 580 579
f 480 353 481
f 481 353 355
f 355 357 481
f 481 357 359
f 481 359 458
f 458 359 361
f 458 361 457
f 361 363 457
f 457 363 365
f 457 365 406
f 406 365 367
f 373 407 371
f 371 407 406
f 371 406 369
f 369 406 367
f 373 375 407
f 407 375 377
f 407 377 473
f 473 377 379
f 379 403 473
f 473 403 401
f 473 401 453
f 401 399 453
f 453 399 397
f 453 397 454
f 397 395 454
f 454 395 393
f 454 393 455
f 455 393 391
f 455 391 456
f 456 391 389
f 389 387 456
f 456 387 385
f 456 385 479
f 385 383 479
f 479 383 381
f 479 381 478
f 478 381 349
f 478 349 480
f 480 349 351
f 480 351 353
f 482 348 347
f 347 495 482
f 482 495 500
f 482 500 467
f 467 500 499
f 467 499 465
f 465 499 510
f 465 510 433
f 433 510 509
f 433 509 431
f 431 509 513
f 431 513 430
f 430 513 512
f 430 512 428
f 428 512 520
f 428 520 427
f 427 520 519
f 427 519 425
f 425 519 525
f 425 525 424
f 424 525 524
f 424 524 445
f 445 524 522
f 445 522 446
f 446 522 541
f 446 541 462
f 462 541 540
f 462 540 463
f 463 540 558
f 463 558 464
f 464 558 557
f 464 557 459
f 459 557 556
f 459 556 474
f 514 345 346
f 346 418 514
f 514 418 470
f 514 470 515
f 515 470 469
f 515 469 516
f 516 469 468
f 516 468 526
f 526 468 442
f 526 442 527
f 527 442 441
f 527 441 501
f 501 441 449
f 501 449 502
f 502 449 448
f 502 448 503
f 503 448 417
f 503 417 487
f 487 417 419
f 487 419 489
f 489 419 409
f 489 409 531
f 531 409 436
f 531 436 532
f 532 436 440
f 532 440 542
f 542 440 439
f 542 439 543
f 543 439 476
f 543 476 553
f 553 476 475
f 553 475 554
f 554 475 474
f 554 474 556
f 460 555 461
f 461 555 539
f 461 539 447
f 447 539 521
f 447 521 422
f 422 521 523
f 422 523 423
f 423 523 518
f 423 518 426
f 426 518 511
f 426 511 429
f 429 511 508
f 429 508 432
f 432 508 498
f 432 498 466
f 466 498 496
f 466 496 483
f 483 496 494
f 483 494 484
f 484 494 563
f 484 563 477
f 477 563 538
f 477 538 415
f 415 538 537
f 415 537 416
f 416 537 536
f 416 536 410
f 410 536 486
f 410 486 411
f 411 486 485
f 411 485 434
f 434 485 488
f 434 488 435
f 435 488 490
f 435 490 437
f 437 490 533
f 437 533 438
f 438 533 544
f 438 544 460
f 460 544 555
f 594 595 596
f 596 595 597
f 598 599 600
f 600 599 601
f 600 601 602
f 602 601 603
f 604 605 606
f 606 605 607
f 608 609 607
f 607 609 610
f 607 610 606
f 606 610 611
f 611 612 606
f 606 612 613
f 606 613 614
f 614 613 615
f 615 616 614
f 614 616 617
f 614 617 618
f 618 617 619
f 618 619 620
f 621 622 623
f 623 622 624
f 625 626 627
f 627 626 628
f 629 630 631
f 631 630 632
f 632 630 625
f 625 630 626
f 633 634 635
f 635 634 636
f 634 637 638
f 639 640 641
f 631 639 629
f 629 639 641
f 629 641 628
f 628 641 627
f 642 643 644
f 645 646 644
f 644 646 647
f 644 647 642
f 648 649 650
f 634 638 636
f 636 638 646
f 636 646 651
f 651 646 645
f 651 645 649
f 649 645 652
f 649 652 650
f 650 639 648
f 648 639 631
f 648 631 636
f 636 631 627
f 636 627 635
f 635 627 641
f 604 606 653
f 653 606 654
f 655 656 602
f 602 656 657
f 602 657 600
f 595 658 659
f 658 660 659
f 659 660 661
f 659 661 653
f 653 661 605
f 653 605 604
f 655 602 662
f 662 602 663
f 662 663 659
f 659 663 597
f 659 597 595
f 664 614 618
f 665 662 618
f 618 662 659
f 618 659 664
f 666 654 667
f 667 654 606
f 667 606 668
f 668 606 614
f 668 614 669
f 669 614 664
f 669 664 670
f 670 664 659
f 671 653 672
f 672 653 673
f 674 675 659
f 673 653 676
f 676 653 654
f 676 654 666
f 675 677 659
f 659 677 678
f 659 678 670
f 671 679 653
f 653 679 680
f 653 680 659
f 659 680 681
f 659 681 674
f 667 682 666
f 666 682 676
f 683 670 684
f 684 670 678
f 684 678 685
f 685 678 677
f 685 677 686
f 686 677 675
f 686 675 687
f 687 675 674
f 687 674 688
f 688 674 681
f 688 681 689
f 689 681 680
f 689 680 690
f 690 680 679
f 690 679 691
f 691 679 671
f 691 671 692
f 692 671 672
f 692 672 693
f 693 672 673
f 693 673 682
f 682 673 676
f 683 668 670
f 670 668 669
f 667 694 695
f 694 667 696
f 696 667 668
f 696 668 697
f 698 690 699
f 699 690 691
f 699 691 700
f 701 682 702
f 702 682 667
f 702 667 703
f 703 667 695
f 691 692 700
f 700 692 693
f 700 693 704
f 704 693 682
f 704 682 705
f 705 682 706
f 707 708 686
f 683 709 710
f 711 706 712
f 712 706 682
f 712 682 713
f 713 682 701
f 686 708 685
f 685 708 714
f 685 714 684
f 683 710 668
f 668 710 715
f 668 715 697
f 686 687 707
f 707 687 688
f 707 688 698
f 698 688 689
f 698 689 690
f 684 714 683
f 683 714 716
f 683 716 709
f 709 716 717
f 709 717 718
f 711 712 718
f 718 712 719
f 718 719 709
f 720 622 721
f 721 622 621
f 621 623 721
f 721 623 722
f 721 722 723
f 603 601 637
f 637 601 724
f 637 724 725
f 725 724 726
f 725 726 727
f 728 642 729
f 729 642 647
f 729 647 727
f 727 647 730
f 727 730 725
f 731 732 637
f 637 732 723
f 637 723 603
f 603 723 722
f 634 733 637
f 637 733 734
f 637 734 731
f 735 736 737
f 737 736 738
f 737 738 739
f 739 738 740
f 739 740 741
f 741 740 742
f 741 742 743
f 743 742 744
f 743 744 745
f 745 744 746
f 745 746 747
f 747 746 748
f 747 748 749
f 749 748 750
f 749 750 751
f 751 750 752
f 751 752 753
f 753 752 754
f 753 754 755
f 755 754 756
f 755 756 757
f 757 756 758
f 757 758 759
f 759 758 760
f 759 760 761
f 761 760 735
f 761 735 737
f 755 705 753
f 753 705 706
f 753 706 751
f 751 706 711
f 751 711 749
f 749 711 718
f 749 718 747
f 747 718 717
f 747 717 745
f 745 717 716
f 745 716 743
f 743 716 714
f 743 714 741
f 741 714 708
f 741 708 739
f 739 708 707
f 739 707 737
f 737 707 698
f 737 698 761
f 761 698 699
f 761 699 759
f 759 699 700
f 759 700 757
f 757 700 704
f 757 704 755
f 755 704 705
f 762 608 763
f 763 608 764
f 763 764 765
f 765 764 766
f 765 766 767
f 767 766 768
f 767 768 769
f 768 770 769
f 769 770 620
f 769 620 771
f 771 620 619
f 771 619 772
f 772 619 617
f 772 617 773
f 773 617 616
f 773 616 774
f 774 616 615
f 774 615 775
f 775 615 613
f 775 613 776
f 776 613 612
f 776 612 777
f 777 612 611
f 777 611 778
f 778 611 610
f 778 610 762
f 762 610 609
f 762 609 608
f 777 703 776
f 776 703 695
f 776 695 775
f 775 695 694
f 775 694 774
f 774 694 696
f 774 696 773
f 773 696 697
f 773 697 772
f 772 697 715
f 772 715 771
f 771 715 710
f 771 710 769
f 769 710 709
f 769 709 767
f 767 709 719
f 767 719 765
f 765 719 712
f 765 712 763
f 763 712 713
f 763 713 762
f 762 713 701
f 762 701 778
f 778 701 702
f 778 702 777
f 777 702 703
f 624 622 779
f 779 622 720
f 780 781 782
f 596 783 594
f 594 783 618
f 594 618 784
f 784 618 620
f 784 620 785
f 785 620 608
f 785 608 786
f 786 608 607
f 782 787 650
f 650 787 788
f 650 788 639
f 639 788 789
f 639 789 790
f 780 782 791
f 791 782 650
f 791 650 792
f 793 779 598
f 598 779 720
f 598 720 599
f 599 720 782
f 599 782 794
f 794 782 781
f 793 795 779
f 779 795 796
f 779 796 783
f 783 796 665
f 783 665 618
f 643 642 728
f 792 650 652
f 797 798 652
f 652 798 643
f 652 643 792
f 792 643 728
f 791 792 729
f 729 792 728
f 734 733 789
f 789 733 790
f 790 733 633
f 633 733 634
f 639 790 640
f 640 790 633
f 640 633 799
f 799 633 800
f 801 802 644
f 644 802 645
f 798 801 643
f 643 801 644
f 802 797 645
f 645 797 652
f 798 797 801
f 801 797 802
f 803 804 638
f 638 804 646
f 803 638 725
f 725 638 637
f 804 730 646
f 646 730 647
f 804 803 730
f 730 803 725
f 636 651 805
f 805 651 806
f 807 806 649
f 649 806 651
f 807 649 808
f 808 649 648
f 626 630 628
f 628 630 629
f 805 806 808
f 808 806 807
f 595 594 658
f 658 594 784
f 658 784 660
f 660 784 785
f 660 785 661
f 661 785 786
f 661 786 605
f 605 786 607
f 734 789 731
f 731 789 788
f 731 788 732
f 732 788 787
f 732 787 723
f 723 787 782
f 723 782 721
f 721 782 720
f 791 729 780
f 780 729 727
f 780 727 781
f 781 727 726
f 781 726 794
f 794 726 724
f 794 724 599
f 599 724 601
f 632 625 631
f 631 625 627
f 648 636 808
f 808 636 805
f 608 620 770
f 768 766 770
f 770 766 764
f 770 764 608
f 738 736 809
f 738 809 740
f 746 744 809
f 809 744 742
f 809 742 740
f 752 750 809
f 809 750 748
f 809 748 746
f 758 756 809
f 809 756 754
f 809 754 752
f 736 735 809
f 809 735 760
f 809 760 758
f 783 596 663
f 663 596 597
f 624 779 623
f 623 779 722
f 810 811 783
f 783 812 779
f 779 812 813
f 602 603 814
f 814 603 722
f 814 815 602
f 602 815 816
f 602 816 817
f 818 783 663
f 813 819 779
f 779 819 820
f 779 820 821
f 817 822 602
f 602 822 823
f 602 823 663
f 823 824 663
f 663 824 825
f 663 825 826
f 818 827 783
f 783 827 828
f 783 828 810
f 829 830 831
f 821 832 779
f 779 832 833
f 779 833 834
f 835 836 779
f 779 836 837
f 837 838 779
f 779 838 839
f 779 839 722
f 722 839 840
f 722 840 814
f 826 841 663
f 663 841 842
f 663 842 818
f 835 779 843
f 843 779 834
f 843 834 829
f 829 834 844
f 829 844 830
f 845 846 811
f 831 847 829
f 829 847 848
f 829 848 811
f 811 848 849
f 811 849 845
f 846 850 811
f 811 850 851
f 811 851 783
f 783 851 852
f 852 853 783
f 783 853 854
f 783 854 855
f 855 856 783
f 783 856 857
f 783 857 812
f 858 859 860
f 861 859 858
f 858 862 863
f 864 862 858
f 860 864 858
f 858 865 866
f 867 865 858
f 863 867 858
f 858 868 869
f 870 868 858
f 866 870 858
f 869 861 858
f 871 859 861
f 871 872 859
f 859 872 873
f 859 873 860
f 873 874 860
f 860 874 875
f 860 875 864
f 875 876 864
f 864 876 877
f 864 877 862
f 877 878 862
f 862 878 879
f 862 879 863
f 879 880 863
f 863 880 881
f 863 881 867
f 881 882 867
f 867 882 883
f 867 883 865
f 883 884 865
f 865 884 885
f 865 885 866
f 885 886 866
f 866 886 887
f 866 887 870
f 887 888 870
f 870 888 889
f 870 889 868
f 889 890 868
f 868 890 891
f 868 891 869
f 891 892 869
f 869 892 893
f 869 893 861
f 861 893 894
f 861 894 871
f 871 838 872
f 872 838 837
f 872 837 873
f 873 837 836
f 873 836 874
f 874 836 835
f 874 835 875
f 875 835 843
f 875 843 876
f 876 843 829
f 876 829 877
f 877 829 811
f 877 811 878
f 878 811 810
f 878 810 879
f 879 810 828
f 879 828 880
f 880 828 827
f 880 827 881
f 881 827 818
f 881 818 882
f 882 818 842
f 882 842 883
f 883 842 841
f 883 841 884
f 884 841 826
f 884 826 885
f 885 826 825
f 885 825 886
f 886 825 824
f 886 824 887
f 887 824 823
f 887 823 888
f 888 823 822
f 888 822 889
f 889 822 817
f 889 817 890
f 890 817 816
f 890 816 891
f 891 816 815
f 891 815 892
f 892 815 814
f 892 814 893
f 893 814 840
f 893 840 894
f 894 840 839
f 894 839 871
f 871 839 838
f 895 896 897
f 898 896 895
f 895 899 900
f 901 899 895
f 897 901 895
f 895 902 903
f 904 902 895
f 900 904 895
f 895 905 906
f 907 905 895
f 903 907 895
f 906 898 895
f 896 898 908
f 908 909 896
f 896 909 910
f 896 910 897
f 910 911 897
f 897 911 912
f 897 912 901
f 912 913 901
f 901 913 914
f 901 914 899
f 914 915 899
f 899 915 916
f 899 916 900
f 916 917 900
f 900 917 918
f 900 918 904
f 918 919 904
f 904 919 920
f 904 920 902
f 920 921 902
f 902 921 922
f 902 922 903
f 922 923 903
f 903 923 924
f 903 924 907
f 924 925 907
f 907 925 926
f 907 926 905
f 926 927 905
f 905 927 928
f 905 928 906
f 928 929 906
f 906 929 930
f 906 930 898
f 898 930 931
f 898 931 908
f 908 832 909
f 909 832 821
f 909 821 910
f 910 821 820
f 910 820 911
f 911 820 819
f 911 819 912
f 912 819 813
f 912 813 913
f 913 813 812
f 913 812 914
f 914 812 857
f 914 857 915
f 915 857 856
f 915 856 916
f 916 856 855
f 916 855 917
f 917 855 854
f 917 854 918
f 918 854 853
f 918 853 919
f 919 853 852
f 919 852 920
f 920 852 851
f 920 851 921
f 921 851 850
f 921 850 922
f 922 850 846
f 922 846 923
f 923 846 845
f 923 845 924
f 924 845 849
f 924 849 925
f 925 849 848
f 925 848 926
f 926 848 847
f 926 847 927
f 927 847 831
f 927 831 928
f 928 831 830
f 928 830 929
f 929 830 844
f 929 844 930
f 930 844 834
f 930 834 931
f 931 834 833
f 931 833 908
f 908 833 832
f 932 933 641
f 641 933 635
f 640 799 641
f 641 799 932
f 635 933 633
f 633 933 800
f 799 800 932
f 932 800 933
f 662 665 655
f 655 665 796
f 655 796 656
f 656 796 795
f 656 795 657
f 657 795 793
f 657 793 600
f 600 793 598

