# https://github.com/mikedh/trimesh

o left_hand_ring_DIP_link.STL
v 0.00225000 -0.00762499 0.01450000
v 0.00225000 -0.00642503 0.01450000
v 0.00218367 -0.00642503 0.01504229
v 0.00218367 -0.00762499 0.01504229
v 0.00190820 -0.00642503 0.01569217
v 0.00190820 -0.00762499 0.01569217
v 0.00144495 -0.00642503 0.01622471
v 0.00144495 -0.00762499 0.01622471
v 0.00083949 -0.00642503 0.01658753
v 0.00083949 -0.00762499 0.01658753
v 0.00031160 -0.00642503 0.01672832
v 0.00031160 -0.00762499 0.01672832
v -0.00020005 -0.00642503 0.01674109
v -0.00020005 -0.00762499 0.01674109
v -0.00088133 -0.00642503 0.01657021
v -0.00088133 -0.00762499 0.01657021
v -0.00147672 -0.00642503 0.01619759
v -0.00147672 -0.00762499 0.01619759
v -0.00192821 -0.00642503 0.01565954
v -0.00192821 -0.00762499 0.01565954
v -0.00219179 -0.00642503 0.01500849
v -0.00219179 -0.00762499 0.01500849
v -0.00225000 -0.00642503 0.01450000
v -0.00225000 -0.00762499 0.01450000
v -0.00225001 -0.00762499 0.00767712
v -0.00225000 -0.00642503 0.00767712
v 0.00225000 -0.00762499 0.00767713
v 0.00225000 -0.00642503 0.00767713
v 0.00015234 -0.00672496 0.01558940
v 0.00027698 -0.00762499 0.01648073
v -0.00011280 -0.00672496 0.01559420
v -0.00020509 -0.00762499 0.01648946
v -0.00037138 -0.00672496 0.01553541
v -0.00067524 -0.00762499 0.01638257
v -0.00060838 -0.00672496 0.01541645
v -0.00110614 -0.00762499 0.01616627
v -0.00081002 -0.00672496 0.01524422
v -0.00147276 -0.00762499 0.01585313
v -0.00096459 -0.00672496 0.01502875
v -0.00175379 -0.00762499 0.01546136
v -0.00106309 -0.00672496 0.01478254
v -0.00193290 -0.00762499 0.01501371
v -0.00109982 -0.00672496 0.01451992
v -0.00199967 -0.00762499 0.01453621
v -0.00107263 -0.00672496 0.01425613
v -0.00195023 -0.00762499 0.01405661
v -0.00098310 -0.00672496 0.01400652
v -0.00178745 -0.00762499 0.01360277
v -0.00083643 -0.00672496 0.01378559
v -0.00152079 -0.00762499 0.01320108
v -0.00064116 -0.00672496 0.01360618
v -0.00116574 -0.00762499 0.01287487
v -0.00040862 -0.00672496 0.01347871
v -0.00074295 -0.00762499 0.01264311
v -0.00019826 -0.00672496 0.01341802
v -0.00036047 -0.00762499 0.01253275
v -0.00015234 -0.00672496 0.01341060
v -0.00027698 -0.00762499 0.01251927
v -0.00010615 -0.00672496 0.01340513
v 0.00074295 -0.00762499 0.01635689
v 0.00040862 -0.00672496 0.01552129
v 0.00116574 -0.00762499 0.01612513
v 0.00064116 -0.00672496 0.01539382
v 0.00152079 -0.00762499 0.01579892
v 0.00083643 -0.00672496 0.01521441
v 0.00178745 -0.00762499 0.01539723
v 0.00098310 -0.00672496 0.01499348
v 0.00195023 -0.00762499 0.01494339
v 0.00107263 -0.00672496 0.01474387
v 0.00199967 -0.00762499 0.01446379
v 0.00109982 -0.00672496 0.01448009
v 0.00193290 -0.00762499 0.01398629
v 0.00106309 -0.00672496 0.01421746
v 0.00175379 -0.00762499 0.01353864
v 0.00096459 -0.00672496 0.01397125
v 0.00147276 -0.00762499 0.01314687
v 0.00081002 -0.00672496 0.01375578
v 0.00110614 -0.00762499 0.01283373
v 0.00060838 -0.00672496 0.01358355
v 0.00067524 -0.00762499 0.01261743
v 0.00037138 -0.00672496 0.01346459
v 0.00020509 -0.00762499 0.01251054
v 0.00011280 -0.00672496 0.01340580
v 0.00000000 -0.00762499 0.01250000
v -0.00019299 -0.00762499 0.01250933
v -0.00083643 -0.00642503 0.01378559
v -0.00040862 -0.00642503 0.01347871
v -0.00106309 -0.00642503 0.01078254
v -0.00652892 -0.00642503 -0.00462312
v -0.00189326 -0.00642503 0.00064464
v -0.00199970 -0.00642503 -0.00003479
v -0.00107263 -0.00642503 0.01025613
v -0.00083643 -0.00642503 0.00978559
v -0.00040862 -0.00642503 0.00947871
v -0.00104787 -0.00642503 0.00170351
v -0.00156297 -0.00642503 0.00124785
v -0.00776260 -0.00642503 -0.00193443
v -0.00257235 -0.00642503 0.00757516
v -0.00727112 -0.00642503 -0.00333629
v 0.00011280 -0.00642503 0.00940580
v 0.00060838 -0.00642503 0.00958355
v 0.00156297 -0.00642503 -0.00124785
v 0.00189326 -0.00642503 -0.00064464
v 0.00733885 -0.00642503 -0.00318455
v 0.00779709 -0.00642503 -0.00179034
v 0.00199970 -0.00642503 0.00003479
v 0.00799295 -0.00642503 -0.00033588
v 0.00791981 -0.00642503 0.00112988
v 0.00186969 -0.00642503 0.00071011
v 0.00758014 -0.00642503 0.00255762
v 0.00698538 -0.00642503 0.00389929
v 0.00151862 -0.00642503 0.00130146
v 0.00615554 -0.00642503 0.00510973
v -0.00186969 -0.00642503 -0.00071011
v -0.00151862 -0.00642503 -0.00130146
v -0.00556160 -0.00642503 -0.00575053
v -0.00098798 -0.00642503 -0.00173893
v -0.00034053 -0.00642503 -0.00197080
v -0.00309163 -0.00642503 -0.00737847
v -0.00440251 -0.00642503 -0.00667966
v -0.00760971 -0.00642503 0.00246825
v -0.00702217 -0.00642503 0.00383264
v 0.00096459 -0.00642503 0.00997125
v 0.00109982 -0.00642503 0.01048008
v 0.00663362 -0.00642503 -0.00447158
v 0.00570515 -0.00642503 -0.00560814
v 0.00104787 -0.00642503 -0.00170351
v -0.00798642 -0.00642503 -0.00046587
v -0.00793487 -0.00642503 0.00101875
v 0.00015234 -0.00642503 0.01158940
v -0.00037138 -0.00642503 0.01153541
v -0.00081002 -0.00642503 0.01124422
v 0.00060838 -0.00642503 0.01358355
v 0.00096459 -0.00642503 0.01397125
v 0.00109982 -0.00642503 0.01448009
v 0.00098310 -0.00642503 0.01499348
v -0.00107263 -0.00642503 0.01425613
v -0.00106309 -0.00642503 0.01478254
v 0.00047290 -0.00642503 -0.00798601
v 0.00003479 -0.00642503 -0.00199970
v 0.00040888 -0.00642503 -0.00195776
v 0.00458469 -0.00642503 -0.00655596
v 0.00330993 -0.00642503 -0.00728315
v 0.00192379 -0.00642503 -0.00776525
v 0.00511854 -0.00642503 0.00614821
v 0.00098798 -0.00642503 0.00173893
v 0.00390929 -0.00642503 0.00697979
v -0.00619250 -0.00642503 0.00506488
v -0.00514930 -0.00642503 0.00612247
v -0.00392856 -0.00642503 0.00696896
v 0.00098310 -0.00642503 0.01099348
v 0.00064116 -0.00642503 0.01139382
v 0.00011280 -0.00642503 0.01340580
v 0.00013916 -0.00642503 -0.00799879
v -0.00019892 -0.00642503 -0.00799753
v -0.00167414 -0.00642503 -0.00782287
v -0.00040888 -0.00642503 0.00195776
v 0.00015234 -0.00642503 0.01558940
v 0.00064116 -0.00642503 0.01539382
v -0.00037138 -0.00642503 0.01553541
v -0.00081002 -0.00642503 0.01524422
v 0.00256848 -0.00642503 0.00757647
v 0.00034053 -0.00642503 0.00197080
v -0.00003479 -0.00642503 0.00199970
v -0.00199970 -0.00762499 -0.00003479
v -0.00189326 -0.00762499 0.00064464
v -0.00776260 -0.00762499 -0.00193443
v -0.00186969 -0.00762499 -0.00071011
v -0.00727112 -0.00762499 -0.00333629
v -0.00151862 -0.00762499 -0.00130146
v 0.00178745 -0.00762499 0.01139723
v 0.00152079 -0.00762499 0.01179892
v 0.00116574 -0.00762499 0.01212513
v 0.00034053 -0.00762499 0.00197080
v 0.00256848 -0.00762499 0.00757647
v 0.00098798 -0.00762499 0.00173893
v 0.00074295 -0.00762499 0.01235689
v 0.00151862 -0.00762499 0.00130146
v 0.00511854 -0.00762499 0.00614821
v 0.00390929 -0.00762499 0.00697979
v -0.00760971 -0.00762499 0.00246825
v -0.00793487 -0.00762499 0.00101875
v -0.00798642 -0.00762499 -0.00046587
v 0.00195023 -0.00762499 0.01094340
v 0.00199967 -0.00762499 0.01046379
v 0.00193290 -0.00762499 0.00998629
v -0.00020509 -0.00762499 0.01248946
v 0.00186969 -0.00762499 0.00071011
v 0.00698538 -0.00762499 0.00389929
v 0.00615554 -0.00762499 0.00510973
v 0.00199970 -0.00762499 0.00003479
v 0.00791981 -0.00762499 0.00112988
v 0.00758014 -0.00762499 0.00255762
v -0.00257235 -0.00762499 0.00757516
v -0.00392856 -0.00762499 0.00696896
v -0.00514930 -0.00762499 0.00612247
v 0.00027698 -0.00762499 0.01248073
v 0.00189326 -0.00762499 -0.00064464
v 0.00779709 -0.00762499 -0.00179034
v 0.00799295 -0.00762499 -0.00033588
v 0.00104787 -0.00762499 -0.00170351
v 0.00570515 -0.00762499 -0.00560814
v 0.00156297 -0.00762499 -0.00124785
v 0.00663362 -0.00762499 -0.00447158
v 0.00733885 -0.00762499 -0.00318455
v -0.00619250 -0.00762499 0.00506488
v -0.00702217 -0.00762499 0.00383264
v 0.00175379 -0.00762499 0.00953864
v 0.00147276 -0.00762499 0.00914687
v 0.00110614 -0.00762499 0.00883373
v -0.00652892 -0.00762499 -0.00462312
v -0.00556160 -0.00762499 -0.00575053
v -0.00098798 -0.00762499 -0.00173893
v -0.00110614 -0.00762499 0.01216627
v -0.00067524 -0.00762499 0.01238257
v -0.00156297 -0.00762499 0.00124785
v -0.00104787 -0.00762499 0.00170351
v -0.00040888 -0.00762499 0.00195776
v 0.00040888 -0.00762499 -0.00195776
v 0.00330993 -0.00762499 -0.00728315
v 0.00458469 -0.00762499 -0.00655596
v -0.00440251 -0.00762499 -0.00667966
v -0.00309163 -0.00762499 -0.00737847
v -0.00034053 -0.00762499 -0.00197080
v -0.00152079 -0.00762499 0.00920108
v -0.00178745 -0.00762499 0.00960277
v -0.00195023 -0.00762499 0.01005661
v -0.00199967 -0.00762499 0.01053621
v -0.00193290 -0.00762499 0.01101371
v -0.00036047 -0.00762499 0.00853275
v -0.00074295 -0.00762499 0.00864311
v -0.00116574 -0.00762499 0.00887487
v -0.00167414 -0.00762499 -0.00782287
v -0.00019892 -0.00762499 -0.00799753
v 0.00003479 -0.00762499 -0.00199970
v 0.00013916 -0.00762499 -0.00799879
v 0.00047290 -0.00762499 -0.00798601
v 0.00192379 -0.00762499 -0.00776525
v -0.00175379 -0.00762499 0.01146136
v -0.00147276 -0.00762499 0.01185313
v 0.00067524 -0.00762499 0.00861743
v 0.00020509 -0.00762499 0.00851054
v -0.00003479 -0.00762499 0.00199970
v -0.00019299 -0.00762499 0.00850933
v -0.00027698 -0.00762499 0.00851927
v -0.00015234 -0.00672496 0.00941060
v -0.00019826 -0.00672496 0.00941801
v -0.00040862 -0.00672496 0.00947871
v -0.00064116 -0.00672496 0.00960618
v -0.00083643 -0.00672496 0.00978559
v -0.00098310 -0.00672496 0.01000652
v -0.00107263 -0.00672496 0.01025613
v -0.00109982 -0.00672496 0.01051992
v -0.00106309 -0.00672496 0.01078254
v -0.00096459 -0.00672496 0.01102875
v -0.00081002 -0.00672496 0.01124422
v -0.00060838 -0.00672496 0.01141645
v -0.00037138 -0.00672496 0.01153541
v -0.00011280 -0.00672496 0.01159420
v 0.00015234 -0.00672496 0.01158940
v -0.00010615 -0.00672496 0.00940513
v 0.00011280 -0.00672496 0.00940580
v 0.00037138 -0.00672496 0.00946459
v 0.00060838 -0.00672496 0.00958355
v 0.00081002 -0.00672496 0.00975578
v 0.00096459 -0.00672496 0.00997125
v 0.00106309 -0.00672496 0.01021746
v 0.00109982 -0.00672496 0.01048008
v 0.00107263 -0.00672496 0.01074387
v 0.00098310 -0.00672496 0.01099348
v 0.00083643 -0.00672496 0.01121441
v 0.00064116 -0.00672496 0.01139382
v 0.00040862 -0.00672496 0.01152129
v -0.00100000 -0.00362500 0.01099832
v -0.00100000 -0.00362500 0.02072832
v -0.00100000 -0.00230000 0.01099832
v -0.00100000 -0.00230000 0.02072832
v 0.00400000 -0.00100000 0.01099832
v 0.00490000 -0.00100000 0.01099832
v 0.00400000 -0.00100000 0.02072832
v 0.00490000 -0.00100000 0.02219832
v 0.00000000 -0.00100000 0.02072832
v 0.00000000 -0.00100000 0.02219832
v -0.00300000 -0.00462500 0.02072832
v -0.00200000 -0.00462500 0.02072832
v -0.00300000 -0.00462500 0.00822832
v -0.00200000 -0.00462500 0.01099832
v -0.00062584 -0.00462500 0.01099832
v -0.00070836 -0.00462500 0.01087178
v -0.00080000 -0.00462500 0.01050000
v -0.00070836 -0.00462500 0.01012822
v -0.00045445 -0.00462500 0.00984161
v -0.00009643 -0.00462500 0.00970583
v 0.00300000 -0.00462500 0.00822832
v 0.00028368 -0.00462500 0.00975199
v 0.00059881 -0.00462500 0.00996950
v 0.00077675 -0.00462500 0.01030855
v 0.00300000 -0.00462500 0.01099832
v 0.00077675 -0.00462500 0.01069145
v 0.00062584 -0.00462500 0.01099832
v -0.00100000 0.00300000 0.02219832
v -0.00100000 0.00300000 0.01099832
v -0.00100000 0.00170000 0.02219832
v -0.00100000 0.00170000 0.01099832
v 0.00790000 0.00293562 0.01155000
v 0.00790000 0.00373562 0.01155000
v 0.00690000 0.00293562 0.01155000
v 0.00690000 0.00373562 0.01155000
v 0.00690000 0.00373562 0.01100000
v 0.00790000 0.00373562 0.01100000
v 0.00690000 0.00293562 0.01100000
v 0.00790000 0.00293562 0.01100000
v 0.00690000 0.00560130 0.02033431
v 0.00690000 0.00560130 0.02219832
v 0.00690000 0.00505130 0.02033431
v 0.00690000 -0.00293301 0.01155000
v 0.00690000 0.00373562 0.02219832
v 0.00690000 0.00373562 0.02165000
v 0.00690000 0.00560130 0.01099832
v 0.00690000 0.00560130 0.01286569
v 0.00690000 0.00505130 0.01286569
v 0.00690000 -0.00559870 0.02219832
v 0.00690000 -0.00559870 0.02033431
v 0.00690000 -0.00504870 0.02033431
v 0.00690000 -0.00504870 0.01286569
v 0.00690000 -0.00373301 0.02165000
v 0.00690000 -0.00373301 0.02219832
v 0.00690000 -0.00293301 0.01100000
v 0.00690000 -0.00373301 0.01100000
v 0.00690000 -0.00559870 0.01099832
v 0.00690000 -0.00373301 0.01155000
v 0.00690000 -0.00559870 0.01286569
v -0.00300000 -0.00762500 0.02072832
v -0.00300000 -0.00762500 0.00822832
v 0.00307612 -0.00161732 0.02072832
v 0.00329289 -0.00129289 0.02072832
v 0.00361732 -0.00107612 0.02072832
v -0.00107612 -0.00400768 0.02072832
v 0.00300000 -0.00762500 0.02072832
v -0.00129289 -0.00433211 0.02072832
v -0.00161732 -0.00454888 0.02072832
v 0.00300000 -0.00200000 0.02072832
v 0.00000000 -0.00230000 0.02072832
v 0.00300000 -0.00762500 0.00822832
v 0.00300000 -0.00200000 0.01099832
v -0.00227000 -0.00762500 0.00822832
v -0.00227000 -0.00642500 0.00822832
v 0.00227000 -0.00642500 0.00822832
v 0.00227000 -0.00762500 0.00822832
v 0.00227000 -0.00762500 0.01450000
v -0.00148653 -0.00762500 0.01621555
v -0.00190965 -0.00762500 0.01572726
v -0.00217805 -0.00762500 0.01513953
v 0.00094299 -0.00762500 0.01656486
v 0.00148653 -0.00762500 0.01621555
v -0.00227000 -0.00762500 0.01450000
v 0.00190965 -0.00762500 0.01572726
v 0.00217805 -0.00762500 0.01513953
v -0.00094299 -0.00762500 0.01656486
v -0.00032305 -0.00762500 0.01674690
v 0.00032305 -0.00762500 0.01674690
v -0.00227000 -0.00642500 0.01450000
v 0.00227000 -0.00642500 0.01450000
v 0.00217805 -0.00642500 0.01513953
v 0.00190965 -0.00642500 0.01572726
v 0.00148653 -0.00642500 0.01621555
v 0.00094299 -0.00642500 0.01656486
v 0.00032305 -0.00642500 0.01674690
v -0.00032305 -0.00642500 0.01674690
v -0.00094299 -0.00642500 0.01656486
v -0.00148653 -0.00642500 0.01621555
v -0.00190965 -0.00642500 0.01572726
v -0.00217805 -0.00642500 0.01513953
v -0.00010848 -0.00642500 0.00960656
v -0.00051126 -0.00642500 0.00975931
v 0.00031914 -0.00642500 0.00965849
v 0.00067366 -0.00642500 0.00990319
v -0.00010848 -0.00642500 0.01539344
v -0.00051126 -0.00642500 0.01524069
v -0.00079691 -0.00642500 0.01491825
v -0.00079691 -0.00642500 0.01091825
v -0.00090000 -0.00642500 0.01050000
v -0.00079691 -0.00642500 0.01008175
v -0.00090000 -0.00642500 0.01450000
v -0.00079691 -0.00642500 0.01408175
v -0.00051126 -0.00642500 0.01375931
v 0.00031914 -0.00642500 0.01534151
v 0.00067366 -0.00642500 0.01509681
v 0.00067366 -0.00642500 0.01109681
v 0.00087385 -0.00642500 0.01071538
v -0.00010848 -0.00642500 0.01360656
v -0.00010848 -0.00642500 0.01139344
v -0.00051126 -0.00642500 0.01124069
v 0.00087385 -0.00642500 0.01471538
v 0.00087385 -0.00642500 0.01028462
v 0.00087385 -0.00642500 0.01428462
v 0.00067366 -0.00642500 0.01390319
v 0.00031914 -0.00642500 0.01365849
v 0.00031914 -0.00642500 0.01134151
v 0.00490000 0.00300000 0.01099832
v 0.00490000 0.00300000 0.02219832
v 0.00000000 0.00170000 0.02219832
v 0.00528268 0.00307612 0.02219832
v 0.00528268 -0.00107612 0.02219832
v 0.00790000 0.00373562 0.02219832
v 0.00560711 -0.00129289 0.02219832
v 0.00582388 -0.00161732 0.02219832
v 0.00590000 -0.00559870 0.02219832
v 0.00590000 -0.00200000 0.02219832
v 0.00790000 -0.00373301 0.02219832
v 0.00582388 0.00361732 0.02219832
v 0.00560711 0.00329289 0.02219832
v 0.00590000 0.00560130 0.02219832
v 0.00590000 0.00400000 0.02219832
v -0.00045445 -0.00462500 0.01515839
v -0.00009643 -0.00462500 0.01529417
v -0.00009643 -0.00632500 0.01529417
v 0.00000000 -0.00462500 0.01530000
v 0.00028368 -0.00632500 0.01524801
v 0.00028368 -0.00462500 0.01524801
v 0.00059881 -0.00632500 0.01503050
v 0.00059881 -0.00462500 0.01503050
v 0.00077675 -0.00632500 0.01469145
v 0.00077675 -0.00462500 0.01469145
v 0.00077675 -0.00632500 0.01430855
v 0.00077675 -0.00462500 0.01430855
v 0.00059881 -0.00632500 0.01396950
v 0.00059881 -0.00462500 0.01396950
v 0.00028368 -0.00632500 0.01375199
v 0.00028368 -0.00462500 0.01375199
v -0.00009643 -0.00632500 0.01370583
v -0.00009643 -0.00462500 0.01370583
v -0.00045445 -0.00632500 0.01384161
v -0.00045445 -0.00462500 0.01384161
v -0.00070836 -0.00632500 0.01412822
v -0.00070836 -0.00462500 0.01412822
v -0.00080000 -0.00632500 0.01450000
v -0.00080000 -0.00462500 0.01450000
v -0.00070836 -0.00632500 0.01487178
v -0.00070836 -0.00462500 0.01487178
v -0.00045445 -0.00632500 0.01515839
v -0.00070836 -0.00632500 0.01087178
v -0.00045445 -0.00632500 0.01115839
v -0.00045445 -0.00462500 0.01115839
v -0.00009643 -0.00632500 0.01129417
v -0.00009643 -0.00462500 0.01129417
v 0.00028368 -0.00632500 0.01124801
v 0.00028368 -0.00462500 0.01124801
v 0.00059881 -0.00632500 0.01103050
v 0.00059881 -0.00462500 0.01103050
v 0.00077675 -0.00632500 0.01069145
v 0.00077675 -0.00632500 0.01030855
v 0.00059881 -0.00632500 0.00996950
v 0.00028368 -0.00632500 0.00975199
v -0.00009643 -0.00632500 0.00970583
v -0.00045445 -0.00632500 0.00984161
v -0.00070836 -0.00632500 0.01012822
v -0.00080000 -0.00632500 0.01050000
v 0.00000000 0.00170000 0.01099832
v 0.00582388 -0.00161732 0.01099832
v 0.00560711 -0.00129289 0.01099832
v 0.00528268 0.00307612 0.01099832
v 0.00000000 -0.00230000 0.01099832
v -0.00107612 -0.00400768 0.01099832
v -0.00129289 -0.00433211 0.01099832
v -0.00161732 -0.00454888 0.01099832
v 0.00560711 0.00329289 0.01099832
v 0.00582388 0.00361732 0.01099832
v 0.00590000 0.00400000 0.01099832
v 0.00590000 0.00560130 0.01099832
v 0.00590000 -0.00200000 0.01099832
v 0.00590000 -0.00559870 0.01099832
v 0.00361732 -0.00107612 0.01099832
v 0.00528268 -0.00107612 0.01099832
v 0.00329289 -0.00129289 0.01099832
v 0.00307612 -0.00161732 0.01099832
v 0.00790000 -0.00559870 0.01286569
v 0.00790000 -0.00559870 0.02033431
v 0.00790000 0.00560130 0.01286569
v 0.00790000 0.00560130 0.02033431
v 0.00790000 -0.00504870 0.02033431
v 0.00790000 -0.00504870 0.01286569
v 0.00790000 0.00373562 0.02165000
v 0.00790000 -0.00373301 0.02165000
v 0.00790000 -0.00293301 0.01155000
v 0.00790000 -0.00373301 0.01155000
v 0.00790000 -0.00373301 0.01100000
v 0.00790000 -0.00293301 0.01100000
v 0.00000000 -0.00462500 0.01450000
v 0.00000000 -0.00070000 0.01750550
v 0.00000000 -0.00050706 0.01742558
v 0.00000000 -0.00030000 0.01219832
v 0.00000000 -0.00009294 0.01222558
v 0.00000000 0.00039282 0.01859832
v 0.00000000 0.00026569 0.01876400
v 0.00000000 0.00010000 0.01889114
v 0.00000000 -0.00009294 0.01897106
v 0.00000000 -0.00107274 0.01799126
v 0.00000000 0.00010000 0.01230550
v 0.00000000 0.00026569 0.01243263
v 0.00000000 0.00039282 0.01259832
v 0.00000000 -0.00030000 0.01899832
v 0.00000000 -0.00050706 0.01897106
v 0.00000000 -0.00070000 0.01889114
v 0.00000000 -0.00086569 0.01876400
v 0.00000000 -0.00099282 0.01859832
v 0.00000000 -0.00099282 0.01779832
v 0.00000000 -0.00086569 0.01763263
v 0.00000000 -0.00030000 0.01739832
v 0.00000000 0.00026569 0.01356400
v 0.00000000 0.00010000 0.01369114
v 0.00000000 0.00047274 0.01279126
v 0.00000000 0.00050000 0.01299832
v 0.00000000 0.00047274 0.01320537
v 0.00000000 0.00010000 0.01750550
v 0.00000000 0.00026569 0.01763263
v 0.00000000 0.00039282 0.01779832
v 0.00000000 0.00047274 0.01799126
v 0.00000000 0.00050000 0.01819832
v 0.00000000 0.00047274 0.01840537
v 0.00000000 -0.00107274 0.01840537
v 0.00000000 -0.00110000 0.01819832
v 0.00000000 -0.00009294 0.01742558
v 0.00000000 0.00039282 0.01339832
v 0.00000000 -0.00070000 0.01369114
v 0.00000000 -0.00086569 0.01356400
v 0.00000000 -0.00009294 0.01377106
v 0.00000000 -0.00030000 0.01379832
v 0.00000000 -0.00050706 0.01377106
v 0.00000000 -0.00099282 0.01339832
v 0.00000000 -0.00107274 0.01320537
v 0.00000000 -0.00110000 0.01299832
v 0.00000000 -0.00107274 0.01279126
v 0.00000000 -0.00099282 0.01259832
v 0.00000000 -0.00086569 0.01243263
v 0.00000000 -0.00070000 0.01230550
v 0.00000000 -0.00050706 0.01222558
v 0.00337554 -0.00030000 0.01819832
v 0.00300000 0.00024127 0.01788582
v 0.00300000 0.00001250 0.01765705
v 0.00300000 0.00032500 0.01819832
v 0.00300000 -0.00061250 0.01765705
v 0.00300000 -0.00084127 0.01788582
v 0.00300000 -0.00030000 0.01757332
v 0.00300000 -0.00084127 0.01851082
v 0.00300000 -0.00061250 0.01873958
v 0.00300000 -0.00092500 0.01819832
v 0.00300000 0.00001250 0.01873958
v 0.00300000 0.00024127 0.01851082
v 0.00300000 -0.00030000 0.01882332
v 0.00017500 0.00030370 0.01803656
v 0.00017500 0.00024127 0.01788582
v 0.00017500 0.00014194 0.01775638
v 0.00017500 0.00001250 0.01765705
v 0.00017500 -0.00013824 0.01759461
v 0.00017500 -0.00030000 0.01757332
v 0.00017500 -0.00046176 0.01759461
v 0.00017500 -0.00061250 0.01765705
v 0.00017500 -0.00074194 0.01775638
v 0.00017500 -0.00084127 0.01788582
v 0.00017500 -0.00090370 0.01803656
v 0.00017500 -0.00092500 0.01819832
v 0.00017500 -0.00090370 0.01836008
v 0.00017500 -0.00084127 0.01851082
v 0.00017500 -0.00074194 0.01864026
v 0.00017500 -0.00061250 0.01873958
v 0.00017500 -0.00046176 0.01880202
v 0.00017500 -0.00030000 0.01882332
v 0.00017500 -0.00013824 0.01880202
v 0.00017500 0.00001250 0.01873958
v 0.00017500 0.00014194 0.01864026
v 0.00017500 0.00024127 0.01851082
v 0.00017500 0.00030370 0.01836008
v 0.00017500 0.00032500 0.01819832
v 0.00337554 -0.00030000 0.01299832
v 0.00300000 0.00024127 0.01268582
v 0.00300000 0.00001250 0.01245705
v 0.00300000 0.00032500 0.01299832
v 0.00300000 -0.00061250 0.01245705
v 0.00300000 -0.00084127 0.01268582
v 0.00300000 -0.00030000 0.01237332
v 0.00300000 -0.00084127 0.01331082
v 0.00300000 -0.00061250 0.01353958
v 0.00300000 -0.00092500 0.01299832
v 0.00300000 0.00001250 0.01353958
v 0.00300000 0.00024127 0.01331082
v 0.00300000 -0.00030000 0.01362332
v 0.00017500 0.00030370 0.01283656
v 0.00017500 0.00024127 0.01268582
v 0.00017500 0.00014194 0.01255638
v 0.00017500 0.00001250 0.01245705
v 0.00017500 -0.00013824 0.01239461
v 0.00017500 -0.00030000 0.01237332
v 0.00017500 -0.00046176 0.01239461
v 0.00017500 -0.00061250 0.01245705
v 0.00017500 -0.00074194 0.01255638
v 0.00017500 -0.00084127 0.01268582
v 0.00017500 -0.00090370 0.01283656
v 0.00017500 -0.00092500 0.01299832
v 0.00017500 -0.00090370 0.01316008
v 0.00017500 -0.00084127 0.01331082
v 0.00017500 -0.00074194 0.01344026
v 0.00017500 -0.00061250 0.01353958
v 0.00017500 -0.00046176 0.01360202
v 0.00017500 -0.00030000 0.01362332
v 0.00017500 -0.00013824 0.01360202
v 0.00017500 0.00001250 0.01353958
v 0.00017500 0.00014194 0.01344026
v 0.00017500 0.00024127 0.01331082
v 0.00017500 0.00030370 0.01316008
v 0.00017500 0.00032500 0.01299832
v 0.00790000 0.00505130 0.01286569
v 0.00790000 0.00505130 0.02033431
v 0.00860000 -0.00334870 0.01355000
v 0.00860000 -0.00279870 0.01293125
v 0.00760000 -0.00334870 0.01355000
v 0.00760000 -0.00279870 0.01293125
v 0.00860000 -0.00334870 0.01955000
v 0.00760000 -0.00334870 0.01955000
v 0.00860000 -0.00294870 0.01995000
v 0.00760000 -0.00294870 0.01995000
v 0.00860000 0.00305130 0.01995000
v 0.00760000 0.00305130 0.01995000
v 0.00860000 0.00345130 0.01955000
v 0.00760000 0.00345130 0.01955000
v 0.00860000 0.00290130 0.01293125
v 0.00860000 0.00345130 0.01355000
v 0.00760000 0.00290130 0.01293125
v 0.00760000 0.00345130 0.01355000
v 0.00690000 -0.00259870 0.01530000
v 0.00760000 -0.00259870 0.01530000
v 0.00690000 -0.00269870 0.01527321
v 0.00760000 -0.00269870 0.01527321
v 0.00690000 -0.00277190 0.01520000
v 0.00760000 -0.00277190 0.01520000
v 0.00690000 -0.00279870 0.01510000
v 0.00760000 -0.00279870 0.01510000
v 0.00690000 0.00290130 0.01510000
v 0.00760000 0.00290130 0.01510000
v 0.00690000 0.00287451 0.01520000
v 0.00760000 0.00287451 0.01520000
v 0.00690000 0.00280130 0.01527321
v 0.00760000 0.00280130 0.01527321
v 0.00690000 0.00270130 0.01530000
v 0.00760000 0.00270130 0.01530000
v 0.00690000 0.00290130 0.01230000
v 0.00860000 0.00290130 0.01230000
v 0.00860000 -0.00279870 0.01230000
v 0.00690000 -0.00279870 0.01230000
v 0.00760000 0.00305130 0.02080000
v 0.00760000 -0.00294870 0.02080000
v 0.00741359 0.00410130 0.01905000
v 0.00736000 0.00430130 0.01905000
v 0.00816000 0.00430130 0.01905000
v 0.00776000 0.00390130 0.01905000
v 0.00756000 0.00395489 0.01905000
v 0.00796000 0.00395489 0.01905000
v 0.00810641 0.00410130 0.01905000
v 0.00810641 0.00410130 0.01405000
v 0.00816000 0.00430130 0.01405000
v 0.00736000 0.00430130 0.01405000
v 0.00796000 0.00395489 0.01405000
v 0.00741359 0.00410130 0.01405000
v 0.00756000 0.00395489 0.01405000
v 0.00776000 0.00390130 0.01405000
v 0.00756000 -0.00385229 0.01905000
v 0.00776000 -0.00379870 0.01905000
v 0.00796000 -0.00385229 0.01905000
v 0.00736000 -0.00419870 0.01905000
v 0.00741359 -0.00399870 0.01905000
v 0.00816000 -0.00419870 0.01905000
v 0.00810641 -0.00399870 0.01905000
v 0.00736000 -0.00419870 0.01405000
v 0.00816000 -0.00419870 0.01405000
v 0.00810641 -0.00399870 0.01405000
v 0.00741359 -0.00399870 0.01405000
v 0.00756000 -0.00385229 0.01405000
v 0.00776000 -0.00379870 0.01405000
v 0.00796000 -0.00385229 0.01405000
v 0.00860000 0.00335130 0.01230000
v 0.00690000 0.00335130 0.01230000
v 0.00860000 0.00339780 0.01259357
v 0.00690000 0.00339780 0.01259357
v 0.00860000 0.00353274 0.01285840
v 0.00690000 0.00353274 0.01285840
v 0.00860000 0.00374291 0.01306857
v 0.00690000 0.00374291 0.01306857
v 0.00860000 0.00400774 0.01320350
v 0.00690000 0.00400774 0.01320350
v 0.00860000 0.00430130 0.01325000
v 0.00690000 0.00430130 0.01325000
v 0.00860000 -0.00324870 0.02080000
v 0.00690000 -0.00324870 0.02080000
v 0.00860000 -0.00329519 0.02050643
v 0.00690000 -0.00329519 0.02050643
v 0.00860000 -0.00343013 0.02024160
v 0.00690000 -0.00343013 0.02024160
v 0.00860000 -0.00364030 0.02003143
v 0.00690000 -0.00364030 0.02003143
v 0.00860000 -0.00390513 0.01989650
v 0.00690000 -0.00390513 0.01989650
v 0.00860000 -0.00419870 0.01985000
v 0.00690000 -0.00419870 0.01985000
v 0.00860000 0.00430130 0.01985000
v 0.00690000 0.00430130 0.01985000
v 0.00860000 0.00400774 0.01989650
v 0.00690000 0.00400774 0.01989650
v 0.00860000 0.00374291 0.02003143
v 0.00690000 0.00374291 0.02003143
v 0.00860000 0.00353274 0.02024160
v 0.00690000 0.00353274 0.02024160
v 0.00860000 0.00339780 0.02050643
v 0.00690000 0.00339780 0.02050643
v 0.00860000 0.00335130 0.02080000
v 0.00690000 0.00335130 0.02080000
v 0.00860000 -0.00419870 0.01325000
v 0.00690000 -0.00419870 0.01325000
v 0.00860000 -0.00390513 0.01320350
v 0.00690000 -0.00390513 0.01320350
v 0.00860000 -0.00364030 0.01306857
v 0.00690000 -0.00364030 0.01306857
v 0.00860000 -0.00343013 0.01285840
v 0.00690000 -0.00343013 0.01285840
v 0.00860000 -0.00329519 0.01259357
v 0.00690000 -0.00329519 0.01259357
v 0.00860000 -0.00324870 0.01230000
v 0.00690000 -0.00324870 0.01230000
v 0.00860000 0.00305130 0.02080000
v 0.00860000 -0.00294870 0.02080000
v 0.00950000 0.00330130 0.01230000
v 0.00870000 0.00330130 0.01230000
v 0.00950000 0.00335025 0.01260902
v 0.00870000 0.00335025 0.01260902
v 0.00950000 0.00349229 0.01288779
v 0.00870000 0.00349229 0.01288779
v 0.00950000 0.00371352 0.01310902
v 0.00870000 0.00371352 0.01310902
v 0.00950000 0.00399229 0.01325106
v 0.00870000 0.00399229 0.01325106
v 0.00950000 0.00430130 0.01330000
v 0.00870000 0.00430130 0.01330000
v 0.00950000 -0.00419870 0.01330000
v 0.00870000 -0.00419870 0.01330000
v 0.00950000 -0.00388968 0.01325106
v 0.00870000 -0.00388968 0.01325106
v 0.00950000 -0.00361091 0.01310902
v 0.00870000 -0.00361091 0.01310902
v 0.00950000 -0.00338968 0.01288779
v 0.00870000 -0.00338968 0.01288779
v 0.00950000 -0.00324764 0.01260902
v 0.00870000 -0.00324764 0.01260902
v 0.00950000 -0.00319870 0.01230000
v 0.00870000 -0.00319870 0.01230000
v 0.00950000 0.00430130 0.01980000
v 0.00870000 0.00430130 0.01980000
v 0.00950000 0.00399229 0.01984894
v 0.00870000 0.00399229 0.01984894
v 0.00950000 0.00371352 0.01999098
v 0.00870000 0.00371352 0.01999098
v 0.00950000 0.00349229 0.02021221
v 0.00870000 0.00349229 0.02021221
v 0.00950000 0.00335025 0.02049098
v 0.00870000 0.00335025 0.02049098
v 0.00950000 0.00330130 0.02080000
v 0.00870000 0.00330130 0.02080000
v 0.00950000 -0.00319870 0.02080000
v 0.00870000 -0.00319870 0.02080000
v 0.00950000 -0.00324764 0.02049098
v 0.00870000 -0.00324764 0.02049098
v 0.00950000 -0.00338968 0.02021221
v 0.00870000 -0.00338968 0.02021221
v 0.00950000 -0.00361091 0.01999098
v 0.00870000 -0.00361091 0.01999098
v 0.00950000 -0.00388968 0.01984894
v 0.00870000 -0.00388968 0.01984894
v 0.00950000 -0.00419870 0.01980000
v 0.00870000 -0.00419870 0.01980000
v 0.00777000 -0.00244870 0.02050000
v 0.00777000 0.00255130 0.02050000
v 0.00777000 -0.00244870 0.01550000
v 0.00777000 0.00255130 0.01550000
v 0.00870000 0.00255130 0.01550000
v 0.00870000 0.00255130 0.02050000
v 0.00870000 -0.00244870 0.02050000
v 0.00870000 -0.00244870 0.01550000
v 0.00836115 0.00250130 0.01330000
v 0.00836115 -0.00239870 0.01330000
v 0.00725000 0.00250130 0.01330000
v 0.00725000 -0.00239870 0.01330000
v 0.00836115 0.00250130 0.01230000
v 0.00725000 0.00250130 0.01230000
v 0.00836115 -0.00239870 0.01230000
v 0.00725000 -0.00239870 0.01230000
v 0.00695000 -0.00269870 0.01500000
v 0.00695000 0.00280130 0.01500000
v 0.00695000 -0.00269870 0.01230000
v 0.00695000 0.00280130 0.01230000
v 0.00870000 0.00280130 0.01230000
v 0.00870000 0.00280130 0.01500000
v 0.00870000 -0.00269870 0.01500000
v 0.00870000 -0.00269870 0.01230000
v 0.00950000 0.00355130 0.01343701
v 0.00950000 0.00316430 0.01305000
v 0.00990000 0.00355130 0.01343701
v 0.00990000 0.00316430 0.01305000
v 0.00950000 0.00316430 0.02005000
v 0.00950000 0.00355130 0.01966299
v 0.00990000 0.00316430 0.02005000
v 0.00990000 0.00355130 0.01966299
v 0.00950000 -0.00344870 0.01966299
v 0.00950000 -0.00306169 0.02005000
v 0.00990000 -0.00344870 0.01966299
v 0.00990000 -0.00306169 0.02005000
v 0.00950000 -0.00306169 0.01305000
v 0.00950000 -0.00344870 0.01343701
v 0.00990000 -0.00306169 0.01305000
v 0.00990000 -0.00344870 0.01343701
v 0.00775000 0.00400130 0.01855000
v 0.00775000 0.00400130 0.01455000
v 0.00792500 0.00404819 0.01455000
v 0.00792500 0.00404819 0.01855000
v 0.00805311 0.00417630 0.01455000
v 0.00805311 0.00417630 0.01855000
v 0.00810000 0.00435130 0.01455000
v 0.00810000 0.00435130 0.01855000
v 0.00757500 0.00404819 0.01855000
v 0.00757500 0.00404819 0.01455000
v 0.00744689 0.00417630 0.01855000
v 0.00744689 0.00417630 0.01455000
v 0.00740000 0.00435130 0.01855000
v 0.00740000 0.00435130 0.01455000
v 0.00775000 -0.00389870 0.01455000
v 0.00775000 -0.00389870 0.01855000
v 0.00792500 -0.00394559 0.01855000
v 0.00792500 -0.00394559 0.01455000
v 0.00805311 -0.00407370 0.01855000
v 0.00805311 -0.00407370 0.01455000
v 0.00810000 -0.00424870 0.01855000
v 0.00810000 -0.00424870 0.01455000
v 0.00757500 -0.00394559 0.01455000
v 0.00757500 -0.00394559 0.01855000
v 0.00744689 -0.00407370 0.01455000
v 0.00744689 -0.00407370 0.01855000
v 0.00740000 -0.00424870 0.01455000
v 0.00740000 -0.00424870 0.01855000
v 0.00690000 0.00290130 0.01155000
v 0.00890000 0.00290130 0.01155000
v 0.00690000 0.00290130 0.01225000
v 0.00890000 0.00290130 0.01225000
v 0.00890000 -0.00279870 0.01155000
v 0.00890000 -0.00279870 0.01225000
v 0.00690000 -0.00279870 0.01155000
v 0.00690000 -0.00279870 0.01225000
v 0.00990000 -0.00494870 0.01281569
v 0.00690000 -0.00494870 0.01281569
v 0.00990000 -0.00368301 0.01155000
v 0.00690000 -0.00368301 0.01155000
v 0.00990000 -0.00368301 0.02155000
v 0.00690000 -0.00368301 0.02155000
v 0.00990000 -0.00494870 0.02028431
v 0.00690000 -0.00494870 0.02028431
v 0.00990000 0.00505130 0.02028431
v 0.00690000 0.00505130 0.02028431
v 0.00990000 0.00378562 0.02155000
v 0.00690000 0.00378562 0.02155000
v 0.00990000 0.00378562 0.01155000
v 0.00690000 0.00378562 0.01155000
v 0.00990000 0.00505130 0.01281569
v 0.00690000 0.00505130 0.01281569
v 0.00950000 0.00362319 0.01277901
v 0.00950000 0.00382230 0.01297812
v 0.00950000 0.00407319 0.01310595
v 0.00950000 0.00382230 0.02012189
v 0.00950000 0.00362319 0.02032099
v 0.00950000 0.00349535 0.02057189
v 0.00950000 0.00407319 0.01999405
v 0.00950000 0.00435130 0.01995000
v 0.00950000 0.00435130 0.01315000
v 0.00950000 -0.00352058 0.02032099
v 0.00950000 -0.00371969 0.02012189
v 0.00950000 -0.00397058 0.01999405
v 0.00950000 -0.00339275 0.02057189
v 0.00950000 -0.00334870 0.02085000
v 0.00950000 0.00345130 0.02085000
v 0.00950000 0.00349535 0.01252811
v 0.00950000 0.00345130 0.01225000
v 0.00950000 -0.00334870 0.01225000
v 0.00950000 -0.00339275 0.01252811
v 0.00950000 -0.00352058 0.01277901
v 0.00950000 -0.00371969 0.01297812
v 0.00950000 -0.00397058 0.01310595
v 0.00950000 -0.00424870 0.01315000
v 0.00950000 -0.00424870 0.01995000
v 0.00690000 0.00345130 0.01225000
v 0.00690000 0.00349535 0.01252811
v 0.00690000 0.00362319 0.01277901
v 0.00690000 0.00382230 0.01297812
v 0.00690000 0.00407319 0.01310595
v 0.00690000 0.00435130 0.01315000
v 0.00690000 0.00435130 0.01995000
v 0.00690000 0.00407319 0.01999405
v 0.00690000 0.00382230 0.02012189
v 0.00690000 0.00362319 0.02032099
v 0.00690000 0.00349535 0.02057189
v 0.00690000 0.00345130 0.02085000
v 0.00690000 -0.00334870 0.02085000
v 0.00690000 -0.00339275 0.02057189
v 0.00690000 -0.00352058 0.02032099
v 0.00690000 -0.00371969 0.02012189
v 0.00690000 -0.00397058 0.01999405
v 0.00690000 -0.00424870 0.01995000
v 0.00690000 -0.00424870 0.01315000
v 0.00690000 -0.00397058 0.01310595
v 0.00690000 -0.00371969 0.01297812
v 0.00690000 -0.00352058 0.01277901
v 0.00690000 -0.00339275 0.01252811
v 0.00690000 -0.00334870 0.01225000
v 0.00990000 -0.00299870 0.02000000
v 0.00960000 -0.00299870 0.02000000
v 0.00990000 -0.00339870 0.01960000
v 0.00960000 -0.00339870 0.01960000
v 0.00990000 -0.00339870 0.01350000
v 0.00960000 -0.00339870 0.01350000
v 0.00990000 -0.00299870 0.01310000
v 0.00960000 -0.00299870 0.01310000
v 0.00990000 0.00310130 0.01310000
v 0.00960000 0.00310130 0.01310000
v 0.00990000 0.00350130 0.01350000
v 0.00960000 0.00350130 0.01350000
v 0.00990000 0.00350130 0.01960000
v 0.00960000 0.00350130 0.01960000
v 0.00990000 0.00310130 0.02000000
v 0.00960000 0.00310130 0.02000000
f 1 2 3
f 1 3 4
f 4 3 5
f 4 5 6
f 6 5 7
f 6 7 8
f 8 7 9
f 8 9 10
f 10 9 11
f 10 11 12
f 12 11 13
f 12 13 14
f 14 13 15
f 14 15 16
f 16 15 17
f 16 17 18
f 18 17 19
f 18 19 20
f 20 19 21
f 20 21 22
f 22 21 23
f 22 23 24
f 25 24 26
f 26 24 23
f 1 27 2
f 2 27 28
f 29 30 31
f 31 30 32
f 31 32 33
f 33 32 34
f 33 34 35
f 35 34 36
f 35 36 37
f 37 36 38
f 37 38 39
f 39 38 40
f 39 40 41
f 41 40 42
f 41 42 43
f 43 42 44
f 43 44 45
f 45 44 46
f 45 46 47
f 47 46 48
f 47 48 49
f 49 48 50
f 49 50 51
f 51 50 52
f 51 52 53
f 53 52 54
f 53 54 55
f 55 54 56
f 55 56 57
f 57 56 58
f 59 57 58
f 30 29 60
f 60 29 61
f 60 61 62
f 62 61 63
f 62 63 64
f 64 63 65
f 64 65 66
f 66 65 67
f 66 67 68
f 68 67 69
f 68 69 70
f 70 69 71
f 70 71 72
f 72 71 73
f 72 73 74
f 74 73 75
f 74 75 76
f 76 75 77
f 76 77 78
f 78 77 79
f 78 79 80
f 80 79 81
f 80 81 82
f 82 81 83
f 82 83 84
f 84 83 59
f 84 59 85
f 85 59 58
f 86 87 26
f 26 87 88
f 89 90 91
f 88 92 26
f 26 92 93
f 26 93 94
f 95 96 94
f 97 98 99
f 99 98 89
f 28 100 101
f 102 103 104
f 104 103 105
f 105 103 106
f 105 106 107
f 107 106 108
f 108 106 109
f 108 109 110
f 110 109 111
f 111 109 112
f 111 112 113
f 98 26 89
f 89 26 94
f 89 94 90
f 90 94 96
f 91 114 89
f 89 114 115
f 89 115 116
f 116 115 117
f 118 119 117
f 117 119 120
f 117 120 116
f 98 121 122
f 101 123 28
f 28 123 124
f 28 124 2
f 104 125 102
f 102 125 126
f 102 126 127
f 97 128 98
f 98 128 129
f 98 129 121
f 130 131 87
f 87 131 132
f 87 132 88
f 133 134 2
f 2 134 135
f 2 135 3
f 3 135 136
f 86 26 137
f 137 26 23
f 137 23 138
f 139 140 141
f 126 142 127
f 127 142 143
f 127 143 141
f 141 143 144
f 141 144 139
f 113 112 145
f 145 112 146
f 145 146 147
f 148 149 122
f 122 149 150
f 122 150 98
f 124 151 2
f 2 151 152
f 2 152 133
f 133 152 130
f 133 130 153
f 153 130 87
f 139 154 140
f 140 154 155
f 140 155 118
f 118 155 156
f 118 156 119
f 100 28 94
f 94 28 157
f 94 157 95
f 158 9 159
f 159 9 7
f 159 7 136
f 136 7 5
f 136 5 3
f 160 13 158
f 158 13 11
f 158 11 9
f 23 21 138
f 138 21 19
f 138 19 161
f 161 19 17
f 161 17 160
f 160 17 15
f 160 15 13
f 147 146 162
f 162 146 163
f 162 163 28
f 28 163 164
f 28 164 157
f 25 165 166
f 165 167 168
f 168 167 169
f 168 169 170
f 171 1 172
f 172 1 173
f 27 174 175
f 175 174 176
f 78 80 177
f 178 179 176
f 176 179 180
f 176 180 175
f 181 182 165
f 165 182 183
f 165 183 167
f 171 184 1
f 1 184 185
f 1 185 27
f 27 185 186
f 27 186 174
f 187 84 85
f 188 189 178
f 178 189 190
f 178 190 179
f 191 192 188
f 188 192 193
f 188 193 189
f 25 194 165
f 165 194 195
f 165 195 196
f 177 80 197
f 197 80 82
f 197 82 84
f 198 199 191
f 191 199 200
f 191 200 192
f 201 202 203
f 203 202 204
f 203 204 198
f 198 204 205
f 198 205 199
f 196 206 165
f 165 206 207
f 165 207 181
f 78 177 76
f 76 177 173
f 76 173 74
f 74 173 1
f 74 1 72
f 186 208 174
f 174 208 209
f 174 209 210
f 6 66 4
f 4 66 68
f 4 68 1
f 1 68 70
f 1 70 72
f 169 211 170
f 170 211 212
f 170 212 213
f 52 214 54
f 54 214 215
f 54 215 56
f 166 216 25
f 25 216 217
f 25 217 218
f 18 20 40
f 219 220 201
f 201 220 221
f 201 221 202
f 212 222 213
f 213 222 223
f 213 223 224
f 225 226 218
f 218 226 227
f 218 227 25
f 25 227 228
f 25 228 24
f 24 228 229
f 230 231 218
f 218 231 232
f 218 232 225
f 223 233 224
f 224 233 234
f 224 234 235
f 40 20 42
f 42 20 22
f 42 22 44
f 44 22 24
f 44 24 46
f 46 24 229
f 46 229 48
f 40 38 18
f 18 38 36
f 18 36 16
f 16 36 34
f 16 34 14
f 14 34 32
f 14 32 12
f 12 32 30
f 12 30 10
f 10 30 60
f 10 60 8
f 8 60 62
f 8 62 6
f 6 62 64
f 6 64 66
f 234 236 235
f 235 236 237
f 235 237 219
f 219 237 238
f 219 238 220
f 187 85 215
f 215 85 58
f 215 58 56
f 48 229 50
f 50 229 239
f 50 239 52
f 52 239 240
f 52 240 214
f 210 241 174
f 174 241 242
f 174 242 243
f 243 242 244
f 243 244 218
f 218 244 245
f 218 245 230
f 245 246 230
f 230 246 247
f 230 247 231
f 231 247 248
f 231 248 232
f 232 248 249
f 232 249 225
f 225 249 250
f 225 250 226
f 226 250 251
f 226 251 227
f 227 251 252
f 227 252 228
f 228 252 253
f 228 253 229
f 229 253 254
f 229 254 239
f 239 254 255
f 239 255 240
f 240 255 256
f 240 256 214
f 214 256 257
f 214 257 215
f 215 257 258
f 215 258 187
f 187 258 259
f 187 259 84
f 84 259 260
f 84 260 197
f 246 245 261
f 261 245 244
f 261 244 262
f 262 244 242
f 262 242 263
f 263 242 241
f 263 241 264
f 264 241 210
f 264 210 265
f 265 210 209
f 265 209 266
f 266 209 208
f 266 208 267
f 267 208 186
f 267 186 268
f 268 186 185
f 268 185 269
f 269 185 184
f 269 184 270
f 270 184 171
f 270 171 271
f 271 171 172
f 271 172 272
f 272 172 173
f 272 173 273
f 273 173 177
f 273 177 260
f 260 177 197
f 130 259 131
f 131 259 258
f 131 258 132
f 132 258 257
f 257 256 132
f 132 256 255
f 132 255 88
f 88 255 254
f 88 254 92
f 92 254 253
f 253 252 92
f 92 252 251
f 92 251 93
f 248 94 249
f 249 94 93
f 249 93 250
f 250 93 251
f 248 247 94
f 94 247 246
f 94 246 100
f 100 246 261
f 261 262 100
f 100 262 263
f 100 263 101
f 263 264 101
f 101 264 265
f 101 265 123
f 265 266 123
f 123 266 267
f 123 267 124
f 267 268 124
f 124 268 269
f 124 269 151
f 269 270 151
f 151 270 271
f 151 271 152
f 271 272 152
f 152 272 273
f 152 273 130
f 130 273 260
f 130 260 259
f 160 33 161
f 161 33 35
f 35 37 161
f 161 37 39
f 161 39 138
f 138 39 41
f 138 41 137
f 41 43 137
f 137 43 45
f 137 45 86
f 86 45 47
f 53 87 51
f 51 87 86
f 51 86 49
f 49 86 47
f 53 55 87
f 87 55 57
f 87 57 153
f 153 57 59
f 59 83 153
f 153 83 81
f 153 81 133
f 81 79 133
f 133 79 77
f 133 77 134
f 77 75 134
f 134 75 73
f 134 73 135
f 135 73 71
f 135 71 136
f 136 71 69
f 69 67 136
f 136 67 65
f 136 65 159
f 65 63 159
f 159 63 61
f 159 61 158
f 158 61 29
f 158 29 160
f 160 29 31
f 160 31 33
f 162 28 27
f 27 175 162
f 162 175 180
f 162 180 147
f 147 180 179
f 147 179 145
f 145 179 190
f 145 190 113
f 113 190 189
f 113 189 111
f 111 189 193
f 111 193 110
f 110 193 192
f 110 192 108
f 108 192 200
f 108 200 107
f 107 200 199
f 107 199 105
f 105 199 205
f 105 205 104
f 104 205 204
f 104 204 125
f 125 204 202
f 125 202 126
f 126 202 221
f 126 221 142
f 142 221 220
f 142 220 143
f 143 220 238
f 143 238 144
f 144 238 237
f 144 237 139
f 139 237 236
f 139 236 154
f 194 25 26
f 26 98 194
f 194 98 150
f 194 150 195
f 195 150 149
f 195 149 196
f 196 149 148
f 196 148 206
f 206 148 122
f 206 122 207
f 207 122 121
f 207 121 181
f 181 121 129
f 181 129 182
f 182 129 128
f 182 128 183
f 183 128 97
f 183 97 167
f 167 97 99
f 167 99 169
f 169 99 89
f 169 89 211
f 211 89 116
f 211 116 212
f 212 116 120
f 212 120 222
f 222 120 119
f 222 119 223
f 223 119 156
f 223 156 233
f 233 156 155
f 233 155 234
f 234 155 154
f 234 154 236
f 140 235 141
f 141 235 219
f 141 219 127
f 127 219 201
f 127 201 102
f 102 201 203
f 102 203 103
f 103 203 198
f 103 198 106
f 106 198 191
f 106 191 109
f 109 191 188
f 109 188 112
f 112 188 178
f 112 178 146
f 146 178 176
f 146 176 163
f 163 176 174
f 163 174 164
f 164 174 243
f 164 243 157
f 157 243 218
f 157 218 95
f 95 218 217
f 95 217 96
f 96 217 216
f 96 216 90
f 90 216 166
f 90 166 91
f 91 166 165
f 91 165 114
f 114 165 168
f 114 168 115
f 115 168 170
f 115 170 117
f 117 170 213
f 117 213 118
f 118 213 224
f 118 224 140
f 140 224 235
f 274 275 276
f 276 275 277
f 278 279 280
f 280 279 281
f 280 281 282
f 282 281 283
f 284 285 286
f 286 285 287
f 288 289 287
f 287 289 290
f 287 290 286
f 286 290 291
f 291 292 286
f 286 292 293
f 286 293 294
f 294 293 295
f 295 296 294
f 294 296 297
f 294 297 298
f 298 297 299
f 298 299 300
f 301 302 303
f 303 302 304
f 305 306 307
f 307 306 308
f 309 310 311
f 311 310 312
f 312 310 305
f 305 310 306
f 313 314 315
f 315 314 316
f 314 317 318
f 319 320 321
f 311 319 309
f 309 319 321
f 309 321 308
f 308 321 307
f 322 323 324
f 325 326 324
f 324 326 327
f 324 327 322
f 328 329 330
f 314 318 316
f 316 318 326
f 316 326 331
f 331 326 325
f 331 325 329
f 329 325 332
f 329 332 330
f 330 319 328
f 328 319 311
f 328 311 316
f 316 311 307
f 316 307 315
f 315 307 321
f 284 286 333
f 333 286 334
f 335 336 282
f 282 336 337
f 282 337 280
f 275 338 339
f 338 340 339
f 339 340 341
f 339 341 333
f 333 341 285
f 333 285 284
f 335 282 342
f 342 282 343
f 342 343 339
f 339 343 277
f 339 277 275
f 344 294 298
f 345 342 298
f 298 342 339
f 298 339 344
f 346 334 347
f 347 334 286
f 347 286 348
f 348 286 294
f 348 294 349
f 349 294 344
f 349 344 350
f 350 344 339
f 351 333 352
f 352 333 353
f 354 355 339
f 353 333 356
f 356 333 334
f 356 334 346
f 355 357 339
f 339 357 358
f 339 358 350
f 351 359 333
f 333 359 360
f 333 360 339
f 339 360 361
f 339 361 354
f 347 362 346
f 346 362 356
f 363 350 364
f 364 350 358
f 364 358 365
f 365 358 357
f 365 357 366
f 366 357 355
f 366 355 367
f 367 355 354
f 367 354 368
f 368 354 361
f 368 361 369
f 369 361 360
f 369 360 370
f 370 360 359
f 370 359 371
f 371 359 351
f 371 351 372
f 372 351 352
f 372 352 373
f 373 352 353
f 373 353 362
f 362 353 356
f 363 348 350
f 350 348 349
f 347 374 375
f 374 347 376
f 376 347 348
f 376 348 377
f 378 370 379
f 379 370 371
f 379 371 380
f 381 362 382
f 382 362 347
f 382 347 383
f 383 347 375
f 371 372 380
f 380 372 373
f 380 373 384
f 384 373 362
f 384 362 385
f 385 362 386
f 387 388 366
f 363 389 390
f 391 386 392
f 392 386 362
f 392 362 393
f 393 362 381
f 366 388 365
f 365 388 394
f 365 394 364
f 363 390 348
f 348 390 395
f 348 395 377
f 366 367 387
f 387 367 368
f 387 368 378
f 378 368 369
f 378 369 370
f 364 394 363
f 363 394 396
f 363 396 389
f 389 396 397
f 389 397 398
f 391 392 398
f 398 392 399
f 398 399 389
f 400 302 401
f 401 302 301
f 301 303 401
f 401 303 402
f 401 402 403
f 283 281 317
f 317 281 404
f 317 404 405
f 405 404 406
f 405 406 407
f 408 322 409
f 409 322 327
f 409 327 407
f 407 327 410
f 407 410 405
f 411 412 317
f 317 412 403
f 317 403 283
f 283 403 402
f 314 413 317
f 317 413 414
f 317 414 411
f 415 416 417
f 417 416 418
f 417 418 419
f 419 418 420
f 419 420 421
f 421 420 422
f 421 422 423
f 423 422 424
f 423 424 425
f 425 424 426
f 425 426 427
f 427 426 428
f 427 428 429
f 429 428 430
f 429 430 431
f 431 430 432
f 431 432 433
f 433 432 434
f 433 434 435
f 435 434 436
f 435 436 437
f 437 436 438
f 437 438 439
f 439 438 440
f 439 440 441
f 441 440 415
f 441 415 417
f 435 385 433
f 433 385 386
f 433 386 431
f 431 386 391
f 431 391 429
f 429 391 398
f 429 398 427
f 427 398 397
f 427 397 425
f 425 397 396
f 425 396 423
f 423 396 394
f 423 394 421
f 421 394 388
f 421 388 419
f 419 388 387
f 419 387 417
f 417 387 378
f 417 378 441
f 441 378 379
f 441 379 439
f 439 379 380
f 439 380 437
f 437 380 384
f 437 384 435
f 435 384 385
f 442 288 443
f 443 288 444
f 443 444 445
f 445 444 446
f 445 446 447
f 447 446 448
f 447 448 449
f 448 450 449
f 449 450 300
f 449 300 451
f 451 300 299
f 451 299 452
f 452 299 297
f 452 297 453
f 453 297 296
f 453 296 454
f 454 296 295
f 454 295 455
f 455 295 293
f 455 293 456
f 456 293 292
f 456 292 457
f 457 292 291
f 457 291 458
f 458 291 290
f 458 290 442
f 442 290 289
f 442 289 288
f 457 383 456
f 456 383 375
f 456 375 455
f 455 375 374
f 455 374 454
f 454 374 376
f 454 376 453
f 453 376 377
f 453 377 452
f 452 377 395
f 452 395 451
f 451 395 390
f 451 390 449
f 449 390 389
f 449 389 447
f 447 389 399
f 447 399 445
f 445 399 392
f 445 392 443
f 443 392 393
f 443 393 442
f 442 393 381
f 442 381 458
f 458 381 382
f 458 382 457
f 457 382 383
f 304 302 459
f 459 302 400
f 460 461 462
f 276 463 274
f 274 463 298
f 274 298 464
f 464 298 300
f 464 300 465
f 465 300 288
f 465 288 466
f 466 288 287
f 462 467 330
f 330 467 468
f 330 468 319
f 319 468 469
f 319 469 470
f 460 462 471
f 471 462 330
f 471 330 472
f 473 459 278
f 278 459 400
f 278 400 279
f 279 400 462
f 279 462 474
f 474 462 461
f 473 475 459
f 459 475 476
f 459 476 463
f 463 476 345
f 463 345 298
f 323 322 408
f 472 330 332
f 477 478 332
f 332 478 323
f 332 323 472
f 472 323 408
f 471 472 409
f 409 472 408
f 414 413 469
f 469 413 470
f 470 413 313
f 313 413 314
f 319 470 320
f 320 470 313
f 320 313 479
f 479 313 480
f 481 482 324
f 324 482 325
f 478 481 323
f 323 481 324
f 482 477 325
f 325 477 332
f 478 477 481
f 481 477 482
f 483 484 318
f 318 484 326
f 483 318 405
f 405 318 317
f 484 410 326
f 326 410 327
f 484 483 410
f 410 483 405
f 316 331 485
f 485 331 486
f 487 486 329
f 329 486 331
f 487 329 488
f 488 329 328
f 306 310 308
f 308 310 309
f 485 486 488
f 488 486 487
f 275 274 338
f 338 274 464
f 338 464 340
f 340 464 465
f 340 465 341
f 341 465 466
f 341 466 285
f 285 466 287
f 414 469 411
f 411 469 468
f 411 468 412
f 412 468 467
f 412 467 403
f 403 467 462
f 403 462 401
f 401 462 400
f 471 409 460
f 460 409 407
f 460 407 461
f 461 407 406
f 461 406 474
f 474 406 404
f 474 404 279
f 279 404 281
f 312 305 311
f 311 305 307
f 328 316 488
f 488 316 485
f 288 300 450
f 448 446 450
f 450 446 444
f 450 444 288
f 418 416 489
f 418 489 420
f 426 424 489
f 489 424 422
f 489 422 420
f 432 430 489
f 489 430 428
f 489 428 426
f 438 436 489
f 489 436 434
f 489 434 432
f 416 415 489
f 489 415 440
f 489 440 438
f 463 276 343
f 343 276 277
f 304 459 303
f 303 459 402
f 490 491 463
f 463 492 459
f 459 492 493
f 282 283 494
f 494 283 402
f 494 495 282
f 282 495 496
f 282 496 497
f 498 463 343
f 493 499 459
f 459 499 500
f 459 500 501
f 497 502 282
f 282 502 503
f 282 503 343
f 503 504 343
f 343 504 505
f 343 505 506
f 498 507 463
f 463 507 508
f 463 508 490
f 509 510 511
f 501 512 459
f 459 512 513
f 459 513 514
f 515 516 459
f 459 516 517
f 517 518 459
f 459 518 519
f 459 519 402
f 402 519 520
f 402 520 494
f 506 521 343
f 343 521 522
f 343 522 498
f 515 459 523
f 523 459 514
f 523 514 509
f 509 514 524
f 509 524 510
f 525 526 491
f 511 527 509
f 509 527 528
f 509 528 491
f 491 528 529
f 491 529 525
f 526 530 491
f 491 530 531
f 491 531 463
f 463 531 532
f 532 533 463
f 463 533 534
f 463 534 535
f 535 536 463
f 463 536 537
f 463 537 492
f 538 539 540
f 541 539 538
f 538 542 543
f 544 542 538
f 540 544 538
f 538 545 546
f 547 545 538
f 543 547 538
f 538 548 549
f 550 548 538
f 546 550 538
f 549 541 538
f 551 539 541
f 551 552 539
f 539 552 553
f 539 553 540
f 553 554 540
f 540 554 555
f 540 555 544
f 555 556 544
f 544 556 557
f 544 557 542
f 557 558 542
f 542 558 559
f 542 559 543
f 559 560 543
f 543 560 561
f 543 561 547
f 561 562 547
f 547 562 563
f 547 563 545
f 563 564 545
f 545 564 565
f 545 565 546
f 565 566 546
f 546 566 567
f 546 567 550
f 567 568 550
f 550 568 569
f 550 569 548
f 569 570 548
f 548 570 571
f 548 571 549
f 571 572 549
f 549 572 573
f 549 573 541
f 541 573 574
f 541 574 551
f 551 518 552
f 552 518 517
f 552 517 553
f 553 517 516
f 553 516 554
f 554 516 515
f 554 515 555
f 555 515 523
f 555 523 556
f 556 523 509
f 556 509 557
f 557 509 491
f 557 491 558
f 558 491 490
f 558 490 559
f 559 490 508
f 559 508 560
f 560 508 507
f 560 507 561
f 561 507 498
f 561 498 562
f 562 498 522
f 562 522 563
f 563 522 521
f 563 521 564
f 564 521 506
f 564 506 565
f 565 506 505
f 565 505 566
f 566 505 504
f 566 504 567
f 567 504 503
f 567 503 568
f 568 503 502
f 568 502 569
f 569 502 497
f 569 497 570
f 570 497 496
f 570 496 571
f 571 496 495
f 571 495 572
f 572 495 494
f 572 494 573
f 573 494 520
f 573 520 574
f 574 520 519
f 574 519 551
f 551 519 518
f 575 576 577
f 578 576 575
f 575 579 580
f 581 579 575
f 577 581 575
f 575 582 583
f 584 582 575
f 580 584 575
f 575 585 586
f 587 585 575
f 583 587 575
f 586 578 575
f 576 578 588
f 588 589 576
f 576 589 590
f 576 590 577
f 590 591 577
f 577 591 592
f 577 592 581
f 592 593 581
f 581 593 594
f 581 594 579
f 594 595 579
f 579 595 596
f 579 596 580
f 596 597 580
f 580 597 598
f 580 598 584
f 598 599 584
f 584 599 600
f 584 600 582
f 600 601 582
f 582 601 602
f 582 602 583
f 602 603 583
f 583 603 604
f 583 604 587
f 604 605 587
f 587 605 606
f 587 606 585
f 606 607 585
f 585 607 608
f 585 608 586
f 608 609 586
f 586 609 610
f 586 610 578
f 578 610 611
f 578 611 588
f 588 512 589
f 589 512 501
f 589 501 590
f 590 501 500
f 590 500 591
f 591 500 499
f 591 499 592
f 592 499 493
f 592 493 593
f 593 493 492
f 593 492 594
f 594 492 537
f 594 537 595
f 595 537 536
f 595 536 596
f 596 536 535
f 596 535 597
f 597 535 534
f 597 534 598
f 598 534 533
f 598 533 599
f 599 533 532
f 599 532 600
f 600 532 531
f 600 531 601
f 601 531 530
f 601 530 602
f 602 530 526
f 602 526 603
f 603 526 525
f 603 525 604
f 604 525 529
f 604 529 605
f 605 529 528
f 605 528 606
f 606 528 527
f 606 527 607
f 607 527 511
f 607 511 608
f 608 511 510
f 608 510 609
f 609 510 524
f 609 524 610
f 610 524 514
f 610 514 611
f 611 514 513
f 611 513 588
f 588 513 512
f 612 613 321
f 321 613 315
f 320 479 321
f 321 479 612
f 315 613 313
f 313 613 480
f 479 480 612
f 612 480 613
f 342 345 335
f 335 345 476
f 335 476 336
f 336 476 475
f 336 475 337
f 337 475 473
f 337 473 280
f 280 473 278
f 614 615 616
f 616 615 617
f 618 619 620
f 620 619 621
f 622 623 624
f 624 623 625
f 626 627 628
f 628 627 629
f 624 625 627
f 627 625 629
f 614 616 618
f 618 616 619
f 630 631 632
f 632 631 633
f 632 633 634
f 634 633 635
f 634 635 636
f 636 635 637
f 638 639 640
f 640 639 641
f 640 641 642
f 642 641 643
f 642 643 644
f 644 643 645
f 645 631 644
f 644 631 630
f 639 638 628
f 628 638 646
f 628 646 626
f 626 646 647
f 615 648 617
f 617 648 649
f 617 649 637
f 637 649 636
f 645 643 625
f 645 625 631
f 631 625 623
f 631 623 633
f 628 629 639
f 639 629 625
f 639 625 641
f 641 625 643
f 619 616 637
f 637 616 617
f 650 651 623
f 623 651 621
f 623 621 633
f 633 621 619
f 633 619 635
f 635 619 637
f 652 653 654
f 655 656 657
f 657 656 652
f 657 652 658
f 658 652 654
f 659 660 661
f 659 661 662
f 663 664 661
f 661 664 665
f 661 665 662
f 661 653 663
f 663 653 652
f 663 652 664
f 664 652 656
f 664 656 665
f 665 656 655
f 665 655 662
f 662 655 657
f 662 657 659
f 659 657 658
f 659 658 660
f 660 658 654
f 666 667 668
f 669 670 671
f 671 670 666
f 671 666 672
f 672 666 668
f 673 674 675
f 676 673 677
f 677 673 675
f 677 675 678
f 678 675 679
f 674 671 675
f 675 671 672
f 675 672 679
f 679 672 668
f 679 668 678
f 678 668 667
f 678 667 677
f 677 667 666
f 677 666 676
f 676 666 670
f 676 670 673
f 673 670 669
f 680 681 682
f 682 681 683
f 682 683 684
f 684 683 685
f 684 685 686
f 686 685 687
f 686 687 688
f 688 687 689
f 688 689 690
f 690 689 691
f 692 693 694
f 694 693 695
f 694 695 696
f 696 695 697
f 696 697 698
f 698 697 699
f 698 699 700
f 700 699 701
f 700 701 702
f 702 701 703
f 704 705 706
f 706 705 707
f 706 707 708
f 708 707 709
f 708 709 710
f 710 709 711
f 710 711 712
f 712 711 713
f 712 713 714
f 714 713 715
f 716 717 718
f 718 717 719
f 718 719 720
f 720 719 721
f 720 721 722
f 722 721 723
f 722 723 724
f 724 723 725
f 724 725 726
f 726 725 727
f 706 708 624
f 714 728 712
f 712 728 622
f 626 647 680
f 624 708 622
f 622 708 710
f 622 710 712
f 680 682 626
f 626 682 684
f 626 684 627
f 627 684 686
f 686 688 627
f 627 688 690
f 627 690 624
f 624 690 704
f 624 704 706
f 719 717 703
f 638 640 689
f 689 687 638
f 638 687 685
f 638 685 646
f 646 685 683
f 646 683 681
f 723 636 725
f 725 636 649
f 725 649 727
f 723 721 636
f 636 721 719
f 636 719 634
f 634 719 703
f 699 713 701
f 701 713 630
f 701 630 703
f 703 630 632
f 703 632 634
f 693 715 695
f 695 715 713
f 695 713 697
f 697 713 699
f 713 711 630
f 630 711 709
f 630 709 644
f 644 709 707
f 644 707 642
f 642 707 705
f 642 705 640
f 640 705 691
f 640 691 689
f 728 714 650
f 650 714 715
f 650 715 651
f 651 715 693
f 651 693 729
f 729 693 692
f 646 681 647
f 647 681 680
f 653 705 654
f 654 705 704
f 654 704 660
f 660 704 690
f 660 690 661
f 661 690 691
f 661 691 653
f 653 691 705
f 674 716 671
f 671 716 702
f 671 702 669
f 669 702 703
f 669 703 673
f 673 703 717
f 673 717 674
f 674 717 716
f 716 614 702
f 702 614 618
f 702 618 700
f 620 729 692
f 716 718 614
f 614 718 720
f 614 720 615
f 692 694 620
f 620 694 696
f 620 696 618
f 618 696 698
f 618 698 700
f 726 648 724
f 724 648 615
f 724 615 722
f 722 615 720
f 648 726 649
f 649 726 727
f 621 651 620
f 620 651 729
f 622 728 623
f 623 728 650
f 730 731 732
f 732 731 733
f 732 733 734
f 734 733 735
f 734 735 736
f 736 735 737
f 736 737 738
f 738 737 739
f 738 739 740
f 740 739 741
f 742 743 744
f 744 743 745
f 744 745 746
f 746 745 747
f 746 747 748
f 748 747 749
f 748 749 750
f 750 749 751
f 750 751 752
f 752 751 753
f 754 755 756
f 756 755 757
f 756 757 758
f 758 757 759
f 758 759 760
f 760 759 761
f 760 761 762
f 762 761 763
f 762 763 764
f 764 763 765
f 766 767 768
f 768 767 769
f 768 769 770
f 770 769 771
f 770 771 772
f 772 771 773
f 772 773 774
f 774 773 775
f 774 775 776
f 776 775 777
f 765 767 764
f 764 767 766
f 742 776 743
f 743 776 777
f 754 740 755
f 755 740 741
f 778 779 780
f 780 779 781
f 781 779 782
f 782 779 783
f 779 778 783
f 783 778 784
f 778 780 784
f 784 780 785
f 780 781 785
f 785 781 782
f 786 787 788
f 788 787 789
f 786 788 790
f 790 788 791
f 787 786 792
f 792 786 790
f 789 787 793
f 793 787 792
f 788 789 791
f 791 789 793
f 762 764 766
f 746 748 774
f 748 750 774
f 774 750 752
f 774 752 772
f 772 752 730
f 776 742 774
f 774 742 744
f 774 744 746
f 766 768 736
f 736 768 770
f 736 770 734
f 734 770 772
f 734 772 732
f 732 772 730
f 740 754 738
f 738 754 756
f 738 756 736
f 736 756 758
f 736 758 766
f 766 758 760
f 766 760 762
f 794 795 796
f 796 795 797
f 797 795 798
f 798 795 799
f 795 794 799
f 799 794 800
f 794 796 800
f 800 796 801
f 798 731 730
f 752 753 801
f 752 801 730
f 730 801 798
f 798 801 790
f 798 790 797
f 797 790 791
f 797 791 796
f 796 791 793
f 796 793 801
f 801 793 792
f 801 792 790
f 741 739 799
f 800 785 799
f 799 785 782
f 749 747 800
f 739 737 799
f 799 737 735
f 799 735 798
f 798 735 733
f 798 733 731
f 783 784 767
f 749 800 751
f 751 800 801
f 751 801 753
f 767 765 783
f 783 765 763
f 783 763 782
f 782 763 761
f 761 759 782
f 782 759 757
f 782 757 799
f 799 757 755
f 799 755 741
f 747 745 800
f 800 745 743
f 800 743 785
f 785 743 777
f 785 777 775
f 775 773 785
f 785 773 771
f 785 771 784
f 784 771 769
f 784 769 767
f 802 803 804
f 804 803 805
f 806 807 808
f 808 807 809
f 810 811 812
f 812 811 813
f 814 815 816
f 816 815 817
f 818 819 820
f 818 820 821
f 821 820 822
f 821 822 823
f 823 822 824
f 823 824 825
f 819 818 826
f 819 826 827
f 827 826 828
f 827 828 829
f 829 828 830
f 829 830 831
f 822 820 824
f 824 820 819
f 819 827 824
f 824 827 829
f 824 829 831
f 828 826 818
f 830 828 825
f 825 828 818
f 825 818 823
f 823 818 821
f 832 833 834
f 832 834 835
f 835 834 836
f 835 836 837
f 837 836 838
f 837 838 839
f 833 832 840
f 833 840 841
f 841 840 842
f 841 842 843
f 843 842 844
f 843 844 845
f 835 837 839
f 840 832 842
f 842 832 835
f 842 835 844
f 844 835 839
f 834 833 841
f 838 836 845
f 845 836 834
f 845 834 843
f 843 834 841
f 846 847 848
f 848 847 849
f 847 850 849
f 849 850 851
f 850 852 851
f 851 852 853
f 854 855 856
f 856 855 857
f 858 859 860
f 860 859 861
f 862 863 864
f 864 863 865
f 866 867 868
f 868 867 869
f 817 815 812
f 812 815 810
f 805 803 816
f 816 803 814
f 809 807 804
f 804 807 802
f 813 811 808
f 808 811 806
f 870 803 871
f 871 803 802
f 871 802 872
f 873 807 874
f 874 807 806
f 874 806 875
f 873 876 807
f 807 876 877
f 807 877 802
f 802 877 878
f 802 878 872
f 879 811 880
f 880 811 810
f 880 810 881
f 879 882 811
f 811 882 883
f 811 883 806
f 806 883 884
f 806 884 875
f 870 885 803
f 803 885 886
f 803 886 814
f 814 886 887
f 887 888 814
f 814 888 889
f 814 889 815
f 815 889 890
f 890 891 815
f 815 891 892
f 815 892 810
f 810 892 893
f 810 893 881
f 894 886 885
f 894 885 895
f 895 885 870
f 895 870 896
f 896 870 871
f 896 871 897
f 897 871 872
f 897 872 898
f 898 872 878
f 898 878 899
f 900 877 876
f 900 876 901
f 901 876 873
f 901 873 902
f 902 873 874
f 902 874 903
f 903 874 875
f 903 875 904
f 904 875 884
f 904 884 905
f 906 883 882
f 906 882 907
f 907 882 879
f 907 879 908
f 908 879 880
f 908 880 909
f 909 880 881
f 909 881 910
f 910 881 893
f 910 893 911
f 912 892 891
f 912 891 913
f 913 891 890
f 913 890 914
f 914 890 889
f 914 889 915
f 915 889 888
f 915 888 916
f 916 888 887
f 916 887 917
f 824 878 825
f 825 878 877
f 825 877 830
f 830 877 900
f 830 900 831
f 831 900 899
f 831 899 824
f 824 899 878
f 906 905 883
f 883 905 884
f 853 917 851
f 851 917 887
f 851 887 849
f 849 887 886
f 849 886 848
f 848 886 894
f 867 846 848
f 848 894 867
f 867 894 895
f 867 895 896
f 896 897 867
f 867 897 898
f 867 898 869
f 869 898 899
f 869 899 863
f 899 900 863
f 863 900 901
f 863 901 902
f 902 903 863
f 863 903 904
f 863 904 865
f 865 904 905
f 865 905 859
f 905 906 859
f 859 906 907
f 859 907 908
f 855 913 914
f 908 909 859
f 859 909 910
f 859 910 861
f 861 910 911
f 861 911 855
f 855 911 912
f 855 912 913
f 853 852 917
f 917 852 857
f 917 857 916
f 916 857 855
f 916 855 915
f 915 855 914
f 860 861 854
f 854 861 855
f 864 865 858
f 858 865 859
f 868 869 862
f 862 869 863
f 846 867 847
f 847 867 866
f 847 866 850
f 850 866 856
f 850 856 852
f 852 856 857
f 839 892 844
f 844 892 912
f 844 912 845
f 845 912 911
f 845 911 838
f 838 911 893
f 838 893 839
f 839 893 892
f 817 854 816
f 816 854 856
f 816 856 805
f 805 856 866
f 805 866 804
f 804 866 868
f 804 868 809
f 809 868 862
f 809 862 808
f 808 862 864
f 808 864 813
f 813 864 858
f 813 858 812
f 812 858 860
f 812 860 817
f 817 860 854
f 918 919 920
f 920 919 921
f 922 923 924
f 924 923 925
f 926 927 928
f 928 927 929
f 930 931 932
f 932 931 933
f 929 927 931
f 931 927 925
f 931 925 933
f 933 925 923
f 933 923 919
f 919 923 921
f 928 929 930
f 930 929 931
f 932 933 918
f 918 933 919
f 920 921 922
f 922 921 923
f 924 925 926
f 926 925 927
f 928 930 932
f 924 926 922
f 922 926 928
f 922 928 920
f 920 928 932
f 920 932 918

