# https://github.com/mikedh/trimesh

o right_hand_index_DIP_link.STL
v 0.00218367 0.00642504 0.01504229
v 0.00225000 0.00642504 0.01450000
v 0.00225000 0.00762500 0.01450000
v 0.00218367 0.00762500 0.01504229
v 0.00190821 0.00642504 0.01569217
v 0.00190821 0.00762500 0.01569217
v 0.00144495 0.00642504 0.01622471
v 0.00144495 0.00762500 0.01622471
v 0.00083949 0.00642504 0.01658753
v 0.00083949 0.00762500 0.01658753
v 0.00031161 0.00642504 0.01672832
v 0.00031161 0.00762500 0.01672832
v -0.00020004 0.00642504 0.01674109
v -0.00020004 0.00762500 0.01674109
v -0.00088132 0.00642504 0.01657021
v -0.00088132 0.00762500 0.01657021
v -0.00147671 0.00642504 0.01619759
v -0.00147671 0.00762500 0.01619759
v -0.00192820 0.00642504 0.01565954
v -0.00192820 0.00762500 0.01565954
v -0.00219179 0.00642504 0.01500849
v -0.00219179 0.00762500 0.01500849
v -0.00225000 0.00642504 0.01450000
v -0.00225000 0.00762500 0.01450000
v -0.00225000 0.00642504 0.00767712
v -0.00225001 0.00762500 0.00767712
v 0.00225000 0.00762500 0.00767713
v 0.00225000 0.00642504 0.00767713
v -0.00011279 0.00672497 0.01559420
v 0.00027698 0.00762500 0.01648073
v 0.00015234 0.00672497 0.01558940
v -0.00020508 0.00762500 0.01648946
v -0.00037138 0.00672497 0.01553541
v -0.00067523 0.00762500 0.01638257
v -0.00060837 0.00672497 0.01541645
v -0.00110614 0.00762500 0.01616627
v -0.00081002 0.00672497 0.01524422
v -0.00147276 0.00762500 0.01585313
v -0.00096458 0.00672497 0.01502874
v -0.00175379 0.00762500 0.01546136
v -0.00106309 0.00672497 0.01478254
v -0.00193290 0.00762500 0.01501371
v -0.00109982 0.00672497 0.01451992
v -0.00199967 0.00762500 0.01453621
v -0.00107262 0.00672497 0.01425613
v -0.00195023 0.00762500 0.01405661
v -0.00098309 0.00672497 0.01400652
v -0.00178745 0.00762500 0.01360277
v -0.00083643 0.00672497 0.01378559
v -0.00152078 0.00762500 0.01320108
v -0.00064116 0.00672497 0.01360618
v -0.00116574 0.00762500 0.01287487
v -0.00040862 0.00672497 0.01347871
v -0.00074295 0.00762500 0.01264311
v -0.00019826 0.00672497 0.01341802
v -0.00036047 0.00762500 0.01253275
v -0.00015234 0.00672497 0.01341060
v -0.00027698 0.00762500 0.01251927
v -0.00010614 0.00672497 0.01340513
v 0.00074296 0.00762500 0.01635689
v 0.00040863 0.00672497 0.01552129
v 0.00116575 0.00762500 0.01612513
v 0.00064116 0.00672497 0.01539382
v 0.00152079 0.00762500 0.01579892
v 0.00083644 0.00672497 0.01521441
v 0.00178745 0.00762500 0.01539723
v 0.00098310 0.00672497 0.01499348
v 0.00195023 0.00762500 0.01494339
v 0.00107263 0.00672497 0.01474387
v 0.00199968 0.00762500 0.01446379
v 0.00109982 0.00672497 0.01448008
v 0.00193290 0.00762500 0.01398629
v 0.00106310 0.00672497 0.01421746
v 0.00175380 0.00762500 0.01353864
v 0.00096459 0.00672497 0.01397125
v 0.00147277 0.00762500 0.01314687
v 0.00081002 0.00672497 0.01375578
v 0.00110615 0.00762500 0.01283373
v 0.00060838 0.00672497 0.01358355
v 0.00067524 0.00762500 0.01261743
v 0.00037138 0.00672497 0.01346459
v 0.00020509 0.00762500 0.01251054
v 0.00011280 0.00672497 0.01340580
v 0.00000000 0.00762500 0.01250000
v -0.00019299 0.00762500 0.01250933
v -0.00040862 0.00642504 0.01347871
v -0.00083643 0.00642504 0.01378559
v -0.00106309 0.00642504 0.01078254
v -0.00199969 0.00642504 -0.00003479
v -0.00189326 0.00642504 0.00064464
v -0.00652892 0.00642504 -0.00462312
v -0.00107262 0.00642504 0.01025613
v -0.00083643 0.00642504 0.00978559
v -0.00040862 0.00642504 0.00947871
v -0.00156297 0.00642504 0.00124785
v -0.00104787 0.00642504 0.00170351
v -0.00727111 0.00642504 -0.00333629
v -0.00257235 0.00642504 0.00757516
v -0.00776260 0.00642504 -0.00193443
v 0.00060838 0.00642504 0.00958355
v 0.00011280 0.00642504 0.00940580
v 0.00733885 0.00642504 -0.00318455
v 0.00189327 0.00642504 -0.00064464
v 0.00156297 0.00642504 -0.00124785
v 0.00779710 0.00642504 -0.00179034
v 0.00199970 0.00642504 0.00003479
v 0.00799295 0.00642504 -0.00033588
v 0.00791981 0.00642504 0.00112988
v 0.00186970 0.00642504 0.00071011
v 0.00758015 0.00642504 0.00255762
v 0.00698538 0.00642504 0.00389929
v 0.00151862 0.00642504 0.00130146
v 0.00615554 0.00642504 0.00510973
v -0.00186969 0.00642504 -0.00071011
v -0.00151861 0.00642504 -0.00130146
v -0.00556160 0.00642504 -0.00575053
v -0.00098798 0.00642504 -0.00173893
v -0.00309162 0.00642504 -0.00737847
v -0.00034053 0.00642504 -0.00197080
v -0.00440251 0.00642504 -0.00667966
v -0.00702217 0.00642504 0.00383264
v -0.00760971 0.00642504 0.00246825
v 0.00096459 0.00642504 0.00997125
v 0.00109982 0.00642504 0.01048008
v 0.00663363 0.00642504 -0.00447159
v 0.00570516 0.00642504 -0.00560814
v 0.00104788 0.00642504 -0.00170351
v -0.00798642 0.00642504 -0.00046587
v -0.00793487 0.00642504 0.00101875
v -0.00037138 0.00642504 0.01153541
v 0.00015234 0.00642504 0.01158940
v -0.00081002 0.00642504 0.01124422
v 0.00096459 0.00642504 0.01397125
v 0.00060838 0.00642504 0.01358355
v 0.00109982 0.00642504 0.01448008
v 0.00098310 0.00642504 0.01499348
v -0.00107262 0.00642504 0.01425613
v -0.00106309 0.00642504 0.01478254
v 0.00040888 0.00642504 -0.00195776
v 0.00003479 0.00642504 -0.00199970
v 0.00047290 0.00642504 -0.00798601
v 0.00458469 0.00642504 -0.00655596
v 0.00330994 0.00642504 -0.00728315
v 0.00192379 0.00642504 -0.00776525
v 0.00511854 0.00642504 0.00614821
v 0.00098799 0.00642504 0.00173893
v 0.00390929 0.00642504 0.00697979
v -0.00514930 0.00642504 0.00612247
v -0.00619249 0.00642504 0.00506488
v -0.00392855 0.00642504 0.00696896
v 0.00098310 0.00642504 0.01099348
v 0.00064116 0.00642504 0.01139382
v 0.00011280 0.00642504 0.01340580
v 0.00013916 0.00642504 -0.00799879
v -0.00019892 0.00642504 -0.00799753
v -0.00167413 0.00642504 -0.00782287
v -0.00040888 0.00642504 0.00195776
v 0.00064116 0.00642504 0.01539382
v 0.00015234 0.00642504 0.01558940
v -0.00037138 0.00642504 0.01553541
v -0.00081002 0.00642504 0.01524422
v 0.00256848 0.00642504 0.00757647
v 0.00034054 0.00642504 0.00197080
v -0.00003479 0.00642504 0.00199970
v -0.00189326 0.00762500 0.00064464
v -0.00199969 0.00762500 -0.00003479
v -0.00186969 0.00762500 -0.00071011
v -0.00776260 0.00762500 -0.00193443
v -0.00727111 0.00762500 -0.00333629
v -0.00151861 0.00762500 -0.00130146
v 0.00152079 0.00762500 0.01179892
v 0.00178745 0.00762500 0.01139723
v 0.00116575 0.00762500 0.01212513
v 0.00256848 0.00762500 0.00757647
v 0.00034054 0.00762500 0.00197080
v 0.00098799 0.00762500 0.00173893
v 0.00074296 0.00762500 0.01235689
v 0.00511854 0.00762500 0.00614821
v 0.00151862 0.00762500 0.00130146
v 0.00390929 0.00762500 0.00697979
v -0.00793487 0.00762500 0.00101875
v -0.00760971 0.00762500 0.00246825
v -0.00798642 0.00762500 -0.00046587
v 0.00195023 0.00762500 0.01094339
v 0.00199968 0.00762500 0.01046379
v 0.00193290 0.00762500 0.00998629
v -0.00020508 0.00762500 0.01248946
v 0.00698538 0.00762500 0.00389929
v 0.00186970 0.00762500 0.00071011
v 0.00615554 0.00762500 0.00510973
v 0.00791981 0.00762500 0.00112988
v 0.00199970 0.00762500 0.00003479
v 0.00758015 0.00762500 0.00255762
v -0.00257235 0.00762500 0.00757516
v -0.00392855 0.00762500 0.00696896
v -0.00514930 0.00762500 0.00612247
v 0.00027698 0.00762500 0.01248073
v 0.00779710 0.00762500 -0.00179034
v 0.00189327 0.00762500 -0.00064464
v 0.00799295 0.00762500 -0.00033588
v 0.00156297 0.00762500 -0.00124785
v 0.00570516 0.00762500 -0.00560814
v 0.00104788 0.00762500 -0.00170351
v 0.00663363 0.00762500 -0.00447159
v 0.00733885 0.00762500 -0.00318455
v -0.00619249 0.00762500 0.00506488
v -0.00702217 0.00762500 0.00383264
v 0.00175380 0.00762500 0.00953864
v 0.00147277 0.00762500 0.00914687
v 0.00110615 0.00762500 0.00883373
v -0.00652892 0.00762500 -0.00462312
v -0.00556160 0.00762500 -0.00575053
v -0.00098798 0.00762500 -0.00173893
v -0.00110614 0.00762500 0.01216627
v -0.00067523 0.00762500 0.01238257
v -0.00156297 0.00762500 0.00124785
v -0.00104787 0.00762500 0.00170351
v -0.00040888 0.00762500 0.00195776
v 0.00330994 0.00762500 -0.00728315
v 0.00040888 0.00762500 -0.00195776
v 0.00458469 0.00762500 -0.00655596
v -0.00440251 0.00762500 -0.00667966
v -0.00309162 0.00762500 -0.00737847
v -0.00034053 0.00762500 -0.00197080
v -0.00178745 0.00762500 0.00960277
v -0.00152078 0.00762500 0.00920108
v -0.00195023 0.00762500 0.01005661
v -0.00199967 0.00762500 0.01053621
v -0.00193290 0.00762500 0.01101371
v -0.00074295 0.00762500 0.00864311
v -0.00036047 0.00762500 0.00853275
v -0.00116574 0.00762500 0.00887487
v -0.00167413 0.00762500 -0.00782287
v -0.00019892 0.00762500 -0.00799753
v 0.00003479 0.00762500 -0.00199970
v 0.00013916 0.00762500 -0.00799879
v 0.00047290 0.00762500 -0.00798601
v 0.00192379 0.00762500 -0.00776525
v -0.00175379 0.00762500 0.01146136
v -0.00147276 0.00762500 0.01185313
v 0.00067524 0.00762500 0.00861743
v 0.00020509 0.00762500 0.00851054
v -0.00003479 0.00762500 0.00199970
v -0.00019299 0.00762500 0.00850933
v -0.00027698 0.00762500 0.00851927
v -0.00015234 0.00672497 0.00941060
v -0.00019826 0.00672497 0.00941801
v -0.00040862 0.00672497 0.00947871
v -0.00064116 0.00672497 0.00960618
v -0.00083643 0.00672497 0.00978559
v -0.00098309 0.00672497 0.01000652
v -0.00107262 0.00672497 0.01025613
v -0.00109982 0.00672497 0.01051992
v -0.00106309 0.00672497 0.01078254
v -0.00096458 0.00672497 0.01102875
v -0.00081002 0.00672497 0.01124422
v -0.00060837 0.00672497 0.01141645
v -0.00037138 0.00672497 0.01153541
v -0.00011279 0.00672497 0.01159420
v 0.00015234 0.00672497 0.01158940
v -0.00010614 0.00672497 0.00940513
v 0.00011280 0.00672497 0.00940580
v 0.00037138 0.00672497 0.00946459
v 0.00060838 0.00672497 0.00958355
v 0.00081002 0.00672497 0.00975578
v 0.00096459 0.00672497 0.00997125
v 0.00106310 0.00672497 0.01021746
v 0.00109982 0.00672497 0.01048008
v 0.00107263 0.00672497 0.01074387
v 0.00098310 0.00672497 0.01099348
v 0.00083644 0.00672497 0.01121441
v 0.00064116 0.00672497 0.01139382
v 0.00040863 0.00672497 0.01152129
v 0.00760000 0.00334870 0.01355000
v 0.00860000 0.00279870 0.01293125
v 0.00860000 0.00334870 0.01355000
v 0.00760000 0.00279870 0.01293125
v 0.00860000 0.00294870 0.01995000
v 0.00760000 0.00334870 0.01955000
v 0.00860000 0.00334870 0.01955000
v 0.00760000 0.00294870 0.01995000
v 0.00860000 -0.00345130 0.01955000
v 0.00760000 -0.00305130 0.01995000
v 0.00860000 -0.00305130 0.01995000
v 0.00760000 -0.00345130 0.01955000
v 0.00760000 -0.00290130 0.01293125
v 0.00860000 -0.00345130 0.01355000
v 0.00860000 -0.00290130 0.01293125
v 0.00760000 -0.00345130 0.01355000
v 0.00690000 0.00269870 0.01527320
v 0.00760000 0.00259870 0.01530000
v 0.00690000 0.00259870 0.01530000
v 0.00760000 0.00269870 0.01527320
v 0.00690000 0.00277191 0.01520000
v 0.00760000 0.00277191 0.01520000
v 0.00690000 0.00279870 0.01510000
v 0.00760000 0.00279870 0.01510000
v 0.00690000 -0.00287450 0.01520000
v 0.00760000 -0.00290130 0.01510000
v 0.00690000 -0.00290130 0.01510000
v 0.00760000 -0.00287450 0.01520000
v 0.00690000 -0.00280130 0.01527320
v 0.00760000 -0.00280130 0.01527320
v 0.00690000 -0.00270130 0.01530000
v 0.00760000 -0.00270130 0.01530000
v 0.00690000 -0.00290130 0.01230000
v 0.00860000 -0.00290130 0.01230000
v 0.00860000 0.00279870 0.01230000
v 0.00690000 0.00279870 0.01230000
v 0.00760000 0.00294870 0.02080000
v 0.00760000 -0.00305130 0.02080000
v 0.00816000 -0.00430130 0.01905000
v 0.00736000 -0.00430130 0.01905000
v 0.00741359 -0.00410130 0.01905000
v 0.00796000 -0.00395489 0.01905000
v 0.00756000 -0.00395489 0.01905000
v 0.00776000 -0.00390130 0.01905000
v 0.00810641 -0.00410130 0.01905000
v 0.00736000 -0.00430130 0.01405000
v 0.00816000 -0.00430130 0.01405000
v 0.00810641 -0.00410130 0.01405000
v 0.00796000 -0.00395489 0.01405000
v 0.00756000 -0.00395489 0.01405000
v 0.00741359 -0.00410130 0.01405000
v 0.00776000 -0.00390130 0.01405000
v 0.00796000 0.00385229 0.01905000
v 0.00776000 0.00379870 0.01905000
v 0.00756000 0.00385229 0.01905000
v 0.00816000 0.00419870 0.01905000
v 0.00741359 0.00399870 0.01905000
v 0.00736000 0.00419870 0.01905000
v 0.00810641 0.00399870 0.01905000
v 0.00810641 0.00399870 0.01405000
v 0.00816000 0.00419870 0.01405000
v 0.00736000 0.00419870 0.01405000
v 0.00756000 0.00385229 0.01405000
v 0.00741359 0.00399870 0.01405000
v 0.00776000 0.00379870 0.01405000
v 0.00796000 0.00385229 0.01405000
v 0.00860000 -0.00339779 0.01259356
v 0.00690000 -0.00335130 0.01230000
v 0.00860000 -0.00335130 0.01230000
v 0.00690000 -0.00339779 0.01259356
v 0.00860000 -0.00353273 0.01285839
v 0.00690000 -0.00353273 0.01285839
v 0.00860000 -0.00374290 0.01306856
v 0.00690000 -0.00374290 0.01306856
v 0.00860000 -0.00400773 0.01320350
v 0.00690000 -0.00400773 0.01320350
v 0.00860000 -0.00430130 0.01325000
v 0.00690000 -0.00430130 0.01325000
v 0.00860000 0.00329520 0.02050643
v 0.00690000 0.00324870 0.02080000
v 0.00860000 0.00324870 0.02080000
v 0.00690000 0.00329520 0.02050643
v 0.00860000 0.00343014 0.02024160
v 0.00690000 0.00343014 0.02024160
v 0.00860000 0.00364031 0.02003143
v 0.00690000 0.00364031 0.02003143
v 0.00860000 0.00390514 0.01989649
v 0.00690000 0.00390514 0.01989649
v 0.00860000 0.00419870 0.01985000
v 0.00690000 0.00419870 0.01985000
v 0.00860000 -0.00400773 0.01989649
v 0.00690000 -0.00430130 0.01985000
v 0.00860000 -0.00430130 0.01985000
v 0.00690000 -0.00400773 0.01989649
v 0.00860000 -0.00374290 0.02003143
v 0.00690000 -0.00374290 0.02003143
v 0.00860000 -0.00353273 0.02024160
v 0.00690000 -0.00353273 0.02024160
v 0.00860000 -0.00339779 0.02050643
v 0.00690000 -0.00339779 0.02050643
v 0.00860000 -0.00335130 0.02080000
v 0.00690000 -0.00335130 0.02080000
v 0.00860000 0.00390514 0.01320350
v 0.00690000 0.00419870 0.01325000
v 0.00860000 0.00419870 0.01325000
v 0.00690000 0.00390514 0.01320350
v 0.00860000 0.00364031 0.01306856
v 0.00690000 0.00364031 0.01306856
v 0.00860000 0.00343014 0.01285839
v 0.00690000 0.00343014 0.01285839
v 0.00860000 0.00329520 0.01259356
v 0.00690000 0.00329520 0.01259356
v 0.00860000 0.00324870 0.01230000
v 0.00690000 0.00324870 0.01230000
v 0.00860000 -0.00305130 0.02080000
v 0.00860000 0.00294870 0.02080000
v 0.00950000 -0.00335024 0.01260902
v 0.00870000 -0.00330130 0.01230000
v 0.00950000 -0.00330130 0.01230000
v 0.00870000 -0.00335024 0.01260902
v 0.00950000 -0.00349228 0.01288778
v 0.00870000 -0.00349228 0.01288778
v 0.00950000 -0.00371351 0.01310902
v 0.00870000 -0.00371351 0.01310902
v 0.00950000 -0.00399228 0.01325106
v 0.00870000 -0.00399228 0.01325106
v 0.00950000 -0.00430130 0.01330000
v 0.00870000 -0.00430130 0.01330000
v 0.00950000 0.00388969 0.01325106
v 0.00870000 0.00419870 0.01330000
v 0.00950000 0.00419870 0.01330000
v 0.00870000 0.00388969 0.01325106
v 0.00950000 0.00361092 0.01310902
v 0.00870000 0.00361092 0.01310902
v 0.00950000 0.00338969 0.01288778
v 0.00870000 0.00338969 0.01288778
v 0.00950000 0.00324765 0.01260902
v 0.00870000 0.00324765 0.01260902
v 0.00950000 0.00319870 0.01230000
v 0.00870000 0.00319870 0.01230000
v 0.00950000 -0.00399228 0.01984894
v 0.00870000 -0.00430130 0.01980000
v 0.00950000 -0.00430130 0.01980000
v 0.00870000 -0.00399228 0.01984894
v 0.00950000 -0.00371351 0.01999098
v 0.00870000 -0.00371351 0.01999098
v 0.00950000 -0.00349228 0.02021221
v 0.00870000 -0.00349228 0.02021221
v 0.00950000 -0.00335024 0.02049098
v 0.00870000 -0.00335024 0.02049098
v 0.00950000 -0.00330130 0.02080000
v 0.00870000 -0.00330130 0.02080000
v 0.00950000 0.00324765 0.02049098
v 0.00870000 0.00319870 0.02080000
v 0.00950000 0.00319870 0.02080000
v 0.00870000 0.00324765 0.02049098
v 0.00950000 0.00338969 0.02021221
v 0.00870000 0.00338969 0.02021221
v 0.00950000 0.00361092 0.01999098
v 0.00870000 0.00361092 0.01999098
v 0.00950000 0.00388969 0.01984894
v 0.00870000 0.00388969 0.01984894
v 0.00950000 0.00419870 0.01980000
v 0.00870000 0.00419870 0.01980000
v 0.00777000 0.00244870 0.01550000
v 0.00777000 -0.00255130 0.02050000
v 0.00777000 0.00244870 0.02050000
v 0.00777000 -0.00255130 0.01550000
v 0.00870000 -0.00255130 0.01550000
v 0.00870000 -0.00255130 0.02050000
v 0.00870000 0.00244870 0.02050000
v 0.00870000 0.00244870 0.01550000
v 0.00725000 -0.00250130 0.01330000
v 0.00836115 0.00239870 0.01330000
v 0.00836115 -0.00250130 0.01330000
v 0.00725000 0.00239870 0.01330000
v 0.00836115 -0.00250130 0.01230000
v 0.00725000 -0.00250130 0.01230000
v 0.00836115 0.00239870 0.01230000
v 0.00725000 0.00239870 0.01230000
v 0.00695000 0.00269870 0.01230000
v 0.00695000 -0.00280130 0.01500000
v 0.00695000 0.00269870 0.01500000
v 0.00695000 -0.00280130 0.01230000
v 0.00870000 -0.00280130 0.01230000
v 0.00870000 -0.00280130 0.01500000
v 0.00870000 0.00269870 0.01500000
v 0.00870000 0.00269870 0.01230000
v 0.00990000 -0.00355130 0.01343700
v 0.00950000 -0.00316429 0.01305000
v 0.00950000 -0.00355130 0.01343700
v 0.00990000 -0.00316429 0.01305000
v 0.00990000 -0.00316429 0.02005000
v 0.00950000 -0.00355130 0.01966299
v 0.00950000 -0.00316429 0.02005000
v 0.00990000 -0.00355130 0.01966299
v 0.00990000 0.00344870 0.01966299
v 0.00950000 0.00306170 0.02005000
v 0.00950000 0.00344870 0.01966299
v 0.00990000 0.00306170 0.02005000
v 0.00990000 0.00306170 0.01305000
v 0.00950000 0.00344870 0.01343700
v 0.00950000 0.00306170 0.01305000
v 0.00990000 0.00344870 0.01343700
v 0.00792500 -0.00404819 0.01455000
v 0.00775000 -0.00400130 0.01455000
v 0.00775000 -0.00400130 0.01855000
v 0.00792500 -0.00404819 0.01855000
v 0.00805311 -0.00417630 0.01455000
v 0.00805311 -0.00417630 0.01855000
v 0.00810000 -0.00435130 0.01455000
v 0.00810000 -0.00435130 0.01855000
v 0.00757500 -0.00404819 0.01855000
v 0.00757500 -0.00404819 0.01455000
v 0.00744689 -0.00417630 0.01855000
v 0.00744689 -0.00417630 0.01455000
v 0.00740000 -0.00435130 0.01855000
v 0.00740000 -0.00435130 0.01455000
v 0.00792500 0.00394559 0.01855000
v 0.00775000 0.00389870 0.01855000
v 0.00775000 0.00389870 0.01455000
v 0.00792500 0.00394559 0.01455000
v 0.00805311 0.00407370 0.01855000
v 0.00805311 0.00407370 0.01455000
v 0.00810000 0.00424870 0.01855000
v 0.00810000 0.00424870 0.01455000
v 0.00757500 0.00394559 0.01455000
v 0.00757500 0.00394559 0.01855000
v 0.00744689 0.00407370 0.01455000
v 0.00744689 0.00407370 0.01855000
v 0.00740000 0.00424870 0.01455000
v 0.00740000 0.00424870 0.01855000
v 0.00690000 -0.00290130 0.01225000
v 0.00890000 -0.00290130 0.01155000
v 0.00690000 -0.00290130 0.01155000
v 0.00890000 -0.00290130 0.01225000
v 0.00890000 0.00279870 0.01155000
v 0.00890000 0.00279870 0.01225000
v 0.00690000 0.00279870 0.01155000
v 0.00690000 0.00279870 0.01225000
v 0.00990000 0.00368302 0.01155000
v 0.00690000 0.00494870 0.01281568
v 0.00990000 0.00494870 0.01281568
v 0.00690000 0.00368302 0.01155000
v 0.00990000 0.00494870 0.02028431
v 0.00690000 0.00368302 0.02155000
v 0.00990000 0.00368302 0.02155000
v 0.00690000 0.00494870 0.02028431
v 0.00990000 -0.00378561 0.02155000
v 0.00690000 -0.00505130 0.02028431
v 0.00990000 -0.00505130 0.02028431
v 0.00690000 -0.00378561 0.02155000
v 0.00990000 -0.00505130 0.01281568
v 0.00690000 -0.00378561 0.01155000
v 0.00990000 -0.00378561 0.01155000
v 0.00690000 -0.00505130 0.01281568
v 0.00950000 -0.00382229 0.01297811
v 0.00950000 -0.00362318 0.01277900
v 0.00950000 -0.00407318 0.01310595
v 0.00950000 -0.00362318 0.02032099
v 0.00950000 -0.00382229 0.02012188
v 0.00950000 -0.00349535 0.02057188
v 0.00950000 -0.00407318 0.01999405
v 0.00950000 -0.00435130 0.01995000
v 0.00950000 -0.00435130 0.01315000
v 0.00950000 0.00371970 0.02012188
v 0.00950000 0.00352059 0.02032099
v 0.00950000 0.00397059 0.01999405
v 0.00950000 0.00339275 0.02057188
v 0.00950000 0.00334870 0.02085000
v 0.00950000 -0.00345130 0.02085000
v 0.00950000 -0.00349535 0.01252811
v 0.00950000 -0.00345130 0.01225000
v 0.00950000 0.00334870 0.01225000
v 0.00950000 0.00339275 0.01252811
v 0.00950000 0.00352059 0.01277900
v 0.00950000 0.00371970 0.01297811
v 0.00950000 0.00397059 0.01310595
v 0.00950000 0.00424870 0.01315000
v 0.00950000 0.00424870 0.01995000
v 0.00690000 -0.00345130 0.01225000
v 0.00690000 -0.00349535 0.01252811
v 0.00690000 -0.00362318 0.01277900
v 0.00690000 -0.00382229 0.01297811
v 0.00690000 -0.00407318 0.01310595
v 0.00690000 -0.00435130 0.01315000
v 0.00690000 -0.00435130 0.01995000
v 0.00690000 -0.00407318 0.01999405
v 0.00690000 -0.00382229 0.02012188
v 0.00690000 -0.00362318 0.02032099
v 0.00690000 -0.00349535 0.02057188
v 0.00690000 -0.00345130 0.02085000
v 0.00690000 0.00334870 0.02085000
v 0.00690000 0.00339275 0.02057188
v 0.00690000 0.00352059 0.02032099
v 0.00690000 0.00371970 0.02012188
v 0.00690000 0.00397059 0.01999405
v 0.00690000 0.00424870 0.01995000
v 0.00690000 0.00424870 0.01315000
v 0.00690000 0.00397059 0.01310595
v 0.00690000 0.00371970 0.01297811
v 0.00690000 0.00352059 0.01277900
v 0.00690000 0.00339275 0.01252811
v 0.00690000 0.00334870 0.01225000
v 0.00990000 0.00339870 0.01960000
v 0.00960000 0.00299870 0.02000000
v 0.00990000 0.00299870 0.02000000
v 0.00960000 0.00339870 0.01960000
v 0.00990000 0.00299870 0.01310000
v 0.00960000 0.00339870 0.01350000
v 0.00990000 0.00339870 0.01350000
v 0.00960000 0.00299870 0.01310000
v 0.00990000 -0.00350130 0.01350000
v 0.00960000 -0.00310130 0.01310000
v 0.00990000 -0.00310130 0.01310000
v 0.00960000 -0.00350130 0.01350000
v 0.00990000 -0.00310130 0.02000000
v 0.00960000 -0.00350130 0.01960000
v 0.00990000 -0.00350130 0.01960000
v 0.00960000 -0.00310130 0.02000000
v -0.00100000 0.00230000 0.01099832
v -0.00100000 0.00362500 0.02072832
v -0.00100000 0.00362500 0.01099832
v -0.00100000 0.00230000 0.02072832
v 0.00400000 0.00100000 0.02072832
v 0.00490000 0.00100000 0.01099832
v 0.00400000 0.00100000 0.01099832
v 0.00490000 0.00100000 0.02219832
v 0.00000000 0.00100000 0.02072832
v 0.00000000 0.00100000 0.02219832
v -0.00300000 0.00462500 0.00822832
v -0.00200000 0.00462500 0.02072832
v -0.00300000 0.00462500 0.02072832
v -0.00200000 0.00462500 0.01099832
v -0.00070836 0.00462500 0.01087178
v -0.00062584 0.00462500 0.01099832
v -0.00080000 0.00462500 0.01050000
v -0.00070836 0.00462500 0.01012822
v -0.00045445 0.00462500 0.00984161
v -0.00009643 0.00462500 0.00970583
v 0.00300000 0.00462500 0.00822832
v 0.00028369 0.00462500 0.00975199
v 0.00059881 0.00462500 0.00996950
v 0.00077676 0.00462500 0.01030855
v 0.00300000 0.00462500 0.01099832
v 0.00077676 0.00462500 0.01069145
v 0.00062585 0.00462500 0.01099832
v -0.00100000 -0.00170000 0.02219832
v -0.00100000 -0.00300000 0.01099832
v -0.00100000 -0.00300000 0.02219832
v -0.00100000 -0.00170000 0.01099832
v 0.00690000 -0.00293561 0.01155000
v 0.00790000 -0.00373561 0.01155000
v 0.00790000 -0.00293561 0.01155000
v 0.00690000 -0.00373561 0.01155000
v 0.00690000 -0.00293561 0.01100000
v 0.00790000 -0.00373561 0.01100000
v 0.00690000 -0.00373561 0.01100000
v 0.00790000 -0.00293561 0.01100000
v 0.00690000 -0.00505130 0.02033431
v 0.00690000 -0.00560130 0.02219832
v 0.00690000 -0.00560130 0.02033431
v 0.00690000 0.00293302 0.01155000
v 0.00690000 -0.00373561 0.02165000
v 0.00690000 -0.00373561 0.02219832
v 0.00690000 -0.00505130 0.01286568
v 0.00690000 -0.00560130 0.01286568
v 0.00690000 -0.00560130 0.01099832
v 0.00690000 0.00504870 0.02033431
v 0.00690000 0.00559870 0.02033431
v 0.00690000 0.00559870 0.02219832
v 0.00690000 0.00373302 0.02165000
v 0.00690000 0.00504870 0.01286568
v 0.00690000 0.00373302 0.02219832
v 0.00690000 0.00559870 0.01099832
v 0.00690000 0.00373302 0.01100000
v 0.00690000 0.00293302 0.01100000
v 0.00690000 0.00373302 0.01155000
v 0.00690000 0.00559870 0.01286568
v -0.00300000 0.00762500 0.02072832
v -0.00300000 0.00762500 0.00822832
v 0.00329290 0.00129290 0.02072832
v 0.00307612 0.00161732 0.02072832
v 0.00361732 0.00107613 0.02072832
v 0.00300000 0.00762500 0.02072832
v -0.00107612 0.00400769 0.02072832
v -0.00129289 0.00433211 0.02072832
v -0.00161731 0.00454888 0.02072832
v 0.00300000 0.00200000 0.02072832
v 0.00000000 0.00230000 0.02072832
v 0.00300000 0.00762500 0.00822832
v 0.00300000 0.00200000 0.01099832
v -0.00227000 0.00642500 0.00822832
v -0.00227000 0.00762500 0.00822832
v 0.00227000 0.00642500 0.00822832
v 0.00227000 0.00762500 0.00822832
v 0.00227000 0.00762500 0.01450000
v -0.00190964 0.00762500 0.01572725
v -0.00148653 0.00762500 0.01621555
v -0.00217805 0.00762500 0.01513953
v 0.00148654 0.00762500 0.01621555
v 0.00094300 0.00762500 0.01656486
v -0.00227000 0.00762500 0.01450000
v 0.00190965 0.00762500 0.01572725
v 0.00217805 0.00762500 0.01513953
v -0.00094299 0.00762500 0.01656486
v -0.00032305 0.00762500 0.01674689
v 0.00032306 0.00762500 0.01674689
v -0.00227000 0.00642500 0.01450000
v 0.00217805 0.00642500 0.01513953
v 0.00227000 0.00642500 0.01450000
v 0.00190965 0.00642500 0.01572725
v 0.00148654 0.00642500 0.01621555
v 0.00094300 0.00642500 0.01656486
v 0.00032306 0.00642500 0.01674689
v -0.00032305 0.00642500 0.01674689
v -0.00094299 0.00642500 0.01656486
v -0.00148653 0.00642500 0.01621555
v -0.00190964 0.00642500 0.01572725
v -0.00217805 0.00642500 0.01513953
v -0.00051125 0.00642500 0.00975931
v -0.00010848 0.00642500 0.00960656
v 0.00031915 0.00642500 0.00965848
v 0.00067366 0.00642500 0.00990319
v -0.00051125 0.00642500 0.01524069
v -0.00010848 0.00642500 0.01539344
v -0.00079691 0.00642500 0.01491825
v -0.00090000 0.00642500 0.01050000
v -0.00079691 0.00642500 0.01091825
v -0.00079691 0.00642500 0.01008175
v -0.00090000 0.00642500 0.01450000
v -0.00079691 0.00642500 0.01408175
v -0.00051125 0.00642500 0.01375931
v 0.00067366 0.00642500 0.01509681
v 0.00031915 0.00642500 0.01534151
v 0.00087385 0.00642500 0.01071538
v 0.00067366 0.00642500 0.01109681
v -0.00010848 0.00642500 0.01139344
v -0.00010848 0.00642500 0.01360656
v -0.00051125 0.00642500 0.01124069
v 0.00087385 0.00642500 0.01471538
v 0.00087385 0.00642500 0.01028462
v 0.00087385 0.00642500 0.01428462
v 0.00067366 0.00642500 0.01390319
v 0.00031915 0.00642500 0.01365849
v 0.00031915 0.00642500 0.01134151
v 0.00490000 -0.00300000 0.02219832
v 0.00490000 -0.00300000 0.01099832
v 0.00000000 -0.00170000 0.02219832
v 0.00528269 -0.00307612 0.02219832
v 0.00528269 0.00107613 0.02219832
v 0.00790000 -0.00373561 0.02219832
v 0.00560711 0.00129290 0.02219832
v 0.00582388 0.00161732 0.02219832
v 0.00590000 0.00200000 0.02219832
v 0.00590000 0.00559870 0.02219832
v 0.00790000 0.00373302 0.02219832
v 0.00560711 -0.00329289 0.02219832
v 0.00582388 -0.00361731 0.02219832
v 0.00590000 -0.00560130 0.02219832
v 0.00590000 -0.00400000 0.02219832
v -0.00009643 0.00632500 0.01529417
v -0.00009643 0.00462500 0.01529417
v -0.00045445 0.00462500 0.01515839
v 0.00000000 0.00462500 0.01530000
v 0.00028369 0.00632500 0.01524801
v 0.00028369 0.00462500 0.01524801
v 0.00059881 0.00632500 0.01503050
v 0.00059881 0.00462500 0.01503050
v 0.00077676 0.00632500 0.01469145
v 0.00077676 0.00462500 0.01469145
v 0.00077676 0.00632500 0.01430855
v 0.00077676 0.00462500 0.01430855
v 0.00059881 0.00632500 0.01396950
v 0.00059881 0.00462500 0.01396950
v 0.00028369 0.00632500 0.01375199
v 0.00028369 0.00462500 0.01375199
v -0.00009643 0.00632500 0.01370583
v -0.00009643 0.00462500 0.01370583
v -0.00045445 0.00632500 0.01384161
v -0.00045445 0.00462500 0.01384161
v -0.00070836 0.00632500 0.01412822
v -0.00070836 0.00462500 0.01412822
v -0.00080000 0.00632500 0.01450000
v -0.00080000 0.00462500 0.01450000
v -0.00070836 0.00632500 0.01487178
v -0.00070836 0.00462500 0.01487178
v -0.00045445 0.00632500 0.01515839
v -0.00045445 0.00632500 0.01115839
v -0.00070836 0.00632500 0.01087178
v -0.00045445 0.00462500 0.01115839
v -0.00009643 0.00632500 0.01129417
v -0.00009643 0.00462500 0.01129417
v 0.00028369 0.00632500 0.01124801
v 0.00028369 0.00462500 0.01124801
v 0.00059881 0.00632500 0.01103050
v 0.00059881 0.00462500 0.01103050
v 0.00077676 0.00632500 0.01069145
v 0.00077676 0.00632500 0.01030855
v 0.00059881 0.00632500 0.00996950
v 0.00028369 0.00632500 0.00975199
v -0.00009643 0.00632500 0.00970583
v -0.00045445 0.00632500 0.00984161
v -0.00070836 0.00632500 0.01012822
v -0.00080000 0.00632500 0.01050000
v 0.00000000 -0.00170000 0.01099832
v 0.00528269 -0.00307612 0.01099832
v 0.00560711 0.00129290 0.01099832
v 0.00582388 0.00161732 0.01099832
v 0.00000000 0.00230000 0.01099832
v -0.00107612 0.00400769 0.01099832
v -0.00129289 0.00433211 0.01099832
v -0.00161731 0.00454888 0.01099832
v 0.00560711 -0.00329289 0.01099832
v 0.00582388 -0.00361731 0.01099832
v 0.00590000 -0.00400000 0.01099832
v 0.00590000 -0.00560130 0.01099832
v 0.00590000 0.00200000 0.01099832
v 0.00590000 0.00559870 0.01099832
v 0.00361732 0.00107613 0.01099832
v 0.00528269 0.00107613 0.01099832
v 0.00329290 0.00129290 0.01099832
v 0.00307612 0.00161732 0.01099832
v 0.00790000 0.00559870 0.02033431
v 0.00790000 0.00559870 0.01286568
v 0.00790000 -0.00560130 0.01286568
v 0.00790000 -0.00560130 0.02033431
v 0.00790000 0.00504870 0.01286568
v 0.00790000 0.00504870 0.02033431
v 0.00790000 0.00373302 0.02165000
v 0.00790000 -0.00373561 0.02165000
v 0.00790000 0.00293302 0.01155000
v 0.00790000 0.00373302 0.01155000
v 0.00790000 0.00373302 0.01100000
v 0.00790000 0.00293302 0.01100000
v 0.00000000 0.00462500 0.01450000
v 0.00000000 0.00050706 0.01742558
v 0.00000000 0.00070000 0.01750550
v 0.00000000 0.00030000 0.01219832
v 0.00000000 0.00009295 0.01222558
v 0.00000000 -0.00039282 0.01859832
v 0.00000000 -0.00026568 0.01876400
v 0.00000000 -0.00010000 0.01889114
v 0.00000000 0.00009295 0.01897106
v 0.00000000 0.00107275 0.01799126
v 0.00000000 -0.00010000 0.01230550
v 0.00000000 -0.00026568 0.01243263
v 0.00000000 -0.00039282 0.01259832
v 0.00000000 0.00030000 0.01899832
v 0.00000000 0.00050706 0.01897106
v 0.00000000 0.00070000 0.01889114
v 0.00000000 0.00086569 0.01876400
v 0.00000000 0.00099283 0.01859832
v 0.00000000 0.00099283 0.01779832
v 0.00000000 0.00086569 0.01763263
v 0.00000000 -0.00010000 0.01369114
v 0.00000000 -0.00026568 0.01356400
v 0.00000000 0.00030000 0.01739832
v 0.00000000 -0.00047274 0.01279126
v 0.00000000 -0.00050000 0.01299832
v 0.00000000 -0.00047274 0.01320537
v 0.00000000 -0.00026568 0.01763263
v 0.00000000 -0.00010000 0.01750550
v 0.00000000 -0.00039282 0.01779832
v 0.00000000 -0.00047274 0.01799126
v 0.00000000 -0.00050000 0.01819832
v 0.00000000 -0.00047274 0.01840537
v 0.00000000 0.00107275 0.01840537
v 0.00000000 0.00110000 0.01819832
v 0.00000000 0.00009295 0.01742558
v 0.00000000 -0.00039282 0.01339832
v 0.00000000 0.00086569 0.01356400
v 0.00000000 0.00070000 0.01369114
v 0.00000000 0.00009295 0.01377106
v 0.00000000 0.00030000 0.01379832
v 0.00000000 0.00050706 0.01377106
v 0.00000000 0.00099283 0.01339832
v 0.00000000 0.00107275 0.01320537
v 0.00000000 0.00110000 0.01299832
v 0.00000000 0.00107275 0.01279126
v 0.00000000 0.00099283 0.01259832
v 0.00000000 0.00086569 0.01243263
v 0.00000000 0.00070000 0.01230550
v 0.00000000 0.00050706 0.01222558
v 0.00300000 -0.00001250 0.01765705
v 0.00300000 -0.00024126 0.01788582
v 0.00337554 0.00030000 0.01819832
v 0.00300000 -0.00032500 0.01819832
v 0.00300000 0.00084127 0.01788582
v 0.00300000 0.00061250 0.01765705
v 0.00300000 0.00030000 0.01757332
v 0.00300000 0.00061250 0.01873958
v 0.00300000 0.00084127 0.01851082
v 0.00300000 0.00092500 0.01819832
v 0.00300000 -0.00024126 0.01851082
v 0.00300000 -0.00001250 0.01873958
v 0.00300000 0.00030000 0.01882332
v 0.00017500 -0.00030370 0.01803656
v 0.00017500 -0.00024126 0.01788582
v 0.00017500 -0.00014194 0.01775638
v 0.00017500 -0.00001250 0.01765705
v 0.00017500 0.00013824 0.01759461
v 0.00017500 0.00030000 0.01757332
v 0.00017500 0.00046177 0.01759461
v 0.00017500 0.00061250 0.01765705
v 0.00017500 0.00074195 0.01775638
v 0.00017500 0.00084127 0.01788582
v 0.00017500 0.00090371 0.01803656
v 0.00017500 0.00092500 0.01819832
v 0.00017500 0.00090371 0.01836008
v 0.00017500 0.00084127 0.01851082
v 0.00017500 0.00074195 0.01864026
v 0.00017500 0.00061250 0.01873958
v 0.00017500 0.00046177 0.01880202
v 0.00017500 0.00030000 0.01882332
v 0.00017500 0.00013824 0.01880202
v 0.00017500 -0.00001250 0.01873958
v 0.00017500 -0.00014194 0.01864026
v 0.00017500 -0.00024126 0.01851082
v 0.00017500 -0.00030370 0.01836008
v 0.00017500 -0.00032500 0.01819832
v 0.00300000 -0.00001250 0.01245705
v 0.00300000 -0.00024126 0.01268582
v 0.00337554 0.00030000 0.01299832
v 0.00300000 -0.00032500 0.01299832
v 0.00300000 0.00084127 0.01268582
v 0.00300000 0.00061250 0.01245705
v 0.00300000 0.00030000 0.01237332
v 0.00300000 0.00061250 0.01353958
v 0.00300000 0.00084127 0.01331082
v 0.00300000 0.00092500 0.01299832
v 0.00300000 -0.00024126 0.01331082
v 0.00300000 -0.00001250 0.01353958
v 0.00300000 0.00030000 0.01362332
v 0.00017500 -0.00030370 0.01283656
v 0.00017500 -0.00024126 0.01268582
v 0.00017500 -0.00014194 0.01255638
v 0.00017500 -0.00001250 0.01245705
v 0.00017500 0.00013824 0.01239461
v 0.00017500 0.00030000 0.01237332
v 0.00017500 0.00046177 0.01239461
v 0.00017500 0.00061250 0.01245705
v 0.00017500 0.00074195 0.01255638
v 0.00017500 0.00084127 0.01268582
v 0.00017500 0.00090371 0.01283656
v 0.00017500 0.00092500 0.01299832
v 0.00017500 0.00090371 0.01316008
v 0.00017500 0.00084127 0.01331082
v 0.00017500 0.00074195 0.01344026
v 0.00017500 0.00061250 0.01353958
v 0.00017500 0.00046177 0.01360202
v 0.00017500 0.00030000 0.01362332
v 0.00017500 0.00013824 0.01360202
v 0.00017500 -0.00001250 0.01353958
v 0.00017500 -0.00014194 0.01344026
v 0.00017500 -0.00024126 0.01331082
v 0.00017500 -0.00030370 0.01316008
v 0.00017500 -0.00032500 0.01299832
v 0.00790000 -0.00505130 0.02033431
v 0.00790000 -0.00505130 0.01286568
f 1 2 3
f 4 1 3
f 5 1 4
f 6 5 4
f 7 5 6
f 8 7 6
f 9 7 8
f 10 9 8
f 11 9 10
f 12 11 10
f 13 11 12
f 14 13 12
f 15 13 14
f 16 15 14
f 17 15 16
f 18 17 16
f 19 17 18
f 20 19 18
f 21 19 20
f 22 21 20
f 23 21 22
f 24 23 22
f 25 24 26
f 23 24 25
f 2 27 3
f 28 27 2
f 29 30 31
f 32 30 29
f 33 32 29
f 34 32 33
f 35 34 33
f 36 34 35
f 37 36 35
f 38 36 37
f 39 38 37
f 40 38 39
f 41 40 39
f 42 40 41
f 43 42 41
f 44 42 43
f 45 44 43
f 46 44 45
f 47 46 45
f 48 46 47
f 49 48 47
f 50 48 49
f 51 50 49
f 52 50 51
f 53 52 51
f 54 52 53
f 55 54 53
f 56 54 55
f 57 56 55
f 58 56 57
f 58 57 59
f 60 31 30
f 61 31 60
f 62 61 60
f 63 61 62
f 64 63 62
f 65 63 64
f 66 65 64
f 67 65 66
f 68 67 66
f 69 67 68
f 70 69 68
f 71 69 70
f 72 71 70
f 73 71 72
f 74 73 72
f 75 73 74
f 76 75 74
f 77 75 76
f 78 77 76
f 79 77 78
f 80 79 78
f 81 79 80
f 82 81 80
f 83 81 82
f 84 83 82
f 59 83 84
f 85 59 84
f 58 59 85
f 25 86 87
f 88 86 25
f 89 90 91
f 25 92 88
f 93 92 25
f 94 93 25
f 94 95 96
f 97 98 99
f 91 98 97
f 100 101 28
f 102 103 104
f 105 103 102
f 106 103 105
f 107 106 105
f 108 106 107
f 109 106 108
f 110 109 108
f 111 109 110
f 112 109 111
f 113 112 111
f 91 25 98
f 94 25 91
f 90 94 91
f 95 94 90
f 91 114 89
f 115 114 91
f 116 115 91
f 117 115 116
f 117 118 119
f 120 118 117
f 116 120 117
f 121 122 98
f 28 123 100
f 124 123 28
f 2 124 28
f 104 125 102
f 126 125 104
f 127 126 104
f 98 128 99
f 129 128 98
f 122 129 98
f 86 130 131
f 132 130 86
f 88 132 86
f 2 133 134
f 135 133 2
f 1 135 2
f 136 135 1
f 137 25 87
f 23 25 137
f 138 23 137
f 139 140 141
f 127 142 126
f 143 142 127
f 139 143 127
f 144 143 139
f 141 144 139
f 145 112 113
f 146 112 145
f 147 146 145
f 121 148 149
f 150 148 121
f 98 150 121
f 2 151 124
f 152 151 2
f 134 152 2
f 131 152 134
f 153 131 134
f 86 131 153
f 140 154 141
f 155 154 140
f 119 155 140
f 156 155 119
f 118 156 119
f 94 28 101
f 157 28 94
f 96 157 94
f 158 9 159
f 7 9 158
f 136 7 158
f 5 7 136
f 1 5 136
f 159 13 160
f 11 13 159
f 9 11 159
f 138 21 23
f 19 21 138
f 161 19 138
f 17 19 161
f 160 17 161
f 15 17 160
f 13 15 160
f 162 146 147
f 163 146 162
f 28 163 162
f 164 163 28
f 157 164 28
f 165 166 26
f 167 168 166
f 169 168 167
f 170 169 167
f 171 3 172
f 173 3 171
f 174 175 27
f 176 175 174
f 177 80 78
f 176 178 179
f 180 178 176
f 174 180 176
f 166 181 182
f 183 181 166
f 168 183 166
f 3 184 172
f 185 184 3
f 27 185 3
f 186 185 27
f 175 186 27
f 85 84 187
f 179 188 189
f 190 188 179
f 178 190 179
f 189 191 192
f 193 191 189
f 188 193 189
f 166 194 26
f 195 194 166
f 196 195 166
f 197 80 177
f 82 80 197
f 84 82 197
f 192 198 199
f 200 198 192
f 191 200 192
f 201 202 203
f 204 202 201
f 199 204 201
f 205 204 199
f 198 205 199
f 166 206 196
f 207 206 166
f 182 207 166
f 76 177 78
f 173 177 76
f 74 173 76
f 3 173 74
f 72 3 74
f 175 208 186
f 209 208 175
f 210 209 175
f 4 66 6
f 68 66 4
f 3 68 4
f 70 68 3
f 72 70 3
f 170 211 169
f 212 211 170
f 213 212 170
f 54 214 52
f 215 214 54
f 56 215 54
f 26 216 165
f 217 216 26
f 218 217 26
f 40 20 18
f 203 219 220
f 221 219 203
f 202 221 203
f 213 222 212
f 223 222 213
f 224 223 213
f 218 225 226
f 227 225 218
f 26 227 218
f 228 227 26
f 24 228 26
f 229 228 24
f 218 230 231
f 232 230 218
f 226 232 218
f 224 233 223
f 234 233 224
f 235 234 224
f 42 20 40
f 22 20 42
f 44 22 42
f 24 22 44
f 46 24 44
f 229 24 46
f 48 229 46
f 18 38 40
f 36 38 18
f 16 36 18
f 34 36 16
f 14 34 16
f 32 34 14
f 12 32 14
f 30 32 12
f 10 30 12
f 60 30 10
f 8 60 10
f 62 60 8
f 6 62 8
f 64 62 6
f 66 64 6
f 235 236 234
f 237 236 235
f 220 237 235
f 238 237 220
f 219 238 220
f 215 85 187
f 58 85 215
f 56 58 215
f 50 229 48
f 239 229 50
f 52 239 50
f 240 239 52
f 214 240 52
f 175 241 210
f 242 241 175
f 243 242 175
f 244 242 243
f 218 244 243
f 245 244 218
f 231 245 218
f 231 246 245
f 247 246 231
f 230 247 231
f 248 247 230
f 232 248 230
f 249 248 232
f 226 249 232
f 250 249 226
f 225 250 226
f 251 250 225
f 227 251 225
f 252 251 227
f 228 252 227
f 253 252 228
f 229 253 228
f 254 253 229
f 239 254 229
f 255 254 239
f 240 255 239
f 256 255 240
f 214 256 240
f 257 256 214
f 215 257 214
f 258 257 215
f 187 258 215
f 259 258 187
f 84 259 187
f 260 259 84
f 197 260 84
f 261 245 246
f 244 245 261
f 262 244 261
f 242 244 262
f 263 242 262
f 241 242 263
f 264 241 263
f 210 241 264
f 265 210 264
f 209 210 265
f 266 209 265
f 208 209 266
f 267 208 266
f 186 208 267
f 268 186 267
f 185 186 268
f 269 185 268
f 184 185 269
f 270 184 269
f 172 184 270
f 271 172 270
f 171 172 271
f 272 171 271
f 173 171 272
f 273 173 272
f 177 173 273
f 260 177 273
f 197 177 260
f 130 259 131
f 258 259 130
f 132 258 130
f 257 258 132
f 132 256 257
f 255 256 132
f 88 255 132
f 254 255 88
f 92 254 88
f 253 254 92
f 92 252 253
f 251 252 92
f 93 251 92
f 249 94 248
f 93 94 249
f 250 93 249
f 251 93 250
f 94 247 248
f 246 247 94
f 101 246 94
f 261 246 101
f 101 262 261
f 263 262 101
f 100 263 101
f 100 264 263
f 265 264 100
f 123 265 100
f 123 266 265
f 267 266 123
f 124 267 123
f 124 268 267
f 269 268 124
f 151 269 124
f 151 270 269
f 271 270 151
f 152 271 151
f 152 272 271
f 273 272 152
f 131 273 152
f 260 273 131
f 259 260 131
f 161 33 160
f 35 33 161
f 161 37 35
f 39 37 161
f 138 39 161
f 41 39 138
f 137 41 138
f 137 43 41
f 45 43 137
f 87 45 137
f 47 45 87
f 51 86 53
f 87 86 51
f 49 87 51
f 47 87 49
f 86 55 53
f 57 55 86
f 153 57 86
f 59 57 153
f 153 83 59
f 81 83 153
f 134 81 153
f 134 79 81
f 77 79 134
f 133 77 134
f 133 75 77
f 73 75 133
f 135 73 133
f 71 73 135
f 136 71 135
f 69 71 136
f 136 67 69
f 65 67 136
f 158 65 136
f 158 63 65
f 61 63 158
f 159 61 158
f 31 61 159
f 160 31 159
f 29 31 160
f 33 29 160
f 27 28 162
f 162 174 27
f 180 174 162
f 147 180 162
f 178 180 147
f 145 178 147
f 190 178 145
f 113 190 145
f 188 190 113
f 111 188 113
f 193 188 111
f 110 193 111
f 191 193 110
f 108 191 110
f 200 191 108
f 107 200 108
f 198 200 107
f 105 198 107
f 205 198 105
f 102 205 105
f 204 205 102
f 125 204 102
f 202 204 125
f 126 202 125
f 221 202 126
f 142 221 126
f 219 221 142
f 143 219 142
f 238 219 143
f 144 238 143
f 237 238 144
f 141 237 144
f 236 237 141
f 154 236 141
f 25 26 194
f 194 98 25
f 150 98 194
f 195 150 194
f 148 150 195
f 196 148 195
f 149 148 196
f 206 149 196
f 121 149 206
f 207 121 206
f 122 121 207
f 182 122 207
f 129 122 182
f 181 129 182
f 128 129 181
f 183 128 181
f 99 128 183
f 168 99 183
f 97 99 168
f 169 97 168
f 91 97 169
f 211 91 169
f 116 91 211
f 212 116 211
f 120 116 212
f 222 120 212
f 118 120 222
f 223 118 222
f 156 118 223
f 233 156 223
f 155 156 233
f 234 155 233
f 154 155 234
f 236 154 234
f 139 235 140
f 220 235 139
f 127 220 139
f 203 220 127
f 104 203 127
f 201 203 104
f 103 201 104
f 199 201 103
f 106 199 103
f 192 199 106
f 109 192 106
f 189 192 109
f 112 189 109
f 179 189 112
f 146 179 112
f 176 179 146
f 163 176 146
f 175 176 163
f 164 175 163
f 243 175 164
f 157 243 164
f 218 243 157
f 96 218 157
f 217 218 96
f 95 217 96
f 216 217 95
f 90 216 95
f 165 216 90
f 89 165 90
f 166 165 89
f 114 166 89
f 167 166 114
f 115 167 114
f 170 167 115
f 117 170 115
f 213 170 117
f 119 213 117
f 224 213 119
f 140 224 119
f 235 224 140
f 274 275 276
f 277 275 274
f 278 279 280
f 281 279 278
f 282 283 284
f 285 283 282
f 286 287 288
f 289 287 286
f 287 285 282
f 289 285 287
f 280 274 276
f 279 274 280
f 290 291 292
f 293 291 290
f 294 293 290
f 295 293 294
f 296 295 294
f 297 295 296
f 298 299 300
f 301 299 298
f 302 301 298
f 303 301 302
f 304 303 302
f 305 303 304
f 304 291 305
f 292 291 304
f 286 300 299
f 306 300 286
f 288 306 286
f 307 306 288
f 277 308 275
f 309 308 277
f 297 309 277
f 296 309 297
f 285 303 305
f 291 285 305
f 283 285 291
f 293 283 291
f 299 289 286
f 285 289 299
f 301 285 299
f 303 285 301
f 297 274 279
f 277 274 297
f 283 310 311
f 281 310 283
f 293 281 283
f 279 281 293
f 295 279 293
f 297 279 295
f 312 313 314
f 315 316 317
f 314 316 315
f 318 314 315
f 312 314 318
f 319 320 321
f 322 319 321
f 319 323 324
f 325 323 319
f 322 325 319
f 324 313 319
f 314 313 324
f 323 314 324
f 316 314 323
f 325 316 323
f 317 316 325
f 322 317 325
f 315 317 322
f 321 315 322
f 318 315 321
f 320 318 321
f 312 318 320
f 326 327 328
f 329 330 331
f 328 330 329
f 332 328 329
f 326 328 332
f 333 334 335
f 336 335 337
f 333 335 336
f 338 333 336
f 339 333 338
f 333 329 334
f 332 329 333
f 339 332 333
f 326 332 339
f 338 326 339
f 327 326 338
f 336 327 338
f 328 327 336
f 337 328 336
f 330 328 337
f 335 330 337
f 331 330 335
f 340 341 342
f 343 341 340
f 344 343 340
f 345 343 344
f 346 345 344
f 347 345 346
f 348 347 346
f 349 347 348
f 350 349 348
f 351 349 350
f 352 353 354
f 355 353 352
f 356 355 352
f 357 355 356
f 358 357 356
f 359 357 358
f 360 359 358
f 361 359 360
f 362 361 360
f 363 361 362
f 364 365 366
f 367 365 364
f 368 367 364
f 369 367 368
f 370 369 368
f 371 369 370
f 372 371 370
f 373 371 372
f 374 373 372
f 375 373 374
f 376 377 378
f 379 377 376
f 380 379 376
f 381 379 380
f 382 381 380
f 383 381 382
f 384 383 382
f 385 383 384
f 386 385 384
f 387 385 386
f 282 368 364
f 372 388 374
f 284 388 372
f 342 307 288
f 284 368 282
f 370 368 284
f 372 370 284
f 288 340 342
f 344 340 288
f 287 344 288
f 346 344 287
f 287 348 346
f 350 348 287
f 282 350 287
f 366 350 282
f 364 366 282
f 363 377 379
f 349 298 300
f 300 347 349
f 345 347 300
f 306 345 300
f 343 345 306
f 341 343 306
f 385 296 383
f 309 296 385
f 387 309 385
f 296 381 383
f 379 381 296
f 294 379 296
f 363 379 294
f 361 373 359
f 292 373 361
f 363 292 361
f 290 292 363
f 294 290 363
f 355 375 353
f 373 375 355
f 357 373 355
f 359 373 357
f 292 371 373
f 369 371 292
f 304 369 292
f 367 369 304
f 302 367 304
f 365 367 302
f 298 365 302
f 351 365 298
f 349 351 298
f 311 374 388
f 375 374 311
f 310 375 311
f 353 375 310
f 389 353 310
f 354 353 389
f 307 341 306
f 342 341 307
f 312 365 313
f 366 365 312
f 320 366 312
f 350 366 320
f 319 350 320
f 351 350 319
f 313 351 319
f 365 351 313
f 329 378 334
f 362 378 329
f 331 362 329
f 363 362 331
f 335 363 331
f 377 363 335
f 334 377 335
f 378 377 334
f 362 276 378
f 280 276 362
f 360 280 362
f 354 389 278
f 276 376 378
f 380 376 276
f 275 380 276
f 278 352 354
f 356 352 278
f 280 356 278
f 358 356 280
f 360 358 280
f 384 308 386
f 275 308 384
f 382 275 384
f 380 275 382
f 309 386 308
f 387 386 309
f 278 310 281
f 389 310 278
f 283 388 284
f 311 388 283
f 390 391 392
f 393 391 390
f 394 393 390
f 395 393 394
f 396 395 394
f 397 395 396
f 398 397 396
f 399 397 398
f 400 399 398
f 401 399 400
f 402 403 404
f 405 403 402
f 406 405 402
f 407 405 406
f 408 407 406
f 409 407 408
f 410 409 408
f 411 409 410
f 412 411 410
f 413 411 412
f 414 415 416
f 417 415 414
f 418 417 414
f 419 417 418
f 420 419 418
f 421 419 420
f 422 421 420
f 423 421 422
f 424 423 422
f 425 423 424
f 426 427 428
f 429 427 426
f 430 429 426
f 431 429 430
f 432 431 430
f 433 431 432
f 434 433 432
f 435 433 434
f 436 435 434
f 437 435 436
f 424 427 425
f 428 427 424
f 403 436 404
f 437 436 403
f 415 400 416
f 401 400 415
f 438 439 440
f 441 439 438
f 442 439 441
f 443 439 442
f 443 440 439
f 444 440 443
f 444 438 440
f 445 438 444
f 445 441 438
f 442 441 445
f 446 447 448
f 449 447 446
f 450 446 448
f 451 446 450
f 452 448 447
f 450 448 452
f 453 447 449
f 452 447 453
f 451 449 446
f 453 449 451
f 428 424 422
f 434 408 406
f 434 410 408
f 412 410 434
f 432 412 434
f 392 412 432
f 434 404 436
f 402 404 434
f 406 402 434
f 396 426 428
f 430 426 396
f 394 430 396
f 432 430 394
f 390 432 394
f 392 432 390
f 398 416 400
f 414 416 398
f 396 414 398
f 418 414 396
f 428 418 396
f 420 418 428
f 422 420 428
f 454 455 456
f 457 455 454
f 458 455 457
f 459 455 458
f 459 456 455
f 460 456 459
f 460 454 456
f 461 454 460
f 392 391 458
f 461 413 412
f 392 461 412
f 458 461 392
f 450 461 458
f 457 450 458
f 451 450 457
f 454 451 457
f 453 451 454
f 461 453 454
f 452 453 461
f 450 452 461
f 459 399 401
f 459 445 460
f 442 445 459
f 460 407 409
f 459 397 399
f 395 397 459
f 458 395 459
f 393 395 458
f 391 393 458
f 427 444 443
f 411 460 409
f 461 460 411
f 413 461 411
f 443 425 427
f 423 425 443
f 442 423 443
f 421 423 442
f 442 419 421
f 417 419 442
f 459 417 442
f 415 417 459
f 401 415 459
f 460 405 407
f 403 405 460
f 445 403 460
f 437 403 445
f 435 437 445
f 445 433 435
f 431 433 445
f 444 431 445
f 429 431 444
f 427 429 444
f 462 463 464
f 465 463 462
f 466 467 468
f 469 467 466
f 470 471 472
f 473 471 470
f 474 475 476
f 477 475 474
f 478 479 480
f 481 478 480
f 482 478 481
f 483 482 481
f 484 482 483
f 485 484 483
f 486 480 479
f 487 486 479
f 488 486 487
f 489 488 487
f 490 488 489
f 491 490 489
f 484 478 482
f 479 478 484
f 484 487 479
f 489 487 484
f 491 489 484
f 480 486 488
f 485 488 490
f 480 488 485
f 483 480 485
f 481 480 483
f 492 493 494
f 495 492 494
f 496 492 495
f 497 496 495
f 498 496 497
f 499 498 497
f 500 494 493
f 501 500 493
f 502 500 501
f 503 502 501
f 504 502 503
f 505 504 503
f 499 497 495
f 502 494 500
f 495 494 502
f 504 495 502
f 499 495 504
f 501 493 492
f 505 496 498
f 492 496 505
f 503 492 505
f 501 492 503
f 506 507 508
f 509 507 506
f 509 510 507
f 511 510 509
f 511 512 510
f 513 512 511
f 514 515 516
f 517 515 514
f 518 519 520
f 521 519 518
f 522 523 524
f 525 523 522
f 526 527 528
f 529 527 526
f 470 475 477
f 472 475 470
f 474 463 465
f 476 463 474
f 462 467 469
f 464 467 462
f 466 471 473
f 468 471 466
f 530 463 531
f 464 463 530
f 532 464 530
f 533 467 534
f 468 467 533
f 535 468 533
f 467 536 534
f 537 536 467
f 464 537 467
f 538 537 464
f 532 538 464
f 539 471 540
f 472 471 539
f 541 472 539
f 471 542 540
f 543 542 471
f 468 543 471
f 544 543 468
f 535 544 468
f 463 545 531
f 546 545 463
f 476 546 463
f 547 546 476
f 476 548 547
f 549 548 476
f 475 549 476
f 550 549 475
f 475 551 550
f 552 551 475
f 472 552 475
f 553 552 472
f 541 553 472
f 545 546 554
f 555 545 554
f 531 545 555
f 556 531 555
f 530 531 556
f 557 530 556
f 532 530 557
f 558 532 557
f 538 532 558
f 559 538 558
f 536 537 560
f 561 536 560
f 534 536 561
f 562 534 561
f 533 534 562
f 563 533 562
f 535 533 563
f 564 535 563
f 544 535 564
f 565 544 564
f 542 543 566
f 567 542 566
f 540 542 567
f 568 540 567
f 539 540 568
f 569 539 568
f 541 539 569
f 570 541 569
f 553 541 570
f 571 553 570
f 551 552 572
f 573 551 572
f 550 551 573
f 574 550 573
f 549 550 574
f 575 549 574
f 548 549 575
f 576 548 575
f 547 548 576
f 577 547 576
f 485 538 484
f 537 538 485
f 490 537 485
f 560 537 490
f 491 560 490
f 559 560 491
f 484 559 491
f 538 559 484
f 543 565 566
f 544 565 543
f 511 577 513
f 547 577 511
f 509 547 511
f 546 547 509
f 506 546 509
f 554 546 506
f 506 508 527
f 527 554 506
f 555 554 527
f 556 555 527
f 527 557 556
f 558 557 527
f 529 558 527
f 559 558 529
f 523 559 529
f 523 560 559
f 561 560 523
f 562 561 523
f 523 563 562
f 564 563 523
f 525 564 523
f 565 564 525
f 519 565 525
f 519 566 565
f 567 566 519
f 568 567 519
f 574 573 515
f 519 569 568
f 570 569 519
f 521 570 519
f 571 570 521
f 515 571 521
f 572 571 515
f 573 572 515
f 577 512 513
f 517 512 577
f 576 517 577
f 515 517 576
f 575 515 576
f 574 515 575
f 516 521 518
f 515 521 516
f 520 525 522
f 519 525 520
f 524 529 526
f 523 529 524
f 507 527 508
f 528 527 507
f 510 528 507
f 514 528 510
f 512 514 510
f 517 514 512
f 504 552 499
f 572 552 504
f 505 572 504
f 571 572 505
f 498 571 505
f 553 571 498
f 499 553 498
f 552 553 499
f 474 516 477
f 514 516 474
f 465 514 474
f 528 514 465
f 462 528 465
f 526 528 462
f 469 526 462
f 524 526 469
f 466 524 469
f 522 524 466
f 473 522 466
f 520 522 473
f 470 520 473
f 518 520 470
f 477 518 470
f 516 518 477
f 578 579 580
f 581 579 578
f 582 583 584
f 585 583 582
f 586 587 588
f 589 587 586
f 590 591 592
f 593 591 590
f 591 587 589
f 585 587 591
f 593 585 591
f 583 585 593
f 579 583 593
f 581 583 579
f 592 589 586
f 591 589 592
f 580 593 590
f 579 593 580
f 584 581 578
f 583 581 584
f 588 585 582
f 587 585 588
f 590 592 586
f 584 588 582
f 586 588 584
f 578 586 584
f 590 586 578
f 580 590 578
f 594 595 596
f 597 595 594
f 598 599 600
f 601 599 598
f 602 601 598
f 603 601 602
f 604 605 606
f 607 605 604
f 607 608 609
f 610 608 607
f 604 610 607
f 611 610 604
f 604 612 611
f 613 612 604
f 614 613 604
f 615 613 614
f 614 616 615
f 617 616 614
f 618 617 614
f 619 617 618
f 620 619 618
f 621 622 623
f 624 622 621
f 625 626 627
f 628 626 625
f 629 630 631
f 632 630 629
f 627 630 632
f 626 630 627
f 633 634 635
f 636 634 633
f 637 638 634
f 639 640 641
f 631 641 629
f 639 641 631
f 628 639 631
f 625 639 628
f 642 643 644
f 642 645 646
f 647 645 642
f 644 647 642
f 648 649 650
f 636 637 634
f 645 637 636
f 651 645 636
f 646 645 651
f 649 646 651
f 652 646 649
f 648 652 649
f 650 641 648
f 629 641 650
f 636 629 650
f 625 629 636
f 633 625 636
f 639 625 633
f 653 604 606
f 654 604 653
f 602 655 656
f 657 655 602
f 598 657 602
f 658 659 595
f 658 660 659
f 661 660 658
f 653 661 658
f 605 661 653
f 606 605 653
f 662 602 656
f 663 602 662
f 658 663 662
f 597 663 658
f 595 597 658
f 618 614 664
f 618 662 665
f 658 662 618
f 664 658 618
f 666 654 667
f 604 654 666
f 668 604 666
f 614 604 668
f 669 614 668
f 664 614 669
f 670 664 669
f 658 664 670
f 671 653 672
f 673 653 671
f 658 674 675
f 676 653 673
f 654 653 676
f 667 654 676
f 658 677 674
f 678 677 658
f 670 678 658
f 653 679 672
f 680 679 653
f 658 680 653
f 681 680 658
f 675 681 658
f 667 682 666
f 676 682 667
f 683 670 684
f 678 670 683
f 685 678 683
f 677 678 685
f 686 677 685
f 674 677 686
f 687 674 686
f 675 674 687
f 688 675 687
f 681 675 688
f 689 681 688
f 680 681 689
f 690 680 689
f 679 680 690
f 691 679 690
f 672 679 691
f 692 672 691
f 671 672 692
f 693 671 692
f 673 671 693
f 682 673 693
f 676 673 682
f 670 668 684
f 669 668 670
f 694 695 666
f 696 666 695
f 668 666 696
f 697 668 696
f 698 690 699
f 691 690 698
f 700 691 698
f 701 682 702
f 666 682 701
f 703 666 701
f 694 666 703
f 700 692 691
f 693 692 700
f 704 693 700
f 682 693 704
f 705 682 704
f 706 682 705
f 686 707 708
f 709 710 684
f 711 706 712
f 682 706 711
f 713 682 711
f 702 682 713
f 685 707 686
f 714 707 685
f 683 714 685
f 668 709 684
f 715 709 668
f 697 715 668
f 708 687 686
f 688 687 708
f 699 688 708
f 689 688 699
f 690 689 699
f 684 714 683
f 716 714 684
f 710 716 684
f 717 716 710
f 718 717 710
f 718 711 712
f 719 711 718
f 710 719 718
f 720 622 721
f 623 622 720
f 720 621 623
f 722 621 720
f 723 722 720
f 638 601 603
f 724 601 638
f 725 724 638
f 726 724 725
f 727 726 725
f 728 644 729
f 647 644 728
f 727 647 728
f 730 647 727
f 725 730 727
f 638 731 732
f 723 731 638
f 603 723 638
f 722 723 603
f 638 733 634
f 734 733 638
f 732 734 638
f 735 736 737
f 738 736 735
f 739 738 735
f 740 738 739
f 741 740 739
f 742 740 741
f 743 742 741
f 744 742 743
f 745 744 743
f 746 744 745
f 747 746 745
f 748 746 747
f 749 748 747
f 750 748 749
f 751 750 749
f 752 750 751
f 753 752 751
f 754 752 753
f 755 754 753
f 756 754 755
f 757 756 755
f 758 756 757
f 759 758 757
f 760 758 759
f 761 760 759
f 737 760 761
f 735 737 761
f 753 705 755
f 706 705 753
f 751 706 753
f 712 706 751
f 749 712 751
f 718 712 749
f 747 718 749
f 717 718 747
f 745 717 747
f 716 717 745
f 743 716 745
f 714 716 743
f 741 714 743
f 707 714 741
f 739 707 741
f 708 707 739
f 735 708 739
f 699 708 735
f 761 699 735
f 698 699 761
f 759 698 761
f 700 698 759
f 757 700 759
f 704 700 757
f 755 704 757
f 705 704 755
f 762 609 763
f 764 609 762
f 765 764 762
f 766 764 765
f 767 766 765
f 768 766 767
f 769 768 767
f 769 770 768
f 620 770 769
f 771 620 769
f 619 620 771
f 772 619 771
f 617 619 772
f 773 617 772
f 616 617 773
f 774 616 773
f 615 616 774
f 775 615 774
f 613 615 775
f 776 613 775
f 612 613 776
f 777 612 776
f 611 612 777
f 778 611 777
f 610 611 778
f 763 610 778
f 608 610 763
f 609 608 763
f 776 703 777
f 694 703 776
f 775 694 776
f 695 694 775
f 774 695 775
f 696 695 774
f 773 696 774
f 697 696 773
f 772 697 773
f 715 697 772
f 771 715 772
f 709 715 771
f 769 709 771
f 710 709 769
f 767 710 769
f 719 710 767
f 765 719 767
f 711 719 765
f 762 711 765
f 713 711 762
f 763 713 762
f 702 713 763
f 778 702 763
f 701 702 778
f 777 701 778
f 703 701 777
f 779 622 624
f 721 622 779
f 780 781 782
f 596 783 594
f 618 783 596
f 784 618 596
f 620 618 784
f 785 620 784
f 609 620 785
f 786 609 785
f 607 609 786
f 648 787 780
f 788 787 648
f 641 788 648
f 789 788 641
f 790 789 641
f 791 780 782
f 648 780 791
f 792 648 791
f 600 779 793
f 721 779 600
f 599 721 600
f 780 721 599
f 794 780 599
f 781 780 794
f 779 795 793
f 796 795 779
f 783 796 779
f 665 796 783
f 618 665 783
f 729 644 643
f 652 648 792
f 652 797 798
f 643 797 652
f 792 643 652
f 729 643 792
f 728 792 791
f 729 792 728
f 789 733 734
f 790 733 789
f 635 733 790
f 634 733 635
f 640 790 641
f 635 790 640
f 799 635 640
f 800 635 799
f 642 801 802
f 646 801 642
f 643 802 797
f 642 802 643
f 646 798 801
f 652 798 646
f 802 798 797
f 801 798 802
f 637 803 804
f 645 803 637
f 725 637 804
f 638 637 725
f 645 730 803
f 647 730 645
f 730 804 803
f 725 804 730
f 805 651 636
f 806 651 805
f 649 806 807
f 651 806 649
f 808 649 807
f 650 649 808
f 628 630 626
f 631 630 628
f 808 806 805
f 807 806 808
f 659 596 595
f 784 596 659
f 660 784 659
f 785 784 660
f 661 785 660
f 786 785 661
f 605 786 661
f 607 786 605
f 732 789 734
f 788 789 732
f 731 788 732
f 787 788 731
f 723 787 731
f 780 787 723
f 720 780 723
f 721 780 720
f 782 728 791
f 727 728 782
f 781 727 782
f 726 727 781
f 794 726 781
f 724 726 794
f 599 724 794
f 601 724 599
f 629 627 632
f 625 627 629
f 808 636 650
f 805 636 808
f 770 620 609
f 770 766 768
f 764 766 770
f 609 764 770
f 809 736 738
f 740 809 738
f 809 744 746
f 742 744 809
f 740 742 809
f 809 750 752
f 748 750 809
f 746 748 809
f 809 756 758
f 754 756 809
f 752 754 809
f 809 737 736
f 760 737 809
f 758 760 809
f 663 594 783
f 597 594 663
f 621 779 624
f 722 779 621
f 783 810 811
f 779 812 783
f 813 812 779
f 814 603 602
f 722 603 814
f 602 815 814
f 816 815 602
f 817 816 602
f 663 783 818
f 779 819 813
f 820 819 779
f 821 820 779
f 602 822 817
f 823 822 602
f 663 823 602
f 663 824 823
f 825 824 663
f 826 825 663
f 783 827 818
f 828 827 783
f 811 828 783
f 829 830 831
f 779 832 821
f 833 832 779
f 834 833 779
f 779 835 836
f 837 835 779
f 779 838 837
f 839 838 779
f 722 839 779
f 840 839 722
f 814 840 722
f 663 841 826
f 842 841 663
f 818 842 663
f 843 779 836
f 834 779 843
f 831 834 843
f 844 834 831
f 830 844 831
f 810 845 846
f 831 847 829
f 848 847 831
f 810 848 831
f 849 848 810
f 846 849 810
f 810 850 845
f 851 850 810
f 783 851 810
f 852 851 783
f 783 853 852
f 854 853 783
f 855 854 783
f 783 856 855
f 857 856 783
f 812 857 783
f 858 859 860
f 860 859 861
f 862 863 860
f 860 863 864
f 860 864 858
f 865 866 860
f 860 866 867
f 860 867 862
f 868 869 860
f 860 869 870
f 860 870 865
f 860 861 868
f 861 859 871
f 859 872 871
f 873 872 859
f 858 873 859
f 858 874 873
f 875 874 858
f 864 875 858
f 864 876 875
f 877 876 864
f 863 877 864
f 863 878 877
f 879 878 863
f 862 879 863
f 862 880 879
f 881 880 862
f 867 881 862
f 867 882 881
f 883 882 867
f 866 883 867
f 866 884 883
f 885 884 866
f 865 885 866
f 865 886 885
f 887 886 865
f 870 887 865
f 870 888 887
f 889 888 870
f 869 889 870
f 869 890 889
f 891 890 869
f 868 891 869
f 868 892 891
f 893 892 868
f 861 893 868
f 894 893 861
f 871 894 861
f 872 838 871
f 837 838 872
f 873 837 872
f 835 837 873
f 874 835 873
f 836 835 874
f 875 836 874
f 843 836 875
f 876 843 875
f 831 843 876
f 877 831 876
f 810 831 877
f 878 810 877
f 811 810 878
f 879 811 878
f 828 811 879
f 880 828 879
f 827 828 880
f 881 827 880
f 818 827 881
f 882 818 881
f 842 818 882
f 883 842 882
f 841 842 883
f 884 841 883
f 826 841 884
f 885 826 884
f 825 826 885
f 886 825 885
f 824 825 886
f 887 824 886
f 823 824 887
f 888 823 887
f 822 823 888
f 889 822 888
f 817 822 889
f 890 817 889
f 816 817 890
f 891 816 890
f 815 816 891
f 892 815 891
f 814 815 892
f 893 814 892
f 840 814 893
f 894 840 893
f 839 840 894
f 871 839 894
f 838 839 871
f 895 896 897
f 897 896 898
f 899 900 897
f 897 900 901
f 897 901 895
f 902 903 897
f 897 903 904
f 897 904 899
f 905 906 897
f 897 906 907
f 897 907 902
f 897 898 905
f 908 898 896
f 896 909 908
f 910 909 896
f 895 910 896
f 895 911 910
f 912 911 895
f 901 912 895
f 901 913 912
f 914 913 901
f 900 914 901
f 900 915 914
f 916 915 900
f 899 916 900
f 899 917 916
f 918 917 899
f 904 918 899
f 904 919 918
f 920 919 904
f 903 920 904
f 903 921 920
f 922 921 903
f 902 922 903
f 902 923 922
f 924 923 902
f 907 924 902
f 907 925 924
f 926 925 907
f 906 926 907
f 906 927 926
f 928 927 906
f 905 928 906
f 905 929 928
f 930 929 905
f 898 930 905
f 931 930 898
f 908 931 898
f 909 832 908
f 821 832 909
f 910 821 909
f 820 821 910
f 911 820 910
f 819 820 911
f 912 819 911
f 813 819 912
f 913 813 912
f 812 813 913
f 914 812 913
f 857 812 914
f 915 857 914
f 856 857 915
f 916 856 915
f 855 856 916
f 917 855 916
f 854 855 917
f 918 854 917
f 853 854 918
f 919 853 918
f 852 853 919
f 920 852 919
f 851 852 920
f 921 851 920
f 850 851 921
f 922 850 921
f 845 850 922
f 923 845 922
f 846 845 923
f 924 846 923
f 849 846 924
f 925 849 924
f 848 849 925
f 926 848 925
f 847 848 926
f 927 847 926
f 829 847 927
f 928 829 927
f 830 829 928
f 929 830 928
f 844 830 929
f 930 844 929
f 834 844 930
f 931 834 930
f 833 834 931
f 908 833 931
f 832 833 908
f 639 932 933
f 633 932 639
f 639 799 640
f 933 799 639
f 635 932 633
f 800 932 635
f 933 800 799
f 932 800 933
f 656 665 662
f 796 665 656
f 655 796 656
f 795 796 655
f 657 795 655
f 793 795 657
f 598 793 657
f 600 793 598

