# https://github.com/mikedh/trimesh

o right_hand_ring_DIP_link.STL
v 0.00218367 0.00642503 0.01504229
v 0.00225000 0.00642503 0.01450000
v 0.00225000 0.00762499 0.01450000
v 0.00218367 0.00762499 0.01504229
v 0.00190820 0.00642503 0.01569217
v 0.00190820 0.00762499 0.01569217
v 0.00144495 0.00642503 0.01622471
v 0.00144495 0.00762499 0.01622471
v 0.00083949 0.00642503 0.01658753
v 0.00083949 0.00762499 0.01658753
v 0.00031160 0.00642503 0.01672832
v 0.00031160 0.00762499 0.01672832
v -0.00020005 0.00642503 0.01674109
v -0.00020005 0.00762499 0.01674109
v -0.00088133 0.00642503 0.01657021
v -0.00088133 0.00762499 0.01657021
v -0.00147672 0.00642503 0.01619759
v -0.00147672 0.00762499 0.01619759
v -0.00192821 0.00642503 0.01565954
v -0.00192821 0.00762499 0.01565954
v -0.00219179 0.00642503 0.01500849
v -0.00219179 0.00762499 0.01500849
v -0.00225000 0.00642503 0.01450000
v -0.00225000 0.00762499 0.01450000
v -0.00225000 0.00642503 0.00767712
v -0.00225001 0.00762499 0.00767712
v 0.00225000 0.00762499 0.00767713
v 0.00225000 0.00642503 0.00767713
v -0.00011280 0.00672496 0.01559420
v 0.00027698 0.00762499 0.01648073
v 0.00015234 0.00672496 0.01558940
v -0.00020509 0.00762499 0.01648946
v -0.00037138 0.00672496 0.01553541
v -0.00067524 0.00762499 0.01638257
v -0.00060838 0.00672496 0.01541645
v -0.00110614 0.00762499 0.01616627
v -0.00081002 0.00672496 0.01524422
v -0.00147276 0.00762499 0.01585313
v -0.00096459 0.00672496 0.01502875
v -0.00175379 0.00762499 0.01546136
v -0.00106309 0.00672496 0.01478254
v -0.00193290 0.00762499 0.01501371
v -0.00109982 0.00672496 0.01451992
v -0.00199967 0.00762499 0.01453621
v -0.00107263 0.00672496 0.01425613
v -0.00195023 0.00762499 0.01405661
v -0.00098310 0.00672496 0.01400652
v -0.00178745 0.00762499 0.01360277
v -0.00083643 0.00672496 0.01378559
v -0.00152079 0.00762499 0.01320108
v -0.00064116 0.00672496 0.01360618
v -0.00116574 0.00762499 0.01287487
v -0.00040862 0.00672496 0.01347871
v -0.00074295 0.00762499 0.01264311
v -0.00019826 0.00672496 0.01341802
v -0.00036047 0.00762499 0.01253275
v -0.00015234 0.00672496 0.01341060
v -0.00027698 0.00762499 0.01251927
v -0.00010615 0.00672496 0.01340513
v 0.00074295 0.00762499 0.01635689
v 0.00040862 0.00672496 0.01552129
v 0.00116574 0.00762499 0.01612513
v 0.00064116 0.00672496 0.01539382
v 0.00152079 0.00762499 0.01579892
v 0.00083643 0.00672496 0.01521441
v 0.00178745 0.00762499 0.01539723
v 0.00098310 0.00672496 0.01499348
v 0.00195023 0.00762499 0.01494339
v 0.00107263 0.00672496 0.01474387
v 0.00199967 0.00762499 0.01446379
v 0.00109982 0.00672496 0.01448009
v 0.00193290 0.00762499 0.01398629
v 0.00106309 0.00672496 0.01421746
v 0.00175379 0.00762499 0.01353864
v 0.00096459 0.00672496 0.01397125
v 0.00147276 0.00762499 0.01314687
v 0.00081002 0.00672496 0.01375578
v 0.00110614 0.00762499 0.01283373
v 0.00060838 0.00672496 0.01358355
v 0.00067524 0.00762499 0.01261743
v 0.00037138 0.00672496 0.01346459
v 0.00020509 0.00762499 0.01251054
v 0.00011280 0.00672496 0.01340580
v 0.00000000 0.00762499 0.01250000
v -0.00019299 0.00762499 0.01250933
v -0.00040862 0.00642503 0.01347871
v -0.00083643 0.00642503 0.01378559
v -0.00106309 0.00642503 0.01078254
v -0.00199970 0.00642503 -0.00003479
v -0.00189326 0.00642503 0.00064464
v -0.00652892 0.00642503 -0.00462312
v -0.00107263 0.00642503 0.01025613
v -0.00083643 0.00642503 0.00978559
v -0.00040862 0.00642503 0.00947871
v -0.00156297 0.00642503 0.00124785
v -0.00104787 0.00642503 0.00170351
v -0.00727112 0.00642503 -0.00333629
v -0.00257235 0.00642503 0.00757516
v -0.00776260 0.00642503 -0.00193443
v 0.00060838 0.00642503 0.00958355
v 0.00011280 0.00642503 0.00940580
v 0.00733885 0.00642503 -0.00318455
v 0.00189326 0.00642503 -0.00064464
v 0.00156297 0.00642503 -0.00124785
v 0.00779709 0.00642503 -0.00179034
v 0.00199970 0.00642503 0.00003479
v 0.00799295 0.00642503 -0.00033588
v 0.00791981 0.00642503 0.00112988
v 0.00186969 0.00642503 0.00071011
v 0.00758014 0.00642503 0.00255762
v 0.00698538 0.00642503 0.00389929
v 0.00151862 0.00642503 0.00130146
v 0.00615554 0.00642503 0.00510973
v -0.00186969 0.00642503 -0.00071011
v -0.00151862 0.00642503 -0.00130146
v -0.00556160 0.00642503 -0.00575053
v -0.00098798 0.00642503 -0.00173893
v -0.00309163 0.00642503 -0.00737847
v -0.00034053 0.00642503 -0.00197080
v -0.00440251 0.00642503 -0.00667966
v -0.00702217 0.00642503 0.00383264
v -0.00760971 0.00642503 0.00246825
v 0.00096459 0.00642503 0.00997125
v 0.00109982 0.00642503 0.01048008
v 0.00663362 0.00642503 -0.00447158
v 0.00570515 0.00642503 -0.00560814
v 0.00104787 0.00642503 -0.00170351
v -0.00798642 0.00642503 -0.00046587
v -0.00793487 0.00642503 0.00101875
v -0.00037138 0.00642503 0.01153541
v 0.00015234 0.00642503 0.01158940
v -0.00081002 0.00642503 0.01124422
v 0.00096459 0.00642503 0.01397125
v 0.00060838 0.00642503 0.01358355
v 0.00109982 0.00642503 0.01448009
v 0.00098310 0.00642503 0.01499348
v -0.00107263 0.00642503 0.01425613
v -0.00106309 0.00642503 0.01478254
v 0.00040888 0.00642503 -0.00195776
v 0.00003479 0.00642503 -0.00199970
v 0.00047290 0.00642503 -0.00798601
v 0.00458469 0.00642503 -0.00655596
v 0.00330993 0.00642503 -0.00728315
v 0.00192379 0.00642503 -0.00776525
v 0.00511854 0.00642503 0.00614821
v 0.00098798 0.00642503 0.00173893
v 0.00390929 0.00642503 0.00697979
v -0.00514930 0.00642503 0.00612247
v -0.00619250 0.00642503 0.00506488
v -0.00392856 0.00642503 0.00696896
v 0.00098310 0.00642503 0.01099348
v 0.00064116 0.00642503 0.01139382
v 0.00011280 0.00642503 0.01340580
v 0.00013916 0.00642503 -0.00799879
v -0.00019892 0.00642503 -0.00799753
v -0.00167414 0.00642503 -0.00782287
v -0.00040888 0.00642503 0.00195776
v 0.00064116 0.00642503 0.01539382
v 0.00015234 0.00642503 0.01558940
v -0.00037138 0.00642503 0.01553541
v -0.00081002 0.00642503 0.01524422
v 0.00256848 0.00642503 0.00757647
v 0.00034053 0.00642503 0.00197080
v -0.00003479 0.00642503 0.00199970
v -0.00189326 0.00762499 0.00064464
v -0.00199970 0.00762499 -0.00003479
v -0.00186969 0.00762499 -0.00071011
v -0.00776260 0.00762499 -0.00193443
v -0.00727112 0.00762499 -0.00333629
v -0.00151862 0.00762499 -0.00130146
v 0.00152079 0.00762499 0.01179892
v 0.00178745 0.00762499 0.01139723
v 0.00116574 0.00762499 0.01212513
v 0.00256848 0.00762499 0.00757647
v 0.00034053 0.00762499 0.00197080
v 0.00098798 0.00762499 0.00173893
v 0.00074295 0.00762499 0.01235689
v 0.00511854 0.00762499 0.00614821
v 0.00151862 0.00762499 0.00130146
v 0.00390929 0.00762499 0.00697979
v -0.00793487 0.00762499 0.00101875
v -0.00760971 0.00762499 0.00246825
v -0.00798642 0.00762499 -0.00046587
v 0.00195023 0.00762499 0.01094340
v 0.00199967 0.00762499 0.01046379
v 0.00193290 0.00762499 0.00998629
v -0.00020509 0.00762499 0.01248946
v 0.00698538 0.00762499 0.00389929
v 0.00186969 0.00762499 0.00071011
v 0.00615554 0.00762499 0.00510973
v 0.00791981 0.00762499 0.00112988
v 0.00199970 0.00762499 0.00003479
v 0.00758014 0.00762499 0.00255762
v -0.00257235 0.00762499 0.00757516
v -0.00392856 0.00762499 0.00696896
v -0.00514930 0.00762499 0.00612247
v 0.00027698 0.00762499 0.01248073
v 0.00779709 0.00762499 -0.00179034
v 0.00189326 0.00762499 -0.00064464
v 0.00799295 0.00762499 -0.00033588
v 0.00156297 0.00762499 -0.00124785
v 0.00570515 0.00762499 -0.00560814
v 0.00104787 0.00762499 -0.00170351
v 0.00663362 0.00762499 -0.00447158
v 0.00733885 0.00762499 -0.00318455
v -0.00619250 0.00762499 0.00506488
v -0.00702217 0.00762499 0.00383264
v 0.00175379 0.00762499 0.00953864
v 0.00147276 0.00762499 0.00914687
v 0.00110614 0.00762499 0.00883373
v -0.00652892 0.00762499 -0.00462312
v -0.00556160 0.00762499 -0.00575053
v -0.00098798 0.00762499 -0.00173893
v -0.00110614 0.00762499 0.01216627
v -0.00067524 0.00762499 0.01238257
v -0.00156297 0.00762499 0.00124785
v -0.00104787 0.00762499 0.00170351
v -0.00040888 0.00762499 0.00195776
v 0.00330993 0.00762499 -0.00728315
v 0.00040888 0.00762499 -0.00195776
v 0.00458469 0.00762499 -0.00655596
v -0.00440251 0.00762499 -0.00667966
v -0.00309163 0.00762499 -0.00737847
v -0.00034053 0.00762499 -0.00197080
v -0.00178745 0.00762499 0.00960277
v -0.00152079 0.00762499 0.00920108
v -0.00195023 0.00762499 0.01005661
v -0.00199967 0.00762499 0.01053621
v -0.00193290 0.00762499 0.01101371
v -0.00074295 0.00762499 0.00864311
v -0.00036047 0.00762499 0.00853275
v -0.00116574 0.00762499 0.00887487
v -0.00167414 0.00762499 -0.00782287
v -0.00019892 0.00762499 -0.00799753
v 0.00003479 0.00762499 -0.00199970
v 0.00013916 0.00762499 -0.00799879
v 0.00047290 0.00762499 -0.00798601
v 0.00192379 0.00762499 -0.00776525
v -0.00175379 0.00762499 0.01146136
v -0.00147276 0.00762499 0.01185313
v 0.00067524 0.00762499 0.00861743
v 0.00020509 0.00762499 0.00851054
v -0.00003479 0.00762499 0.00199970
v -0.00019299 0.00762499 0.00850933
v -0.00027698 0.00762499 0.00851927
v -0.00015234 0.00672496 0.00941060
v -0.00019826 0.00672496 0.00941801
v -0.00040862 0.00672496 0.00947871
v -0.00064116 0.00672496 0.00960618
v -0.00083643 0.00672496 0.00978559
v -0.00098310 0.00672496 0.01000652
v -0.00107263 0.00672496 0.01025613
v -0.00109982 0.00672496 0.01051992
v -0.00106309 0.00672496 0.01078254
v -0.00096459 0.00672496 0.01102875
v -0.00081002 0.00672496 0.01124422
v -0.00060838 0.00672496 0.01141645
v -0.00037138 0.00672496 0.01153541
v -0.00011280 0.00672496 0.01159420
v 0.00015234 0.00672496 0.01158940
v -0.00010615 0.00672496 0.00940513
v 0.00011280 0.00672496 0.00940580
v 0.00037138 0.00672496 0.00946459
v 0.00060838 0.00672496 0.00958355
v 0.00081002 0.00672496 0.00975578
v 0.00096459 0.00672496 0.00997125
v 0.00106309 0.00672496 0.01021746
v 0.00109982 0.00672496 0.01048008
v 0.00107263 0.00672496 0.01074387
v 0.00098310 0.00672496 0.01099348
v 0.00083643 0.00672496 0.01121441
v 0.00064116 0.00672496 0.01139382
v 0.00040862 0.00672496 0.01152129
v -0.00100000 0.00230000 0.01099832
v -0.00100000 0.00362500 0.02072832
v -0.00100000 0.00362500 0.01099832
v -0.00100000 0.00230000 0.02072832
v 0.00400000 0.00100000 0.02072832
v 0.00490000 0.00100000 0.01099832
v 0.00400000 0.00100000 0.01099832
v 0.00490000 0.00100000 0.02219832
v 0.00000000 0.00100000 0.02072832
v 0.00000000 0.00100000 0.02219832
v -0.00300000 0.00462500 0.00822832
v -0.00200000 0.00462500 0.02072832
v -0.00300000 0.00462500 0.02072832
v -0.00200000 0.00462500 0.01099832
v -0.00070836 0.00462500 0.01087178
v -0.00062584 0.00462500 0.01099832
v -0.00080000 0.00462500 0.01050000
v -0.00070836 0.00462500 0.01012822
v -0.00045445 0.00462500 0.00984161
v -0.00009643 0.00462500 0.00970583
v 0.00300000 0.00462500 0.00822832
v 0.00028368 0.00462500 0.00975199
v 0.00059881 0.00462500 0.00996950
v 0.00077675 0.00462500 0.01030855
v 0.00300000 0.00462500 0.01099832
v 0.00077675 0.00462500 0.01069145
v 0.00062584 0.00462500 0.01099832
v -0.00100000 -0.00170000 0.02219832
v -0.00100000 -0.00300000 0.01099832
v -0.00100000 -0.00300000 0.02219832
v -0.00100000 -0.00170000 0.01099832
v 0.00690000 -0.00293562 0.01155000
v 0.00790000 -0.00373562 0.01155000
v 0.00790000 -0.00293562 0.01155000
v 0.00690000 -0.00373562 0.01155000
v 0.00690000 -0.00293562 0.01100000
v 0.00790000 -0.00373562 0.01100000
v 0.00690000 -0.00373562 0.01100000
v 0.00790000 -0.00293562 0.01100000
v 0.00690000 -0.00505130 0.02033431
v 0.00690000 -0.00560130 0.02219832
v 0.00690000 -0.00560130 0.02033431
v 0.00690000 0.00293301 0.01155000
v 0.00690000 -0.00373562 0.02165000
v 0.00690000 -0.00373562 0.02219832
v 0.00690000 -0.00505130 0.01286569
v 0.00690000 -0.00560130 0.01286569
v 0.00690000 -0.00560130 0.01099832
v 0.00690000 0.00504870 0.02033431
v 0.00690000 0.00559870 0.02033431
v 0.00690000 0.00559870 0.02219832
v 0.00690000 0.00373301 0.02165000
v 0.00690000 0.00504870 0.01286569
v 0.00690000 0.00373301 0.02219832
v 0.00690000 0.00559870 0.01099832
v 0.00690000 0.00373301 0.01100000
v 0.00690000 0.00293301 0.01100000
v 0.00690000 0.00373301 0.01155000
v 0.00690000 0.00559870 0.01286569
v -0.00300000 0.00762500 0.02072832
v -0.00300000 0.00762500 0.00822832
v 0.00329289 0.00129289 0.02072832
v 0.00307612 0.00161732 0.02072832
v 0.00361732 0.00107612 0.02072832
v 0.00300000 0.00762500 0.02072832
v -0.00107612 0.00400768 0.02072832
v -0.00129289 0.00433211 0.02072832
v -0.00161732 0.00454888 0.02072832
v 0.00300000 0.00200000 0.02072832
v 0.00000000 0.00230000 0.02072832
v 0.00300000 0.00762500 0.00822832
v 0.00300000 0.00200000 0.01099832
v -0.00227000 0.00642500 0.00822832
v -0.00227000 0.00762500 0.00822832
v 0.00227000 0.00642500 0.00822832
v 0.00227000 0.00762500 0.00822832
v 0.00227000 0.00762500 0.01450000
v -0.00190965 0.00762500 0.01572726
v -0.00148653 0.00762500 0.01621555
v -0.00217805 0.00762500 0.01513953
v 0.00148653 0.00762500 0.01621555
v 0.00094299 0.00762500 0.01656486
v -0.00227000 0.00762500 0.01450000
v 0.00190965 0.00762500 0.01572726
v 0.00217805 0.00762500 0.01513953
v -0.00094299 0.00762500 0.01656486
v -0.00032305 0.00762500 0.01674690
v 0.00032305 0.00762500 0.01674690
v -0.00227000 0.00642500 0.01450000
v 0.00217805 0.00642500 0.01513953
v 0.00227000 0.00642500 0.01450000
v 0.00190965 0.00642500 0.01572726
v 0.00148653 0.00642500 0.01621555
v 0.00094299 0.00642500 0.01656486
v 0.00032305 0.00642500 0.01674690
v -0.00032305 0.00642500 0.01674690
v -0.00094299 0.00642500 0.01656486
v -0.00148653 0.00642500 0.01621555
v -0.00190965 0.00642500 0.01572726
v -0.00217805 0.00642500 0.01513953
v -0.00051126 0.00642500 0.00975931
v -0.00010848 0.00642500 0.00960656
v 0.00031914 0.00642500 0.00965849
v 0.00067366 0.00642500 0.00990319
v -0.00051126 0.00642500 0.01524069
v -0.00010848 0.00642500 0.01539344
v -0.00079691 0.00642500 0.01491825
v -0.00090000 0.00642500 0.01050000
v -0.00079691 0.00642500 0.01091825
v -0.00079691 0.00642500 0.01008175
v -0.00090000 0.00642500 0.01450000
v -0.00079691 0.00642500 0.01408175
v -0.00051126 0.00642500 0.01375931
v 0.00067366 0.00642500 0.01509681
v 0.00031914 0.00642500 0.01534151
v 0.00087385 0.00642500 0.01071538
v 0.00067366 0.00642500 0.01109681
v -0.00010848 0.00642500 0.01139344
v -0.00010848 0.00642500 0.01360656
v -0.00051126 0.00642500 0.01124069
v 0.00087385 0.00642500 0.01471538
v 0.00087385 0.00642500 0.01028462
v 0.00087385 0.00642500 0.01428462
v 0.00067366 0.00642500 0.01390319
v 0.00031914 0.00642500 0.01365849
v 0.00031914 0.00642500 0.01134151
v 0.00490000 -0.00300000 0.02219832
v 0.00490000 -0.00300000 0.01099832
v 0.00000000 -0.00170000 0.02219832
v 0.00528268 -0.00307612 0.02219832
v 0.00528268 0.00107612 0.02219832
v 0.00790000 -0.00373562 0.02219832
v 0.00560711 0.00129289 0.02219832
v 0.00582388 0.00161732 0.02219832
v 0.00590000 0.00200000 0.02219832
v 0.00590000 0.00559870 0.02219832
v 0.00790000 0.00373301 0.02219832
v 0.00560711 -0.00329289 0.02219832
v 0.00582388 -0.00361732 0.02219832
v 0.00590000 -0.00560130 0.02219832
v 0.00590000 -0.00400000 0.02219832
v -0.00009643 0.00632500 0.01529417
v -0.00009643 0.00462500 0.01529417
v -0.00045445 0.00462500 0.01515839
v 0.00000000 0.00462500 0.01530000
v 0.00028368 0.00632500 0.01524801
v 0.00028368 0.00462500 0.01524801
v 0.00059881 0.00632500 0.01503050
v 0.00059881 0.00462500 0.01503050
v 0.00077675 0.00632500 0.01469145
v 0.00077675 0.00462500 0.01469145
v 0.00077675 0.00632500 0.01430855
v 0.00077675 0.00462500 0.01430855
v 0.00059881 0.00632500 0.01396950
v 0.00059881 0.00462500 0.01396950
v 0.00028368 0.00632500 0.01375199
v 0.00028368 0.00462500 0.01375199
v -0.00009643 0.00632500 0.01370583
v -0.00009643 0.00462500 0.01370583
v -0.00045445 0.00632500 0.01384161
v -0.00045445 0.00462500 0.01384161
v -0.00070836 0.00632500 0.01412822
v -0.00070836 0.00462500 0.01412822
v -0.00080000 0.00632500 0.01450000
v -0.00080000 0.00462500 0.01450000
v -0.00070836 0.00632500 0.01487178
v -0.00070836 0.00462500 0.01487178
v -0.00045445 0.00632500 0.01515839
v -0.00045445 0.00632500 0.01115839
v -0.00070836 0.00632500 0.01087178
v -0.00045445 0.00462500 0.01115839
v -0.00009643 0.00632500 0.01129417
v -0.00009643 0.00462500 0.01129417
v 0.00028368 0.00632500 0.01124801
v 0.00028368 0.00462500 0.01124801
v 0.00059881 0.00632500 0.01103050
v 0.00059881 0.00462500 0.01103050
v 0.00077675 0.00632500 0.01069145
v 0.00077675 0.00632500 0.01030855
v 0.00059881 0.00632500 0.00996950
v 0.00028368 0.00632500 0.00975199
v -0.00009643 0.00632500 0.00970583
v -0.00045445 0.00632500 0.00984161
v -0.00070836 0.00632500 0.01012822
v -0.00080000 0.00632500 0.01050000
v 0.00000000 -0.00170000 0.01099832
v 0.00528268 -0.00307612 0.01099832
v 0.00560711 0.00129289 0.01099832
v 0.00582388 0.00161732 0.01099832
v 0.00000000 0.00230000 0.01099832
v -0.00107612 0.00400768 0.01099832
v -0.00129289 0.00433211 0.01099832
v -0.00161732 0.00454888 0.01099832
v 0.00560711 -0.00329289 0.01099832
v 0.00582388 -0.00361732 0.01099832
v 0.00590000 -0.00400000 0.01099832
v 0.00590000 -0.00560130 0.01099832
v 0.00590000 0.00200000 0.01099832
v 0.00590000 0.00559870 0.01099832
v 0.00361732 0.00107612 0.01099832
v 0.00528268 0.00107612 0.01099832
v 0.00329289 0.00129289 0.01099832
v 0.00307612 0.00161732 0.01099832
v 0.00790000 0.00559870 0.02033431
v 0.00790000 0.00559870 0.01286569
v 0.00790000 -0.00560130 0.01286569
v 0.00790000 -0.00560130 0.02033431
v 0.00790000 0.00504870 0.01286569
v 0.00790000 0.00504870 0.02033431
v 0.00790000 0.00373301 0.02165000
v 0.00790000 -0.00373562 0.02165000
v 0.00790000 0.00293301 0.01155000
v 0.00790000 0.00373301 0.01155000
v 0.00790000 0.00373301 0.01100000
v 0.00790000 0.00293301 0.01100000
v 0.00000000 0.00462500 0.01450000
v 0.00000000 0.00050706 0.01742558
v 0.00000000 0.00070000 0.01750550
v 0.00000000 0.00030000 0.01219832
v 0.00000000 0.00009294 0.01222558
v 0.00000000 -0.00039282 0.01859832
v 0.00000000 -0.00026569 0.01876400
v 0.00000000 -0.00010000 0.01889114
v 0.00000000 0.00009294 0.01897106
v 0.00000000 0.00107274 0.01799126
v 0.00000000 -0.00010000 0.01230550
v 0.00000000 -0.00026569 0.01243263
v 0.00000000 -0.00039282 0.01259832
v 0.00000000 0.00030000 0.01899832
v 0.00000000 0.00050706 0.01897106
v 0.00000000 0.00070000 0.01889114
v 0.00000000 0.00086569 0.01876400
v 0.00000000 0.00099282 0.01859832
v 0.00000000 0.00099282 0.01779832
v 0.00000000 0.00086569 0.01763263
v 0.00000000 -0.00010000 0.01369114
v 0.00000000 -0.00026569 0.01356400
v 0.00000000 0.00030000 0.01739832
v 0.00000000 -0.00047274 0.01279126
v 0.00000000 -0.00050000 0.01299832
v 0.00000000 -0.00047274 0.01320537
v 0.00000000 -0.00026569 0.01763263
v 0.00000000 -0.00010000 0.01750550
v 0.00000000 -0.00039282 0.01779832
v 0.00000000 -0.00047274 0.01799126
v 0.00000000 -0.00050000 0.01819832
v 0.00000000 -0.00047274 0.01840537
v 0.00000000 0.00107274 0.01840537
v 0.00000000 0.00110000 0.01819832
v 0.00000000 0.00009294 0.01742558
v 0.00000000 -0.00039282 0.01339832
v 0.00000000 0.00086569 0.01356400
v 0.00000000 0.00070000 0.01369114
v 0.00000000 0.00009294 0.01377106
v 0.00000000 0.00030000 0.01379832
v 0.00000000 0.00050706 0.01377106
v 0.00000000 0.00099282 0.01339832
v 0.00000000 0.00107274 0.01320537
v 0.00000000 0.00110000 0.01299832
v 0.00000000 0.00107274 0.01279126
v 0.00000000 0.00099282 0.01259832
v 0.00000000 0.00086569 0.01243263
v 0.00000000 0.00070000 0.01230550
v 0.00000000 0.00050706 0.01222558
v 0.00300000 -0.00001250 0.01765705
v 0.00300000 -0.00024127 0.01788582
v 0.00337554 0.00030000 0.01819832
v 0.00300000 -0.00032500 0.01819832
v 0.00300000 0.00084127 0.01788582
v 0.00300000 0.00061250 0.01765705
v 0.00300000 0.00030000 0.01757332
v 0.00300000 0.00061250 0.01873958
v 0.00300000 0.00084127 0.01851082
v 0.00300000 0.00092500 0.01819832
v 0.00300000 -0.00024127 0.01851082
v 0.00300000 -0.00001250 0.01873958
v 0.00300000 0.00030000 0.01882332
v 0.00017500 -0.00030370 0.01803656
v 0.00017500 -0.00024127 0.01788582
v 0.00017500 -0.00014194 0.01775638
v 0.00017500 -0.00001250 0.01765705
v 0.00017500 0.00013824 0.01759461
v 0.00017500 0.00030000 0.01757332
v 0.00017500 0.00046176 0.01759461
v 0.00017500 0.00061250 0.01765705
v 0.00017500 0.00074194 0.01775638
v 0.00017500 0.00084127 0.01788582
v 0.00017500 0.00090370 0.01803656
v 0.00017500 0.00092500 0.01819832
v 0.00017500 0.00090370 0.01836008
v 0.00017500 0.00084127 0.01851082
v 0.00017500 0.00074194 0.01864026
v 0.00017500 0.00061250 0.01873958
v 0.00017500 0.00046176 0.01880202
v 0.00017500 0.00030000 0.01882332
v 0.00017500 0.00013824 0.01880202
v 0.00017500 -0.00001250 0.01873958
v 0.00017500 -0.00014194 0.01864026
v 0.00017500 -0.00024127 0.01851082
v 0.00017500 -0.00030370 0.01836008
v 0.00017500 -0.00032500 0.01819832
v 0.00300000 -0.00001250 0.01245705
v 0.00300000 -0.00024127 0.01268582
v 0.00337554 0.00030000 0.01299832
v 0.00300000 -0.00032500 0.01299832
v 0.00300000 0.00084127 0.01268582
v 0.00300000 0.00061250 0.01245705
v 0.00300000 0.00030000 0.01237332
v 0.00300000 0.00061250 0.01353958
v 0.00300000 0.00084127 0.01331082
v 0.00300000 0.00092500 0.01299832
v 0.00300000 -0.00024127 0.01331082
v 0.00300000 -0.00001250 0.01353958
v 0.00300000 0.00030000 0.01362332
v 0.00017500 -0.00030370 0.01283656
v 0.00017500 -0.00024127 0.01268582
v 0.00017500 -0.00014194 0.01255638
v 0.00017500 -0.00001250 0.01245705
v 0.00017500 0.00013824 0.01239461
v 0.00017500 0.00030000 0.01237332
v 0.00017500 0.00046176 0.01239461
v 0.00017500 0.00061250 0.01245705
v 0.00017500 0.00074194 0.01255638
v 0.00017500 0.00084127 0.01268582
v 0.00017500 0.00090370 0.01283656
v 0.00017500 0.00092500 0.01299832
v 0.00017500 0.00090370 0.01316008
v 0.00017500 0.00084127 0.01331082
v 0.00017500 0.00074194 0.01344026
v 0.00017500 0.00061250 0.01353958
v 0.00017500 0.00046176 0.01360202
v 0.00017500 0.00030000 0.01362332
v 0.00017500 0.00013824 0.01360202
v 0.00017500 -0.00001250 0.01353958
v 0.00017500 -0.00014194 0.01344026
v 0.00017500 -0.00024127 0.01331082
v 0.00017500 -0.00030370 0.01316008
v 0.00017500 -0.00032500 0.01299832
v 0.00790000 -0.00505130 0.02033431
v 0.00790000 -0.00505130 0.01286569
v 0.00760000 0.00334870 0.01355000
v 0.00860000 0.00279870 0.01293125
v 0.00860000 0.00334870 0.01355000
v 0.00760000 0.00279870 0.01293125
v 0.00860000 0.00294870 0.01995000
v 0.00760000 0.00334870 0.01955000
v 0.00860000 0.00334870 0.01955000
v 0.00760000 0.00294870 0.01995000
v 0.00860000 -0.00345130 0.01955000
v 0.00760000 -0.00305130 0.01995000
v 0.00860000 -0.00305130 0.01995000
v 0.00760000 -0.00345130 0.01955000
v 0.00760000 -0.00290130 0.01293125
v 0.00860000 -0.00345130 0.01355000
v 0.00860000 -0.00290130 0.01293125
v 0.00760000 -0.00345130 0.01355000
v 0.00690000 0.00269870 0.01527321
v 0.00760000 0.00259870 0.01530000
v 0.00690000 0.00259870 0.01530000
v 0.00760000 0.00269870 0.01527321
v 0.00690000 0.00277190 0.01520000
v 0.00760000 0.00277190 0.01520000
v 0.00690000 0.00279870 0.01510000
v 0.00760000 0.00279870 0.01510000
v 0.00690000 -0.00287451 0.01520000
v 0.00760000 -0.00290130 0.01510000
v 0.00690000 -0.00290130 0.01510000
v 0.00760000 -0.00287451 0.01520000
v 0.00690000 -0.00280130 0.01527321
v 0.00760000 -0.00280130 0.01527321
v 0.00690000 -0.00270130 0.01530000
v 0.00760000 -0.00270130 0.01530000
v 0.00690000 -0.00290130 0.01230000
v 0.00860000 -0.00290130 0.01230000
v 0.00860000 0.00279870 0.01230000
v 0.00690000 0.00279870 0.01230000
v 0.00760000 0.00294870 0.02080000
v 0.00760000 -0.00305130 0.02080000
v 0.00816000 -0.00430130 0.01905000
v 0.00736000 -0.00430130 0.01905000
v 0.00741359 -0.00410130 0.01905000
v 0.00796000 -0.00395489 0.01905000
v 0.00756000 -0.00395489 0.01905000
v 0.00776000 -0.00390130 0.01905000
v 0.00810641 -0.00410130 0.01905000
v 0.00736000 -0.00430130 0.01405000
v 0.00816000 -0.00430130 0.01405000
v 0.00810641 -0.00410130 0.01405000
v 0.00796000 -0.00395489 0.01405000
v 0.00756000 -0.00395489 0.01405000
v 0.00741359 -0.00410130 0.01405000
v 0.00776000 -0.00390130 0.01405000
v 0.00796000 0.00385229 0.01905000
v 0.00776000 0.00379870 0.01905000
v 0.00756000 0.00385229 0.01905000
v 0.00816000 0.00419870 0.01905000
v 0.00741359 0.00399870 0.01905000
v 0.00736000 0.00419870 0.01905000
v 0.00810641 0.00399870 0.01905000
v 0.00810641 0.00399870 0.01405000
v 0.00816000 0.00419870 0.01405000
v 0.00736000 0.00419870 0.01405000
v 0.00756000 0.00385229 0.01405000
v 0.00741359 0.00399870 0.01405000
v 0.00776000 0.00379870 0.01405000
v 0.00796000 0.00385229 0.01405000
v 0.00860000 -0.00339780 0.01259357
v 0.00690000 -0.00335130 0.01230000
v 0.00860000 -0.00335130 0.01230000
v 0.00690000 -0.00339780 0.01259357
v 0.00860000 -0.00353274 0.01285840
v 0.00690000 -0.00353274 0.01285840
v 0.00860000 -0.00374291 0.01306857
v 0.00690000 -0.00374291 0.01306857
v 0.00860000 -0.00400774 0.01320350
v 0.00690000 -0.00400774 0.01320350
v 0.00860000 -0.00430130 0.01325000
v 0.00690000 -0.00430130 0.01325000
v 0.00860000 0.00329519 0.02050643
v 0.00690000 0.00324870 0.02080000
v 0.00860000 0.00324870 0.02080000
v 0.00690000 0.00329519 0.02050643
v 0.00860000 0.00343013 0.02024160
v 0.00690000 0.00343013 0.02024160
v 0.00860000 0.00364030 0.02003143
v 0.00690000 0.00364030 0.02003143
v 0.00860000 0.00390513 0.01989650
v 0.00690000 0.00390513 0.01989650
v 0.00860000 0.00419870 0.01985000
v 0.00690000 0.00419870 0.01985000
v 0.00860000 -0.00400774 0.01989650
v 0.00690000 -0.00430130 0.01985000
v 0.00860000 -0.00430130 0.01985000
v 0.00690000 -0.00400774 0.01989650
v 0.00860000 -0.00374291 0.02003143
v 0.00690000 -0.00374291 0.02003143
v 0.00860000 -0.00353274 0.02024160
v 0.00690000 -0.00353274 0.02024160
v 0.00860000 -0.00339780 0.02050643
v 0.00690000 -0.00339780 0.02050643
v 0.00860000 -0.00335130 0.02080000
v 0.00690000 -0.00335130 0.02080000
v 0.00860000 0.00390513 0.01320350
v 0.00690000 0.00419870 0.01325000
v 0.00860000 0.00419870 0.01325000
v 0.00690000 0.00390513 0.01320350
v 0.00860000 0.00364030 0.01306857
v 0.00690000 0.00364030 0.01306857
v 0.00860000 0.00343013 0.01285840
v 0.00690000 0.00343013 0.01285840
v 0.00860000 0.00329519 0.01259357
v 0.00690000 0.00329519 0.01259357
v 0.00860000 0.00324870 0.01230000
v 0.00690000 0.00324870 0.01230000
v 0.00860000 -0.00305130 0.02080000
v 0.00860000 0.00294870 0.02080000
v 0.00950000 -0.00335025 0.01260902
v 0.00870000 -0.00330130 0.01230000
v 0.00950000 -0.00330130 0.01230000
v 0.00870000 -0.00335025 0.01260902
v 0.00950000 -0.00349229 0.01288779
v 0.00870000 -0.00349229 0.01288779
v 0.00950000 -0.00371352 0.01310902
v 0.00870000 -0.00371352 0.01310902
v 0.00950000 -0.00399229 0.01325106
v 0.00870000 -0.00399229 0.01325106
v 0.00950000 -0.00430130 0.01330000
v 0.00870000 -0.00430130 0.01330000
v 0.00950000 0.00388968 0.01325106
v 0.00870000 0.00419870 0.01330000
v 0.00950000 0.00419870 0.01330000
v 0.00870000 0.00388968 0.01325106
v 0.00950000 0.00361091 0.01310902
v 0.00870000 0.00361091 0.01310902
v 0.00950000 0.00338968 0.01288779
v 0.00870000 0.00338968 0.01288779
v 0.00950000 0.00324764 0.01260902
v 0.00870000 0.00324764 0.01260902
v 0.00950000 0.00319870 0.01230000
v 0.00870000 0.00319870 0.01230000
v 0.00950000 -0.00399229 0.01984894
v 0.00870000 -0.00430130 0.01980000
v 0.00950000 -0.00430130 0.01980000
v 0.00870000 -0.00399229 0.01984894
v 0.00950000 -0.00371352 0.01999098
v 0.00870000 -0.00371352 0.01999098
v 0.00950000 -0.00349229 0.02021221
v 0.00870000 -0.00349229 0.02021221
v 0.00950000 -0.00335025 0.02049098
v 0.00870000 -0.00335025 0.02049098
v 0.00950000 -0.00330130 0.02080000
v 0.00870000 -0.00330130 0.02080000
v 0.00950000 0.00324764 0.02049098
v 0.00870000 0.00319870 0.02080000
v 0.00950000 0.00319870 0.02080000
v 0.00870000 0.00324764 0.02049098
v 0.00950000 0.00338968 0.02021221
v 0.00870000 0.00338968 0.02021221
v 0.00950000 0.00361091 0.01999098
v 0.00870000 0.00361091 0.01999098
v 0.00950000 0.00388968 0.01984894
v 0.00870000 0.00388968 0.01984894
v 0.00950000 0.00419870 0.01980000
v 0.00870000 0.00419870 0.01980000
v 0.00777000 0.00244870 0.01550000
v 0.00777000 -0.00255130 0.02050000
v 0.00777000 0.00244870 0.02050000
v 0.00777000 -0.00255130 0.01550000
v 0.00870000 -0.00255130 0.01550000
v 0.00870000 -0.00255130 0.02050000
v 0.00870000 0.00244870 0.02050000
v 0.00870000 0.00244870 0.01550000
v 0.00725000 -0.00250130 0.01330000
v 0.00836115 0.00239870 0.01330000
v 0.00836115 -0.00250130 0.01330000
v 0.00725000 0.00239870 0.01330000
v 0.00836115 -0.00250130 0.01230000
v 0.00725000 -0.00250130 0.01230000
v 0.00836115 0.00239870 0.01230000
v 0.00725000 0.00239870 0.01230000
v 0.00695000 0.00269870 0.01230000
v 0.00695000 -0.00280130 0.01500000
v 0.00695000 0.00269870 0.01500000
v 0.00695000 -0.00280130 0.01230000
v 0.00870000 -0.00280130 0.01230000
v 0.00870000 -0.00280130 0.01500000
v 0.00870000 0.00269870 0.01500000
v 0.00870000 0.00269870 0.01230000
v 0.00990000 -0.00355130 0.01343701
v 0.00950000 -0.00316430 0.01305000
v 0.00950000 -0.00355130 0.01343701
v 0.00990000 -0.00316430 0.01305000
v 0.00990000 -0.00316430 0.02005000
v 0.00950000 -0.00355130 0.01966299
v 0.00950000 -0.00316430 0.02005000
v 0.00990000 -0.00355130 0.01966299
v 0.00990000 0.00344870 0.01966299
v 0.00950000 0.00306169 0.02005000
v 0.00950000 0.00344870 0.01966299
v 0.00990000 0.00306169 0.02005000
v 0.00990000 0.00306169 0.01305000
v 0.00950000 0.00344870 0.01343701
v 0.00950000 0.00306169 0.01305000
v 0.00990000 0.00344870 0.01343701
v 0.00792500 -0.00404819 0.01455000
v 0.00775000 -0.00400130 0.01455000
v 0.00775000 -0.00400130 0.01855000
v 0.00792500 -0.00404819 0.01855000
v 0.00805311 -0.00417630 0.01455000
v 0.00805311 -0.00417630 0.01855000
v 0.00810000 -0.00435130 0.01455000
v 0.00810000 -0.00435130 0.01855000
v 0.00757500 -0.00404819 0.01855000
v 0.00757500 -0.00404819 0.01455000
v 0.00744689 -0.00417630 0.01855000
v 0.00744689 -0.00417630 0.01455000
v 0.00740000 -0.00435130 0.01855000
v 0.00740000 -0.00435130 0.01455000
v 0.00792500 0.00394559 0.01855000
v 0.00775000 0.00389870 0.01855000
v 0.00775000 0.00389870 0.01455000
v 0.00792500 0.00394559 0.01455000
v 0.00805311 0.00407370 0.01855000
v 0.00805311 0.00407370 0.01455000
v 0.00810000 0.00424870 0.01855000
v 0.00810000 0.00424870 0.01455000
v 0.00757500 0.00394559 0.01455000
v 0.00757500 0.00394559 0.01855000
v 0.00744689 0.00407370 0.01455000
v 0.00744689 0.00407370 0.01855000
v 0.00740000 0.00424870 0.01455000
v 0.00740000 0.00424870 0.01855000
v 0.00690000 -0.00290130 0.01225000
v 0.00890000 -0.00290130 0.01155000
v 0.00690000 -0.00290130 0.01155000
v 0.00890000 -0.00290130 0.01225000
v 0.00890000 0.00279870 0.01155000
v 0.00890000 0.00279870 0.01225000
v 0.00690000 0.00279870 0.01155000
v 0.00690000 0.00279870 0.01225000
v 0.00990000 0.00368301 0.01155000
v 0.00690000 0.00494870 0.01281569
v 0.00990000 0.00494870 0.01281569
v 0.00690000 0.00368301 0.01155000
v 0.00990000 0.00494870 0.02028431
v 0.00690000 0.00368301 0.02155000
v 0.00990000 0.00368301 0.02155000
v 0.00690000 0.00494870 0.02028431
v 0.00990000 -0.00378562 0.02155000
v 0.00690000 -0.00505130 0.02028431
v 0.00990000 -0.00505130 0.02028431
v 0.00690000 -0.00378562 0.02155000
v 0.00990000 -0.00505130 0.01281569
v 0.00690000 -0.00378562 0.01155000
v 0.00990000 -0.00378562 0.01155000
v 0.00690000 -0.00505130 0.01281569
v 0.00950000 -0.00382230 0.01297812
v 0.00950000 -0.00362319 0.01277901
v 0.00950000 -0.00407319 0.01310595
v 0.00950000 -0.00362319 0.02032099
v 0.00950000 -0.00382230 0.02012189
v 0.00950000 -0.00349535 0.02057189
v 0.00950000 -0.00407319 0.01999405
v 0.00950000 -0.00435130 0.01995000
v 0.00950000 -0.00435130 0.01315000
v 0.00950000 0.00371969 0.02012189
v 0.00950000 0.00352058 0.02032099
v 0.00950000 0.00397058 0.01999405
v 0.00950000 0.00339275 0.02057189
v 0.00950000 0.00334870 0.02085000
v 0.00950000 -0.00345130 0.02085000
v 0.00950000 -0.00349535 0.01252811
v 0.00950000 -0.00345130 0.01225000
v 0.00950000 0.00334870 0.01225000
v 0.00950000 0.00339275 0.01252811
v 0.00950000 0.00352058 0.01277901
v 0.00950000 0.00371969 0.01297812
v 0.00950000 0.00397058 0.01310595
v 0.00950000 0.00424870 0.01315000
v 0.00950000 0.00424870 0.01995000
v 0.00690000 -0.00345130 0.01225000
v 0.00690000 -0.00349535 0.01252811
v 0.00690000 -0.00362319 0.01277901
v 0.00690000 -0.00382230 0.01297812
v 0.00690000 -0.00407319 0.01310595
v 0.00690000 -0.00435130 0.01315000
v 0.00690000 -0.00435130 0.01995000
v 0.00690000 -0.00407319 0.01999405
v 0.00690000 -0.00382230 0.02012189
v 0.00690000 -0.00362319 0.02032099
v 0.00690000 -0.00349535 0.02057189
v 0.00690000 -0.00345130 0.02085000
v 0.00690000 0.00334870 0.02085000
v 0.00690000 0.00339275 0.02057189
v 0.00690000 0.00352058 0.02032099
v 0.00690000 0.00371969 0.02012189
v 0.00690000 0.00397058 0.01999405
v 0.00690000 0.00424870 0.01995000
v 0.00690000 0.00424870 0.01315000
v 0.00690000 0.00397058 0.01310595
v 0.00690000 0.00371969 0.01297812
v 0.00690000 0.00352058 0.01277901
v 0.00690000 0.00339275 0.01252811
v 0.00690000 0.00334870 0.01225000
v 0.00990000 0.00339870 0.01960000
v 0.00960000 0.00299870 0.02000000
v 0.00990000 0.00299870 0.02000000
v 0.00960000 0.00339870 0.01960000
v 0.00990000 0.00299870 0.01310000
v 0.00960000 0.00339870 0.01350000
v 0.00990000 0.00339870 0.01350000
v 0.00960000 0.00299870 0.01310000
v 0.00990000 -0.00350130 0.01350000
v 0.00960000 -0.00310130 0.01310000
v 0.00990000 -0.00310130 0.01310000
v 0.00960000 -0.00350130 0.01350000
v 0.00990000 -0.00310130 0.02000000
v 0.00960000 -0.00350130 0.01960000
v 0.00990000 -0.00350130 0.01960000
v 0.00960000 -0.00310130 0.02000000
f 1 2 3
f 4 1 3
f 5 1 4
f 6 5 4
f 7 5 6
f 8 7 6
f 9 7 8
f 10 9 8
f 11 9 10
f 12 11 10
f 13 11 12
f 14 13 12
f 15 13 14
f 16 15 14
f 17 15 16
f 18 17 16
f 19 17 18
f 20 19 18
f 21 19 20
f 22 21 20
f 23 21 22
f 24 23 22
f 25 24 26
f 23 24 25
f 2 27 3
f 28 27 2
f 29 30 31
f 32 30 29
f 33 32 29
f 34 32 33
f 35 34 33
f 36 34 35
f 37 36 35
f 38 36 37
f 39 38 37
f 40 38 39
f 41 40 39
f 42 40 41
f 43 42 41
f 44 42 43
f 45 44 43
f 46 44 45
f 47 46 45
f 48 46 47
f 49 48 47
f 50 48 49
f 51 50 49
f 52 50 51
f 53 52 51
f 54 52 53
f 55 54 53
f 56 54 55
f 57 56 55
f 58 56 57
f 58 57 59
f 60 31 30
f 61 31 60
f 62 61 60
f 63 61 62
f 64 63 62
f 65 63 64
f 66 65 64
f 67 65 66
f 68 67 66
f 69 67 68
f 70 69 68
f 71 69 70
f 72 71 70
f 73 71 72
f 74 73 72
f 75 73 74
f 76 75 74
f 77 75 76
f 78 77 76
f 79 77 78
f 80 79 78
f 81 79 80
f 82 81 80
f 83 81 82
f 84 83 82
f 59 83 84
f 85 59 84
f 58 59 85
f 25 86 87
f 88 86 25
f 89 90 91
f 25 92 88
f 93 92 25
f 94 93 25
f 94 95 96
f 97 98 99
f 91 98 97
f 100 101 28
f 102 103 104
f 105 103 102
f 106 103 105
f 107 106 105
f 108 106 107
f 109 106 108
f 110 109 108
f 111 109 110
f 112 109 111
f 113 112 111
f 91 25 98
f 94 25 91
f 90 94 91
f 95 94 90
f 91 114 89
f 115 114 91
f 116 115 91
f 117 115 116
f 117 118 119
f 120 118 117
f 116 120 117
f 121 122 98
f 28 123 100
f 124 123 28
f 2 124 28
f 104 125 102
f 126 125 104
f 127 126 104
f 98 128 99
f 129 128 98
f 122 129 98
f 86 130 131
f 132 130 86
f 88 132 86
f 2 133 134
f 135 133 2
f 1 135 2
f 136 135 1
f 137 25 87
f 23 25 137
f 138 23 137
f 139 140 141
f 127 142 126
f 143 142 127
f 139 143 127
f 144 143 139
f 141 144 139
f 145 112 113
f 146 112 145
f 147 146 145
f 121 148 149
f 150 148 121
f 98 150 121
f 2 151 124
f 152 151 2
f 134 152 2
f 131 152 134
f 153 131 134
f 86 131 153
f 140 154 141
f 155 154 140
f 119 155 140
f 156 155 119
f 118 156 119
f 94 28 101
f 157 28 94
f 96 157 94
f 158 9 159
f 7 9 158
f 136 7 158
f 5 7 136
f 1 5 136
f 159 13 160
f 11 13 159
f 9 11 159
f 138 21 23
f 19 21 138
f 161 19 138
f 17 19 161
f 160 17 161
f 15 17 160
f 13 15 160
f 162 146 147
f 163 146 162
f 28 163 162
f 164 163 28
f 157 164 28
f 165 166 26
f 167 168 166
f 169 168 167
f 170 169 167
f 171 3 172
f 173 3 171
f 174 175 27
f 176 175 174
f 177 80 78
f 176 178 179
f 180 178 176
f 174 180 176
f 166 181 182
f 183 181 166
f 168 183 166
f 3 184 172
f 185 184 3
f 27 185 3
f 186 185 27
f 175 186 27
f 85 84 187
f 179 188 189
f 190 188 179
f 178 190 179
f 189 191 192
f 193 191 189
f 188 193 189
f 166 194 26
f 195 194 166
f 196 195 166
f 197 80 177
f 82 80 197
f 84 82 197
f 192 198 199
f 200 198 192
f 191 200 192
f 201 202 203
f 204 202 201
f 199 204 201
f 205 204 199
f 198 205 199
f 166 206 196
f 207 206 166
f 182 207 166
f 76 177 78
f 173 177 76
f 74 173 76
f 3 173 74
f 72 3 74
f 175 208 186
f 209 208 175
f 210 209 175
f 4 66 6
f 68 66 4
f 3 68 4
f 70 68 3
f 72 70 3
f 170 211 169
f 212 211 170
f 213 212 170
f 54 214 52
f 215 214 54
f 56 215 54
f 26 216 165
f 217 216 26
f 218 217 26
f 40 20 18
f 203 219 220
f 221 219 203
f 202 221 203
f 213 222 212
f 223 222 213
f 224 223 213
f 218 225 226
f 227 225 218
f 26 227 218
f 228 227 26
f 24 228 26
f 229 228 24
f 218 230 231
f 232 230 218
f 226 232 218
f 224 233 223
f 234 233 224
f 235 234 224
f 42 20 40
f 22 20 42
f 44 22 42
f 24 22 44
f 46 24 44
f 229 24 46
f 48 229 46
f 18 38 40
f 36 38 18
f 16 36 18
f 34 36 16
f 14 34 16
f 32 34 14
f 12 32 14
f 30 32 12
f 10 30 12
f 60 30 10
f 8 60 10
f 62 60 8
f 6 62 8
f 64 62 6
f 66 64 6
f 235 236 234
f 237 236 235
f 220 237 235
f 238 237 220
f 219 238 220
f 215 85 187
f 58 85 215
f 56 58 215
f 50 229 48
f 239 229 50
f 52 239 50
f 240 239 52
f 214 240 52
f 175 241 210
f 242 241 175
f 243 242 175
f 244 242 243
f 218 244 243
f 245 244 218
f 231 245 218
f 231 246 245
f 247 246 231
f 230 247 231
f 248 247 230
f 232 248 230
f 249 248 232
f 226 249 232
f 250 249 226
f 225 250 226
f 251 250 225
f 227 251 225
f 252 251 227
f 228 252 227
f 253 252 228
f 229 253 228
f 254 253 229
f 239 254 229
f 255 254 239
f 240 255 239
f 256 255 240
f 214 256 240
f 257 256 214
f 215 257 214
f 258 257 215
f 187 258 215
f 259 258 187
f 84 259 187
f 260 259 84
f 197 260 84
f 261 245 246
f 244 245 261
f 262 244 261
f 242 244 262
f 263 242 262
f 241 242 263
f 264 241 263
f 210 241 264
f 265 210 264
f 209 210 265
f 266 209 265
f 208 209 266
f 267 208 266
f 186 208 267
f 268 186 267
f 185 186 268
f 269 185 268
f 184 185 269
f 270 184 269
f 172 184 270
f 271 172 270
f 171 172 271
f 272 171 271
f 173 171 272
f 273 173 272
f 177 173 273
f 260 177 273
f 197 177 260
f 130 259 131
f 258 259 130
f 132 258 130
f 257 258 132
f 132 256 257
f 255 256 132
f 88 255 132
f 254 255 88
f 92 254 88
f 253 254 92
f 92 252 253
f 251 252 92
f 93 251 92
f 249 94 248
f 93 94 249
f 250 93 249
f 251 93 250
f 94 247 248
f 246 247 94
f 101 246 94
f 261 246 101
f 101 262 261
f 263 262 101
f 100 263 101
f 100 264 263
f 265 264 100
f 123 265 100
f 123 266 265
f 267 266 123
f 124 267 123
f 124 268 267
f 269 268 124
f 151 269 124
f 151 270 269
f 271 270 151
f 152 271 151
f 152 272 271
f 273 272 152
f 131 273 152
f 260 273 131
f 259 260 131
f 161 33 160
f 35 33 161
f 161 37 35
f 39 37 161
f 138 39 161
f 41 39 138
f 137 41 138
f 137 43 41
f 45 43 137
f 87 45 137
f 47 45 87
f 51 86 53
f 87 86 51
f 49 87 51
f 47 87 49
f 86 55 53
f 57 55 86
f 153 57 86
f 59 57 153
f 153 83 59
f 81 83 153
f 134 81 153
f 134 79 81
f 77 79 134
f 133 77 134
f 133 75 77
f 73 75 133
f 135 73 133
f 71 73 135
f 136 71 135
f 69 71 136
f 136 67 69
f 65 67 136
f 158 65 136
f 158 63 65
f 61 63 158
f 159 61 158
f 31 61 159
f 160 31 159
f 29 31 160
f 33 29 160
f 27 28 162
f 162 174 27
f 180 174 162
f 147 180 162
f 178 180 147
f 145 178 147
f 190 178 145
f 113 190 145
f 188 190 113
f 111 188 113
f 193 188 111
f 110 193 111
f 191 193 110
f 108 191 110
f 200 191 108
f 107 200 108
f 198 200 107
f 105 198 107
f 205 198 105
f 102 205 105
f 204 205 102
f 125 204 102
f 202 204 125
f 126 202 125
f 221 202 126
f 142 221 126
f 219 221 142
f 143 219 142
f 238 219 143
f 144 238 143
f 237 238 144
f 141 237 144
f 236 237 141
f 154 236 141
f 25 26 194
f 194 98 25
f 150 98 194
f 195 150 194
f 148 150 195
f 196 148 195
f 149 148 196
f 206 149 196
f 121 149 206
f 207 121 206
f 122 121 207
f 182 122 207
f 129 122 182
f 181 129 182
f 128 129 181
f 183 128 181
f 99 128 183
f 168 99 183
f 97 99 168
f 169 97 168
f 91 97 169
f 211 91 169
f 116 91 211
f 212 116 211
f 120 116 212
f 222 120 212
f 118 120 222
f 223 118 222
f 156 118 223
f 233 156 223
f 155 156 233
f 234 155 233
f 154 155 234
f 236 154 234
f 139 235 140
f 220 235 139
f 127 220 139
f 203 220 127
f 104 203 127
f 201 203 104
f 103 201 104
f 199 201 103
f 106 199 103
f 192 199 106
f 109 192 106
f 189 192 109
f 112 189 109
f 179 189 112
f 146 179 112
f 176 179 146
f 163 176 146
f 175 176 163
f 164 175 163
f 243 175 164
f 157 243 164
f 218 243 157
f 96 218 157
f 217 218 96
f 95 217 96
f 216 217 95
f 90 216 95
f 165 216 90
f 89 165 90
f 166 165 89
f 114 166 89
f 167 166 114
f 115 167 114
f 170 167 115
f 117 170 115
f 213 170 117
f 119 213 117
f 224 213 119
f 140 224 119
f 235 224 140
f 274 275 276
f 277 275 274
f 278 279 280
f 281 279 278
f 282 281 278
f 283 281 282
f 284 285 286
f 287 285 284
f 287 288 289
f 290 288 287
f 284 290 287
f 291 290 284
f 284 292 291
f 293 292 284
f 294 293 284
f 295 293 294
f 294 296 295
f 297 296 294
f 298 297 294
f 299 297 298
f 300 299 298
f 301 302 303
f 304 302 301
f 305 306 307
f 308 306 305
f 309 310 311
f 312 310 309
f 307 310 312
f 306 310 307
f 313 314 315
f 316 314 313
f 317 318 314
f 319 320 321
f 311 321 309
f 319 321 311
f 308 319 311
f 305 319 308
f 322 323 324
f 322 325 326
f 327 325 322
f 324 327 322
f 328 329 330
f 316 317 314
f 325 317 316
f 331 325 316
f 326 325 331
f 329 326 331
f 332 326 329
f 328 332 329
f 330 321 328
f 309 321 330
f 316 309 330
f 305 309 316
f 313 305 316
f 319 305 313
f 333 284 286
f 334 284 333
f 282 335 336
f 337 335 282
f 278 337 282
f 338 339 275
f 338 340 339
f 341 340 338
f 333 341 338
f 285 341 333
f 286 285 333
f 342 282 336
f 343 282 342
f 338 343 342
f 277 343 338
f 275 277 338
f 298 294 344
f 298 342 345
f 338 342 298
f 344 338 298
f 346 334 347
f 284 334 346
f 348 284 346
f 294 284 348
f 349 294 348
f 344 294 349
f 350 344 349
f 338 344 350
f 351 333 352
f 353 333 351
f 338 354 355
f 356 333 353
f 334 333 356
f 347 334 356
f 338 357 354
f 358 357 338
f 350 358 338
f 333 359 352
f 360 359 333
f 338 360 333
f 361 360 338
f 355 361 338
f 347 362 346
f 356 362 347
f 363 350 364
f 358 350 363
f 365 358 363
f 357 358 365
f 366 357 365
f 354 357 366
f 367 354 366
f 355 354 367
f 368 355 367
f 361 355 368
f 369 361 368
f 360 361 369
f 370 360 369
f 359 360 370
f 371 359 370
f 352 359 371
f 372 352 371
f 351 352 372
f 373 351 372
f 353 351 373
f 362 353 373
f 356 353 362
f 350 348 364
f 349 348 350
f 374 375 346
f 376 346 375
f 348 346 376
f 377 348 376
f 378 370 379
f 371 370 378
f 380 371 378
f 381 362 382
f 346 362 381
f 383 346 381
f 374 346 383
f 380 372 371
f 373 372 380
f 384 373 380
f 362 373 384
f 385 362 384
f 386 362 385
f 366 387 388
f 389 390 364
f 391 386 392
f 362 386 391
f 393 362 391
f 382 362 393
f 365 387 366
f 394 387 365
f 363 394 365
f 348 389 364
f 395 389 348
f 377 395 348
f 388 367 366
f 368 367 388
f 379 368 388
f 369 368 379
f 370 369 379
f 364 394 363
f 396 394 364
f 390 396 364
f 397 396 390
f 398 397 390
f 398 391 392
f 399 391 398
f 390 399 398
f 400 302 401
f 303 302 400
f 400 301 303
f 402 301 400
f 403 402 400
f 318 281 283
f 404 281 318
f 405 404 318
f 406 404 405
f 407 406 405
f 408 324 409
f 327 324 408
f 407 327 408
f 410 327 407
f 405 410 407
f 318 411 412
f 403 411 318
f 283 403 318
f 402 403 283
f 318 413 314
f 414 413 318
f 412 414 318
f 415 416 417
f 418 416 415
f 419 418 415
f 420 418 419
f 421 420 419
f 422 420 421
f 423 422 421
f 424 422 423
f 425 424 423
f 426 424 425
f 427 426 425
f 428 426 427
f 429 428 427
f 430 428 429
f 431 430 429
f 432 430 431
f 433 432 431
f 434 432 433
f 435 434 433
f 436 434 435
f 437 436 435
f 438 436 437
f 439 438 437
f 440 438 439
f 441 440 439
f 417 440 441
f 415 417 441
f 433 385 435
f 386 385 433
f 431 386 433
f 392 386 431
f 429 392 431
f 398 392 429
f 427 398 429
f 397 398 427
f 425 397 427
f 396 397 425
f 423 396 425
f 394 396 423
f 421 394 423
f 387 394 421
f 419 387 421
f 388 387 419
f 415 388 419
f 379 388 415
f 441 379 415
f 378 379 441
f 439 378 441
f 380 378 439
f 437 380 439
f 384 380 437
f 435 384 437
f 385 384 435
f 442 289 443
f 444 289 442
f 445 444 442
f 446 444 445
f 447 446 445
f 448 446 447
f 449 448 447
f 449 450 448
f 300 450 449
f 451 300 449
f 299 300 451
f 452 299 451
f 297 299 452
f 453 297 452
f 296 297 453
f 454 296 453
f 295 296 454
f 455 295 454
f 293 295 455
f 456 293 455
f 292 293 456
f 457 292 456
f 291 292 457
f 458 291 457
f 290 291 458
f 443 290 458
f 288 290 443
f 289 288 443
f 456 383 457
f 374 383 456
f 455 374 456
f 375 374 455
f 454 375 455
f 376 375 454
f 453 376 454
f 377 376 453
f 452 377 453
f 395 377 452
f 451 395 452
f 389 395 451
f 449 389 451
f 390 389 449
f 447 390 449
f 399 390 447
f 445 399 447
f 391 399 445
f 442 391 445
f 393 391 442
f 443 393 442
f 382 393 443
f 458 382 443
f 381 382 458
f 457 381 458
f 383 381 457
f 459 302 304
f 401 302 459
f 460 461 462
f 276 463 274
f 298 463 276
f 464 298 276
f 300 298 464
f 465 300 464
f 289 300 465
f 466 289 465
f 287 289 466
f 328 467 460
f 468 467 328
f 321 468 328
f 469 468 321
f 470 469 321
f 471 460 462
f 328 460 471
f 472 328 471
f 280 459 473
f 401 459 280
f 279 401 280
f 460 401 279
f 474 460 279
f 461 460 474
f 459 475 473
f 476 475 459
f 463 476 459
f 345 476 463
f 298 345 463
f 409 324 323
f 332 328 472
f 332 477 478
f 323 477 332
f 472 323 332
f 409 323 472
f 408 472 471
f 409 472 408
f 469 413 414
f 470 413 469
f 315 413 470
f 314 413 315
f 320 470 321
f 315 470 320
f 479 315 320
f 480 315 479
f 322 481 482
f 326 481 322
f 323 482 477
f 322 482 323
f 326 478 481
f 332 478 326
f 482 478 477
f 481 478 482
f 317 483 484
f 325 483 317
f 405 317 484
f 318 317 405
f 325 410 483
f 327 410 325
f 410 484 483
f 405 484 410
f 485 331 316
f 486 331 485
f 329 486 487
f 331 486 329
f 488 329 487
f 330 329 488
f 308 310 306
f 311 310 308
f 488 486 485
f 487 486 488
f 339 276 275
f 464 276 339
f 340 464 339
f 465 464 340
f 341 465 340
f 466 465 341
f 285 466 341
f 287 466 285
f 412 469 414
f 468 469 412
f 411 468 412
f 467 468 411
f 403 467 411
f 460 467 403
f 400 460 403
f 401 460 400
f 462 408 471
f 407 408 462
f 461 407 462
f 406 407 461
f 474 406 461
f 404 406 474
f 279 404 474
f 281 404 279
f 309 307 312
f 305 307 309
f 488 316 330
f 485 316 488
f 450 300 289
f 450 446 448
f 444 446 450
f 289 444 450
f 489 416 418
f 420 489 418
f 489 424 426
f 422 424 489
f 420 422 489
f 489 430 432
f 428 430 489
f 426 428 489
f 489 436 438
f 434 436 489
f 432 434 489
f 489 417 416
f 440 417 489
f 438 440 489
f 343 274 463
f 277 274 343
f 301 459 304
f 402 459 301
f 463 490 491
f 459 492 463
f 493 492 459
f 494 283 282
f 402 283 494
f 282 495 494
f 496 495 282
f 497 496 282
f 343 463 498
f 459 499 493
f 500 499 459
f 501 500 459
f 282 502 497
f 503 502 282
f 343 503 282
f 343 504 503
f 505 504 343
f 506 505 343
f 463 507 498
f 508 507 463
f 491 508 463
f 509 510 511
f 459 512 501
f 513 512 459
f 514 513 459
f 459 515 516
f 517 515 459
f 459 518 517
f 519 518 459
f 402 519 459
f 520 519 402
f 494 520 402
f 343 521 506
f 522 521 343
f 498 522 343
f 523 459 516
f 514 459 523
f 511 514 523
f 524 514 511
f 510 524 511
f 490 525 526
f 511 527 509
f 528 527 511
f 490 528 511
f 529 528 490
f 526 529 490
f 490 530 525
f 531 530 490
f 463 531 490
f 532 531 463
f 463 533 532
f 534 533 463
f 535 534 463
f 463 536 535
f 537 536 463
f 492 537 463
f 538 539 540
f 540 539 541
f 542 543 540
f 540 543 544
f 540 544 538
f 545 546 540
f 540 546 547
f 540 547 542
f 548 549 540
f 540 549 550
f 540 550 545
f 540 541 548
f 541 539 551
f 539 552 551
f 553 552 539
f 538 553 539
f 538 554 553
f 555 554 538
f 544 555 538
f 544 556 555
f 557 556 544
f 543 557 544
f 543 558 557
f 559 558 543
f 542 559 543
f 542 560 559
f 561 560 542
f 547 561 542
f 547 562 561
f 563 562 547
f 546 563 547
f 546 564 563
f 565 564 546
f 545 565 546
f 545 566 565
f 567 566 545
f 550 567 545
f 550 568 567
f 569 568 550
f 549 569 550
f 549 570 569
f 571 570 549
f 548 571 549
f 548 572 571
f 573 572 548
f 541 573 548
f 574 573 541
f 551 574 541
f 552 518 551
f 517 518 552
f 553 517 552
f 515 517 553
f 554 515 553
f 516 515 554
f 555 516 554
f 523 516 555
f 556 523 555
f 511 523 556
f 557 511 556
f 490 511 557
f 558 490 557
f 491 490 558
f 559 491 558
f 508 491 559
f 560 508 559
f 507 508 560
f 561 507 560
f 498 507 561
f 562 498 561
f 522 498 562
f 563 522 562
f 521 522 563
f 564 521 563
f 506 521 564
f 565 506 564
f 505 506 565
f 566 505 565
f 504 505 566
f 567 504 566
f 503 504 567
f 568 503 567
f 502 503 568
f 569 502 568
f 497 502 569
f 570 497 569
f 496 497 570
f 571 496 570
f 495 496 571
f 572 495 571
f 494 495 572
f 573 494 572
f 520 494 573
f 574 520 573
f 519 520 574
f 551 519 574
f 518 519 551
f 575 576 577
f 577 576 578
f 579 580 577
f 577 580 581
f 577 581 575
f 582 583 577
f 577 583 584
f 577 584 579
f 585 586 577
f 577 586 587
f 577 587 582
f 577 578 585
f 588 578 576
f 576 589 588
f 590 589 576
f 575 590 576
f 575 591 590
f 592 591 575
f 581 592 575
f 581 593 592
f 594 593 581
f 580 594 581
f 580 595 594
f 596 595 580
f 579 596 580
f 579 597 596
f 598 597 579
f 584 598 579
f 584 599 598
f 600 599 584
f 583 600 584
f 583 601 600
f 602 601 583
f 582 602 583
f 582 603 602
f 604 603 582
f 587 604 582
f 587 605 604
f 606 605 587
f 586 606 587
f 586 607 606
f 608 607 586
f 585 608 586
f 585 609 608
f 610 609 585
f 578 610 585
f 611 610 578
f 588 611 578
f 589 512 588
f 501 512 589
f 590 501 589
f 500 501 590
f 591 500 590
f 499 500 591
f 592 499 591
f 493 499 592
f 593 493 592
f 492 493 593
f 594 492 593
f 537 492 594
f 595 537 594
f 536 537 595
f 596 536 595
f 535 536 596
f 597 535 596
f 534 535 597
f 598 534 597
f 533 534 598
f 599 533 598
f 532 533 599
f 600 532 599
f 531 532 600
f 601 531 600
f 530 531 601
f 602 530 601
f 525 530 602
f 603 525 602
f 526 525 603
f 604 526 603
f 529 526 604
f 605 529 604
f 528 529 605
f 606 528 605
f 527 528 606
f 607 527 606
f 509 527 607
f 608 509 607
f 510 509 608
f 609 510 608
f 524 510 609
f 610 524 609
f 514 524 610
f 611 514 610
f 513 514 611
f 588 513 611
f 512 513 588
f 319 612 613
f 313 612 319
f 319 479 320
f 613 479 319
f 315 612 313
f 480 612 315
f 613 480 479
f 612 480 613
f 336 345 342
f 476 345 336
f 335 476 336
f 475 476 335
f 337 475 335
f 473 475 337
f 278 473 337
f 280 473 278
f 614 615 616
f 617 615 614
f 618 619 620
f 621 619 618
f 622 623 624
f 625 623 622
f 626 627 628
f 629 627 626
f 627 625 622
f 629 625 627
f 620 614 616
f 619 614 620
f 630 631 632
f 633 631 630
f 634 633 630
f 635 633 634
f 636 635 634
f 637 635 636
f 638 639 640
f 641 639 638
f 642 641 638
f 643 641 642
f 644 643 642
f 645 643 644
f 644 631 645
f 632 631 644
f 626 640 639
f 646 640 626
f 628 646 626
f 647 646 628
f 617 648 615
f 649 648 617
f 637 649 617
f 636 649 637
f 625 643 645
f 631 625 645
f 623 625 631
f 633 623 631
f 639 629 626
f 625 629 639
f 641 625 639
f 643 625 641
f 637 614 619
f 617 614 637
f 623 650 651
f 621 650 623
f 633 621 623
f 619 621 633
f 635 619 633
f 637 619 635
f 652 653 654
f 655 656 657
f 654 656 655
f 658 654 655
f 652 654 658
f 659 660 661
f 662 659 661
f 659 663 664
f 665 663 659
f 662 665 659
f 664 653 659
f 654 653 664
f 663 654 664
f 656 654 663
f 665 656 663
f 657 656 665
f 662 657 665
f 655 657 662
f 661 655 662
f 658 655 661
f 660 658 661
f 652 658 660
f 666 667 668
f 669 670 671
f 668 670 669
f 672 668 669
f 666 668 672
f 673 674 675
f 676 675 677
f 673 675 676
f 678 673 676
f 679 673 678
f 673 669 674
f 672 669 673
f 679 672 673
f 666 672 679
f 678 666 679
f 667 666 678
f 676 667 678
f 668 667 676
f 677 668 676
f 670 668 677
f 675 670 677
f 671 670 675
f 680 681 682
f 683 681 680
f 684 683 680
f 685 683 684
f 686 685 684
f 687 685 686
f 688 687 686
f 689 687 688
f 690 689 688
f 691 689 690
f 692 693 694
f 695 693 692
f 696 695 692
f 697 695 696
f 698 697 696
f 699 697 698
f 700 699 698
f 701 699 700
f 702 701 700
f 703 701 702
f 704 705 706
f 707 705 704
f 708 707 704
f 709 707 708
f 710 709 708
f 711 709 710
f 712 711 710
f 713 711 712
f 714 713 712
f 715 713 714
f 716 717 718
f 719 717 716
f 720 719 716
f 721 719 720
f 722 721 720
f 723 721 722
f 724 723 722
f 725 723 724
f 726 725 724
f 727 725 726
f 622 708 704
f 712 728 714
f 624 728 712
f 682 647 628
f 624 708 622
f 710 708 624
f 712 710 624
f 628 680 682
f 684 680 628
f 627 684 628
f 686 684 627
f 627 688 686
f 690 688 627
f 622 690 627
f 706 690 622
f 704 706 622
f 703 717 719
f 689 638 640
f 640 687 689
f 685 687 640
f 646 685 640
f 683 685 646
f 681 683 646
f 725 636 723
f 649 636 725
f 727 649 725
f 636 721 723
f 719 721 636
f 634 719 636
f 703 719 634
f 701 713 699
f 632 713 701
f 703 632 701
f 630 632 703
f 634 630 703
f 695 715 693
f 713 715 695
f 697 713 695
f 699 713 697
f 632 711 713
f 709 711 632
f 644 709 632
f 707 709 644
f 642 707 644
f 705 707 642
f 638 705 642
f 691 705 638
f 689 691 638
f 651 714 728
f 715 714 651
f 650 715 651
f 693 715 650
f 729 693 650
f 694 693 729
f 647 681 646
f 682 681 647
f 652 705 653
f 706 705 652
f 660 706 652
f 690 706 660
f 659 690 660
f 691 690 659
f 653 691 659
f 705 691 653
f 669 718 674
f 702 718 669
f 671 702 669
f 703 702 671
f 675 703 671
f 717 703 675
f 674 717 675
f 718 717 674
f 702 616 718
f 620 616 702
f 700 620 702
f 694 729 618
f 616 716 718
f 720 716 616
f 615 720 616
f 618 692 694
f 696 692 618
f 620 696 618
f 698 696 620
f 700 698 620
f 724 648 726
f 615 648 724
f 722 615 724
f 720 615 722
f 649 726 648
f 727 726 649
f 618 650 621
f 729 650 618
f 623 728 624
f 651 728 623
f 730 731 732
f 733 731 730
f 734 733 730
f 735 733 734
f 736 735 734
f 737 735 736
f 738 737 736
f 739 737 738
f 740 739 738
f 741 739 740
f 742 743 744
f 745 743 742
f 746 745 742
f 747 745 746
f 748 747 746
f 749 747 748
f 750 749 748
f 751 749 750
f 752 751 750
f 753 751 752
f 754 755 756
f 757 755 754
f 758 757 754
f 759 757 758
f 760 759 758
f 761 759 760
f 762 761 760
f 763 761 762
f 764 763 762
f 765 763 764
f 766 767 768
f 769 767 766
f 770 769 766
f 771 769 770
f 772 771 770
f 773 771 772
f 774 773 772
f 775 773 774
f 776 775 774
f 777 775 776
f 764 767 765
f 768 767 764
f 743 776 744
f 777 776 743
f 755 740 756
f 741 740 755
f 778 779 780
f 781 779 778
f 782 779 781
f 783 779 782
f 783 780 779
f 784 780 783
f 784 778 780
f 785 778 784
f 785 781 778
f 782 781 785
f 786 787 788
f 789 787 786
f 790 786 788
f 791 786 790
f 792 788 787
f 790 788 792
f 793 787 789
f 792 787 793
f 791 789 786
f 793 789 791
f 768 764 762
f 774 748 746
f 774 750 748
f 752 750 774
f 772 752 774
f 732 752 772
f 774 744 776
f 742 744 774
f 746 742 774
f 736 766 768
f 770 766 736
f 734 770 736
f 772 770 734
f 730 772 734
f 732 772 730
f 738 756 740
f 754 756 738
f 736 754 738
f 758 754 736
f 768 758 736
f 760 758 768
f 762 760 768
f 794 795 796
f 797 795 794
f 798 795 797
f 799 795 798
f 799 796 795
f 800 796 799
f 800 794 796
f 801 794 800
f 732 731 798
f 801 753 752
f 732 801 752
f 798 801 732
f 790 801 798
f 797 790 798
f 791 790 797
f 794 791 797
f 793 791 794
f 801 793 794
f 792 793 801
f 790 792 801
f 799 739 741
f 799 785 800
f 782 785 799
f 800 747 749
f 799 737 739
f 735 737 799
f 798 735 799
f 733 735 798
f 731 733 798
f 767 784 783
f 751 800 749
f 801 800 751
f 753 801 751
f 783 765 767
f 763 765 783
f 782 763 783
f 761 763 782
f 782 759 761
f 757 759 782
f 799 757 782
f 755 757 799
f 741 755 799
f 800 745 747
f 743 745 800
f 785 743 800
f 777 743 785
f 775 777 785
f 785 773 775
f 771 773 785
f 784 771 785
f 769 771 784
f 767 769 784
f 802 803 804
f 805 803 802
f 806 807 808
f 809 807 806
f 810 811 812
f 813 811 810
f 814 815 816
f 817 815 814
f 818 819 820
f 821 818 820
f 822 818 821
f 823 822 821
f 824 822 823
f 825 824 823
f 826 820 819
f 827 826 819
f 828 826 827
f 829 828 827
f 830 828 829
f 831 830 829
f 824 818 822
f 819 818 824
f 824 827 819
f 829 827 824
f 831 829 824
f 820 826 828
f 825 828 830
f 820 828 825
f 823 820 825
f 821 820 823
f 832 833 834
f 835 832 834
f 836 832 835
f 837 836 835
f 838 836 837
f 839 838 837
f 840 834 833
f 841 840 833
f 842 840 841
f 843 842 841
f 844 842 843
f 845 844 843
f 839 837 835
f 842 834 840
f 835 834 842
f 844 835 842
f 839 835 844
f 841 833 832
f 845 836 838
f 832 836 845
f 843 832 845
f 841 832 843
f 846 847 848
f 849 847 846
f 849 850 847
f 851 850 849
f 851 852 850
f 853 852 851
f 854 855 856
f 857 855 854
f 858 859 860
f 861 859 858
f 862 863 864
f 865 863 862
f 866 867 868
f 869 867 866
f 810 815 817
f 812 815 810
f 814 803 805
f 816 803 814
f 802 807 809
f 804 807 802
f 806 811 813
f 808 811 806
f 870 803 871
f 804 803 870
f 872 804 870
f 873 807 874
f 808 807 873
f 875 808 873
f 807 876 874
f 877 876 807
f 804 877 807
f 878 877 804
f 872 878 804
f 879 811 880
f 812 811 879
f 881 812 879
f 811 882 880
f 883 882 811
f 808 883 811
f 884 883 808
f 875 884 808
f 803 885 871
f 886 885 803
f 816 886 803
f 887 886 816
f 816 888 887
f 889 888 816
f 815 889 816
f 890 889 815
f 815 891 890
f 892 891 815
f 812 892 815
f 893 892 812
f 881 893 812
f 885 886 894
f 895 885 894
f 871 885 895
f 896 871 895
f 870 871 896
f 897 870 896
f 872 870 897
f 898 872 897
f 878 872 898
f 899 878 898
f 876 877 900
f 901 876 900
f 874 876 901
f 902 874 901
f 873 874 902
f 903 873 902
f 875 873 903
f 904 875 903
f 884 875 904
f 905 884 904
f 882 883 906
f 907 882 906
f 880 882 907
f 908 880 907
f 879 880 908
f 909 879 908
f 881 879 909
f 910 881 909
f 893 881 910
f 911 893 910
f 891 892 912
f 913 891 912
f 890 891 913
f 914 890 913
f 889 890 914
f 915 889 914
f 888 889 915
f 916 888 915
f 887 888 916
f 917 887 916
f 825 878 824
f 877 878 825
f 830 877 825
f 900 877 830
f 831 900 830
f 899 900 831
f 824 899 831
f 878 899 824
f 883 905 906
f 884 905 883
f 851 917 853
f 887 917 851
f 849 887 851
f 886 887 849
f 846 886 849
f 894 886 846
f 846 848 867
f 867 894 846
f 895 894 867
f 896 895 867
f 867 897 896
f 898 897 867
f 869 898 867
f 899 898 869
f 863 899 869
f 863 900 899
f 901 900 863
f 902 901 863
f 863 903 902
f 904 903 863
f 865 904 863
f 905 904 865
f 859 905 865
f 859 906 905
f 907 906 859
f 908 907 859
f 914 913 855
f 859 909 908
f 910 909 859
f 861 910 859
f 911 910 861
f 855 911 861
f 912 911 855
f 913 912 855
f 917 852 853
f 857 852 917
f 916 857 917
f 855 857 916
f 915 855 916
f 914 855 915
f 856 861 858
f 855 861 856
f 860 865 862
f 859 865 860
f 864 869 866
f 863 869 864
f 847 867 848
f 868 867 847
f 850 868 847
f 854 868 850
f 852 854 850
f 857 854 852
f 844 892 839
f 912 892 844
f 845 912 844
f 911 912 845
f 838 911 845
f 893 911 838
f 839 893 838
f 892 893 839
f 814 856 817
f 854 856 814
f 805 854 814
f 868 854 805
f 802 868 805
f 866 868 802
f 809 866 802
f 864 866 809
f 806 864 809
f 862 864 806
f 813 862 806
f 860 862 813
f 810 860 813
f 858 860 810
f 817 858 810
f 856 858 817
f 918 919 920
f 921 919 918
f 922 923 924
f 925 923 922
f 926 927 928
f 929 927 926
f 930 931 932
f 933 931 930
f 931 927 929
f 925 927 931
f 933 925 931
f 923 925 933
f 919 923 933
f 921 923 919
f 932 929 926
f 931 929 932
f 920 933 930
f 919 933 920
f 924 921 918
f 923 921 924
f 928 925 922
f 927 925 928
f 930 932 926
f 924 928 922
f 926 928 924
f 918 926 924
f 930 926 918
f 920 930 918

