# https://github.com/mikedh/trimesh

o right_hand_mid_DIP_link.STL
v -0.00100000 0.00230000 0.01099832
v -0.00100000 0.00362500 0.02072832
v -0.00100000 0.00362500 0.01099832
v -0.00100000 0.00230000 0.02072832
v 0.00400000 0.00100000 0.02072832
v 0.00490000 0.00100000 0.01099832
v 0.00400000 0.00100000 0.01099832
v 0.00490000 0.00100000 0.02219832
v 0.00000000 0.00100000 0.02072832
v 0.00000000 0.00100000 0.02219832
v -0.00300000 0.00462500 0.00822832
v -0.00200000 0.00462500 0.02072832
v -0.00300000 0.00462500 0.02072832
v -0.00200000 0.00462500 0.01099832
v -0.00070836 0.00462500 0.01087178
v -0.00062584 0.00462500 0.01099832
v -0.00080000 0.00462500 0.01050000
v -0.00070836 0.00462500 0.01012822
v -0.00045445 0.00462500 0.00984161
v -0.00009643 0.00462500 0.00970583
v 0.00300000 0.00462500 0.00822832
v 0.00028368 0.00462500 0.00975199
v 0.00059881 0.00462500 0.00996950
v 0.00077675 0.00462500 0.01030855
v 0.00300000 0.00462500 0.01099832
v 0.00077675 0.00462500 0.01069145
v 0.00062584 0.00462500 0.01099832
v -0.00100000 -0.00170000 0.02219832
v -0.00100000 -0.00300000 0.01099832
v -0.00100000 -0.00300000 0.02219832
v -0.00100000 -0.00170000 0.01099832
v 0.00690000 -0.00293562 0.01155000
v 0.00790000 -0.00373562 0.01155000
v 0.00790000 -0.00293562 0.01155000
v 0.00690000 -0.00373562 0.01155000
v 0.00690000 -0.00293562 0.01100000
v 0.00790000 -0.00373562 0.01100000
v 0.00690000 -0.00373562 0.01100000
v 0.00790000 -0.00293562 0.01100000
v 0.00690000 -0.00505130 0.02033431
v 0.00690000 -0.00560130 0.02219832
v 0.00690000 -0.00560130 0.02033431
v 0.00690000 0.00293301 0.01155000
v 0.00690000 -0.00373562 0.02165000
v 0.00690000 -0.00373562 0.02219832
v 0.00690000 -0.00505130 0.01286569
v 0.00690000 -0.00560130 0.01286569
v 0.00690000 -0.00560130 0.01099832
v 0.00690000 0.00504870 0.02033431
v 0.00690000 0.00559870 0.02033431
v 0.00690000 0.00559870 0.02219832
v 0.00690000 0.00373301 0.02165000
v 0.00690000 0.00504870 0.01286569
v 0.00690000 0.00373301 0.02219832
v 0.00690000 0.00559870 0.01099832
v 0.00690000 0.00373301 0.01100000
v 0.00690000 0.00293301 0.01100000
v 0.00690000 0.00373301 0.01155000
v 0.00690000 0.00559870 0.01286569
v -0.00300000 0.00762500 0.02072832
v -0.00300000 0.00762500 0.00822832
v 0.00329289 0.00129289 0.02072832
v 0.00307612 0.00161732 0.02072832
v 0.00361732 0.00107612 0.02072832
v 0.00300000 0.00762500 0.02072832
v -0.00107612 0.00400768 0.02072832
v -0.00129289 0.00433211 0.02072832
v -0.00161732 0.00454888 0.02072832
v 0.00300000 0.00200000 0.02072832
v 0.00000000 0.00230000 0.02072832
v 0.00300000 0.00762500 0.00822832
v 0.00300000 0.00200000 0.01099832
v -0.00227000 0.00642500 0.00822832
v -0.00227000 0.00762500 0.00822832
v 0.00227000 0.00642500 0.00822832
v 0.00227000 0.00762500 0.00822832
v 0.00227000 0.00762500 0.01450000
v -0.00190965 0.00762500 0.01572726
v -0.00148653 0.00762500 0.01621555
v -0.00217805 0.00762500 0.01513953
v 0.00148653 0.00762500 0.01621555
v 0.00094299 0.00762500 0.01656486
v -0.00227000 0.00762500 0.01450000
v 0.00190965 0.00762500 0.01572726
v 0.00217805 0.00762500 0.01513953
v -0.00094299 0.00762500 0.01656486
v -0.00032305 0.00762500 0.01674690
v 0.00032305 0.00762500 0.01674690
v -0.00227000 0.00642500 0.01450000
v 0.00217805 0.00642500 0.01513953
v 0.00227000 0.00642500 0.01450000
v 0.00190965 0.00642500 0.01572726
v 0.00148653 0.00642500 0.01621555
v 0.00094299 0.00642500 0.01656486
v 0.00032305 0.00642500 0.01674690
v -0.00032305 0.00642500 0.01674690
v -0.00094299 0.00642500 0.01656486
v -0.00148653 0.00642500 0.01621555
v -0.00190965 0.00642500 0.01572726
v -0.00217805 0.00642500 0.01513953
v -0.00051126 0.00642500 0.00975931
v -0.00010848 0.00642500 0.00960656
v 0.00031914 0.00642500 0.00965849
v 0.00067366 0.00642500 0.00990319
v -0.00051126 0.00642500 0.01524069
v -0.00010848 0.00642500 0.01539344
v -0.00079691 0.00642500 0.01491825
v -0.00090000 0.00642500 0.01050000
v -0.00079691 0.00642500 0.01091825
v -0.00079691 0.00642500 0.01008175
v -0.00090000 0.00642500 0.01450000
v -0.00079691 0.00642500 0.01408175
v -0.00051126 0.00642500 0.01375931
v 0.00067366 0.00642500 0.01509681
v 0.00031914 0.00642500 0.01534151
v 0.00087385 0.00642500 0.01071538
v 0.00067366 0.00642500 0.01109681
v -0.00010848 0.00642500 0.01139344
v -0.00010848 0.00642500 0.01360656
v -0.00051126 0.00642500 0.01124069
v 0.00087385 0.00642500 0.01471538
v 0.00087385 0.00642500 0.01028462
v 0.00087385 0.00642500 0.01428462
v 0.00067366 0.00642500 0.01390319
v 0.00031914 0.00642500 0.01365849
v 0.00031914 0.00642500 0.01134151
v 0.00490000 -0.00300000 0.02219832
v 0.00490000 -0.00300000 0.01099832
v 0.00000000 -0.00170000 0.02219832
v 0.00528268 -0.00307612 0.02219832
v 0.00528268 0.00107612 0.02219832
v 0.00790000 -0.00373562 0.02219832
v 0.00560711 0.00129289 0.02219832
v 0.00582388 0.00161732 0.02219832
v 0.00590000 0.00200000 0.02219832
v 0.00590000 0.00559870 0.02219832
v 0.00790000 0.00373301 0.02219832
v 0.00560711 -0.00329289 0.02219832
v 0.00582388 -0.00361732 0.02219832
v 0.00590000 -0.00560130 0.02219832
v 0.00590000 -0.00400000 0.02219832
v -0.00009643 0.00632500 0.01529417
v -0.00009643 0.00462500 0.01529417
v -0.00045445 0.00462500 0.01515839
v 0.00000000 0.00462500 0.01530000
v 0.00028368 0.00632500 0.01524801
v 0.00028368 0.00462500 0.01524801
v 0.00059881 0.00632500 0.01503050
v 0.00059881 0.00462500 0.01503050
v 0.00077675 0.00632500 0.01469145
v 0.00077675 0.00462500 0.01469145
v 0.00077675 0.00632500 0.01430855
v 0.00077675 0.00462500 0.01430855
v 0.00059881 0.00632500 0.01396950
v 0.00059881 0.00462500 0.01396950
v 0.00028368 0.00632500 0.01375199
v 0.00028368 0.00462500 0.01375199
v -0.00009643 0.00632500 0.01370583
v -0.00009643 0.00462500 0.01370583
v -0.00045445 0.00632500 0.01384161
v -0.00045445 0.00462500 0.01384161
v -0.00070836 0.00632500 0.01412822
v -0.00070836 0.00462500 0.01412822
v -0.00080000 0.00632500 0.01450000
v -0.00080000 0.00462500 0.01450000
v -0.00070836 0.00632500 0.01487178
v -0.00070836 0.00462500 0.01487178
v -0.00045445 0.00632500 0.01515839
v -0.00045445 0.00632500 0.01115839
v -0.00070836 0.00632500 0.01087178
v -0.00045445 0.00462500 0.01115839
v -0.00009643 0.00632500 0.01129417
v -0.00009643 0.00462500 0.01129417
v 0.00028368 0.00632500 0.01124801
v 0.00028368 0.00462500 0.01124801
v 0.00059881 0.00632500 0.01103050
v 0.00059881 0.00462500 0.01103050
v 0.00077675 0.00632500 0.01069145
v 0.00077675 0.00632500 0.01030855
v 0.00059881 0.00632500 0.00996950
v 0.00028368 0.00632500 0.00975199
v -0.00009643 0.00632500 0.00970583
v -0.00045445 0.00632500 0.00984161
v -0.00070836 0.00632500 0.01012822
v -0.00080000 0.00632500 0.01050000
v 0.00000000 -0.00170000 0.01099832
v 0.00528268 -0.00307612 0.01099832
v 0.00560711 0.00129289 0.01099832
v 0.00582388 0.00161732 0.01099832
v 0.00000000 0.00230000 0.01099832
v -0.00107612 0.00400768 0.01099832
v -0.00129289 0.00433211 0.01099832
v -0.00161732 0.00454888 0.01099832
v 0.00560711 -0.00329289 0.01099832
v 0.00582388 -0.00361732 0.01099832
v 0.00590000 -0.00400000 0.01099832
v 0.00590000 -0.00560130 0.01099832
v 0.00590000 0.00200000 0.01099832
v 0.00590000 0.00559870 0.01099832
v 0.00361732 0.00107612 0.01099832
v 0.00528268 0.00107612 0.01099832
v 0.00329289 0.00129289 0.01099832
v 0.00307612 0.00161732 0.01099832
v 0.00790000 0.00559870 0.02033431
v 0.00790000 0.00559870 0.01286569
v 0.00790000 -0.00560130 0.01286569
v 0.00790000 -0.00560130 0.02033431
v 0.00790000 0.00504870 0.01286569
v 0.00790000 0.00504870 0.02033431
v 0.00790000 0.00373301 0.02165000
v 0.00790000 -0.00373562 0.02165000
v 0.00790000 0.00293301 0.01155000
v 0.00790000 0.00373301 0.01155000
v 0.00790000 0.00373301 0.01100000
v 0.00790000 0.00293301 0.01100000
v 0.00000000 0.00462500 0.01450000
v 0.00000000 0.00050706 0.01742558
v 0.00000000 0.00070000 0.01750550
v 0.00000000 0.00030000 0.01219832
v 0.00000000 0.00009294 0.01222558
v 0.00000000 -0.00039282 0.01859832
v 0.00000000 -0.00026569 0.01876400
v 0.00000000 -0.00010000 0.01889114
v 0.00000000 0.00009294 0.01897106
v 0.00000000 0.00107274 0.01799126
v 0.00000000 -0.00010000 0.01230550
v 0.00000000 -0.00026569 0.01243263
v 0.00000000 -0.00039282 0.01259832
v 0.00000000 0.00030000 0.01899832
v 0.00000000 0.00050706 0.01897106
v 0.00000000 0.00070000 0.01889114
v 0.00000000 0.00086569 0.01876400
v 0.00000000 0.00099282 0.01859832
v 0.00000000 0.00099282 0.01779832
v 0.00000000 0.00086569 0.01763263
v 0.00000000 -0.00010000 0.01369114
v 0.00000000 -0.00026569 0.01356400
v 0.00000000 0.00030000 0.01739832
v 0.00000000 -0.00047274 0.01279126
v 0.00000000 -0.00050000 0.01299832
v 0.00000000 -0.00047274 0.01320537
v 0.00000000 -0.00026569 0.01763263
v 0.00000000 -0.00010000 0.01750550
v 0.00000000 -0.00039282 0.01779832
v 0.00000000 -0.00047274 0.01799126
v 0.00000000 -0.00050000 0.01819832
v 0.00000000 -0.00047274 0.01840537
v 0.00000000 0.00107274 0.01840537
v 0.00000000 0.00110000 0.01819832
v 0.00000000 0.00009294 0.01742558
v 0.00000000 -0.00039282 0.01339832
v 0.00000000 0.00086569 0.01356400
v 0.00000000 0.00070000 0.01369114
v 0.00000000 0.00009294 0.01377106
v 0.00000000 0.00030000 0.01379832
v 0.00000000 0.00050706 0.01377106
v 0.00000000 0.00099282 0.01339832
v 0.00000000 0.00107274 0.01320537
v 0.00000000 0.00110000 0.01299832
v 0.00000000 0.00107274 0.01279126
v 0.00000000 0.00099282 0.01259832
v 0.00000000 0.00086569 0.01243263
v 0.00000000 0.00070000 0.01230550
v 0.00000000 0.00050706 0.01222558
v 0.00300000 -0.00001250 0.01765705
v 0.00300000 -0.00024127 0.01788582
v 0.00337554 0.00030000 0.01819832
v 0.00300000 -0.00032500 0.01819832
v 0.00300000 0.00084127 0.01788582
v 0.00300000 0.00061250 0.01765705
v 0.00300000 0.00030000 0.01757332
v 0.00300000 0.00061250 0.01873958
v 0.00300000 0.00084127 0.01851082
v 0.00300000 0.00092500 0.01819832
v 0.00300000 -0.00024127 0.01851082
v 0.00300000 -0.00001250 0.01873958
v 0.00300000 0.00030000 0.01882332
v 0.00017500 -0.00030370 0.01803656
v 0.00017500 -0.00024127 0.01788582
v 0.00017500 -0.00014194 0.01775638
v 0.00017500 -0.00001250 0.01765705
v 0.00017500 0.00013824 0.01759461
v 0.00017500 0.00030000 0.01757332
v 0.00017500 0.00046176 0.01759461
v 0.00017500 0.00061250 0.01765705
v 0.00017500 0.00074194 0.01775638
v 0.00017500 0.00084127 0.01788582
v 0.00017500 0.00090370 0.01803656
v 0.00017500 0.00092500 0.01819832
v 0.00017500 0.00090370 0.01836008
v 0.00017500 0.00084127 0.01851082
v 0.00017500 0.00074194 0.01864026
v 0.00017500 0.00061250 0.01873958
v 0.00017500 0.00046176 0.01880202
v 0.00017500 0.00030000 0.01882332
v 0.00017500 0.00013824 0.01880202
v 0.00017500 -0.00001250 0.01873958
v 0.00017500 -0.00014194 0.01864026
v 0.00017500 -0.00024127 0.01851082
v 0.00017500 -0.00030370 0.01836008
v 0.00017500 -0.00032500 0.01819832
v 0.00300000 -0.00001250 0.01245705
v 0.00300000 -0.00024127 0.01268582
v 0.00337554 0.00030000 0.01299832
v 0.00300000 -0.00032500 0.01299832
v 0.00300000 0.00084127 0.01268582
v 0.00300000 0.00061250 0.01245705
v 0.00300000 0.00030000 0.01237332
v 0.00300000 0.00061250 0.01353958
v 0.00300000 0.00084127 0.01331082
v 0.00300000 0.00092500 0.01299832
v 0.00300000 -0.00024127 0.01331082
v 0.00300000 -0.00001250 0.01353958
v 0.00300000 0.00030000 0.01362332
v 0.00017500 -0.00030370 0.01283656
v 0.00017500 -0.00024127 0.01268582
v 0.00017500 -0.00014194 0.01255638
v 0.00017500 -0.00001250 0.01245705
v 0.00017500 0.00013824 0.01239461
v 0.00017500 0.00030000 0.01237332
v 0.00017500 0.00046176 0.01239461
v 0.00017500 0.00061250 0.01245705
v 0.00017500 0.00074194 0.01255638
v 0.00017500 0.00084127 0.01268582
v 0.00017500 0.00090370 0.01283656
v 0.00017500 0.00092500 0.01299832
v 0.00017500 0.00090370 0.01316008
v 0.00017500 0.00084127 0.01331082
v 0.00017500 0.00074194 0.01344026
v 0.00017500 0.00061250 0.01353958
v 0.00017500 0.00046176 0.01360202
v 0.00017500 0.00030000 0.01362332
v 0.00017500 0.00013824 0.01360202
v 0.00017500 -0.00001250 0.01353958
v 0.00017500 -0.00014194 0.01344026
v 0.00017500 -0.00024127 0.01331082
v 0.00017500 -0.00030370 0.01316008
v 0.00017500 -0.00032500 0.01299832
v 0.00790000 -0.00505130 0.02033431
v 0.00790000 -0.00505130 0.01286569
v 0.00218367 0.00642503 0.01504229
v 0.00225000 0.00642503 0.01450000
v 0.00225000 0.00762499 0.01450000
v 0.00218367 0.00762499 0.01504229
v 0.00190820 0.00642503 0.01569217
v 0.00190820 0.00762499 0.01569217
v 0.00144495 0.00642503 0.01622471
v 0.00144495 0.00762499 0.01622471
v 0.00083949 0.00642503 0.01658753
v 0.00083949 0.00762499 0.01658753
v 0.00031160 0.00642503 0.01672832
v 0.00031160 0.00762499 0.01672832
v -0.00020005 0.00642503 0.01674109
v -0.00020005 0.00762499 0.01674109
v -0.00088133 0.00642503 0.01657021
v -0.00088133 0.00762499 0.01657021
v -0.00147672 0.00642503 0.01619759
v -0.00147672 0.00762499 0.01619759
v -0.00192821 0.00642503 0.01565954
v -0.00192821 0.00762499 0.01565954
v -0.00219179 0.00642503 0.01500849
v -0.00219179 0.00762499 0.01500849
v -0.00225000 0.00642503 0.01450000
v -0.00225000 0.00762499 0.01450000
v -0.00225000 0.00642503 0.00767712
v -0.00225001 0.00762499 0.00767712
v 0.00225000 0.00762499 0.00767713
v 0.00225000 0.00642503 0.00767713
v -0.00011280 0.00672496 0.01559420
v 0.00027698 0.00762499 0.01648073
v 0.00015234 0.00672496 0.01558940
v -0.00020509 0.00762499 0.01648946
v -0.00037138 0.00672496 0.01553541
v -0.00067524 0.00762499 0.01638257
v -0.00060838 0.00672496 0.01541645
v -0.00110614 0.00762499 0.01616627
v -0.00081002 0.00672496 0.01524422
v -0.00147276 0.00762499 0.01585313
v -0.00096459 0.00672496 0.01502875
v -0.00175379 0.00762499 0.01546136
v -0.00106309 0.00672496 0.01478254
v -0.00193290 0.00762499 0.01501371
v -0.00109982 0.00672496 0.01451992
v -0.00199967 0.00762499 0.01453621
v -0.00107263 0.00672496 0.01425613
v -0.00195023 0.00762499 0.01405661
v -0.00098310 0.00672496 0.01400652
v -0.00178745 0.00762499 0.01360277
v -0.00083643 0.00672496 0.01378559
v -0.00152079 0.00762499 0.01320108
v -0.00064116 0.00672496 0.01360618
v -0.00116574 0.00762499 0.01287487
v -0.00040862 0.00672496 0.01347871
v -0.00074295 0.00762499 0.01264311
v -0.00019826 0.00672496 0.01341802
v -0.00036047 0.00762499 0.01253275
v -0.00015234 0.00672496 0.01341060
v -0.00027698 0.00762499 0.01251927
v -0.00010615 0.00672496 0.01340513
v 0.00074295 0.00762499 0.01635689
v 0.00040862 0.00672496 0.01552129
v 0.00116574 0.00762499 0.01612513
v 0.00064116 0.00672496 0.01539382
v 0.00152079 0.00762499 0.01579892
v 0.00083643 0.00672496 0.01521441
v 0.00178745 0.00762499 0.01539723
v 0.00098310 0.00672496 0.01499348
v 0.00195023 0.00762499 0.01494339
v 0.00107263 0.00672496 0.01474387
v 0.00199967 0.00762499 0.01446379
v 0.00109982 0.00672496 0.01448009
v 0.00193290 0.00762499 0.01398629
v 0.00106309 0.00672496 0.01421746
v 0.00175379 0.00762499 0.01353864
v 0.00096459 0.00672496 0.01397125
v 0.00147276 0.00762499 0.01314687
v 0.00081002 0.00672496 0.01375578
v 0.00110614 0.00762499 0.01283373
v 0.00060838 0.00672496 0.01358355
v 0.00067524 0.00762499 0.01261743
v 0.00037138 0.00672496 0.01346459
v 0.00020509 0.00762499 0.01251054
v 0.00011280 0.00672496 0.01340580
v 0.00000000 0.00762499 0.01250000
v -0.00019299 0.00762499 0.01250933
v -0.00040862 0.00642503 0.01347871
v -0.00083643 0.00642503 0.01378559
v -0.00106309 0.00642503 0.01078254
v -0.00199970 0.00642503 -0.00003479
v -0.00189326 0.00642503 0.00064464
v -0.00652892 0.00642503 -0.00462312
v -0.00107263 0.00642503 0.01025613
v -0.00083643 0.00642503 0.00978559
v -0.00040862 0.00642503 0.00947871
v -0.00156297 0.00642503 0.00124785
v -0.00104787 0.00642503 0.00170351
v -0.00727112 0.00642503 -0.00333629
v -0.00257235 0.00642503 0.00757516
v -0.00776260 0.00642503 -0.00193443
v 0.00060838 0.00642503 0.00958355
v 0.00011280 0.00642503 0.00940580
v 0.00733885 0.00642503 -0.00318455
v 0.00189326 0.00642503 -0.00064464
v 0.00156297 0.00642503 -0.00124785
v 0.00779709 0.00642503 -0.00179034
v 0.00199970 0.00642503 0.00003479
v 0.00799295 0.00642503 -0.00033588
v 0.00791981 0.00642503 0.00112988
v 0.00186969 0.00642503 0.00071011
v 0.00758014 0.00642503 0.00255762
v 0.00698538 0.00642503 0.00389929
v 0.00151862 0.00642503 0.00130146
v 0.00615554 0.00642503 0.00510973
v -0.00186969 0.00642503 -0.00071011
v -0.00151862 0.00642503 -0.00130146
v -0.00556160 0.00642503 -0.00575053
v -0.00098798 0.00642503 -0.00173893
v -0.00309163 0.00642503 -0.00737847
v -0.00034053 0.00642503 -0.00197080
v -0.00440251 0.00642503 -0.00667966
v -0.00702217 0.00642503 0.00383264
v -0.00760971 0.00642503 0.00246825
v 0.00096459 0.00642503 0.00997125
v 0.00109982 0.00642503 0.01048008
v 0.00663362 0.00642503 -0.00447158
v 0.00570515 0.00642503 -0.00560814
v 0.00104787 0.00642503 -0.00170351
v -0.00798642 0.00642503 -0.00046587
v -0.00793487 0.00642503 0.00101875
v -0.00037138 0.00642503 0.01153541
v 0.00015234 0.00642503 0.01158940
v -0.00081002 0.00642503 0.01124422
v 0.00096459 0.00642503 0.01397125
v 0.00060838 0.00642503 0.01358355
v 0.00109982 0.00642503 0.01448009
v 0.00098310 0.00642503 0.01499348
v -0.00107263 0.00642503 0.01425613
v -0.00106309 0.00642503 0.01478254
v 0.00040888 0.00642503 -0.00195776
v 0.00003479 0.00642503 -0.00199970
v 0.00047290 0.00642503 -0.00798601
v 0.00458469 0.00642503 -0.00655596
v 0.00330993 0.00642503 -0.00728315
v 0.00192379 0.00642503 -0.00776525
v 0.00511854 0.00642503 0.00614821
v 0.00098798 0.00642503 0.00173893
v 0.00390929 0.00642503 0.00697979
v -0.00514930 0.00642503 0.00612247
v -0.00619250 0.00642503 0.00506488
v -0.00392856 0.00642503 0.00696896
v 0.00098310 0.00642503 0.01099348
v 0.00064116 0.00642503 0.01139382
v 0.00011280 0.00642503 0.01340580
v 0.00013916 0.00642503 -0.00799879
v -0.00019892 0.00642503 -0.00799753
v -0.00167414 0.00642503 -0.00782287
v -0.00040888 0.00642503 0.00195776
v 0.00064116 0.00642503 0.01539382
v 0.00015234 0.00642503 0.01558940
v -0.00037138 0.00642503 0.01553541
v -0.00081002 0.00642503 0.01524422
v 0.00256848 0.00642503 0.00757647
v 0.00034053 0.00642503 0.00197080
v -0.00003479 0.00642503 0.00199970
v -0.00189326 0.00762499 0.00064464
v -0.00199970 0.00762499 -0.00003479
v -0.00186969 0.00762499 -0.00071011
v -0.00776260 0.00762499 -0.00193443
v -0.00727112 0.00762499 -0.00333629
v -0.00151862 0.00762499 -0.00130146
v 0.00152079 0.00762499 0.01179892
v 0.00178745 0.00762499 0.01139723
v 0.00116574 0.00762499 0.01212513
v 0.00256848 0.00762499 0.00757647
v 0.00034053 0.00762499 0.00197080
v 0.00098798 0.00762499 0.00173893
v 0.00074295 0.00762499 0.01235689
v 0.00511854 0.00762499 0.00614821
v 0.00151862 0.00762499 0.00130146
v 0.00390929 0.00762499 0.00697979
v -0.00793487 0.00762499 0.00101875
v -0.00760971 0.00762499 0.00246825
v -0.00798642 0.00762499 -0.00046587
v 0.00195023 0.00762499 0.01094340
v 0.00199967 0.00762499 0.01046379
v 0.00193290 0.00762499 0.00998629
v -0.00020509 0.00762499 0.01248946
v 0.00698538 0.00762499 0.00389929
v 0.00186969 0.00762499 0.00071011
v 0.00615554 0.00762499 0.00510973
v 0.00791981 0.00762499 0.00112988
v 0.00199970 0.00762499 0.00003479
v 0.00758014 0.00762499 0.00255762
v -0.00257235 0.00762499 0.00757516
v -0.00392856 0.00762499 0.00696896
v -0.00514930 0.00762499 0.00612247
v 0.00027698 0.00762499 0.01248073
v 0.00779709 0.00762499 -0.00179034
v 0.00189326 0.00762499 -0.00064464
v 0.00799295 0.00762499 -0.00033588
v 0.00156297 0.00762499 -0.00124785
v 0.00570515 0.00762499 -0.00560814
v 0.00104787 0.00762499 -0.00170351
v 0.00663362 0.00762499 -0.00447158
v 0.00733885 0.00762499 -0.00318455
v -0.00619250 0.00762499 0.00506488
v -0.00702217 0.00762499 0.00383264
v 0.00175379 0.00762499 0.00953864
v 0.00147276 0.00762499 0.00914687
v 0.00110614 0.00762499 0.00883373
v -0.00652892 0.00762499 -0.00462312
v -0.00556160 0.00762499 -0.00575053
v -0.00098798 0.00762499 -0.00173893
v -0.00110614 0.00762499 0.01216627
v -0.00067524 0.00762499 0.01238257
v -0.00156297 0.00762499 0.00124785
v -0.00104787 0.00762499 0.00170351
v -0.00040888 0.00762499 0.00195776
v 0.00330993 0.00762499 -0.00728315
v 0.00040888 0.00762499 -0.00195776
v 0.00458469 0.00762499 -0.00655596
v -0.00440251 0.00762499 -0.00667966
v -0.00309163 0.00762499 -0.00737847
v -0.00034053 0.00762499 -0.00197080
v -0.00178745 0.00762499 0.00960277
v -0.00152079 0.00762499 0.00920108
v -0.00195023 0.00762499 0.01005661
v -0.00199967 0.00762499 0.01053621
v -0.00193290 0.00762499 0.01101371
v -0.00074295 0.00762499 0.00864311
v -0.00036047 0.00762499 0.00853275
v -0.00116574 0.00762499 0.00887487
v -0.00167414 0.00762499 -0.00782287
v -0.00019892 0.00762499 -0.00799753
v 0.00003479 0.00762499 -0.00199970
v 0.00013916 0.00762499 -0.00799879
v 0.00047290 0.00762499 -0.00798601
v 0.00192379 0.00762499 -0.00776525
v -0.00175379 0.00762499 0.01146136
v -0.00147276 0.00762499 0.01185313
v 0.00067524 0.00762499 0.00861743
v 0.00020509 0.00762499 0.00851054
v -0.00003479 0.00762499 0.00199970
v -0.00019299 0.00762499 0.00850933
v -0.00027698 0.00762499 0.00851927
v -0.00015234 0.00672496 0.00941060
v -0.00019826 0.00672496 0.00941801
v -0.00040862 0.00672496 0.00947871
v -0.00064116 0.00672496 0.00960618
v -0.00083643 0.00672496 0.00978559
v -0.00098310 0.00672496 0.01000652
v -0.00107263 0.00672496 0.01025613
v -0.00109982 0.00672496 0.01051992
v -0.00106309 0.00672496 0.01078254
v -0.00096459 0.00672496 0.01102875
v -0.00081002 0.00672496 0.01124422
v -0.00060838 0.00672496 0.01141645
v -0.00037138 0.00672496 0.01153541
v -0.00011280 0.00672496 0.01159420
v 0.00015234 0.00672496 0.01158940
v -0.00010615 0.00672496 0.00940513
v 0.00011280 0.00672496 0.00940580
v 0.00037138 0.00672496 0.00946459
v 0.00060838 0.00672496 0.00958355
v 0.00081002 0.00672496 0.00975578
v 0.00096459 0.00672496 0.00997125
v 0.00106309 0.00672496 0.01021746
v 0.00109982 0.00672496 0.01048008
v 0.00107263 0.00672496 0.01074387
v 0.00098310 0.00672496 0.01099348
v 0.00083643 0.00672496 0.01121441
v 0.00064116 0.00672496 0.01139382
v 0.00040862 0.00672496 0.01152129
v 0.00760000 0.00339870 0.01360000
v 0.00860000 0.00284870 0.01298125
v 0.00860000 0.00339870 0.01360000
v 0.00760000 0.00284870 0.01298125
v 0.00860000 0.00299870 0.02000000
v 0.00760000 0.00339870 0.01960000
v 0.00860000 0.00339870 0.01960000
v 0.00760000 0.00299870 0.02000000
v 0.00860000 -0.00340130 0.01960000
v 0.00760000 -0.00300130 0.02000000
v 0.00860000 -0.00300130 0.02000000
v 0.00760000 -0.00340130 0.01960000
v 0.00760000 -0.00285130 0.01298125
v 0.00860000 -0.00340130 0.01360000
v 0.00860000 -0.00285130 0.01298125
v 0.00760000 -0.00340130 0.01360000
v 0.00690000 0.00274870 0.01532320
v 0.00760000 0.00264870 0.01535000
v 0.00690000 0.00264870 0.01535000
v 0.00760000 0.00274870 0.01532320
v 0.00690000 0.00282190 0.01525000
v 0.00760000 0.00282190 0.01525000
v 0.00690000 0.00284870 0.01515000
v 0.00760000 0.00284870 0.01515000
v 0.00690000 -0.00282451 0.01525000
v 0.00760000 -0.00285130 0.01515000
v 0.00690000 -0.00285130 0.01515000
v 0.00760000 -0.00282451 0.01525000
v 0.00690000 -0.00275130 0.01532320
v 0.00760000 -0.00275130 0.01532320
v 0.00690000 -0.00265130 0.01535000
v 0.00760000 -0.00265130 0.01535000
v 0.00690000 -0.00285130 0.01235000
v 0.00860000 -0.00285130 0.01235000
v 0.00860000 0.00284870 0.01235000
v 0.00690000 0.00284870 0.01235000
v 0.00760000 0.00299870 0.02085000
v 0.00760000 -0.00300130 0.02085000
v 0.00816000 -0.00425130 0.01910000
v 0.00736000 -0.00425130 0.01910000
v 0.00741359 -0.00405130 0.01910000
v 0.00796000 -0.00390489 0.01910000
v 0.00756000 -0.00390489 0.01910000
v 0.00776000 -0.00385130 0.01910000
v 0.00810641 -0.00405130 0.01910000
v 0.00736000 -0.00425130 0.01410000
v 0.00816000 -0.00425130 0.01410000
v 0.00810641 -0.00405130 0.01410000
v 0.00796000 -0.00390489 0.01410000
v 0.00756000 -0.00390489 0.01410000
v 0.00741359 -0.00405130 0.01410000
v 0.00776000 -0.00385130 0.01410000
v 0.00796000 0.00390229 0.01910000
v 0.00776000 0.00384870 0.01910000
v 0.00756000 0.00390229 0.01910000
v 0.00816000 0.00424870 0.01910000
v 0.00741359 0.00404870 0.01910000
v 0.00736000 0.00424870 0.01910000
v 0.00810641 0.00404870 0.01910000
v 0.00810641 0.00404870 0.01410000
v 0.00816000 0.00424870 0.01410000
v 0.00736000 0.00424870 0.01410000
v 0.00756000 0.00390229 0.01410000
v 0.00741359 0.00404870 0.01410000
v 0.00776000 0.00384870 0.01410000
v 0.00796000 0.00390229 0.01410000
v 0.00860000 -0.00334780 0.01264357
v 0.00690000 -0.00330130 0.01235000
v 0.00860000 -0.00330130 0.01235000
v 0.00690000 -0.00334780 0.01264357
v 0.00860000 -0.00348274 0.01290840
v 0.00690000 -0.00348274 0.01290840
v 0.00860000 -0.00369291 0.01311857
v 0.00690000 -0.00369291 0.01311857
v 0.00860000 -0.00395774 0.01325350
v 0.00690000 -0.00395774 0.01325350
v 0.00860000 -0.00425130 0.01330000
v 0.00690000 -0.00425130 0.01330000
v 0.00860000 0.00334519 0.02055643
v 0.00690000 0.00329870 0.02085000
v 0.00860000 0.00329870 0.02085000
v 0.00690000 0.00334519 0.02055643
v 0.00860000 0.00348013 0.02029160
v 0.00690000 0.00348013 0.02029160
v 0.00860000 0.00369030 0.02008143
v 0.00690000 0.00369030 0.02008143
v 0.00860000 0.00395513 0.01994650
v 0.00690000 0.00395513 0.01994650
v 0.00860000 0.00424870 0.01990000
v 0.00690000 0.00424870 0.01990000
v 0.00860000 -0.00395774 0.01994650
v 0.00690000 -0.00425130 0.01990000
v 0.00860000 -0.00425130 0.01990000
v 0.00690000 -0.00395774 0.01994650
v 0.00860000 -0.00369291 0.02008143
v 0.00690000 -0.00369291 0.02008143
v 0.00860000 -0.00348274 0.02029160
v 0.00690000 -0.00348274 0.02029160
v 0.00860000 -0.00334780 0.02055643
v 0.00690000 -0.00334780 0.02055643
v 0.00860000 -0.00330130 0.02085000
v 0.00690000 -0.00330130 0.02085000
v 0.00860000 0.00395513 0.01325350
v 0.00690000 0.00424870 0.01330000
v 0.00860000 0.00424870 0.01330000
v 0.00690000 0.00395513 0.01325350
v 0.00860000 0.00369030 0.01311857
v 0.00690000 0.00369030 0.01311857
v 0.00860000 0.00348013 0.01290840
v 0.00690000 0.00348013 0.01290840
v 0.00860000 0.00334519 0.01264357
v 0.00690000 0.00334519 0.01264357
v 0.00860000 0.00329870 0.01235000
v 0.00690000 0.00329870 0.01235000
v 0.00860000 -0.00300130 0.02085000
v 0.00860000 0.00299870 0.02085000
v 0.00950000 -0.00330025 0.01265902
v 0.00870000 -0.00325130 0.01235000
v 0.00950000 -0.00325130 0.01235000
v 0.00870000 -0.00330025 0.01265902
v 0.00950000 -0.00344229 0.01293779
v 0.00870000 -0.00344229 0.01293779
v 0.00950000 -0.00366352 0.01315902
v 0.00870000 -0.00366352 0.01315902
v 0.00950000 -0.00394229 0.01330106
v 0.00870000 -0.00394229 0.01330106
v 0.00950000 -0.00425130 0.01335000
v 0.00870000 -0.00425130 0.01335000
v 0.00950000 0.00393968 0.01330106
v 0.00870000 0.00424870 0.01335000
v 0.00950000 0.00424870 0.01335000
v 0.00870000 0.00393968 0.01330106
v 0.00950000 0.00366091 0.01315902
v 0.00870000 0.00366091 0.01315902
v 0.00950000 0.00343968 0.01293779
v 0.00870000 0.00343968 0.01293779
v 0.00950000 0.00329764 0.01265902
v 0.00870000 0.00329764 0.01265902
v 0.00950000 0.00324870 0.01235000
v 0.00870000 0.00324870 0.01235000
v 0.00950000 -0.00394229 0.01989894
v 0.00870000 -0.00425130 0.01985000
v 0.00950000 -0.00425130 0.01985000
v 0.00870000 -0.00394229 0.01989894
v 0.00950000 -0.00366352 0.02004098
v 0.00870000 -0.00366352 0.02004098
v 0.00950000 -0.00344229 0.02026222
v 0.00870000 -0.00344229 0.02026222
v 0.00950000 -0.00330025 0.02054098
v 0.00870000 -0.00330025 0.02054098
v 0.00950000 -0.00325130 0.02085000
v 0.00870000 -0.00325130 0.02085000
v 0.00950000 0.00329764 0.02054098
v 0.00870000 0.00324870 0.02085000
v 0.00950000 0.00324870 0.02085000
v 0.00870000 0.00329764 0.02054098
v 0.00950000 0.00343968 0.02026222
v 0.00870000 0.00343968 0.02026222
v 0.00950000 0.00366091 0.02004098
v 0.00870000 0.00366091 0.02004098
v 0.00950000 0.00393968 0.01989894
v 0.00870000 0.00393968 0.01989894
v 0.00950000 0.00424870 0.01985000
v 0.00870000 0.00424870 0.01985000
v 0.00777000 0.00249870 0.01555000
v 0.00777000 -0.00250130 0.02055000
v 0.00777000 0.00249870 0.02055000
v 0.00777000 -0.00250130 0.01555000
v 0.00870000 -0.00250130 0.01555000
v 0.00870000 -0.00250130 0.02055000
v 0.00870000 0.00249870 0.02055000
v 0.00870000 0.00249870 0.01555000
v 0.00725000 -0.00245130 0.01335000
v 0.00836115 0.00244870 0.01335000
v 0.00836115 -0.00245130 0.01335000
v 0.00725000 0.00244870 0.01335000
v 0.00836115 -0.00245130 0.01235000
v 0.00725000 -0.00245130 0.01235000
v 0.00836115 0.00244870 0.01235000
v 0.00725000 0.00244870 0.01235000
v 0.00695000 0.00274870 0.01235000
v 0.00695000 -0.00275130 0.01505000
v 0.00695000 0.00274870 0.01505000
v 0.00695000 -0.00275130 0.01235000
v 0.00870000 -0.00275130 0.01235000
v 0.00870000 -0.00275130 0.01505000
v 0.00870000 0.00274870 0.01505000
v 0.00870000 0.00274870 0.01235000
v 0.00990000 -0.00350130 0.01348701
v 0.00950000 -0.00311430 0.01310000
v 0.00950000 -0.00350130 0.01348701
v 0.00990000 -0.00311430 0.01310000
v 0.00990000 -0.00311430 0.02010000
v 0.00950000 -0.00350130 0.01971299
v 0.00950000 -0.00311430 0.02010000
v 0.00990000 -0.00350130 0.01971299
v 0.00990000 0.00349870 0.01971299
v 0.00950000 0.00311169 0.02010000
v 0.00950000 0.00349870 0.01971299
v 0.00990000 0.00311169 0.02010000
v 0.00990000 0.00311169 0.01310000
v 0.00950000 0.00349870 0.01348701
v 0.00950000 0.00311169 0.01310000
v 0.00990000 0.00349870 0.01348701
v 0.00792500 -0.00399819 0.01460000
v 0.00775000 -0.00395130 0.01460000
v 0.00775000 -0.00395130 0.01860000
v 0.00792500 -0.00399819 0.01860000
v 0.00805311 -0.00412630 0.01460000
v 0.00805311 -0.00412630 0.01860000
v 0.00810000 -0.00430130 0.01460000
v 0.00810000 -0.00430130 0.01860000
v 0.00757500 -0.00399819 0.01860000
v 0.00757500 -0.00399819 0.01460000
v 0.00744689 -0.00412630 0.01860000
v 0.00744689 -0.00412630 0.01460000
v 0.00740000 -0.00430130 0.01860000
v 0.00740000 -0.00430130 0.01460000
v 0.00792500 0.00399559 0.01860000
v 0.00775000 0.00394870 0.01860000
v 0.00775000 0.00394870 0.01460000
v 0.00792500 0.00399559 0.01460000
v 0.00805311 0.00412370 0.01860000
v 0.00805311 0.00412370 0.01460000
v 0.00810000 0.00429870 0.01860000
v 0.00810000 0.00429870 0.01460000
v 0.00757500 0.00399559 0.01460000
v 0.00757500 0.00399559 0.01860000
v 0.00744689 0.00412370 0.01460000
v 0.00744689 0.00412370 0.01860000
v 0.00740000 0.00429870 0.01460000
v 0.00740000 0.00429870 0.01860000
v 0.00690000 -0.00285130 0.01230000
v 0.00890000 -0.00285130 0.01160000
v 0.00690000 -0.00285130 0.01160000
v 0.00890000 -0.00285130 0.01230000
v 0.00890000 0.00284870 0.01160000
v 0.00890000 0.00284870 0.01230000
v 0.00690000 0.00284870 0.01160000
v 0.00690000 0.00284870 0.01230000
v 0.00990000 0.00373301 0.01160000
v 0.00690000 0.00499870 0.01286569
v 0.00990000 0.00499870 0.01286569
v 0.00690000 0.00373301 0.01160000
v 0.00990000 0.00499870 0.02033431
v 0.00690000 0.00373301 0.02160000
v 0.00990000 0.00373301 0.02160000
v 0.00690000 0.00499870 0.02033431
v 0.00990000 -0.00373562 0.02160000
v 0.00690000 -0.00500130 0.02033431
v 0.00990000 -0.00500130 0.02033431
v 0.00690000 -0.00373562 0.02160000
v 0.00990000 -0.00500130 0.01286569
v 0.00690000 -0.00373562 0.01160000
v 0.00990000 -0.00373562 0.01160000
v 0.00690000 -0.00500130 0.01286569
v 0.00950000 -0.00377230 0.01302812
v 0.00950000 -0.00357319 0.01282901
v 0.00950000 -0.00402319 0.01315595
v 0.00950000 -0.00357319 0.02037099
v 0.00950000 -0.00377230 0.02017188
v 0.00950000 -0.00344535 0.02062188
v 0.00950000 -0.00402319 0.02004405
v 0.00950000 -0.00430130 0.02000000
v 0.00950000 -0.00430130 0.01320000
v 0.00950000 0.00376969 0.02017188
v 0.00950000 0.00357058 0.02037099
v 0.00950000 0.00402058 0.02004405
v 0.00950000 0.00344275 0.02062188
v 0.00950000 0.00339870 0.02090000
v 0.00950000 -0.00340130 0.02090000
v 0.00950000 -0.00344535 0.01257811
v 0.00950000 -0.00340130 0.01230000
v 0.00950000 0.00339870 0.01230000
v 0.00950000 0.00344275 0.01257811
v 0.00950000 0.00357058 0.01282901
v 0.00950000 0.00376969 0.01302812
v 0.00950000 0.00402058 0.01315595
v 0.00950000 0.00429870 0.01320000
v 0.00950000 0.00429870 0.02000000
v 0.00690000 -0.00340130 0.01230000
v 0.00690000 -0.00344535 0.01257811
v 0.00690000 -0.00357319 0.01282901
v 0.00690000 -0.00377230 0.01302812
v 0.00690000 -0.00402319 0.01315595
v 0.00690000 -0.00430130 0.01320000
v 0.00690000 -0.00430130 0.02000000
v 0.00690000 -0.00402319 0.02004405
v 0.00690000 -0.00377230 0.02017188
v 0.00690000 -0.00357319 0.02037099
v 0.00690000 -0.00344535 0.02062188
v 0.00690000 -0.00340130 0.02090000
v 0.00690000 0.00339870 0.02090000
v 0.00690000 0.00344275 0.02062188
v 0.00690000 0.00357058 0.02037099
v 0.00690000 0.00376969 0.02017188
v 0.00690000 0.00402058 0.02004405
v 0.00690000 0.00429870 0.02000000
v 0.00690000 0.00429870 0.01320000
v 0.00690000 0.00402058 0.01315595
v 0.00690000 0.00376969 0.01302812
v 0.00690000 0.00357058 0.01282901
v 0.00690000 0.00344275 0.01257811
v 0.00690000 0.00339870 0.01230000
v 0.00990000 0.00344870 0.01965000
v 0.00960000 0.00304870 0.02005000
v 0.00990000 0.00304870 0.02005000
v 0.00960000 0.00344870 0.01965000
v 0.00990000 0.00304870 0.01315000
v 0.00960000 0.00344870 0.01355000
v 0.00990000 0.00344870 0.01355000
v 0.00960000 0.00304870 0.01315000
v 0.00990000 -0.00345130 0.01355000
v 0.00960000 -0.00305130 0.01315000
v 0.00990000 -0.00305130 0.01315000
v 0.00960000 -0.00345130 0.01355000
v 0.00990000 -0.00305130 0.02005000
v 0.00960000 -0.00345130 0.01965000
v 0.00990000 -0.00345130 0.01965000
v 0.00960000 -0.00305130 0.02005000
f 1 2 3
f 4 2 1
f 5 6 7
f 8 6 5
f 9 8 5
f 10 8 9
f 11 12 13
f 14 12 11
f 14 15 16
f 17 15 14
f 11 17 14
f 18 17 11
f 11 19 18
f 20 19 11
f 21 20 11
f 22 20 21
f 21 23 22
f 24 23 21
f 25 24 21
f 26 24 25
f 27 26 25
f 28 29 30
f 31 29 28
f 32 33 34
f 35 33 32
f 36 37 38
f 39 37 36
f 34 37 39
f 33 37 34
f 40 41 42
f 43 41 40
f 44 45 41
f 46 47 48
f 38 48 36
f 46 48 38
f 35 46 38
f 32 46 35
f 49 50 51
f 49 52 53
f 54 52 49
f 51 54 49
f 55 56 57
f 43 44 41
f 52 44 43
f 58 52 43
f 53 52 58
f 56 53 58
f 59 53 56
f 55 59 56
f 57 48 55
f 36 48 57
f 43 36 57
f 32 36 43
f 40 32 43
f 46 32 40
f 60 11 13
f 61 11 60
f 9 62 63
f 64 62 9
f 5 64 9
f 65 66 2
f 65 67 66
f 68 67 65
f 60 68 65
f 12 68 60
f 13 12 60
f 69 9 63
f 70 9 69
f 65 70 69
f 4 70 65
f 2 4 65
f 25 21 71
f 25 69 72
f 65 69 25
f 71 65 25
f 73 61 74
f 11 61 73
f 75 11 73
f 21 11 75
f 76 21 75
f 71 21 76
f 77 71 76
f 65 71 77
f 78 60 79
f 80 60 78
f 65 81 82
f 83 60 80
f 61 60 83
f 74 61 83
f 65 84 81
f 85 84 65
f 77 85 65
f 60 86 79
f 87 86 60
f 65 87 60
f 88 87 65
f 82 88 65
f 74 89 73
f 83 89 74
f 90 77 91
f 85 77 90
f 92 85 90
f 84 85 92
f 93 84 92
f 81 84 93
f 94 81 93
f 82 81 94
f 95 82 94
f 88 82 95
f 96 88 95
f 87 88 96
f 97 87 96
f 86 87 97
f 98 86 97
f 79 86 98
f 99 79 98
f 78 79 99
f 100 78 99
f 80 78 100
f 89 80 100
f 83 80 89
f 77 75 91
f 76 75 77
f 101 102 73
f 103 73 102
f 75 73 103
f 104 75 103
f 105 97 106
f 98 97 105
f 107 98 105
f 108 89 109
f 73 89 108
f 110 73 108
f 101 73 110
f 107 99 98
f 100 99 107
f 111 100 107
f 89 100 111
f 112 89 111
f 113 89 112
f 93 114 115
f 116 117 91
f 118 113 119
f 89 113 118
f 120 89 118
f 109 89 120
f 92 114 93
f 121 114 92
f 90 121 92
f 75 116 91
f 122 116 75
f 104 122 75
f 115 94 93
f 95 94 115
f 106 95 115
f 96 95 106
f 97 96 106
f 91 121 90
f 123 121 91
f 117 123 91
f 124 123 117
f 125 124 117
f 125 118 119
f 126 118 125
f 117 126 125
f 127 29 128
f 30 29 127
f 127 28 30
f 129 28 127
f 130 129 127
f 45 8 10
f 131 8 45
f 132 131 45
f 133 131 132
f 134 133 132
f 135 51 136
f 54 51 135
f 134 54 135
f 137 54 134
f 132 137 134
f 45 138 139
f 130 138 45
f 10 130 45
f 129 130 10
f 45 140 41
f 141 140 45
f 139 141 45
f 142 143 144
f 145 143 142
f 146 145 142
f 147 145 146
f 148 147 146
f 149 147 148
f 150 149 148
f 151 149 150
f 152 151 150
f 153 151 152
f 154 153 152
f 155 153 154
f 156 155 154
f 157 155 156
f 158 157 156
f 159 157 158
f 160 159 158
f 161 159 160
f 162 161 160
f 163 161 162
f 164 163 162
f 165 163 164
f 166 165 164
f 167 165 166
f 168 167 166
f 144 167 168
f 142 144 168
f 160 112 162
f 113 112 160
f 158 113 160
f 119 113 158
f 156 119 158
f 125 119 156
f 154 125 156
f 124 125 154
f 152 124 154
f 123 124 152
f 150 123 152
f 121 123 150
f 148 121 150
f 114 121 148
f 146 114 148
f 115 114 146
f 142 115 146
f 106 115 142
f 168 106 142
f 105 106 168
f 166 105 168
f 107 105 166
f 164 107 166
f 111 107 164
f 162 111 164
f 112 111 162
f 169 16 170
f 171 16 169
f 172 171 169
f 173 171 172
f 174 173 172
f 175 173 174
f 176 175 174
f 176 177 175
f 27 177 176
f 178 27 176
f 26 27 178
f 179 26 178
f 24 26 179
f 180 24 179
f 23 24 180
f 181 23 180
f 22 23 181
f 182 22 181
f 20 22 182
f 183 20 182
f 19 20 183
f 184 19 183
f 18 19 184
f 185 18 184
f 17 18 185
f 170 17 185
f 15 17 170
f 16 15 170
f 183 110 184
f 101 110 183
f 182 101 183
f 102 101 182
f 181 102 182
f 103 102 181
f 180 103 181
f 104 103 180
f 179 104 180
f 122 104 179
f 178 122 179
f 116 122 178
f 176 116 178
f 117 116 176
f 174 117 176
f 126 117 174
f 172 126 174
f 118 126 172
f 169 118 172
f 120 118 169
f 170 120 169
f 109 120 170
f 185 109 170
f 108 109 185
f 184 108 185
f 110 108 184
f 186 29 31
f 128 29 186
f 187 188 189
f 3 190 1
f 25 190 3
f 191 25 3
f 27 25 191
f 192 27 191
f 16 27 192
f 193 16 192
f 14 16 193
f 55 194 187
f 195 194 55
f 48 195 55
f 196 195 48
f 197 196 48
f 198 187 189
f 55 187 198
f 199 55 198
f 7 186 200
f 128 186 7
f 6 128 7
f 187 128 6
f 201 187 6
f 188 187 201
f 186 202 200
f 203 202 186
f 190 203 186
f 72 203 190
f 25 72 190
f 136 51 50
f 59 55 199
f 59 204 205
f 50 204 59
f 199 50 59
f 136 50 199
f 135 199 198
f 136 199 135
f 196 140 141
f 197 140 196
f 42 140 197
f 41 140 42
f 47 197 48
f 42 197 47
f 206 42 47
f 207 42 206
f 49 208 209
f 53 208 49
f 50 209 204
f 49 209 50
f 53 205 208
f 59 205 53
f 209 205 204
f 208 205 209
f 44 210 211
f 52 210 44
f 132 44 211
f 45 44 132
f 52 137 210
f 54 137 52
f 137 211 210
f 132 211 137
f 212 58 43
f 213 58 212
f 56 213 214
f 58 213 56
f 215 56 214
f 57 56 215
f 35 37 33
f 38 37 35
f 215 213 212
f 214 213 215
f 66 3 2
f 191 3 66
f 67 191 66
f 192 191 67
f 68 192 67
f 193 192 68
f 12 193 68
f 14 193 12
f 139 196 141
f 195 196 139
f 138 195 139
f 194 195 138
f 130 194 138
f 187 194 130
f 127 187 130
f 128 187 127
f 189 135 198
f 134 135 189
f 188 134 189
f 133 134 188
f 201 133 188
f 131 133 201
f 6 131 201
f 8 131 6
f 36 34 39
f 32 34 36
f 215 43 57
f 212 43 215
f 177 27 16
f 177 173 175
f 171 173 177
f 16 171 177
f 216 143 145
f 147 216 145
f 216 151 153
f 149 151 216
f 147 149 216
f 216 157 159
f 155 157 216
f 153 155 216
f 216 163 165
f 161 163 216
f 159 161 216
f 216 144 143
f 167 144 216
f 165 167 216
f 70 1 190
f 4 1 70
f 28 186 31
f 129 186 28
f 190 217 218
f 186 219 190
f 220 219 186
f 221 10 9
f 129 10 221
f 9 222 221
f 223 222 9
f 224 223 9
f 70 190 225
f 186 226 220
f 227 226 186
f 228 227 186
f 9 229 224
f 230 229 9
f 70 230 9
f 70 231 230
f 232 231 70
f 233 232 70
f 190 234 225
f 235 234 190
f 218 235 190
f 236 237 238
f 186 239 228
f 240 239 186
f 241 240 186
f 186 242 243
f 244 242 186
f 186 245 244
f 246 245 186
f 129 246 186
f 247 246 129
f 221 247 129
f 70 248 233
f 249 248 70
f 225 249 70
f 250 186 243
f 241 186 250
f 238 241 250
f 251 241 238
f 237 251 238
f 217 252 253
f 238 254 236
f 255 254 238
f 217 255 238
f 256 255 217
f 253 256 217
f 217 257 252
f 258 257 217
f 190 258 217
f 259 258 190
f 190 260 259
f 261 260 190
f 262 261 190
f 190 263 262
f 264 263 190
f 219 264 190
f 265 266 267
f 267 266 268
f 269 270 267
f 267 270 271
f 267 271 265
f 272 273 267
f 267 273 274
f 267 274 269
f 275 276 267
f 267 276 277
f 267 277 272
f 267 268 275
f 268 266 278
f 266 279 278
f 280 279 266
f 265 280 266
f 265 281 280
f 282 281 265
f 271 282 265
f 271 283 282
f 284 283 271
f 270 284 271
f 270 285 284
f 286 285 270
f 269 286 270
f 269 287 286
f 288 287 269
f 274 288 269
f 274 289 288
f 290 289 274
f 273 290 274
f 273 291 290
f 292 291 273
f 272 292 273
f 272 293 292
f 294 293 272
f 277 294 272
f 277 295 294
f 296 295 277
f 276 296 277
f 276 297 296
f 298 297 276
f 275 298 276
f 275 299 298
f 300 299 275
f 268 300 275
f 301 300 268
f 278 301 268
f 279 245 278
f 244 245 279
f 280 244 279
f 242 244 280
f 281 242 280
f 243 242 281
f 282 243 281
f 250 243 282
f 283 250 282
f 238 250 283
f 284 238 283
f 217 238 284
f 285 217 284
f 218 217 285
f 286 218 285
f 235 218 286
f 287 235 286
f 234 235 287
f 288 234 287
f 225 234 288
f 289 225 288
f 249 225 289
f 290 249 289
f 248 249 290
f 291 248 290
f 233 248 291
f 292 233 291
f 232 233 292
f 293 232 292
f 231 232 293
f 294 231 293
f 230 231 294
f 295 230 294
f 229 230 295
f 296 229 295
f 224 229 296
f 297 224 296
f 223 224 297
f 298 223 297
f 222 223 298
f 299 222 298
f 221 222 299
f 300 221 299
f 247 221 300
f 301 247 300
f 246 247 301
f 278 246 301
f 245 246 278
f 302 303 304
f 304 303 305
f 306 307 304
f 304 307 308
f 304 308 302
f 309 310 304
f 304 310 311
f 304 311 306
f 312 313 304
f 304 313 314
f 304 314 309
f 304 305 312
f 315 305 303
f 303 316 315
f 317 316 303
f 302 317 303
f 302 318 317
f 319 318 302
f 308 319 302
f 308 320 319
f 321 320 308
f 307 321 308
f 307 322 321
f 323 322 307
f 306 323 307
f 306 324 323
f 325 324 306
f 311 325 306
f 311 326 325
f 327 326 311
f 310 327 311
f 310 328 327
f 329 328 310
f 309 329 310
f 309 330 329
f 331 330 309
f 314 331 309
f 314 332 331
f 333 332 314
f 313 333 314
f 313 334 333
f 335 334 313
f 312 335 313
f 312 336 335
f 337 336 312
f 305 337 312
f 338 337 305
f 315 338 305
f 316 239 315
f 228 239 316
f 317 228 316
f 227 228 317
f 318 227 317
f 226 227 318
f 319 226 318
f 220 226 319
f 320 220 319
f 219 220 320
f 321 219 320
f 264 219 321
f 322 264 321
f 263 264 322
f 323 263 322
f 262 263 323
f 324 262 323
f 261 262 324
f 325 261 324
f 260 261 325
f 326 260 325
f 259 260 326
f 327 259 326
f 258 259 327
f 328 258 327
f 257 258 328
f 329 257 328
f 252 257 329
f 330 252 329
f 253 252 330
f 331 253 330
f 256 253 331
f 332 256 331
f 255 256 332
f 333 255 332
f 254 255 333
f 334 254 333
f 236 254 334
f 335 236 334
f 237 236 335
f 336 237 335
f 251 237 336
f 337 251 336
f 241 251 337
f 338 241 337
f 240 241 338
f 315 240 338
f 239 240 315
f 46 339 340
f 40 339 46
f 46 206 47
f 340 206 46
f 42 339 40
f 207 339 42
f 340 207 206
f 339 207 340
f 63 72 69
f 203 72 63
f 62 203 63
f 202 203 62
f 64 202 62
f 200 202 64
f 5 200 64
f 7 200 5
f 341 342 343
f 344 341 343
f 345 341 344
f 346 345 344
f 347 345 346
f 348 347 346
f 349 347 348
f 350 349 348
f 351 349 350
f 352 351 350
f 353 351 352
f 354 353 352
f 355 353 354
f 356 355 354
f 357 355 356
f 358 357 356
f 359 357 358
f 360 359 358
f 361 359 360
f 362 361 360
f 363 361 362
f 364 363 362
f 365 364 366
f 363 364 365
f 342 367 343
f 368 367 342
f 369 370 371
f 372 370 369
f 373 372 369
f 374 372 373
f 375 374 373
f 376 374 375
f 377 376 375
f 378 376 377
f 379 378 377
f 380 378 379
f 381 380 379
f 382 380 381
f 383 382 381
f 384 382 383
f 385 384 383
f 386 384 385
f 387 386 385
f 388 386 387
f 389 388 387
f 390 388 389
f 391 390 389
f 392 390 391
f 393 392 391
f 394 392 393
f 395 394 393
f 396 394 395
f 397 396 395
f 398 396 397
f 398 397 399
f 400 371 370
f 401 371 400
f 402 401 400
f 403 401 402
f 404 403 402
f 405 403 404
f 406 405 404
f 407 405 406
f 408 407 406
f 409 407 408
f 410 409 408
f 411 409 410
f 412 411 410
f 413 411 412
f 414 413 412
f 415 413 414
f 416 415 414
f 417 415 416
f 418 417 416
f 419 417 418
f 420 419 418
f 421 419 420
f 422 421 420
f 423 421 422
f 424 423 422
f 399 423 424
f 425 399 424
f 398 399 425
f 365 426 427
f 428 426 365
f 429 430 431
f 365 432 428
f 433 432 365
f 434 433 365
f 434 435 436
f 437 438 439
f 431 438 437
f 440 441 368
f 442 443 444
f 445 443 442
f 446 443 445
f 447 446 445
f 448 446 447
f 449 446 448
f 450 449 448
f 451 449 450
f 452 449 451
f 453 452 451
f 431 365 438
f 434 365 431
f 430 434 431
f 435 434 430
f 431 454 429
f 455 454 431
f 456 455 431
f 457 455 456
f 457 458 459
f 460 458 457
f 456 460 457
f 461 462 438
f 368 463 440
f 464 463 368
f 342 464 368
f 444 465 442
f 466 465 444
f 467 466 444
f 438 468 439
f 469 468 438
f 462 469 438
f 426 470 471
f 472 470 426
f 428 472 426
f 342 473 474
f 475 473 342
f 341 475 342
f 476 475 341
f 477 365 427
f 363 365 477
f 478 363 477
f 479 480 481
f 467 482 466
f 483 482 467
f 479 483 467
f 484 483 479
f 481 484 479
f 485 452 453
f 486 452 485
f 487 486 485
f 461 488 489
f 490 488 461
f 438 490 461
f 342 491 464
f 492 491 342
f 474 492 342
f 471 492 474
f 493 471 474
f 426 471 493
f 480 494 481
f 495 494 480
f 459 495 480
f 496 495 459
f 458 496 459
f 434 368 441
f 497 368 434
f 436 497 434
f 498 349 499
f 347 349 498
f 476 347 498
f 345 347 476
f 341 345 476
f 499 353 500
f 351 353 499
f 349 351 499
f 478 361 363
f 359 361 478
f 501 359 478
f 357 359 501
f 500 357 501
f 355 357 500
f 353 355 500
f 502 486 487
f 503 486 502
f 368 503 502
f 504 503 368
f 497 504 368
f 505 506 366
f 507 508 506
f 509 508 507
f 510 509 507
f 511 343 512
f 513 343 511
f 514 515 367
f 516 515 514
f 517 420 418
f 516 518 519
f 520 518 516
f 514 520 516
f 506 521 522
f 523 521 506
f 508 523 506
f 343 524 512
f 525 524 343
f 367 525 343
f 526 525 367
f 515 526 367
f 425 424 527
f 519 528 529
f 530 528 519
f 518 530 519
f 529 531 532
f 533 531 529
f 528 533 529
f 506 534 366
f 535 534 506
f 536 535 506
f 537 420 517
f 422 420 537
f 424 422 537
f 532 538 539
f 540 538 532
f 531 540 532
f 541 542 543
f 544 542 541
f 539 544 541
f 545 544 539
f 538 545 539
f 506 546 536
f 547 546 506
f 522 547 506
f 416 517 418
f 513 517 416
f 414 513 416
f 343 513 414
f 412 343 414
f 515 548 526
f 549 548 515
f 550 549 515
f 344 406 346
f 408 406 344
f 343 408 344
f 410 408 343
f 412 410 343
f 510 551 509
f 552 551 510
f 553 552 510
f 394 554 392
f 555 554 394
f 396 555 394
f 366 556 505
f 557 556 366
f 558 557 366
f 380 360 358
f 543 559 560
f 561 559 543
f 542 561 543
f 553 562 552
f 563 562 553
f 564 563 553
f 558 565 566
f 567 565 558
f 366 567 558
f 568 567 366
f 364 568 366
f 569 568 364
f 558 570 571
f 572 570 558
f 566 572 558
f 564 573 563
f 574 573 564
f 575 574 564
f 382 360 380
f 362 360 382
f 384 362 382
f 364 362 384
f 386 364 384
f 569 364 386
f 388 569 386
f 358 378 380
f 376 378 358
f 356 376 358
f 374 376 356
f 354 374 356
f 372 374 354
f 352 372 354
f 370 372 352
f 350 370 352
f 400 370 350
f 348 400 350
f 402 400 348
f 346 402 348
f 404 402 346
f 406 404 346
f 575 576 574
f 577 576 575
f 560 577 575
f 578 577 560
f 559 578 560
f 555 425 527
f 398 425 555
f 396 398 555
f 390 569 388
f 579 569 390
f 392 579 390
f 580 579 392
f 554 580 392
f 515 581 550
f 582 581 515
f 583 582 515
f 584 582 583
f 558 584 583
f 585 584 558
f 571 585 558
f 571 586 585
f 587 586 571
f 570 587 571
f 588 587 570
f 572 588 570
f 589 588 572
f 566 589 572
f 590 589 566
f 565 590 566
f 591 590 565
f 567 591 565
f 592 591 567
f 568 592 567
f 593 592 568
f 569 593 568
f 594 593 569
f 579 594 569
f 595 594 579
f 580 595 579
f 596 595 580
f 554 596 580
f 597 596 554
f 555 597 554
f 598 597 555
f 527 598 555
f 599 598 527
f 424 599 527
f 600 599 424
f 537 600 424
f 601 585 586
f 584 585 601
f 602 584 601
f 582 584 602
f 603 582 602
f 581 582 603
f 604 581 603
f 550 581 604
f 605 550 604
f 549 550 605
f 606 549 605
f 548 549 606
f 607 548 606
f 526 548 607
f 608 526 607
f 525 526 608
f 609 525 608
f 524 525 609
f 610 524 609
f 512 524 610
f 611 512 610
f 511 512 611
f 612 511 611
f 513 511 612
f 613 513 612
f 517 513 613
f 600 517 613
f 537 517 600
f 470 599 471
f 598 599 470
f 472 598 470
f 597 598 472
f 472 596 597
f 595 596 472
f 428 595 472
f 594 595 428
f 432 594 428
f 593 594 432
f 432 592 593
f 591 592 432
f 433 591 432
f 589 434 588
f 433 434 589
f 590 433 589
f 591 433 590
f 434 587 588
f 586 587 434
f 441 586 434
f 601 586 441
f 441 602 601
f 603 602 441
f 440 603 441
f 440 604 603
f 605 604 440
f 463 605 440
f 463 606 605
f 607 606 463
f 464 607 463
f 464 608 607
f 609 608 464
f 491 609 464
f 491 610 609
f 611 610 491
f 492 611 491
f 492 612 611
f 613 612 492
f 471 613 492
f 600 613 471
f 599 600 471
f 501 373 500
f 375 373 501
f 501 377 375
f 379 377 501
f 478 379 501
f 381 379 478
f 477 381 478
f 477 383 381
f 385 383 477
f 427 385 477
f 387 385 427
f 391 426 393
f 427 426 391
f 389 427 391
f 387 427 389
f 426 395 393
f 397 395 426
f 493 397 426
f 399 397 493
f 493 423 399
f 421 423 493
f 474 421 493
f 474 419 421
f 417 419 474
f 473 417 474
f 473 415 417
f 413 415 473
f 475 413 473
f 411 413 475
f 476 411 475
f 409 411 476
f 476 407 409
f 405 407 476
f 498 405 476
f 498 403 405
f 401 403 498
f 499 401 498
f 371 401 499
f 500 371 499
f 369 371 500
f 373 369 500
f 367 368 502
f 502 514 367
f 520 514 502
f 487 520 502
f 518 520 487
f 485 518 487
f 530 518 485
f 453 530 485
f 528 530 453
f 451 528 453
f 533 528 451
f 450 533 451
f 531 533 450
f 448 531 450
f 540 531 448
f 447 540 448
f 538 540 447
f 445 538 447
f 545 538 445
f 442 545 445
f 544 545 442
f 465 544 442
f 542 544 465
f 466 542 465
f 561 542 466
f 482 561 466
f 559 561 482
f 483 559 482
f 578 559 483
f 484 578 483
f 577 578 484
f 481 577 484
f 576 577 481
f 494 576 481
f 365 366 534
f 534 438 365
f 490 438 534
f 535 490 534
f 488 490 535
f 536 488 535
f 489 488 536
f 546 489 536
f 461 489 546
f 547 461 546
f 462 461 547
f 522 462 547
f 469 462 522
f 521 469 522
f 468 469 521
f 523 468 521
f 439 468 523
f 508 439 523
f 437 439 508
f 509 437 508
f 431 437 509
f 551 431 509
f 456 431 551
f 552 456 551
f 460 456 552
f 562 460 552
f 458 460 562
f 563 458 562
f 496 458 563
f 573 496 563
f 495 496 573
f 574 495 573
f 494 495 574
f 576 494 574
f 479 575 480
f 560 575 479
f 467 560 479
f 543 560 467
f 444 543 467
f 541 543 444
f 443 541 444
f 539 541 443
f 446 539 443
f 532 539 446
f 449 532 446
f 529 532 449
f 452 529 449
f 519 529 452
f 486 519 452
f 516 519 486
f 503 516 486
f 515 516 503
f 504 515 503
f 583 515 504
f 497 583 504
f 558 583 497
f 436 558 497
f 557 558 436
f 435 557 436
f 556 557 435
f 430 556 435
f 505 556 430
f 429 505 430
f 506 505 429
f 454 506 429
f 507 506 454
f 455 507 454
f 510 507 455
f 457 510 455
f 553 510 457
f 459 553 457
f 564 553 459
f 480 564 459
f 575 564 480
f 614 615 616
f 617 615 614
f 618 619 620
f 621 619 618
f 622 623 624
f 625 623 622
f 626 627 628
f 629 627 626
f 627 625 622
f 629 625 627
f 620 614 616
f 619 614 620
f 630 631 632
f 633 631 630
f 634 633 630
f 635 633 634
f 636 635 634
f 637 635 636
f 638 639 640
f 641 639 638
f 642 641 638
f 643 641 642
f 644 643 642
f 645 643 644
f 644 631 645
f 632 631 644
f 626 640 639
f 646 640 626
f 628 646 626
f 647 646 628
f 617 648 615
f 649 648 617
f 637 649 617
f 636 649 637
f 625 643 645
f 631 625 645
f 623 625 631
f 633 623 631
f 639 629 626
f 625 629 639
f 641 625 639
f 643 625 641
f 637 614 619
f 617 614 637
f 623 650 651
f 621 650 623
f 633 621 623
f 619 621 633
f 635 619 633
f 637 619 635
f 652 653 654
f 655 656 657
f 654 656 655
f 658 654 655
f 652 654 658
f 659 660 661
f 662 659 661
f 659 663 664
f 665 663 659
f 662 665 659
f 664 653 659
f 654 653 664
f 663 654 664
f 656 654 663
f 665 656 663
f 657 656 665
f 662 657 665
f 655 657 662
f 661 655 662
f 658 655 661
f 660 658 661
f 652 658 660
f 666 667 668
f 669 670 671
f 668 670 669
f 672 668 669
f 666 668 672
f 673 674 675
f 676 675 677
f 673 675 676
f 678 673 676
f 679 673 678
f 673 669 674
f 672 669 673
f 679 672 673
f 666 672 679
f 678 666 679
f 667 666 678
f 676 667 678
f 668 667 676
f 677 668 676
f 670 668 677
f 675 670 677
f 671 670 675
f 680 681 682
f 683 681 680
f 684 683 680
f 685 683 684
f 686 685 684
f 687 685 686
f 688 687 686
f 689 687 688
f 690 689 688
f 691 689 690
f 692 693 694
f 695 693 692
f 696 695 692
f 697 695 696
f 698 697 696
f 699 697 698
f 700 699 698
f 701 699 700
f 702 701 700
f 703 701 702
f 704 705 706
f 707 705 704
f 708 707 704
f 709 707 708
f 710 709 708
f 711 709 710
f 712 711 710
f 713 711 712
f 714 713 712
f 715 713 714
f 716 717 718
f 719 717 716
f 720 719 716
f 721 719 720
f 722 721 720
f 723 721 722
f 724 723 722
f 725 723 724
f 726 725 724
f 727 725 726
f 622 708 704
f 712 728 714
f 624 728 712
f 682 647 628
f 624 708 622
f 710 708 624
f 712 710 624
f 628 680 682
f 684 680 628
f 627 684 628
f 686 684 627
f 627 688 686
f 690 688 627
f 622 690 627
f 706 690 622
f 704 706 622
f 703 717 719
f 689 638 640
f 640 687 689
f 685 687 640
f 646 685 640
f 683 685 646
f 681 683 646
f 725 636 723
f 649 636 725
f 727 649 725
f 636 721 723
f 719 721 636
f 634 719 636
f 703 719 634
f 701 713 699
f 632 713 701
f 703 632 701
f 630 632 703
f 634 630 703
f 695 715 693
f 713 715 695
f 697 713 695
f 699 713 697
f 632 711 713
f 709 711 632
f 644 709 632
f 707 709 644
f 642 707 644
f 705 707 642
f 638 705 642
f 691 705 638
f 689 691 638
f 651 714 728
f 715 714 651
f 650 715 651
f 693 715 650
f 729 693 650
f 694 693 729
f 647 681 646
f 682 681 647
f 652 705 653
f 706 705 652
f 660 706 652
f 690 706 660
f 659 690 660
f 691 690 659
f 653 691 659
f 705 691 653
f 669 718 674
f 702 718 669
f 671 702 669
f 703 702 671
f 675 703 671
f 717 703 675
f 674 717 675
f 718 717 674
f 702 616 718
f 620 616 702
f 700 620 702
f 694 729 618
f 616 716 718
f 720 716 616
f 615 720 616
f 618 692 694
f 696 692 618
f 620 696 618
f 698 696 620
f 700 698 620
f 724 648 726
f 615 648 724
f 722 615 724
f 720 615 722
f 649 726 648
f 727 726 649
f 618 650 621
f 729 650 618
f 623 728 624
f 651 728 623
f 730 731 732
f 733 731 730
f 734 733 730
f 735 733 734
f 736 735 734
f 737 735 736
f 738 737 736
f 739 737 738
f 740 739 738
f 741 739 740
f 742 743 744
f 745 743 742
f 746 745 742
f 747 745 746
f 748 747 746
f 749 747 748
f 750 749 748
f 751 749 750
f 752 751 750
f 753 751 752
f 754 755 756
f 757 755 754
f 758 757 754
f 759 757 758
f 760 759 758
f 761 759 760
f 762 761 760
f 763 761 762
f 764 763 762
f 765 763 764
f 766 767 768
f 769 767 766
f 770 769 766
f 771 769 770
f 772 771 770
f 773 771 772
f 774 773 772
f 775 773 774
f 776 775 774
f 777 775 776
f 764 767 765
f 768 767 764
f 743 776 744
f 777 776 743
f 755 740 756
f 741 740 755
f 778 779 780
f 781 779 778
f 782 779 781
f 783 779 782
f 783 780 779
f 784 780 783
f 784 778 780
f 785 778 784
f 785 781 778
f 782 781 785
f 786 787 788
f 789 787 786
f 790 786 788
f 791 786 790
f 792 788 787
f 790 788 792
f 793 787 789
f 792 787 793
f 791 789 786
f 793 789 791
f 768 764 762
f 774 748 746
f 774 750 748
f 752 750 774
f 772 752 774
f 732 752 772
f 774 744 776
f 742 744 774
f 746 742 774
f 736 766 768
f 770 766 736
f 734 770 736
f 772 770 734
f 730 772 734
f 732 772 730
f 738 756 740
f 754 756 738
f 736 754 738
f 758 754 736
f 768 758 736
f 760 758 768
f 762 760 768
f 794 795 796
f 797 795 794
f 798 795 797
f 799 795 798
f 799 796 795
f 800 796 799
f 800 794 796
f 801 794 800
f 732 731 798
f 801 753 752
f 732 801 752
f 798 801 732
f 790 801 798
f 797 790 798
f 791 790 797
f 794 791 797
f 793 791 794
f 801 793 794
f 792 793 801
f 790 792 801
f 799 739 741
f 799 785 800
f 782 785 799
f 800 747 749
f 799 737 739
f 735 737 799
f 798 735 799
f 733 735 798
f 731 733 798
f 767 784 783
f 751 800 749
f 801 800 751
f 753 801 751
f 783 765 767
f 763 765 783
f 782 763 783
f 761 763 782
f 782 759 761
f 757 759 782
f 799 757 782
f 755 757 799
f 741 755 799
f 800 745 747
f 743 745 800
f 785 743 800
f 777 743 785
f 775 777 785
f 785 773 775
f 771 773 785
f 784 771 785
f 769 771 784
f 767 769 784
f 802 803 804
f 805 803 802
f 806 807 808
f 809 807 806
f 810 811 812
f 813 811 810
f 814 815 816
f 817 815 814
f 818 819 820
f 821 818 820
f 822 818 821
f 823 822 821
f 824 822 823
f 825 824 823
f 826 820 819
f 827 826 819
f 828 826 827
f 829 828 827
f 830 828 829
f 831 830 829
f 824 818 822
f 819 818 824
f 824 827 819
f 829 827 824
f 831 829 824
f 820 826 828
f 825 828 830
f 820 828 825
f 823 820 825
f 821 820 823
f 832 833 834
f 835 832 834
f 836 832 835
f 837 836 835
f 838 836 837
f 839 838 837
f 840 834 833
f 841 840 833
f 842 840 841
f 843 842 841
f 844 842 843
f 845 844 843
f 839 837 835
f 842 834 840
f 835 834 842
f 844 835 842
f 839 835 844
f 841 833 832
f 845 836 838
f 832 836 845
f 843 832 845
f 841 832 843
f 846 847 848
f 849 847 846
f 849 850 847
f 851 850 849
f 851 852 850
f 853 852 851
f 854 855 856
f 857 855 854
f 858 859 860
f 861 859 858
f 862 863 864
f 865 863 862
f 866 867 868
f 869 867 866
f 810 815 817
f 812 815 810
f 814 803 805
f 816 803 814
f 802 807 809
f 804 807 802
f 806 811 813
f 808 811 806
f 870 803 871
f 804 803 870
f 872 804 870
f 873 807 874
f 808 807 873
f 875 808 873
f 807 876 874
f 877 876 807
f 804 877 807
f 878 877 804
f 872 878 804
f 879 811 880
f 812 811 879
f 881 812 879
f 811 882 880
f 883 882 811
f 808 883 811
f 884 883 808
f 875 884 808
f 803 885 871
f 886 885 803
f 816 886 803
f 887 886 816
f 816 888 887
f 889 888 816
f 815 889 816
f 890 889 815
f 815 891 890
f 892 891 815
f 812 892 815
f 893 892 812
f 881 893 812
f 885 886 894
f 895 885 894
f 871 885 895
f 896 871 895
f 870 871 896
f 897 870 896
f 872 870 897
f 898 872 897
f 878 872 898
f 899 878 898
f 876 877 900
f 901 876 900
f 874 876 901
f 902 874 901
f 873 874 902
f 903 873 902
f 875 873 903
f 904 875 903
f 884 875 904
f 905 884 904
f 882 883 906
f 907 882 906
f 880 882 907
f 908 880 907
f 879 880 908
f 909 879 908
f 881 879 909
f 910 881 909
f 893 881 910
f 911 893 910
f 891 892 912
f 913 891 912
f 890 891 913
f 914 890 913
f 889 890 914
f 915 889 914
f 888 889 915
f 916 888 915
f 887 888 916
f 917 887 916
f 825 878 824
f 877 878 825
f 830 877 825
f 900 877 830
f 831 900 830
f 899 900 831
f 824 899 831
f 878 899 824
f 883 905 906
f 884 905 883
f 851 917 853
f 887 917 851
f 849 887 851
f 886 887 849
f 846 886 849
f 894 886 846
f 846 848 867
f 867 894 846
f 895 894 867
f 896 895 867
f 867 897 896
f 898 897 867
f 869 898 867
f 899 898 869
f 863 899 869
f 863 900 899
f 901 900 863
f 902 901 863
f 863 903 902
f 904 903 863
f 865 904 863
f 905 904 865
f 859 905 865
f 859 906 905
f 907 906 859
f 908 907 859
f 914 913 855
f 859 909 908
f 910 909 859
f 861 910 859
f 911 910 861
f 855 911 861
f 912 911 855
f 913 912 855
f 917 852 853
f 857 852 917
f 916 857 917
f 855 857 916
f 915 855 916
f 914 855 915
f 856 861 858
f 855 861 856
f 860 865 862
f 859 865 860
f 864 869 866
f 863 869 864
f 847 867 848
f 868 867 847
f 850 868 847
f 854 868 850
f 852 854 850
f 857 854 852
f 844 892 839
f 912 892 844
f 845 912 844
f 911 912 845
f 838 911 845
f 893 911 838
f 839 893 838
f 892 893 839
f 814 856 817
f 854 856 814
f 805 854 814
f 868 854 805
f 802 868 805
f 866 868 802
f 809 866 802
f 864 866 809
f 806 864 809
f 862 864 806
f 813 862 806
f 860 862 813
f 810 860 813
f 858 860 810
f 817 858 810
f 856 858 817
f 918 919 920
f 921 919 918
f 922 923 924
f 925 923 922
f 926 927 928
f 929 927 926
f 930 931 932
f 933 931 930
f 931 927 929
f 925 927 931
f 933 925 931
f 923 925 933
f 919 923 933
f 921 923 919
f 932 929 926
f 931 929 932
f 920 933 930
f 919 933 920
f 924 921 918
f 923 921 924
f 928 925 922
f 927 925 928
f 930 932 926
f 924 928 922
f 926 928 924
f 918 926 924
f 930 926 918
f 920 930 918

