# https://github.com/mikedh/trimesh

o right_hand_thumb_PIP_link.STL
v 0.00911387 -0.00340130 0.01894353
v 0.01015932 -0.00285130 0.01948194
v 0.01011079 -0.00340130 0.01886510
v 0.00916240 -0.00285130 0.01956038
v 0.00960882 -0.00300130 0.01248481
v 0.00864327 -0.00340130 0.01296202
v 0.00964019 -0.00340130 0.01288358
v 0.00861190 -0.00300130 0.01256325
v 0.00964019 0.00339870 0.01288358
v 0.00861190 0.00299870 0.01256325
v 0.00960882 0.00299870 0.01248481
v 0.00864327 0.00339870 0.01296202
v 0.00916240 0.00284870 0.01956038
v 0.01011079 0.00339870 0.01886510
v 0.01015932 0.00284870 0.01948194
v 0.00911387 0.00339870 0.01894353
v 0.00828087 -0.00275130 0.01728054
v 0.00897661 -0.00265130 0.01719892
v 0.00827877 -0.00265130 0.01725383
v 0.00897871 -0.00275130 0.01722564
v 0.00828661 -0.00282451 0.01735352
v 0.00898445 -0.00282451 0.01729861
v 0.00829445 -0.00285130 0.01745321
v 0.00899230 -0.00285130 0.01739831
v 0.00828661 0.00282190 0.01735352
v 0.00899230 0.00284870 0.01739831
v 0.00829445 0.00284870 0.01745321
v 0.00898445 0.00282190 0.01729861
v 0.00828087 0.00274870 0.01728054
v 0.00897871 0.00274870 0.01722564
v 0.00827877 0.00264870 0.01725383
v 0.00897661 0.00264870 0.01719892
v 0.00851407 0.00284870 0.02024458
v 0.01020883 0.00284870 0.02011125
v 0.01020883 -0.00285130 0.02011125
v 0.00851407 -0.00285130 0.02024458
v 0.00854523 -0.00300130 0.01171587
v 0.00854523 0.00299870 0.01171587
v 0.00924076 0.00424870 0.01341655
v 0.00844323 0.00424870 0.01347930
v 0.00849665 0.00404870 0.01347510
v 0.00904138 0.00390229 0.01343224
v 0.00864261 0.00390229 0.01346361
v 0.00884200 0.00384870 0.01344793
v 0.00918734 0.00404870 0.01342076
v 0.00883539 0.00424870 0.01846390
v 0.00963293 0.00424870 0.01840115
v 0.00957950 0.00404870 0.01840535
v 0.00943354 0.00390229 0.01841684
v 0.00903478 0.00390229 0.01844821
v 0.00888882 0.00404870 0.01845969
v 0.00923416 0.00384870 0.01843252
v 0.00904138 -0.00390489 0.01343224
v 0.00884200 -0.00385130 0.01344793
v 0.00864261 -0.00390489 0.01346361
v 0.00924076 -0.00425130 0.01341655
v 0.00849665 -0.00405130 0.01347510
v 0.00844323 -0.00425130 0.01347930
v 0.00918734 -0.00405130 0.01342076
v 0.00957950 -0.00405130 0.01840535
v 0.00963293 -0.00425130 0.01840115
v 0.00883539 -0.00425130 0.01846390
v 0.00903478 -0.00390489 0.01844821
v 0.00888882 -0.00405130 0.01845969
v 0.00923416 -0.00385130 0.01843252
v 0.00943354 -0.00390489 0.01841684
v 0.01018580 0.00334519 0.01981859
v 0.00851407 0.00329870 0.02024458
v 0.01020883 0.00329870 0.02011125
v 0.00849104 0.00334519 0.01995192
v 0.01016503 0.00348013 0.01955457
v 0.00847027 0.00348013 0.01968791
v 0.01014855 0.00369030 0.01934505
v 0.00845378 0.00369030 0.01947839
v 0.01013796 0.00395513 0.01921053
v 0.00844320 0.00395513 0.01934386
v 0.01013432 0.00424870 0.01916417
v 0.00843955 0.00424870 0.01929751
v 0.00956518 -0.00334780 0.01193010
v 0.00784739 -0.00330130 0.01177077
v 0.00954215 -0.00330130 0.01163743
v 0.00787041 -0.00334780 0.01206343
v 0.00958595 -0.00348274 0.01219411
v 0.00789118 -0.00348274 0.01232744
v 0.00960243 -0.00369291 0.01240363
v 0.00790767 -0.00369291 0.01253697
v 0.00961301 -0.00395774 0.01253815
v 0.00791825 -0.00395774 0.01267149
v 0.00961666 -0.00425130 0.01258451
v 0.00792190 -0.00425130 0.01271784
v 0.00961301 0.00395513 0.01253815
v 0.00792190 0.00424870 0.01271784
v 0.00961666 0.00424870 0.01258451
v 0.00791825 0.00395513 0.01267149
v 0.00960243 0.00369030 0.01240363
v 0.00790767 0.00369030 0.01253697
v 0.00958595 0.00348013 0.01219411
v 0.00789118 0.00348013 0.01232744
v 0.00956518 0.00334519 0.01193010
v 0.00787041 0.00334519 0.01206343
v 0.00954215 0.00329870 0.01163743
v 0.00784739 0.00329870 0.01177077
v 0.01013796 -0.00395774 0.01921053
v 0.00843955 -0.00425130 0.01929751
v 0.01013432 -0.00425130 0.01916417
v 0.00844320 -0.00395774 0.01934386
v 0.01014855 -0.00369291 0.01934505
v 0.00845378 -0.00369291 0.01947839
v 0.01016503 -0.00348274 0.01955457
v 0.00847027 -0.00348274 0.01968791
v 0.01018580 -0.00334780 0.01981859
v 0.00849104 -0.00334780 0.01995192
v 0.01020883 -0.00330130 0.02011125
v 0.00851407 -0.00330130 0.02024458
v 0.00954215 0.00299870 0.01163743
v 0.00954215 -0.00300130 0.01163743
v 0.01108182 0.00329764 0.01973259
v 0.01030852 0.00324870 0.02010341
v 0.01110606 0.00324870 0.02004066
v 0.01028428 0.00329764 0.01979534
v 0.01105995 0.00343968 0.01945468
v 0.01026242 0.00343968 0.01951743
v 0.01104260 0.00366091 0.01923413
v 0.01024507 0.00366091 0.01929688
v 0.01103146 0.00393968 0.01909253
v 0.01023393 0.00393968 0.01915528
v 0.01102762 0.00424870 0.01904374
v 0.01023009 0.00424870 0.01910649
v 0.01103146 -0.00394229 0.01909253
v 0.01023009 -0.00425130 0.01910649
v 0.01102762 -0.00425130 0.01904374
v 0.01023393 -0.00394229 0.01915528
v 0.01104260 -0.00366352 0.01923413
v 0.01024507 -0.00366352 0.01929688
v 0.01105995 -0.00344229 0.01945468
v 0.01026242 -0.00344229 0.01951743
v 0.01108182 -0.00330025 0.01973259
v 0.01028428 -0.00330025 0.01979534
v 0.01110606 -0.00325130 0.02004066
v 0.01030852 -0.00325130 0.02010341
v 0.01051397 0.00393968 0.01251497
v 0.00972028 0.00424870 0.01262651
v 0.01051781 0.00424870 0.01256376
v 0.00971644 0.00393968 0.01257772
v 0.01050283 0.00366091 0.01237337
v 0.00970530 0.00366091 0.01243612
v 0.01048548 0.00343968 0.01215282
v 0.00968794 0.00343968 0.01221556
v 0.01046361 0.00329764 0.01187491
v 0.00966608 0.00329764 0.01193766
v 0.01043938 0.00324870 0.01156684
v 0.00964184 0.00324870 0.01162959
v 0.01046361 -0.00330025 0.01187491
v 0.00964184 -0.00325130 0.01162959
v 0.01043938 -0.00325130 0.01156684
v 0.00966608 -0.00330025 0.01193766
v 0.01048548 -0.00344229 0.01215282
v 0.00968794 -0.00344229 0.01221556
v 0.01050283 -0.00366352 0.01237337
v 0.00970530 -0.00366352 0.01243612
v 0.01051397 -0.00394229 0.01251497
v 0.00971644 -0.00394229 0.01257772
v 0.01051781 -0.00425130 0.01256376
v 0.00972028 -0.00425130 0.01262651
v 0.00913040 -0.00250130 0.01698621
v 0.00873824 0.00249870 0.01200161
v 0.00873824 -0.00250130 0.01200161
v 0.00913040 0.00249870 0.01698621
v 0.01005754 0.00249870 0.01691326
v 0.00966537 0.00249870 0.01192867
v 0.00966537 -0.00250130 0.01192867
v 0.01005754 -0.00250130 0.01691326
v 0.00878455 0.00244870 0.01922021
v 0.00989228 -0.00245130 0.01913306
v 0.00989228 0.00244870 0.01913306
v 0.00878455 -0.00245130 0.01922021
v 0.00997072 0.00244870 0.02012998
v 0.00886299 0.00244870 0.02021713
v 0.00997072 -0.00245130 0.02012998
v 0.00886299 -0.00245130 0.02021713
v 0.00856391 -0.00275130 0.02024066
v 0.00835214 0.00274870 0.01754898
v 0.00835214 -0.00275130 0.01754898
v 0.00856391 0.00274870 0.02024066
v 0.01030852 0.00274870 0.02010341
v 0.01009675 0.00274870 0.01741172
v 0.01009675 -0.00275130 0.01741172
v 0.01030852 -0.00275130 0.02010341
v 0.01141565 0.00349870 0.01887578
v 0.01104723 0.00311169 0.01929297
v 0.01101688 0.00349870 0.01890716
v 0.01144600 0.00311169 0.01926160
v 0.01089697 0.00311169 0.01228316
v 0.01052856 0.00349870 0.01270035
v 0.01049820 0.00311169 0.01231453
v 0.01092732 0.00349870 0.01266897
v 0.01092732 -0.00350130 0.01266897
v 0.01049820 -0.00311430 0.01231453
v 0.01052856 -0.00350130 0.01270035
v 0.01089697 -0.00311430 0.01228316
v 0.01144600 -0.00311430 0.01926160
v 0.01101688 -0.00350130 0.01890716
v 0.01104723 -0.00311430 0.01929297
v 0.01141565 -0.00350130 0.01887578
v 0.00935943 0.00399559 0.01792112
v 0.00918497 0.00394870 0.01793485
v 0.00887124 0.00394870 0.01394717
v 0.00904570 0.00399559 0.01393344
v 0.00948715 0.00412370 0.01791107
v 0.00917342 0.00412370 0.01392340
v 0.00953390 0.00429870 0.01790740
v 0.00922016 0.00429870 0.01391972
v 0.00869678 0.00399559 0.01396090
v 0.00901051 0.00399559 0.01794857
v 0.00856907 0.00412370 0.01397094
v 0.00888280 0.00412370 0.01795862
v 0.00852232 0.00429870 0.01397462
v 0.00883605 0.00429870 0.01796230
v 0.00904570 -0.00399819 0.01393344
v 0.00887124 -0.00395130 0.01394717
v 0.00918497 -0.00395130 0.01793485
v 0.00935943 -0.00399819 0.01792112
v 0.00917342 -0.00412630 0.01392340
v 0.00948715 -0.00412630 0.01791107
v 0.00922016 -0.00430130 0.01391972
v 0.00953390 -0.00430130 0.01790740
v 0.00901051 -0.00399819 0.01794857
v 0.00869678 -0.00399819 0.01396090
v 0.00888280 -0.00412630 0.01795862
v 0.00856907 -0.00412630 0.01397094
v 0.00883605 -0.00430130 0.01796230
v 0.00852232 -0.00430130 0.01397462
v 0.00851799 0.00284870 0.02029443
v 0.01056673 0.00284870 0.02083541
v 0.00857289 0.00284870 0.02099227
v 0.01051183 0.00284870 0.02013757
v 0.01056673 -0.00285130 0.02083541
v 0.01051183 -0.00285130 0.02013757
v 0.00857289 -0.00285130 0.02099227
v 0.00851799 -0.00285130 0.02029443
v 0.01156365 -0.00373562 0.02075697
v 0.00847362 -0.00500130 0.01973049
v 0.01146438 -0.00500130 0.01949519
v 0.00857289 -0.00373562 0.02099227
v 0.01087859 -0.00500130 0.01204957
v 0.00778856 -0.00373562 0.01102308
v 0.01077932 -0.00373562 0.01078778
v 0.00788783 -0.00500130 0.01228487
v 0.01077932 0.00373301 0.01078778
v 0.00788783 0.00499870 0.01228487
v 0.01087859 0.00499870 0.01204957
v 0.00778856 0.00373301 0.01102308
v 0.01146438 0.00499870 0.01949519
v 0.00857289 0.00373301 0.02099227
v 0.01156365 0.00373301 0.02075697
v 0.00847362 0.00499870 0.01973049
v 0.01105287 0.00376969 0.01936463
v 0.01106849 0.00357058 0.01956313
v 0.01104284 0.00402058 0.01923719
v 0.01047695 0.00357058 0.01204437
v 0.01049256 0.00376969 0.01224287
v 0.01045727 0.00344275 0.01179426
v 0.01050259 0.00402058 0.01237031
v 0.01050605 0.00429870 0.01241423
v 0.01103939 0.00429870 0.01919328
v 0.01049256 -0.00377230 0.01224287
v 0.01047695 -0.00357319 0.01204437
v 0.01050259 -0.00402319 0.01237031
v 0.01045727 -0.00344535 0.01179426
v 0.01043546 -0.00340130 0.01151700
v 0.01043546 0.00339870 0.01151700
v 0.01108816 0.00344275 0.01981325
v 0.01110998 0.00339870 0.02009051
v 0.01110998 -0.00340130 0.02009051
v 0.01108816 -0.00344535 0.01981325
v 0.01106849 -0.00357319 0.01956313
v 0.01105287 -0.00377230 0.01936463
v 0.01104284 -0.00402319 0.01923719
v 0.01103939 -0.00430130 0.01919328
v 0.01050605 -0.00430130 0.01241423
v 0.00851799 0.00339870 0.02029443
v 0.00849617 0.00344275 0.02001717
v 0.00847650 0.00357058 0.01976705
v 0.00846088 0.00376969 0.01956856
v 0.00845085 0.00402058 0.01944112
v 0.00844740 0.00429870 0.01939720
v 0.00791406 0.00429870 0.01261815
v 0.00791060 0.00402058 0.01257424
v 0.00790057 0.00376969 0.01244680
v 0.00788496 0.00357058 0.01224830
v 0.00786528 0.00344275 0.01199818
v 0.00784347 0.00339870 0.01172092
v 0.00784347 -0.00340130 0.01172092
v 0.00786528 -0.00344535 0.01199818
v 0.00788496 -0.00357319 0.01224830
v 0.00790057 -0.00377230 0.01244680
v 0.00791060 -0.00402319 0.01257424
v 0.00791406 -0.00430130 0.01261815
v 0.00844740 -0.00430130 0.01939720
v 0.00845085 -0.00402319 0.01944112
v 0.00846088 -0.00377230 0.01956856
v 0.00847650 -0.00357319 0.01976705
v 0.00849617 -0.00344535 0.02001717
v 0.00851799 -0.00340130 0.02029443
v 0.01093226 -0.00345130 0.01273177
v 0.01060182 -0.00305130 0.01235654
v 0.01090089 -0.00305130 0.01233301
v 0.01063319 -0.00345130 0.01275530
v 0.01144208 -0.00305130 0.01921175
v 0.01111163 -0.00345130 0.01883651
v 0.01141070 -0.00345130 0.01881298
v 0.01114300 -0.00305130 0.01923528
v 0.01141070 0.00344870 0.01881298
v 0.01114300 0.00304870 0.01923528
v 0.01144208 0.00304870 0.01921175
v 0.01111163 0.00344870 0.01883651
v 0.01090089 0.00304870 0.01233301
v 0.01063319 0.00344870 0.01275530
v 0.01093226 0.00344870 0.01273177
v 0.01060182 0.00304870 0.01235654
v -0.00013429 0.00230000 0.01104287
v 0.00062886 0.00362500 0.02074290
v -0.00013429 0.00362500 0.01104287
v 0.00062886 0.00230000 0.02074290
v 0.00561346 0.00100000 0.02035073
v 0.00574753 0.00100000 0.01058012
v 0.00485031 0.00100000 0.01065071
v 0.00662598 0.00100000 0.02174561
v 0.00162578 0.00100000 0.02066446
v 0.00174107 0.00100000 0.02212993
v -0.00234539 0.00462500 0.00843827
v -0.00036806 0.00462500 0.02082133
v -0.00136498 0.00462500 0.02089976
v -0.00113121 0.00462500 0.01112130
v 0.00014652 0.00462500 0.01089385
v 0.00023871 0.00462500 0.01101352
v 0.00002601 0.00462500 0.01053040
v 0.00008820 0.00462500 0.01015258
v 0.00031885 0.00462500 0.00984694
v 0.00066512 0.00462500 0.00968350
v 0.00363613 0.00462500 0.00796767
v 0.00104768 0.00462500 0.00969969
v 0.00137890 0.00462500 0.00989182
v 0.00158289 0.00462500 0.01021587
v 0.00385339 0.00462500 0.01072914
v 0.00161292 0.00462500 0.01059759
v 0.00148654 0.00462500 0.01091535
v 0.00074415 -0.00170000 0.02220837
v -0.00013429 -0.00300000 0.01104287
v 0.00074415 -0.00300000 0.02220837
v -0.00013429 -0.00170000 0.01104287
v 0.00778464 -0.00293562 0.01097323
v 0.00878156 -0.00373562 0.01089480
v 0.00878156 -0.00293562 0.01089480
v 0.00778464 -0.00373562 0.01097323
v 0.00774150 -0.00293562 0.01042493
v 0.00873842 -0.00373562 0.01034650
v 0.00774150 -0.00373562 0.01042493
v 0.00873842 -0.00293562 0.01034650
v 0.00847362 -0.00505130 0.01973049
v 0.00861982 -0.00560130 0.02158875
v 0.00847362 -0.00560130 0.01973049
v 0.00778464 0.00293301 0.01097323
v 0.00857681 -0.00373562 0.02104212
v 0.00861982 -0.00373562 0.02158875
v 0.00788783 -0.00505130 0.01228487
v 0.00788783 -0.00560130 0.01228487
v 0.00774137 -0.00560130 0.01042325
v 0.00847362 0.00504870 0.01973049
v 0.00847362 0.00559870 0.01973049
v 0.00861982 0.00559870 0.02158875
v 0.00857681 0.00373301 0.02104212
v 0.00788783 0.00504870 0.01228487
v 0.00861982 0.00373301 0.02158875
v 0.00774137 0.00559870 0.01042325
v 0.00774150 0.00373301 0.01042493
v 0.00774150 0.00293301 0.01042493
v 0.00778464 0.00373301 0.01097323
v 0.00788783 0.00559870 0.01228487
v -0.00136498 0.00762500 0.02089976
v -0.00234539 0.00762500 0.00843827
v 0.00490853 0.00129289 0.02040619
v 0.00469242 0.00161732 0.02042319
v 0.00523195 0.00107612 0.02038075
v 0.00461654 0.00762500 0.02042916
v 0.00055297 0.00400768 0.02074887
v 0.00033687 0.00433211 0.02076587
v 0.00001344 0.00454888 0.02079131
v 0.00461654 0.00200000 0.02042916
v 0.00162578 0.00230000 0.02066446
v 0.00363613 0.00762500 0.00796767
v 0.00385339 0.00200000 0.01072914
v -0.00161764 0.00642500 0.00838101
v -0.00161764 0.00762500 0.00838101
v 0.00290838 0.00642500 0.00802493
v 0.00290838 0.00762500 0.00802493
v 0.00340028 0.00762500 0.01427729
v -0.00067023 0.00762500 0.01582858
v -0.00021013 0.00762500 0.01628219
v -0.00098391 0.00762500 0.01526372
v 0.00275378 0.00762500 0.01604901
v 0.00223931 0.00762500 0.01643987
v -0.00112573 0.00762500 0.01463337
v 0.00313729 0.00762500 0.01552903
v 0.00335877 0.00762500 0.01492206
v 0.00035914 0.00762500 0.01658780
v 0.00099144 0.00762500 0.01672064
v 0.00163556 0.00762500 0.01666997
v -0.00112573 0.00642500 0.01463337
v 0.00335877 0.00642500 0.01492206
v 0.00340028 0.00642500 0.01427729
v 0.00313729 0.00642500 0.01552903
v 0.00275378 0.00642500 0.01604901
v 0.00223931 0.00642500 0.01643987
v 0.00163556 0.00642500 0.01666997
v 0.00099144 0.00642500 0.01672064
v 0.00035914 0.00642500 0.01658780
v -0.00021013 0.00642500 0.01628219
v -0.00067023 0.00642500 0.01582858
v -0.00098391 0.00642500 0.01526372
v 0.00025577 0.00642500 0.00976935
v 0.00064532 0.00642500 0.00958548
v 0.00107570 0.00642500 0.00960370
v 0.00144832 0.00642500 0.00981984
v 0.00068568 0.00642500 0.01523383
v 0.00109920 0.00642500 0.01535453
v 0.00037562 0.00642500 0.01493480
v -0.00007368 0.00642500 0.01053824
v 0.00006189 0.00642500 0.01094712
v -0.00000372 0.00642500 0.01011320
v 0.00024005 0.00642500 0.01452592
v 0.00031001 0.00642500 0.01410087
v 0.00056950 0.00642500 0.01375703
v 0.00185567 0.00642500 0.01499747
v 0.00152144 0.00642500 0.01526922
v 0.00171159 0.00642500 0.01061384
v 0.00154194 0.00642500 0.01100979
v 0.00078547 0.00642500 0.01136685
v 0.00095905 0.00642500 0.01357315
v 0.00037195 0.00642500 0.01124616
v 0.00202532 0.00642500 0.01460151
v 0.00167781 0.00642500 0.01018440
v 0.00199154 0.00642500 0.01417207
v 0.00176205 0.00642500 0.01380752
v 0.00138943 0.00642500 0.01359138
v 0.00120771 0.00642500 0.01128154
v 0.00662598 -0.00300000 0.02174561
v 0.00574753 -0.00300000 0.01058012
v 0.00174107 -0.00170000 0.02212993
v 0.00700748 -0.00307612 0.02171560
v 0.00700748 0.00107612 0.02171560
v 0.00961674 -0.00373562 0.02151032
v 0.00733091 0.00129289 0.02169015
v 0.00754701 0.00161732 0.02167315
v 0.00762290 0.00200000 0.02166718
v 0.00762290 0.00559870 0.02166718
v 0.00961674 0.00373301 0.02151032
v 0.00733091 -0.00329289 0.02169015
v 0.00754701 -0.00361732 0.02167315
v 0.00762290 -0.00560130 0.02166718
v 0.00762290 -0.00400000 0.02166718
v 0.00110343 0.00632500 0.01525461
v 0.00110343 0.00462500 0.01525461
v 0.00073586 0.00462500 0.01514733
v 0.00120002 0.00462500 0.01525287
v 0.00147875 0.00632500 0.01517879
v 0.00147875 0.00462500 0.01517879
v 0.00177585 0.00632500 0.01493723
v 0.00177585 0.00462500 0.01493723
v 0.00192665 0.00632500 0.01458527
v 0.00192665 0.00462500 0.01458527
v 0.00189662 0.00632500 0.01420355
v 0.00189662 0.00462500 0.01420355
v 0.00169263 0.00632500 0.01387950
v 0.00169263 0.00462500 0.01387950
v 0.00136142 0.00632500 0.01368737
v 0.00136142 0.00462500 0.01368737
v 0.00097885 0.00632500 0.01367117
v 0.00097885 0.00462500 0.01367117
v 0.00063258 0.00632500 0.01383462
v 0.00063258 0.00462500 0.01383462
v 0.00040193 0.00632500 0.01414026
v 0.00040193 0.00462500 0.01414026
v 0.00033974 0.00632500 0.01451808
v 0.00033974 0.00462500 0.01451808
v 0.00046025 0.00632500 0.01488152
v 0.00046025 0.00462500 0.01488152
v 0.00073586 0.00632500 0.01514733
v 0.00042213 0.00632500 0.01115966
v 0.00014652 0.00632500 0.01089385
v 0.00042213 0.00462500 0.01115966
v 0.00078970 0.00632500 0.01126694
v 0.00078970 0.00462500 0.01126694
v 0.00116502 0.00632500 0.01119111
v 0.00116502 0.00462500 0.01119111
v 0.00146212 0.00632500 0.01094955
v 0.00146212 0.00462500 0.01094955
v 0.00161292 0.00632500 0.01059759
v 0.00158289 0.00632500 0.01021587
v 0.00137890 0.00632500 0.00989182
v 0.00104768 0.00632500 0.00969969
v 0.00066512 0.00632500 0.00968350
v 0.00031885 0.00632500 0.00984694
v 0.00008820 0.00632500 0.01015258
v 0.00002601 0.00632500 0.01053040
v 0.00086263 -0.00170000 0.01096444
v 0.00612904 -0.00307612 0.01055010
v 0.00645246 0.00129289 0.01052466
v 0.00666857 0.00161732 0.01050765
v 0.00086263 0.00230000 0.01096444
v -0.00021018 0.00400768 0.01104884
v -0.00042628 0.00433211 0.01106584
v -0.00074971 0.00454888 0.01109129
v 0.00645246 -0.00329289 0.01052466
v 0.00666857 -0.00361732 0.01050765
v 0.00674445 -0.00400000 0.01050168
v 0.00674445 -0.00560130 0.01050168
v 0.00674445 0.00200000 0.01050168
v 0.00674445 0.00559870 0.01050168
v 0.00446880 0.00107612 0.01068072
v 0.00612904 0.00107612 0.01055010
v 0.00414538 0.00129289 0.01070617
v 0.00392927 0.00161732 0.01072317
v 0.00947054 0.00559870 0.01965205
v 0.00888475 0.00559870 0.01220643
v 0.00888475 -0.00560130 0.01220643
v 0.00947054 -0.00560130 0.01965205
v 0.00888475 0.00504870 0.01220643
v 0.00947054 0.00504870 0.01965205
v 0.00957373 0.00373301 0.02096369
v 0.00957373 -0.00373562 0.02096369
v 0.00878156 0.00293301 0.01089480
v 0.00878156 0.00373301 0.01089480
v 0.00873842 0.00373301 0.01034650
v 0.00873842 0.00293301 0.01034650
v 0.00113727 0.00462500 0.01445533
v 0.00136673 0.00050706 0.01737190
v 0.00137300 0.00070000 0.01745157
v 0.00095675 0.00030000 0.01216074
v 0.00095888 0.00009294 0.01218792
v 0.00145872 -0.00039282 0.01854102
v 0.00147171 -0.00026569 0.01870620
v 0.00148168 -0.00010000 0.01883294
v 0.00148795 0.00009294 0.01891262
v 0.00141110 0.00107274 0.01793584
v 0.00096515 -0.00010000 0.01226759
v 0.00097512 -0.00026569 0.01239433
v 0.00098812 -0.00039282 0.01255951
v 0.00149009 0.00030000 0.01893979
v 0.00148795 0.00050706 0.01891262
v 0.00148168 0.00070000 0.01883294
v 0.00147171 0.00086569 0.01870620
v 0.00145872 0.00099282 0.01854102
v 0.00139597 0.00099282 0.01774349
v 0.00138297 0.00086569 0.01757831
v 0.00107383 -0.00010000 0.01364896
v 0.00106386 -0.00026569 0.01352222
v 0.00136460 0.00030000 0.01734472
v 0.00100325 -0.00047274 0.01275186
v 0.00101949 -0.00050000 0.01295828
v 0.00103573 -0.00047274 0.01316469
v 0.00138297 -0.00026569 0.01757831
v 0.00137300 -0.00010000 0.01745157
v 0.00139597 -0.00039282 0.01774349
v 0.00141110 -0.00047274 0.01793584
v 0.00142734 -0.00050000 0.01814226
v 0.00144358 -0.00047274 0.01834867
v 0.00144358 0.00107274 0.01834867
v 0.00142734 0.00110000 0.01814226
v 0.00136673 0.00009294 0.01737190
v 0.00105087 -0.00039282 0.01335704
v 0.00106386 0.00086569 0.01352222
v 0.00107383 0.00070000 0.01364896
v 0.00108010 0.00009294 0.01372864
v 0.00108224 0.00030000 0.01375581
v 0.00108010 0.00050706 0.01372864
v 0.00105087 0.00099282 0.01335704
v 0.00103573 0.00107274 0.01316469
v 0.00101949 0.00110000 0.01295828
v 0.00100325 0.00107274 0.01275186
v 0.00098812 0.00099282 0.01255951
v 0.00097512 0.00086569 0.01239433
v 0.00096515 0.00070000 0.01226759
v 0.00095888 0.00050706 0.01218792
v 0.00437565 -0.00001250 0.01736736
v 0.00439359 -0.00024127 0.01759542
v 0.00479248 0.00030000 0.01787750
v 0.00441810 -0.00032500 0.01790696
v 0.00439359 0.00084127 0.01759542
v 0.00437565 0.00061250 0.01736736
v 0.00436908 0.00030000 0.01728388
v 0.00446055 0.00061250 0.01844656
v 0.00444261 0.00084127 0.01821850
v 0.00441810 0.00092500 0.01790696
v 0.00444261 -0.00024127 0.01821850
v 0.00446055 -0.00001250 0.01844656
v 0.00446712 0.00030000 0.01853003
v 0.00158912 -0.00030370 0.01796727
v 0.00157729 -0.00024127 0.01781699
v 0.00156714 -0.00014194 0.01768795
v 0.00155935 -0.00001250 0.01758893
v 0.00155445 0.00013824 0.01752669
v 0.00155278 0.00030000 0.01750546
v 0.00155445 0.00046176 0.01752669
v 0.00155935 0.00061250 0.01758893
v 0.00156714 0.00074194 0.01768795
v 0.00157729 0.00084127 0.01781699
v 0.00158912 0.00090370 0.01796727
v 0.00160180 0.00092500 0.01812853
v 0.00161449 0.00090370 0.01828980
v 0.00162631 0.00084127 0.01844007
v 0.00163647 0.00074194 0.01856911
v 0.00164426 0.00061250 0.01866813
v 0.00164915 0.00046176 0.01873038
v 0.00165082 0.00030000 0.01875161
v 0.00164915 0.00013824 0.01873038
v 0.00164426 -0.00001250 0.01866813
v 0.00163647 -0.00014194 0.01856911
v 0.00162631 -0.00024127 0.01844007
v 0.00161449 -0.00030370 0.01828980
v 0.00160180 -0.00032500 0.01812853
v 0.00396780 -0.00001250 0.01218338
v 0.00398574 -0.00024127 0.01241144
v 0.00438463 0.00030000 0.01269352
v 0.00401025 -0.00032500 0.01272298
v 0.00398574 0.00084127 0.01241144
v 0.00396780 0.00061250 0.01218338
v 0.00396123 0.00030000 0.01209990
v 0.00405270 0.00061250 0.01326258
v 0.00403476 0.00084127 0.01303452
v 0.00401025 0.00092500 0.01272298
v 0.00403476 -0.00024127 0.01303452
v 0.00405270 -0.00001250 0.01326258
v 0.00405927 0.00030000 0.01334605
v 0.00118127 -0.00030370 0.01278329
v 0.00116944 -0.00024127 0.01263301
v 0.00115929 -0.00014194 0.01250397
v 0.00115150 -0.00001250 0.01240495
v 0.00114660 0.00013824 0.01234271
v 0.00114493 0.00030000 0.01232148
v 0.00114660 0.00046176 0.01234271
v 0.00115150 0.00061250 0.01240495
v 0.00115929 0.00074194 0.01250397
v 0.00116944 0.00084127 0.01263301
v 0.00118127 0.00090370 0.01278329
v 0.00119395 0.00092500 0.01294455
v 0.00120664 0.00090370 0.01310581
v 0.00121846 0.00084127 0.01325609
v 0.00122862 0.00074194 0.01338513
v 0.00123641 0.00061250 0.01348415
v 0.00124130 0.00046176 0.01354639
v 0.00124297 0.00030000 0.01356762
v 0.00124130 0.00013824 0.01354639
v 0.00123641 -0.00001250 0.01348415
v 0.00122862 -0.00014194 0.01338513
v 0.00121846 -0.00024127 0.01325609
v 0.00120664 -0.00030370 0.01310581
v 0.00119395 -0.00032500 0.01294455
v 0.00947054 -0.00505130 0.01965205
v 0.00888475 -0.00505130 0.01220643
v 0.00335675 0.00642503 0.01482468
v 0.00338034 0.00642503 0.01427886
v 0.00338034 0.00762499 0.01427886
v 0.00335675 0.00762499 0.01482468
v 0.00313310 0.00642503 0.01549416
v 0.00313310 0.00762499 0.01549416
v 0.00271304 0.00642503 0.01606140
v 0.00271304 0.00762499 0.01606140
v 0.00213790 0.00642503 0.01647058
v 0.00213790 0.00762499 0.01647058
v 0.00162269 0.00642503 0.01665235
v 0.00162269 0.00762499 0.01665235
v 0.00111362 0.00642503 0.01670521
v 0.00111362 0.00762499 0.01670521
v 0.00042104 0.00642503 0.01658829
v 0.00042104 0.00762499 0.01658829
v -0.00020175 0.00642503 0.01626351
v -0.00020175 0.00762499 0.01626351
v -0.00069405 0.00642503 0.01576253
v -0.00069405 0.00762499 0.01576253
v -0.00100788 0.00642503 0.01513416
v -0.00100788 0.00762499 0.01513416
v -0.00110579 0.00642503 0.01463181
v -0.00110579 0.00762499 0.01463181
v -0.00164093 0.00642503 0.00782994
v -0.00164094 0.00762499 0.00782994
v 0.00284521 0.00762499 0.00747700
v 0.00284521 0.00642503 0.00747700
v 0.00111064 0.00672496 0.01555501
v 0.00156876 0.00762499 0.01640823
v 0.00137459 0.00672496 0.01552943
v 0.00108886 0.00762499 0.01645475
v 0.00084825 0.00672496 0.01551668
v 0.00061177 0.00762499 0.01638506
v 0.00060265 0.00672496 0.01541667
v 0.00016523 0.00762499 0.01620322
v 0.00038812 0.00672496 0.01526079
v -0.00022482 0.00762499 0.01591981
v 0.00021713 0.00672496 0.01505810
v -0.00053572 0.00762499 0.01555128
v 0.00009961 0.00672496 0.01482038
v -0.00074938 0.00762499 0.01511906
v 0.00004240 0.00672496 0.01456145
v -0.00085340 0.00762499 0.01464827
v 0.00004882 0.00672496 0.01429635
v -0.00084173 0.00762499 0.01416627
v 0.00011850 0.00672496 0.01404048
v -0.00071504 0.00762499 0.01370106
v 0.00024738 0.00672496 0.01380873
v -0.00048071 0.00762499 0.01327969
v 0.00042799 0.00672496 0.01361455
v -0.00015234 0.00762499 0.01292664
v 0.00064981 0.00672496 0.01346924
v 0.00025097 0.00762499 0.01266244
v 0.00085476 0.00672496 0.01339223
v 0.00062361 0.00762499 0.01252242
v 0.00089996 0.00672496 0.01338124
v 0.00070579 0.00762499 0.01250243
v 0.00094558 0.00672496 0.01337216
v 0.00202358 0.00762499 0.01624823
v 0.00162474 0.00672496 0.01544142
v 0.00242689 0.00762499 0.01598402
v 0.00184656 0.00672496 0.01529611
v 0.00275526 0.00762499 0.01563097
v 0.00202716 0.00672496 0.01510194
v 0.00298959 0.00762499 0.01520960
v 0.00215605 0.00672496 0.01487018
v 0.00311627 0.00762499 0.01474440
v 0.00222572 0.00672496 0.01461432
v 0.00312795 0.00762499 0.01426239
v 0.00223214 0.00672496 0.01434922
v 0.00302393 0.00762499 0.01379160
v 0.00217493 0.00672496 0.01409028
v 0.00281026 0.00762499 0.01335938
v 0.00205742 0.00672496 0.01385256
v 0.00249937 0.00762499 0.01299086
v 0.00188643 0.00672496 0.01364987
v 0.00210932 0.00762499 0.01270744
v 0.00167190 0.00672496 0.01349399
v 0.00166278 0.00762499 0.01252561
v 0.00142630 0.00672496 0.01339398
v 0.00118569 0.00762499 0.01245592
v 0.00116390 0.00672496 0.01335565
v 0.00098041 0.00762499 0.01246149
v 0.00078874 0.00762499 0.01248593
v 0.00064981 0.00642503 0.01346924
v 0.00024738 0.00642503 0.01380873
v -0.00021412 0.00642503 0.01083271
v -0.00199627 0.00642503 0.00012216
v -0.00183687 0.00642503 0.00079115
v -0.00687141 0.00642503 -0.00409679
v -0.00026491 0.00642503 0.01030867
v -0.00006635 0.00642503 0.00982105
v 0.00033608 0.00642503 0.00948156
v -0.00146028 0.00642503 0.00136659
v -0.00091103 0.00642503 0.00178045
v -0.00751039 0.00642503 -0.00275572
v -0.00197029 0.00642503 0.00775358
v -0.00789041 0.00642503 -0.00131963
v 0.00135817 0.00642503 0.00950631
v 0.00085017 0.00642503 0.00936798
v 0.00706647 0.00642503 -0.00375034
v 0.00183687 0.00642503 -0.00079115
v 0.00146028 0.00642503 -0.00136659
v 0.00763265 0.00642503 -0.00239637
v 0.00199627 0.00642503 -0.00012216
v 0.00794198 0.00642503 -0.00096175
v 0.00798403 0.00642503 0.00050523
v 0.00191963 0.00642503 0.00056127
v 0.00775739 0.00642503 0.00195521
v 0.00726969 0.00642503 0.00333939
v 0.00161602 0.00642503 0.00117834
v 0.00653735 0.00642503 0.00461119
v -0.00191963 0.00642503 -0.00056127
v -0.00161602 0.00642503 -0.00117834
v -0.00599550 0.00642503 -0.00529660
v -0.00112133 0.00642503 -0.00165609
v -0.00366081 0.00642503 -0.00711326
v -0.00049406 0.00642503 -0.00193802
v -0.00491286 0.00642503 -0.00631378
v -0.00669994 0.00642503 0.00437160
v -0.00739268 0.00642503 0.00305749
v 0.00174369 0.00642503 0.00986488
v 0.00191841 0.00642503 0.01036154
v 0.00626247 0.00642503 -0.00497810
v 0.00524772 0.00642503 -0.00603833
v 0.00091103 0.00642503 -0.00178045
v -0.00799836 0.00642503 0.00016196
v -0.00783052 0.00642503 0.00163797
v 0.00053452 0.00642503 0.01152900
v 0.00106086 0.00642503 0.01154175
v 0.00007439 0.00642503 0.01127312
v 0.00205742 0.00642503 0.01385256
v 0.00167190 0.00642503 0.01349399
v 0.00223214 0.00642503 0.01434922
v 0.00215605 0.00642503 0.01487018
v 0.00004882 0.00642503 0.01429635
v 0.00009961 0.00642503 0.01482038
v 0.00025407 0.00642503 -0.00198380
v -0.00012216 0.00642503 -0.00199627
v -0.00015492 0.00642503 -0.00799850
v 0.00405636 0.00642503 -0.00689535
v 0.00272850 0.00642503 -0.00752033
v 0.00130881 0.00642503 -0.00789221
v 0.00558499 0.00642503 0.00572781
v 0.00112133 0.00642503 0.00165609
v 0.00444469 0.00642503 0.00665167
v -0.00465324 0.00642503 0.00650749
v -0.00577617 0.00642503 0.00553497
v -0.00336986 0.00642503 0.00725562
v 0.00184232 0.00642503 0.01088250
v 0.00153283 0.00642503 0.01130843
v 0.00116390 0.00642503 0.01335565
v -0.00048864 0.00642503 -0.00798506
v -0.00082557 0.00642503 -0.00795729
v -0.00228255 0.00642503 -0.00766746
v -0.00025407 0.00642503 0.00198380
v 0.00184656 0.00642503 0.01529611
v 0.00137459 0.00642503 0.01552943
v 0.00084825 0.00642503 0.01551668
v 0.00038812 0.00642503 0.01526079
v 0.00315481 0.00642503 0.00735168
v 0.00049406 0.00642503 0.00193802
v 0.00012216 0.00642503 0.00199627
v -0.00183687 0.00762499 0.00079115
v -0.00199627 0.00762499 0.00012216
v -0.00191963 0.00762499 -0.00056127
v -0.00789041 0.00762499 -0.00131963
v -0.00751039 0.00762499 -0.00275572
v -0.00161602 0.00762499 -0.00117834
v 0.00244152 0.00762499 0.01164330
v 0.00267586 0.00762499 0.01122193
v 0.00211316 0.00762499 0.01199634
v 0.00315481 0.00762499 0.00735168
v 0.00049406 0.00762499 0.00193802
v 0.00112133 0.00762499 0.00165609
v 0.00170985 0.00762499 0.01226055
v 0.00558499 0.00762499 0.00572781
v 0.00161602 0.00762499 0.00117834
v 0.00444469 0.00762499 0.00665167
v -0.00783052 0.00762499 0.00163797
v -0.00739268 0.00762499 0.00305749
v -0.00799836 0.00762499 0.00016196
v 0.00280254 0.00762499 0.01075672
v 0.00281422 0.00762499 0.01027471
v 0.00271020 0.00762499 0.00980392
v 0.00077513 0.00762499 0.01246707
v 0.00726969 0.00762499 0.00333939
v 0.00191963 0.00762499 0.00056127
v 0.00653735 0.00762499 0.00461119
v 0.00798403 0.00762499 0.00050523
v 0.00199627 0.00762499 -0.00012216
v 0.00775739 0.00762499 0.00195521
v -0.00197029 0.00762499 0.00775358
v -0.00336986 0.00762499 0.00725562
v -0.00465324 0.00762499 0.00650749
v 0.00125502 0.00762499 0.01242055
v 0.00763265 0.00762499 -0.00239637
v 0.00183687 0.00762499 -0.00079115
v 0.00794198 0.00762499 -0.00096175
v 0.00146028 0.00762499 -0.00136659
v 0.00524772 0.00762499 -0.00603833
v 0.00091103 0.00762499 -0.00178045
v 0.00626247 0.00762499 -0.00497810
v 0.00706647 0.00762499 -0.00375034
v -0.00577617 0.00762499 0.00553497
v -0.00669994 0.00762499 0.00437160
v 0.00249653 0.00762499 0.00937170
v 0.00218564 0.00762499 0.00900318
v 0.00179559 0.00762499 0.00871976
v -0.00687141 0.00762499 -0.00409679
v -0.00599550 0.00762499 -0.00529660
v -0.00112133 0.00762499 -0.00165609
v -0.00014850 0.00762499 0.01221555
v 0.00029804 0.00762499 0.01239738
v -0.00146028 0.00762499 0.00136659
v -0.00091103 0.00762499 0.00178045
v -0.00025407 0.00762499 0.00198380
v 0.00272850 0.00762499 -0.00752033
v 0.00025407 0.00762499 -0.00198380
v 0.00405636 0.00762499 -0.00689535
v -0.00491286 0.00762499 -0.00631378
v -0.00366081 0.00762499 -0.00711326
v -0.00049406 0.00762499 -0.00193802
v -0.00102877 0.00762499 0.00971338
v -0.00079444 0.00762499 0.00929201
v -0.00115546 0.00762499 0.01017859
v -0.00116713 0.00762499 0.01066059
v -0.00106311 0.00762499 0.01113139
v -0.00006276 0.00762499 0.00867476
v 0.00030988 0.00762499 0.00853474
v -0.00046607 0.00762499 0.00893896
v -0.00228255 0.00762499 -0.00766746
v -0.00082557 0.00762499 -0.00795729
v -0.00012216 0.00762499 -0.00199627
v -0.00048864 0.00762499 -0.00798506
v -0.00015492 0.00762499 -0.00799850
v 0.00130881 0.00762499 -0.00789221
v -0.00084945 0.00762499 0.01156360
v -0.00053855 0.00762499 0.01193213
v 0.00134904 0.00762499 0.00853793
v 0.00087196 0.00762499 0.00846824
v 0.00012216 0.00762499 0.00199627
v 0.00047501 0.00762499 0.00849826
v 0.00039206 0.00762499 0.00851475
v 0.00058623 0.00672496 0.00939356
v 0.00054103 0.00672496 0.00940455
v 0.00033608 0.00672496 0.00948156
v 0.00011425 0.00672496 0.00962687
v -0.00006635 0.00672496 0.00982105
v -0.00019523 0.00672496 0.01005280
v -0.00026491 0.00672496 0.01030867
v -0.00027133 0.00672496 0.01057377
v -0.00021412 0.00672496 0.01083271
v -0.00009660 0.00672496 0.01107043
v 0.00007439 0.00672496 0.01127312
v 0.00028892 0.00672496 0.01142900
v 0.00053452 0.00672496 0.01152900
v 0.00079691 0.00672496 0.01156733
v 0.00106086 0.00672496 0.01154175
v 0.00063185 0.00672496 0.00938448
v 0.00085017 0.00672496 0.00936798
v 0.00111257 0.00672496 0.00940630
v 0.00135817 0.00672496 0.00950631
v 0.00157270 0.00672496 0.00966219
v 0.00174369 0.00672496 0.00986488
v 0.00186120 0.00672496 0.01010260
v 0.00191841 0.00672496 0.01036154
v 0.00191199 0.00672496 0.01062664
v 0.00184232 0.00672496 0.01088250
v 0.00171343 0.00672496 0.01111426
v 0.00153283 0.00672496 0.01130843
v 0.00131101 0.00672496 0.01145374
f 1 2 3
f 4 2 1
f 5 6 7
f 8 6 5
f 9 10 11
f 12 10 9
f 13 14 15
f 16 14 13
f 14 12 9
f 16 12 14
f 7 1 3
f 6 1 7
f 17 18 19
f 20 18 17
f 21 20 17
f 22 20 21
f 23 22 21
f 24 22 23
f 25 26 27
f 28 26 25
f 29 28 25
f 30 28 29
f 31 30 29
f 32 30 31
f 31 18 32
f 19 18 31
f 13 27 26
f 33 27 13
f 15 33 13
f 34 33 15
f 4 35 2
f 36 35 4
f 24 36 4
f 23 36 24
f 12 30 32
f 18 12 32
f 10 12 18
f 20 10 18
f 26 16 13
f 12 16 26
f 28 12 26
f 30 12 28
f 24 1 6
f 4 1 24
f 10 37 38
f 8 37 10
f 20 8 10
f 6 8 20
f 22 6 20
f 24 6 22
f 39 40 41
f 42 43 44
f 41 43 42
f 45 41 42
f 39 41 45
f 46 47 48
f 49 46 48
f 46 50 51
f 52 50 46
f 49 52 46
f 51 40 46
f 41 40 51
f 50 41 51
f 43 41 50
f 52 43 50
f 44 43 52
f 49 44 52
f 42 44 49
f 48 42 49
f 45 42 48
f 47 45 48
f 39 45 47
f 53 54 55
f 56 57 58
f 55 57 56
f 59 55 56
f 53 55 59
f 60 61 62
f 63 62 64
f 60 62 63
f 65 60 63
f 66 60 65
f 60 56 61
f 59 56 60
f 66 59 60
f 53 59 66
f 65 53 66
f 54 53 65
f 63 54 65
f 55 54 63
f 64 55 63
f 57 55 64
f 62 57 64
f 58 57 62
f 67 68 69
f 70 68 67
f 71 70 67
f 72 70 71
f 73 72 71
f 74 72 73
f 75 74 73
f 76 74 75
f 77 76 75
f 78 76 77
f 79 80 81
f 82 80 79
f 83 82 79
f 84 82 83
f 85 84 83
f 86 84 85
f 87 86 85
f 88 86 87
f 89 88 87
f 90 88 89
f 91 92 93
f 94 92 91
f 95 94 91
f 96 94 95
f 97 96 95
f 98 96 97
f 99 98 97
f 100 98 99
f 101 100 99
f 102 100 101
f 103 104 105
f 106 104 103
f 107 106 103
f 108 106 107
f 109 108 107
f 110 108 109
f 111 110 109
f 112 110 111
f 113 112 111
f 114 112 113
f 9 95 91
f 99 115 101
f 11 115 99
f 69 34 15
f 11 95 9
f 97 95 11
f 99 97 11
f 15 67 69
f 71 67 15
f 14 71 15
f 73 71 14
f 14 75 73
f 77 75 14
f 9 77 14
f 93 77 9
f 91 93 9
f 90 104 106
f 76 25 27
f 27 74 76
f 72 74 27
f 33 72 27
f 70 72 33
f 68 70 33
f 112 23 110
f 36 23 112
f 114 36 112
f 23 108 110
f 106 108 23
f 21 106 23
f 90 106 21
f 88 100 86
f 19 100 88
f 90 19 88
f 17 19 90
f 21 17 90
f 82 102 80
f 100 102 82
f 84 100 82
f 86 100 84
f 19 98 100
f 96 98 19
f 31 96 19
f 94 96 31
f 29 94 31
f 92 94 29
f 25 92 29
f 78 92 25
f 76 78 25
f 38 101 115
f 102 101 38
f 37 102 38
f 80 102 37
f 116 80 37
f 81 80 116
f 34 68 33
f 69 68 34
f 39 92 40
f 93 92 39
f 47 93 39
f 77 93 47
f 46 77 47
f 78 77 46
f 40 78 46
f 92 78 40
f 56 105 61
f 89 105 56
f 58 89 56
f 90 89 58
f 62 90 58
f 104 90 62
f 61 104 62
f 105 104 61
f 89 3 105
f 7 3 89
f 87 7 89
f 81 116 5
f 3 103 105
f 107 103 3
f 2 107 3
f 5 79 81
f 83 79 5
f 7 83 5
f 85 83 7
f 87 85 7
f 111 35 113
f 2 35 111
f 109 2 111
f 107 2 109
f 36 113 35
f 114 113 36
f 5 37 8
f 116 37 5
f 10 115 11
f 38 115 10
f 117 118 119
f 120 118 117
f 121 120 117
f 122 120 121
f 123 122 121
f 124 122 123
f 125 124 123
f 126 124 125
f 127 126 125
f 128 126 127
f 129 130 131
f 132 130 129
f 133 132 129
f 134 132 133
f 135 134 133
f 136 134 135
f 137 136 135
f 138 136 137
f 139 138 137
f 140 138 139
f 141 142 143
f 144 142 141
f 145 144 141
f 146 144 145
f 147 146 145
f 148 146 147
f 149 148 147
f 150 148 149
f 151 150 149
f 152 150 151
f 153 154 155
f 156 154 153
f 157 156 153
f 158 156 157
f 159 158 157
f 160 158 159
f 161 160 159
f 162 160 161
f 163 162 161
f 164 162 163
f 151 154 152
f 155 154 151
f 130 163 131
f 164 163 130
f 142 127 143
f 128 127 142
f 165 166 167
f 168 166 165
f 169 166 168
f 170 166 169
f 170 167 166
f 171 167 170
f 171 165 167
f 172 165 171
f 172 168 165
f 169 168 172
f 173 174 175
f 176 174 173
f 177 173 175
f 178 173 177
f 179 175 174
f 177 175 179
f 180 174 176
f 179 174 180
f 178 176 173
f 180 176 178
f 155 151 149
f 161 135 133
f 161 137 135
f 139 137 161
f 159 139 161
f 119 139 159
f 161 131 163
f 129 131 161
f 133 129 161
f 123 153 155
f 157 153 123
f 121 157 123
f 159 157 121
f 117 159 121
f 119 159 117
f 125 143 127
f 141 143 125
f 123 141 125
f 145 141 123
f 155 145 123
f 147 145 155
f 149 147 155
f 181 182 183
f 184 182 181
f 185 182 184
f 186 182 185
f 186 183 182
f 187 183 186
f 187 181 183
f 188 181 187
f 119 118 185
f 188 140 139
f 119 188 139
f 185 188 119
f 177 188 185
f 184 177 185
f 178 177 184
f 181 178 184
f 180 178 181
f 188 180 181
f 179 180 188
f 177 179 188
f 186 126 128
f 186 172 187
f 169 172 186
f 187 134 136
f 186 124 126
f 122 124 186
f 185 122 186
f 120 122 185
f 118 120 185
f 154 171 170
f 138 187 136
f 188 187 138
f 140 188 138
f 170 152 154
f 150 152 170
f 169 150 170
f 148 150 169
f 169 146 148
f 144 146 169
f 186 144 169
f 142 144 186
f 128 142 186
f 187 132 134
f 130 132 187
f 172 130 187
f 164 130 172
f 162 164 172
f 172 160 162
f 158 160 172
f 171 158 172
f 156 158 171
f 154 156 171
f 189 190 191
f 192 190 189
f 193 194 195
f 196 194 193
f 197 198 199
f 200 198 197
f 201 202 203
f 204 202 201
f 205 206 207
f 208 205 207
f 209 205 208
f 210 209 208
f 211 209 210
f 212 211 210
f 213 207 206
f 214 213 206
f 215 213 214
f 216 215 214
f 217 215 216
f 218 217 216
f 211 205 209
f 206 205 211
f 211 214 206
f 216 214 211
f 218 216 211
f 207 213 215
f 212 215 217
f 207 215 212
f 210 207 212
f 208 207 210
f 219 220 221
f 222 219 221
f 223 219 222
f 224 223 222
f 225 223 224
f 226 225 224
f 227 221 220
f 228 227 220
f 229 227 228
f 230 229 228
f 231 229 230
f 232 231 230
f 226 224 222
f 229 221 227
f 222 221 229
f 231 222 229
f 226 222 231
f 228 220 219
f 232 223 225
f 219 223 232
f 230 219 232
f 228 219 230
f 233 234 235
f 236 234 233
f 236 237 234
f 238 237 236
f 238 239 237
f 240 239 238
f 241 242 243
f 244 242 241
f 245 246 247
f 248 246 245
f 249 250 251
f 252 250 249
f 253 254 255
f 256 254 253
f 197 202 204
f 199 202 197
f 201 190 192
f 203 190 201
f 189 194 196
f 191 194 189
f 193 198 200
f 195 198 193
f 257 190 258
f 191 190 257
f 259 191 257
f 260 194 261
f 195 194 260
f 262 195 260
f 194 263 261
f 264 263 194
f 191 264 194
f 265 264 191
f 259 265 191
f 266 198 267
f 199 198 266
f 268 199 266
f 198 269 267
f 270 269 198
f 195 270 198
f 271 270 195
f 262 271 195
f 190 272 258
f 273 272 190
f 203 273 190
f 274 273 203
f 203 275 274
f 276 275 203
f 202 276 203
f 277 276 202
f 202 278 277
f 279 278 202
f 199 279 202
f 280 279 199
f 268 280 199
f 272 273 281
f 282 272 281
f 258 272 282
f 283 258 282
f 257 258 283
f 284 257 283
f 259 257 284
f 285 259 284
f 265 259 285
f 286 265 285
f 263 264 287
f 288 263 287
f 261 263 288
f 289 261 288
f 260 261 289
f 290 260 289
f 262 260 290
f 291 262 290
f 271 262 291
f 292 271 291
f 269 270 293
f 294 269 293
f 267 269 294
f 295 267 294
f 266 267 295
f 296 266 295
f 268 266 296
f 297 268 296
f 280 268 297
f 298 280 297
f 278 279 299
f 300 278 299
f 277 278 300
f 301 277 300
f 276 277 301
f 302 276 301
f 275 276 302
f 303 275 302
f 274 275 303
f 304 274 303
f 212 265 211
f 264 265 212
f 217 264 212
f 287 264 217
f 218 287 217
f 286 287 218
f 211 286 218
f 265 286 211
f 270 292 293
f 271 292 270
f 238 304 240
f 274 304 238
f 236 274 238
f 273 274 236
f 233 273 236
f 281 273 233
f 233 235 254
f 254 281 233
f 282 281 254
f 283 282 254
f 254 284 283
f 285 284 254
f 256 285 254
f 286 285 256
f 250 286 256
f 250 287 286
f 288 287 250
f 289 288 250
f 250 290 289
f 291 290 250
f 252 291 250
f 292 291 252
f 246 292 252
f 246 293 292
f 294 293 246
f 295 294 246
f 301 300 242
f 246 296 295
f 297 296 246
f 248 297 246
f 298 297 248
f 242 298 248
f 299 298 242
f 300 299 242
f 304 239 240
f 244 239 304
f 303 244 304
f 242 244 303
f 302 242 303
f 301 242 302
f 243 248 245
f 242 248 243
f 247 252 249
f 246 252 247
f 251 256 253
f 250 256 251
f 234 254 235
f 255 254 234
f 237 255 234
f 241 255 237
f 239 241 237
f 244 241 239
f 231 279 226
f 299 279 231
f 232 299 231
f 298 299 232
f 225 298 232
f 280 298 225
f 226 280 225
f 279 280 226
f 201 243 204
f 241 243 201
f 192 241 201
f 255 241 192
f 189 255 192
f 253 255 189
f 196 253 189
f 251 253 196
f 193 251 196
f 249 251 193
f 200 249 193
f 247 249 200
f 197 247 200
f 245 247 197
f 204 245 197
f 243 245 204
f 305 306 307
f 308 306 305
f 309 310 311
f 312 310 309
f 313 314 315
f 316 314 313
f 317 318 319
f 320 318 317
f 318 314 316
f 312 314 318
f 320 312 318
f 310 312 320
f 306 310 320
f 308 310 306
f 319 316 313
f 318 316 319
f 307 320 317
f 306 320 307
f 311 308 305
f 310 308 311
f 315 312 309
f 314 312 315
f 317 319 313
f 311 315 309
f 313 315 311
f 305 313 311
f 317 313 305
f 307 317 305
f 321 322 323
f 324 322 321
f 325 326 327
f 328 326 325
f 329 328 325
f 330 328 329
f 331 332 333
f 334 332 331
f 334 335 336
f 337 335 334
f 331 337 334
f 338 337 331
f 331 339 338
f 340 339 331
f 341 340 331
f 342 340 341
f 341 343 342
f 344 343 341
f 345 344 341
f 346 344 345
f 347 346 345
f 348 349 350
f 351 349 348
f 352 353 354
f 355 353 352
f 356 357 358
f 359 357 356
f 354 357 359
f 353 357 354
f 360 361 362
f 363 361 360
f 364 365 361
f 366 367 368
f 358 368 356
f 366 368 358
f 355 366 358
f 352 366 355
f 369 370 371
f 369 372 373
f 374 372 369
f 371 374 369
f 375 376 377
f 363 364 361
f 372 364 363
f 378 372 363
f 373 372 378
f 376 373 378
f 379 373 376
f 375 379 376
f 377 368 375
f 356 368 377
f 363 356 377
f 352 356 363
f 360 352 363
f 366 352 360
f 380 331 333
f 381 331 380
f 329 382 383
f 384 382 329
f 325 384 329
f 385 386 322
f 385 387 386
f 388 387 385
f 380 388 385
f 332 388 380
f 333 332 380
f 389 329 383
f 390 329 389
f 385 390 389
f 324 390 385
f 322 324 385
f 345 341 391
f 345 389 392
f 385 389 345
f 391 385 345
f 393 381 394
f 331 381 393
f 395 331 393
f 341 331 395
f 396 341 395
f 391 341 396
f 397 391 396
f 385 391 397
f 398 380 399
f 400 380 398
f 385 401 402
f 403 380 400
f 381 380 403
f 394 381 403
f 385 404 401
f 405 404 385
f 397 405 385
f 380 406 399
f 407 406 380
f 385 407 380
f 408 407 385
f 402 408 385
f 394 409 393
f 403 409 394
f 410 397 411
f 405 397 410
f 412 405 410
f 404 405 412
f 413 404 412
f 401 404 413
f 414 401 413
f 402 401 414
f 415 402 414
f 408 402 415
f 416 408 415
f 407 408 416
f 417 407 416
f 406 407 417
f 418 406 417
f 399 406 418
f 419 399 418
f 398 399 419
f 420 398 419
f 400 398 420
f 409 400 420
f 403 400 409
f 397 395 411
f 396 395 397
f 421 422 393
f 423 393 422
f 395 393 423
f 424 395 423
f 425 417 426
f 418 417 425
f 427 418 425
f 428 409 429
f 393 409 428
f 430 393 428
f 421 393 430
f 427 419 418
f 420 419 427
f 431 420 427
f 409 420 431
f 432 409 431
f 433 409 432
f 413 434 435
f 436 437 411
f 438 433 439
f 409 433 438
f 440 409 438
f 429 409 440
f 412 434 413
f 441 434 412
f 410 441 412
f 395 436 411
f 442 436 395
f 424 442 395
f 435 414 413
f 415 414 435
f 426 415 435
f 416 415 426
f 417 416 426
f 411 441 410
f 443 441 411
f 437 443 411
f 444 443 437
f 445 444 437
f 445 438 439
f 446 438 445
f 437 446 445
f 447 349 448
f 350 349 447
f 447 348 350
f 449 348 447
f 450 449 447
f 365 328 330
f 451 328 365
f 452 451 365
f 453 451 452
f 454 453 452
f 455 371 456
f 374 371 455
f 454 374 455
f 457 374 454
f 452 457 454
f 365 458 459
f 450 458 365
f 330 450 365
f 449 450 330
f 365 460 361
f 461 460 365
f 459 461 365
f 462 463 464
f 465 463 462
f 466 465 462
f 467 465 466
f 468 467 466
f 469 467 468
f 470 469 468
f 471 469 470
f 472 471 470
f 473 471 472
f 474 473 472
f 475 473 474
f 476 475 474
f 477 475 476
f 478 477 476
f 479 477 478
f 480 479 478
f 481 479 480
f 482 481 480
f 483 481 482
f 484 483 482
f 485 483 484
f 486 485 484
f 487 485 486
f 488 487 486
f 464 487 488
f 462 464 488
f 480 432 482
f 433 432 480
f 478 433 480
f 439 433 478
f 476 439 478
f 445 439 476
f 474 445 476
f 444 445 474
f 472 444 474
f 443 444 472
f 470 443 472
f 441 443 470
f 468 441 470
f 434 441 468
f 466 434 468
f 435 434 466
f 462 435 466
f 426 435 462
f 488 426 462
f 425 426 488
f 486 425 488
f 427 425 486
f 484 427 486
f 431 427 484
f 482 431 484
f 432 431 482
f 489 336 490
f 491 336 489
f 492 491 489
f 493 491 492
f 494 493 492
f 495 493 494
f 496 495 494
f 496 497 495
f 347 497 496
f 498 347 496
f 346 347 498
f 499 346 498
f 344 346 499
f 500 344 499
f 343 344 500
f 501 343 500
f 342 343 501
f 502 342 501
f 340 342 502
f 503 340 502
f 339 340 503
f 504 339 503
f 338 339 504
f 505 338 504
f 337 338 505
f 490 337 505
f 335 337 490
f 336 335 490
f 503 430 504
f 421 430 503
f 502 421 503
f 422 421 502
f 501 422 502
f 423 422 501
f 500 423 501
f 424 423 500
f 499 424 500
f 442 424 499
f 498 442 499
f 436 442 498
f 496 436 498
f 437 436 496
f 494 437 496
f 446 437 494
f 492 446 494
f 438 446 492
f 489 438 492
f 440 438 489
f 490 440 489
f 429 440 490
f 505 429 490
f 428 429 505
f 504 428 505
f 430 428 504
f 506 349 351
f 448 349 506
f 507 508 509
f 323 510 321
f 345 510 323
f 511 345 323
f 347 345 511
f 512 347 511
f 336 347 512
f 513 336 512
f 334 336 513
f 375 514 507
f 515 514 375
f 368 515 375
f 516 515 368
f 517 516 368
f 518 507 509
f 375 507 518
f 519 375 518
f 327 506 520
f 448 506 327
f 326 448 327
f 507 448 326
f 521 507 326
f 508 507 521
f 506 522 520
f 523 522 506
f 510 523 506
f 392 523 510
f 345 392 510
f 456 371 370
f 379 375 519
f 379 524 525
f 370 524 379
f 519 370 379
f 456 370 519
f 455 519 518
f 456 519 455
f 516 460 461
f 517 460 516
f 362 460 517
f 361 460 362
f 367 517 368
f 362 517 367
f 526 362 367
f 527 362 526
f 369 528 529
f 373 528 369
f 370 529 524
f 369 529 370
f 373 525 528
f 379 525 373
f 529 525 524
f 528 525 529
f 364 530 531
f 372 530 364
f 452 364 531
f 365 364 452
f 372 457 530
f 374 457 372
f 457 531 530
f 452 531 457
f 532 378 363
f 533 378 532
f 376 533 534
f 378 533 376
f 535 376 534
f 377 376 535
f 355 357 353
f 358 357 355
f 535 533 532
f 534 533 535
f 386 323 322
f 511 323 386
f 387 511 386
f 512 511 387
f 388 512 387
f 513 512 388
f 332 513 388
f 334 513 332
f 459 516 461
f 515 516 459
f 458 515 459
f 514 515 458
f 450 514 458
f 507 514 450
f 447 507 450
f 448 507 447
f 509 455 518
f 454 455 509
f 508 454 509
f 453 454 508
f 521 453 508
f 451 453 521
f 326 451 521
f 328 451 326
f 356 354 359
f 352 354 356
f 535 363 377
f 532 363 535
f 497 347 336
f 497 493 495
f 491 493 497
f 336 491 497
f 536 463 465
f 467 536 465
f 536 471 473
f 469 471 536
f 467 469 536
f 536 477 479
f 475 477 536
f 473 475 536
f 536 483 485
f 481 483 536
f 479 481 536
f 536 464 463
f 487 464 536
f 485 487 536
f 390 321 510
f 324 321 390
f 348 506 351
f 449 506 348
f 510 537 538
f 506 539 510
f 540 539 506
f 541 330 329
f 449 330 541
f 329 542 541
f 543 542 329
f 544 543 329
f 390 510 545
f 506 546 540
f 547 546 506
f 548 547 506
f 329 549 544
f 550 549 329
f 390 550 329
f 390 551 550
f 552 551 390
f 553 552 390
f 510 554 545
f 555 554 510
f 538 555 510
f 556 557 558
f 506 559 548
f 560 559 506
f 561 560 506
f 506 562 563
f 564 562 506
f 506 565 564
f 566 565 506
f 449 566 506
f 567 566 449
f 541 567 449
f 390 568 553
f 569 568 390
f 545 569 390
f 570 506 563
f 561 506 570
f 558 561 570
f 571 561 558
f 557 571 558
f 537 572 573
f 558 574 556
f 575 574 558
f 537 575 558
f 576 575 537
f 573 576 537
f 537 577 572
f 578 577 537
f 510 578 537
f 579 578 510
f 510 580 579
f 581 580 510
f 582 581 510
f 510 583 582
f 584 583 510
f 539 584 510
f 585 586 587
f 587 586 588
f 589 590 587
f 587 590 591
f 587 591 585
f 592 593 587
f 587 593 594
f 587 594 589
f 595 596 587
f 587 596 597
f 587 597 592
f 587 588 595
f 588 586 598
f 586 599 598
f 600 599 586
f 585 600 586
f 585 601 600
f 602 601 585
f 591 602 585
f 591 603 602
f 604 603 591
f 590 604 591
f 590 605 604
f 606 605 590
f 589 606 590
f 589 607 606
f 608 607 589
f 594 608 589
f 594 609 608
f 610 609 594
f 593 610 594
f 593 611 610
f 612 611 593
f 592 612 593
f 592 613 612
f 614 613 592
f 597 614 592
f 597 615 614
f 616 615 597
f 596 616 597
f 596 617 616
f 618 617 596
f 595 618 596
f 595 619 618
f 620 619 595
f 588 620 595
f 621 620 588
f 598 621 588
f 599 565 598
f 564 565 599
f 600 564 599
f 562 564 600
f 601 562 600
f 563 562 601
f 602 563 601
f 570 563 602
f 603 570 602
f 558 570 603
f 604 558 603
f 537 558 604
f 605 537 604
f 538 537 605
f 606 538 605
f 555 538 606
f 607 555 606
f 554 555 607
f 608 554 607
f 545 554 608
f 609 545 608
f 569 545 609
f 610 569 609
f 568 569 610
f 611 568 610
f 553 568 611
f 612 553 611
f 552 553 612
f 613 552 612
f 551 552 613
f 614 551 613
f 550 551 614
f 615 550 614
f 549 550 615
f 616 549 615
f 544 549 616
f 617 544 616
f 543 544 617
f 618 543 617
f 542 543 618
f 619 542 618
f 541 542 619
f 620 541 619
f 567 541 620
f 621 567 620
f 566 567 621
f 598 566 621
f 565 566 598
f 622 623 624
f 624 623 625
f 626 627 624
f 624 627 628
f 624 628 622
f 629 630 624
f 624 630 631
f 624 631 626
f 632 633 624
f 624 633 634
f 624 634 629
f 624 625 632
f 635 625 623
f 623 636 635
f 637 636 623
f 622 637 623
f 622 638 637
f 639 638 622
f 628 639 622
f 628 640 639
f 641 640 628
f 627 641 628
f 627 642 641
f 643 642 627
f 626 643 627
f 626 644 643
f 645 644 626
f 631 645 626
f 631 646 645
f 647 646 631
f 630 647 631
f 630 648 647
f 649 648 630
f 629 649 630
f 629 650 649
f 651 650 629
f 634 651 629
f 634 652 651
f 653 652 634
f 633 653 634
f 633 654 653
f 655 654 633
f 632 655 633
f 632 656 655
f 657 656 632
f 625 657 632
f 658 657 625
f 635 658 625
f 636 559 635
f 548 559 636
f 637 548 636
f 547 548 637
f 638 547 637
f 546 547 638
f 639 546 638
f 540 546 639
f 640 540 639
f 539 540 640
f 641 539 640
f 584 539 641
f 642 584 641
f 583 584 642
f 643 583 642
f 582 583 643
f 644 582 643
f 581 582 644
f 645 581 644
f 580 581 645
f 646 580 645
f 579 580 646
f 647 579 646
f 578 579 647
f 648 578 647
f 577 578 648
f 649 577 648
f 572 577 649
f 650 572 649
f 573 572 650
f 651 573 650
f 576 573 651
f 652 576 651
f 575 576 652
f 653 575 652
f 574 575 653
f 654 574 653
f 556 574 654
f 655 556 654
f 557 556 655
f 656 557 655
f 571 557 656
f 657 571 656
f 561 571 657
f 658 561 657
f 560 561 658
f 635 560 658
f 559 560 635
f 366 659 660
f 360 659 366
f 366 526 367
f 660 526 366
f 362 659 360
f 527 659 362
f 660 527 526
f 659 527 660
f 383 392 389
f 523 392 383
f 382 523 383
f 522 523 382
f 384 522 382
f 520 522 384
f 325 520 384
f 327 520 325
f 661 662 663
f 664 661 663
f 665 661 664
f 666 665 664
f 667 665 666
f 668 667 666
f 669 667 668
f 670 669 668
f 671 669 670
f 672 671 670
f 673 671 672
f 674 673 672
f 675 673 674
f 676 675 674
f 677 675 676
f 678 677 676
f 679 677 678
f 680 679 678
f 681 679 680
f 682 681 680
f 683 681 682
f 684 683 682
f 685 684 686
f 683 684 685
f 662 687 663
f 688 687 662
f 689 690 691
f 692 690 689
f 693 692 689
f 694 692 693
f 695 694 693
f 696 694 695
f 697 696 695
f 698 696 697
f 699 698 697
f 700 698 699
f 701 700 699
f 702 700 701
f 703 702 701
f 704 702 703
f 705 704 703
f 706 704 705
f 707 706 705
f 708 706 707
f 709 708 707
f 710 708 709
f 711 710 709
f 712 710 711
f 713 712 711
f 714 712 713
f 715 714 713
f 716 714 715
f 717 716 715
f 718 716 717
f 718 717 719
f 720 691 690
f 721 691 720
f 722 721 720
f 723 721 722
f 724 723 722
f 725 723 724
f 726 725 724
f 727 725 726
f 728 727 726
f 729 727 728
f 730 729 728
f 731 729 730
f 732 731 730
f 733 731 732
f 734 733 732
f 735 733 734
f 736 735 734
f 737 735 736
f 738 737 736
f 739 737 738
f 740 739 738
f 741 739 740
f 742 741 740
f 743 741 742
f 744 743 742
f 719 743 744
f 745 719 744
f 718 719 745
f 685 746 747
f 748 746 685
f 749 750 751
f 685 752 748
f 753 752 685
f 754 753 685
f 754 755 756
f 757 758 759
f 751 758 757
f 760 761 688
f 762 763 764
f 765 763 762
f 766 763 765
f 767 766 765
f 768 766 767
f 769 766 768
f 770 769 768
f 771 769 770
f 772 769 771
f 773 772 771
f 751 685 758
f 754 685 751
f 750 754 751
f 755 754 750
f 751 774 749
f 775 774 751
f 776 775 751
f 777 775 776
f 777 778 779
f 780 778 777
f 776 780 777
f 781 782 758
f 688 783 760
f 784 783 688
f 662 784 688
f 764 785 762
f 786 785 764
f 787 786 764
f 758 788 759
f 789 788 758
f 782 789 758
f 746 790 791
f 792 790 746
f 748 792 746
f 662 793 794
f 795 793 662
f 661 795 662
f 796 795 661
f 797 685 747
f 683 685 797
f 798 683 797
f 799 800 801
f 787 802 786
f 803 802 787
f 799 803 787
f 804 803 799
f 801 804 799
f 805 772 773
f 806 772 805
f 807 806 805
f 781 808 809
f 810 808 781
f 758 810 781
f 662 811 784
f 812 811 662
f 794 812 662
f 791 812 794
f 813 791 794
f 746 791 813
f 800 814 801
f 815 814 800
f 779 815 800
f 816 815 779
f 778 816 779
f 754 688 761
f 817 688 754
f 756 817 754
f 818 669 819
f 667 669 818
f 796 667 818
f 665 667 796
f 661 665 796
f 819 673 820
f 671 673 819
f 669 671 819
f 798 681 683
f 679 681 798
f 821 679 798
f 677 679 821
f 820 677 821
f 675 677 820
f 673 675 820
f 822 806 807
f 823 806 822
f 688 823 822
f 824 823 688
f 817 824 688
f 825 826 686
f 827 828 826
f 829 828 827
f 830 829 827
f 831 663 832
f 833 663 831
f 834 835 687
f 836 835 834
f 837 740 738
f 836 838 839
f 840 838 836
f 834 840 836
f 826 841 842
f 843 841 826
f 828 843 826
f 663 844 832
f 845 844 663
f 687 845 663
f 846 845 687
f 835 846 687
f 745 744 847
f 839 848 849
f 850 848 839
f 838 850 839
f 849 851 852
f 853 851 849
f 848 853 849
f 826 854 686
f 855 854 826
f 856 855 826
f 857 740 837
f 742 740 857
f 744 742 857
f 852 858 859
f 860 858 852
f 851 860 852
f 861 862 863
f 864 862 861
f 859 864 861
f 865 864 859
f 858 865 859
f 826 866 856
f 867 866 826
f 842 867 826
f 736 837 738
f 833 837 736
f 734 833 736
f 663 833 734
f 732 663 734
f 835 868 846
f 869 868 835
f 870 869 835
f 664 726 666
f 728 726 664
f 663 728 664
f 730 728 663
f 732 730 663
f 830 871 829
f 872 871 830
f 873 872 830
f 714 874 712
f 875 874 714
f 716 875 714
f 686 876 825
f 877 876 686
f 878 877 686
f 700 680 678
f 863 879 880
f 881 879 863
f 862 881 863
f 873 882 872
f 883 882 873
f 884 883 873
f 878 885 886
f 887 885 878
f 686 887 878
f 888 887 686
f 684 888 686
f 889 888 684
f 878 890 891
f 892 890 878
f 886 892 878
f 884 893 883
f 894 893 884
f 895 894 884
f 702 680 700
f 682 680 702
f 704 682 702
f 684 682 704
f 706 684 704
f 889 684 706
f 708 889 706
f 678 698 700
f 696 698 678
f 676 696 678
f 694 696 676
f 674 694 676
f 692 694 674
f 672 692 674
f 690 692 672
f 670 690 672
f 720 690 670
f 668 720 670
f 722 720 668
f 666 722 668
f 724 722 666
f 726 724 666
f 895 896 894
f 897 896 895
f 880 897 895
f 898 897 880
f 879 898 880
f 875 745 847
f 718 745 875
f 716 718 875
f 710 889 708
f 899 889 710
f 712 899 710
f 900 899 712
f 874 900 712
f 835 901 870
f 902 901 835
f 903 902 835
f 904 902 903
f 878 904 903
f 905 904 878
f 891 905 878
f 891 906 905
f 907 906 891
f 890 907 891
f 908 907 890
f 892 908 890
f 909 908 892
f 886 909 892
f 910 909 886
f 885 910 886
f 911 910 885
f 887 911 885
f 912 911 887
f 888 912 887
f 913 912 888
f 889 913 888
f 914 913 889
f 899 914 889
f 915 914 899
f 900 915 899
f 916 915 900
f 874 916 900
f 917 916 874
f 875 917 874
f 918 917 875
f 847 918 875
f 919 918 847
f 744 919 847
f 920 919 744
f 857 920 744
f 921 905 906
f 904 905 921
f 922 904 921
f 902 904 922
f 923 902 922
f 901 902 923
f 924 901 923
f 870 901 924
f 925 870 924
f 869 870 925
f 926 869 925
f 868 869 926
f 927 868 926
f 846 868 927
f 928 846 927
f 845 846 928
f 929 845 928
f 844 845 929
f 930 844 929
f 832 844 930
f 931 832 930
f 831 832 931
f 932 831 931
f 833 831 932
f 933 833 932
f 837 833 933
f 920 837 933
f 857 837 920
f 790 919 791
f 918 919 790
f 792 918 790
f 917 918 792
f 792 916 917
f 915 916 792
f 748 915 792
f 914 915 748
f 752 914 748
f 913 914 752
f 752 912 913
f 911 912 752
f 753 911 752
f 909 754 908
f 753 754 909
f 910 753 909
f 911 753 910
f 754 907 908
f 906 907 754
f 761 906 754
f 921 906 761
f 761 922 921
f 923 922 761
f 760 923 761
f 760 924 923
f 925 924 760
f 783 925 760
f 783 926 925
f 927 926 783
f 784 927 783
f 784 928 927
f 929 928 784
f 811 929 784
f 811 930 929
f 931 930 811
f 812 931 811
f 812 932 931
f 933 932 812
f 791 933 812
f 920 933 791
f 919 920 791
f 821 693 820
f 695 693 821
f 821 697 695
f 699 697 821
f 798 699 821
f 701 699 798
f 797 701 798
f 797 703 701
f 705 703 797
f 747 705 797
f 707 705 747
f 711 746 713
f 747 746 711
f 709 747 711
f 707 747 709
f 746 715 713
f 717 715 746
f 813 717 746
f 719 717 813
f 813 743 719
f 741 743 813
f 794 741 813
f 794 739 741
f 737 739 794
f 793 737 794
f 793 735 737
f 733 735 793
f 795 733 793
f 731 733 795
f 796 731 795
f 729 731 796
f 796 727 729
f 725 727 796
f 818 725 796
f 818 723 725
f 721 723 818
f 819 721 818
f 691 721 819
f 820 691 819
f 689 691 820
f 693 689 820
f 687 688 822
f 822 834 687
f 840 834 822
f 807 840 822
f 838 840 807
f 805 838 807
f 850 838 805
f 773 850 805
f 848 850 773
f 771 848 773
f 853 848 771
f 770 853 771
f 851 853 770
f 768 851 770
f 860 851 768
f 767 860 768
f 858 860 767
f 765 858 767
f 865 858 765
f 762 865 765
f 864 865 762
f 785 864 762
f 862 864 785
f 786 862 785
f 881 862 786
f 802 881 786
f 879 881 802
f 803 879 802
f 898 879 803
f 804 898 803
f 897 898 804
f 801 897 804
f 896 897 801
f 814 896 801
f 685 686 854
f 854 758 685
f 810 758 854
f 855 810 854
f 808 810 855
f 856 808 855
f 809 808 856
f 866 809 856
f 781 809 866
f 867 781 866
f 782 781 867
f 842 782 867
f 789 782 842
f 841 789 842
f 788 789 841
f 843 788 841
f 759 788 843
f 828 759 843
f 757 759 828
f 829 757 828
f 751 757 829
f 871 751 829
f 776 751 871
f 872 776 871
f 780 776 872
f 882 780 872
f 778 780 882
f 883 778 882
f 816 778 883
f 893 816 883
f 815 816 893
f 894 815 893
f 814 815 894
f 896 814 894
f 799 895 800
f 880 895 799
f 787 880 799
f 863 880 787
f 764 863 787
f 861 863 764
f 763 861 764
f 859 861 763
f 766 859 763
f 852 859 766
f 769 852 766
f 849 852 769
f 772 849 769
f 839 849 772
f 806 839 772
f 836 839 806
f 823 836 806
f 835 836 823
f 824 835 823
f 903 835 824
f 817 903 824
f 878 903 817
f 756 878 817
f 877 878 756
f 755 877 756
f 876 877 755
f 750 876 755
f 825 876 750
f 749 825 750
f 826 825 749
f 774 826 749
f 827 826 774
f 775 827 774
f 830 827 775
f 777 830 775
f 873 830 777
f 779 873 777
f 884 873 779
f 800 884 779
f 895 884 800

