# https://github.com/mikedh/trimesh

o right_hand_pinky_DIP_link.STL
v 0.00760000 0.00340000 0.01359832
v 0.00860000 0.00285000 0.01297957
v 0.00860000 0.00340000 0.01359832
v 0.00760000 0.00285000 0.01297957
v 0.00860000 0.00300000 0.01999832
v 0.00760000 0.00340000 0.01959832
v 0.00860000 0.00340000 0.01959832
v 0.00760000 0.00300000 0.01999832
v 0.00860000 -0.00340000 0.01959832
v 0.00760000 -0.00300000 0.01999832
v 0.00860000 -0.00300000 0.01999832
v 0.00760000 -0.00340000 0.01959832
v 0.00760000 -0.00285000 0.01297957
v 0.00860000 -0.00340000 0.01359832
v 0.00860000 -0.00285000 0.01297957
v 0.00760000 -0.00340000 0.01359832
v 0.00690000 0.00275000 0.01532152
v 0.00760000 0.00265000 0.01534832
v 0.00690000 0.00265000 0.01534832
v 0.00760000 0.00275000 0.01532152
v 0.00690000 0.00282320 0.01524832
v 0.00760000 0.00282320 0.01524832
v 0.00690000 0.00285000 0.01514832
v 0.00760000 0.00285000 0.01514832
v 0.00690000 -0.00282320 0.01524832
v 0.00760000 -0.00285000 0.01514832
v 0.00690000 -0.00285000 0.01514832
v 0.00760000 -0.00282320 0.01524832
v 0.00690000 -0.00275000 0.01532152
v 0.00760000 -0.00275000 0.01532152
v 0.00690000 -0.00265000 0.01534832
v 0.00760000 -0.00265000 0.01534832
v 0.00690000 -0.00285000 0.01234832
v 0.00860000 -0.00285000 0.01234832
v 0.00860000 0.00285000 0.01234832
v 0.00690000 0.00285000 0.01234832
v 0.00760000 0.00300000 0.02084832
v 0.00760000 -0.00300000 0.02084832
v 0.00816000 -0.00425000 0.01909832
v 0.00736000 -0.00425000 0.01909832
v 0.00741359 -0.00405000 0.01909832
v 0.00796000 -0.00390359 0.01909832
v 0.00756000 -0.00390359 0.01909832
v 0.00776000 -0.00385000 0.01909832
v 0.00810641 -0.00405000 0.01909832
v 0.00736000 -0.00425000 0.01409832
v 0.00816000 -0.00425000 0.01409832
v 0.00810641 -0.00405000 0.01409832
v 0.00796000 -0.00390359 0.01409832
v 0.00756000 -0.00390359 0.01409832
v 0.00741359 -0.00405000 0.01409832
v 0.00776000 -0.00385000 0.01409832
v 0.00796000 0.00390359 0.01909832
v 0.00776000 0.00385000 0.01909832
v 0.00756000 0.00390359 0.01909832
v 0.00816000 0.00425000 0.01909832
v 0.00741359 0.00405000 0.01909832
v 0.00736000 0.00425000 0.01909832
v 0.00810641 0.00405000 0.01909832
v 0.00810641 0.00405000 0.01409832
v 0.00816000 0.00425000 0.01409832
v 0.00736000 0.00425000 0.01409832
v 0.00756000 0.00390359 0.01409832
v 0.00741359 0.00405000 0.01409832
v 0.00776000 0.00385000 0.01409832
v 0.00796000 0.00390359 0.01409832
v 0.00860000 -0.00334650 0.01264188
v 0.00690000 -0.00330000 0.01234832
v 0.00860000 -0.00330000 0.01234832
v 0.00690000 -0.00334650 0.01264188
v 0.00860000 -0.00348143 0.01290671
v 0.00690000 -0.00348143 0.01290671
v 0.00860000 -0.00369160 0.01311688
v 0.00690000 -0.00369160 0.01311688
v 0.00860000 -0.00395643 0.01325182
v 0.00690000 -0.00395643 0.01325182
v 0.00860000 -0.00425000 0.01329832
v 0.00690000 -0.00425000 0.01329832
v 0.00860000 0.00334650 0.02055475
v 0.00690000 0.00330000 0.02084832
v 0.00860000 0.00330000 0.02084832
v 0.00690000 0.00334650 0.02055475
v 0.00860000 0.00348143 0.02028992
v 0.00690000 0.00348143 0.02028992
v 0.00860000 0.00369160 0.02007975
v 0.00690000 0.00369160 0.02007975
v 0.00860000 0.00395643 0.01994481
v 0.00690000 0.00395643 0.01994481
v 0.00860000 0.00425000 0.01989832
v 0.00690000 0.00425000 0.01989832
v 0.00860000 -0.00395643 0.01994481
v 0.00690000 -0.00425000 0.01989832
v 0.00860000 -0.00425000 0.01989832
v 0.00690000 -0.00395643 0.01994481
v 0.00860000 -0.00369160 0.02007975
v 0.00690000 -0.00369160 0.02007975
v 0.00860000 -0.00348143 0.02028992
v 0.00690000 -0.00348143 0.02028992
v 0.00860000 -0.00334650 0.02055475
v 0.00690000 -0.00334650 0.02055475
v 0.00860000 -0.00330000 0.02084832
v 0.00690000 -0.00330000 0.02084832
v 0.00860000 0.00395643 0.01325182
v 0.00690000 0.00425000 0.01329832
v 0.00860000 0.00425000 0.01329832
v 0.00690000 0.00395643 0.01325182
v 0.00860000 0.00369160 0.01311688
v 0.00690000 0.00369160 0.01311688
v 0.00860000 0.00348143 0.01290671
v 0.00690000 0.00348143 0.01290671
v 0.00860000 0.00334650 0.01264188
v 0.00690000 0.00334650 0.01264188
v 0.00860000 0.00330000 0.01234832
v 0.00690000 0.00330000 0.01234832
v 0.00860000 -0.00300000 0.02084832
v 0.00860000 0.00300000 0.02084832
v 0.00950000 -0.00329894 0.01265734
v 0.00870000 -0.00325000 0.01234832
v 0.00950000 -0.00325000 0.01234832
v 0.00870000 -0.00329894 0.01265734
v 0.00950000 -0.00344098 0.01293610
v 0.00870000 -0.00344098 0.01293610
v 0.00950000 -0.00366221 0.01315734
v 0.00870000 -0.00366221 0.01315734
v 0.00950000 -0.00394098 0.01329937
v 0.00870000 -0.00394098 0.01329937
v 0.00950000 -0.00425000 0.01334832
v 0.00870000 -0.00425000 0.01334832
v 0.00950000 0.00394098 0.01329937
v 0.00870000 0.00425000 0.01334832
v 0.00950000 0.00425000 0.01334832
v 0.00870000 0.00394098 0.01329937
v 0.00950000 0.00366221 0.01315734
v 0.00870000 0.00366221 0.01315734
v 0.00950000 0.00344098 0.01293610
v 0.00870000 0.00344098 0.01293610
v 0.00950000 0.00329894 0.01265734
v 0.00870000 0.00329894 0.01265734
v 0.00950000 0.00325000 0.01234832
v 0.00870000 0.00325000 0.01234832
v 0.00950000 -0.00394098 0.01989726
v 0.00870000 -0.00425000 0.01984832
v 0.00950000 -0.00425000 0.01984832
v 0.00870000 -0.00394098 0.01989726
v 0.00950000 -0.00366221 0.02003930
v 0.00870000 -0.00366221 0.02003930
v 0.00950000 -0.00344098 0.02026053
v 0.00870000 -0.00344098 0.02026053
v 0.00950000 -0.00329894 0.02053930
v 0.00870000 -0.00329894 0.02053930
v 0.00950000 -0.00325000 0.02084832
v 0.00870000 -0.00325000 0.02084832
v 0.00950000 0.00329894 0.02053930
v 0.00870000 0.00325000 0.02084832
v 0.00950000 0.00325000 0.02084832
v 0.00870000 0.00329894 0.02053930
v 0.00950000 0.00344098 0.02026053
v 0.00870000 0.00344098 0.02026053
v 0.00950000 0.00366221 0.02003930
v 0.00870000 0.00366221 0.02003930
v 0.00950000 0.00394098 0.01989726
v 0.00870000 0.00394098 0.01989726
v 0.00950000 0.00425000 0.01984832
v 0.00870000 0.00425000 0.01984832
v 0.00777000 0.00250000 0.01554832
v 0.00777000 -0.00250000 0.02054832
v 0.00777000 0.00250000 0.02054832
v 0.00777000 -0.00250000 0.01554832
v 0.00870000 -0.00250000 0.01554832
v 0.00870000 -0.00250000 0.02054832
v 0.00870000 0.00250000 0.02054832
v 0.00870000 0.00250000 0.01554832
v 0.00725000 -0.00245000 0.01334832
v 0.00836115 0.00245000 0.01334832
v 0.00836115 -0.00245000 0.01334832
v 0.00725000 0.00245000 0.01334832
v 0.00836115 -0.00245000 0.01234832
v 0.00725000 -0.00245000 0.01234832
v 0.00836115 0.00245000 0.01234832
v 0.00725000 0.00245000 0.01234832
v 0.00695000 0.00275000 0.01234832
v 0.00695000 -0.00275000 0.01504832
v 0.00695000 0.00275000 0.01504832
v 0.00695000 -0.00275000 0.01234832
v 0.00870000 -0.00275000 0.01234832
v 0.00870000 -0.00275000 0.01504832
v 0.00870000 0.00275000 0.01504832
v 0.00870000 0.00275000 0.01234832
v 0.00990000 -0.00350000 0.01348532
v 0.00950000 -0.00311299 0.01309832
v 0.00950000 -0.00350000 0.01348532
v 0.00990000 -0.00311299 0.01309832
v 0.00990000 -0.00311299 0.02009832
v 0.00950000 -0.00350000 0.01971131
v 0.00950000 -0.00311299 0.02009832
v 0.00990000 -0.00350000 0.01971131
v 0.00990000 0.00350000 0.01971131
v 0.00950000 0.00311299 0.02009832
v 0.00950000 0.00350000 0.01971131
v 0.00990000 0.00311299 0.02009832
v 0.00990000 0.00311299 0.01309832
v 0.00950000 0.00350000 0.01348532
v 0.00950000 0.00311299 0.01309832
v 0.00990000 0.00350000 0.01348532
v 0.00792500 -0.00399689 0.01459832
v 0.00775000 -0.00395000 0.01459832
v 0.00775000 -0.00395000 0.01859832
v 0.00792500 -0.00399689 0.01859832
v 0.00805311 -0.00412500 0.01459832
v 0.00805311 -0.00412500 0.01859832
v 0.00810000 -0.00430000 0.01459832
v 0.00810000 -0.00430000 0.01859832
v 0.00757500 -0.00399689 0.01859832
v 0.00757500 -0.00399689 0.01459832
v 0.00744689 -0.00412500 0.01859832
v 0.00744689 -0.00412500 0.01459832
v 0.00740000 -0.00430000 0.01859832
v 0.00740000 -0.00430000 0.01459832
v 0.00792500 0.00399689 0.01859832
v 0.00775000 0.00395000 0.01859832
v 0.00775000 0.00395000 0.01459832
v 0.00792500 0.00399689 0.01459832
v 0.00805311 0.00412500 0.01859832
v 0.00805311 0.00412500 0.01459832
v 0.00810000 0.00430000 0.01859832
v 0.00810000 0.00430000 0.01459832
v 0.00757500 0.00399689 0.01459832
v 0.00757500 0.00399689 0.01859832
v 0.00744689 0.00412500 0.01459832
v 0.00744689 0.00412500 0.01859832
v 0.00740000 0.00430000 0.01459832
v 0.00740000 0.00430000 0.01859832
v 0.00690000 -0.00285000 0.01229832
v 0.00890000 -0.00285000 0.01159832
v 0.00690000 -0.00285000 0.01159832
v 0.00890000 -0.00285000 0.01229832
v 0.00890000 0.00285000 0.01159832
v 0.00890000 0.00285000 0.01229832
v 0.00690000 0.00285000 0.01159832
v 0.00690000 0.00285000 0.01229832
v 0.00990000 0.00373431 0.01159832
v 0.00690000 0.00500000 0.01286400
v 0.00990000 0.00500000 0.01286400
v 0.00690000 0.00373431 0.01159832
v 0.00990000 0.00500000 0.02033263
v 0.00690000 0.00373431 0.02159832
v 0.00990000 0.00373431 0.02159832
v 0.00690000 0.00500000 0.02033263
v 0.00990000 -0.00373431 0.02159832
v 0.00690000 -0.00500000 0.02033263
v 0.00990000 -0.00500000 0.02033263
v 0.00690000 -0.00373431 0.02159832
v 0.00990000 -0.00500000 0.01286400
v 0.00690000 -0.00373431 0.01159832
v 0.00990000 -0.00373431 0.01159832
v 0.00690000 -0.00500000 0.01286400
v 0.00950000 -0.00377099 0.01302643
v 0.00950000 -0.00357188 0.01282733
v 0.00950000 -0.00402188 0.01315427
v 0.00950000 -0.00357188 0.02036931
v 0.00950000 -0.00377099 0.02017020
v 0.00950000 -0.00344405 0.02062020
v 0.00950000 -0.00402188 0.02004237
v 0.00950000 -0.00430000 0.01999832
v 0.00950000 -0.00430000 0.01319832
v 0.00950000 0.00377099 0.02017020
v 0.00950000 0.00357188 0.02036931
v 0.00950000 0.00402188 0.02004237
v 0.00950000 0.00344405 0.02062020
v 0.00950000 0.00340000 0.02089832
v 0.00950000 -0.00340000 0.02089832
v 0.00950000 -0.00344405 0.01257643
v 0.00950000 -0.00340000 0.01229832
v 0.00950000 0.00340000 0.01229832
v 0.00950000 0.00344405 0.01257643
v 0.00950000 0.00357188 0.01282733
v 0.00950000 0.00377099 0.01302643
v 0.00950000 0.00402188 0.01315427
v 0.00950000 0.00430000 0.01319832
v 0.00950000 0.00430000 0.01999832
v 0.00690000 -0.00340000 0.01229832
v 0.00690000 -0.00344405 0.01257643
v 0.00690000 -0.00357188 0.01282733
v 0.00690000 -0.00377099 0.01302643
v 0.00690000 -0.00402188 0.01315427
v 0.00690000 -0.00430000 0.01319832
v 0.00690000 -0.00430000 0.01999832
v 0.00690000 -0.00402188 0.02004237
v 0.00690000 -0.00377099 0.02017020
v 0.00690000 -0.00357188 0.02036931
v 0.00690000 -0.00344405 0.02062020
v 0.00690000 -0.00340000 0.02089832
v 0.00690000 0.00340000 0.02089832
v 0.00690000 0.00344405 0.02062020
v 0.00690000 0.00357188 0.02036931
v 0.00690000 0.00377099 0.02017020
v 0.00690000 0.00402188 0.02004237
v 0.00690000 0.00430000 0.01999832
v 0.00690000 0.00430000 0.01319832
v 0.00690000 0.00402188 0.01315427
v 0.00690000 0.00377099 0.01302643
v 0.00690000 0.00357188 0.01282733
v 0.00690000 0.00344405 0.01257643
v 0.00690000 0.00340000 0.01229832
v 0.00990000 0.00345000 0.01964832
v 0.00960000 0.00305000 0.02004832
v 0.00990000 0.00305000 0.02004832
v 0.00960000 0.00345000 0.01964832
v 0.00990000 0.00305000 0.01314832
v 0.00960000 0.00345000 0.01354832
v 0.00990000 0.00345000 0.01354832
v 0.00960000 0.00305000 0.01314832
v 0.00990000 -0.00345000 0.01354832
v 0.00960000 -0.00305000 0.01314832
v 0.00990000 -0.00305000 0.01314832
v 0.00960000 -0.00345000 0.01354832
v 0.00990000 -0.00305000 0.02004832
v 0.00960000 -0.00345000 0.01964832
v 0.00990000 -0.00345000 0.01964832
v 0.00960000 -0.00305000 0.02004832
v 0.00218367 0.00642503 0.01504229
v 0.00225000 0.00642503 0.01450000
v 0.00225000 0.00762499 0.01450000
v 0.00218367 0.00762499 0.01504229
v 0.00190820 0.00642503 0.01569217
v 0.00190820 0.00762499 0.01569217
v 0.00144495 0.00642503 0.01622471
v 0.00144495 0.00762499 0.01622471
v 0.00083949 0.00642503 0.01658753
v 0.00083949 0.00762499 0.01658753
v 0.00031160 0.00642503 0.01672832
v 0.00031160 0.00762499 0.01672832
v -0.00020005 0.00642503 0.01674109
v -0.00020005 0.00762499 0.01674109
v -0.00088133 0.00642503 0.01657021
v -0.00088133 0.00762499 0.01657021
v -0.00147672 0.00642503 0.01619759
v -0.00147672 0.00762499 0.01619759
v -0.00192821 0.00642503 0.01565954
v -0.00192821 0.00762499 0.01565954
v -0.00219179 0.00642503 0.01500849
v -0.00219179 0.00762499 0.01500849
v -0.00225000 0.00642503 0.01450000
v -0.00225000 0.00762499 0.01450000
v -0.00225000 0.00642503 0.00767712
v -0.00225001 0.00762499 0.00767712
v 0.00225000 0.00762499 0.00767713
v 0.00225000 0.00642503 0.00767713
v -0.00011280 0.00672496 0.01559420
v 0.00027698 0.00762499 0.01648073
v 0.00015234 0.00672496 0.01558940
v -0.00020509 0.00762499 0.01648946
v -0.00037138 0.00672496 0.01553541
v -0.00067524 0.00762499 0.01638257
v -0.00060838 0.00672496 0.01541645
v -0.00110614 0.00762499 0.01616627
v -0.00081002 0.00672496 0.01524422
v -0.00147276 0.00762499 0.01585313
v -0.00096459 0.00672496 0.01502875
v -0.00175379 0.00762499 0.01546136
v -0.00106309 0.00672496 0.01478254
v -0.00193290 0.00762499 0.01501371
v -0.00109982 0.00672496 0.01451992
v -0.00199967 0.00762499 0.01453621
v -0.00107263 0.00672496 0.01425613
v -0.00195023 0.00762499 0.01405661
v -0.00098310 0.00672496 0.01400652
v -0.00178745 0.00762499 0.01360277
v -0.00083643 0.00672496 0.01378559
v -0.00152079 0.00762499 0.01320108
v -0.00064116 0.00672496 0.01360618
v -0.00116574 0.00762499 0.01287487
v -0.00040862 0.00672496 0.01347871
v -0.00074295 0.00762499 0.01264311
v -0.00019826 0.00672496 0.01341802
v -0.00036047 0.00762499 0.01253275
v -0.00015234 0.00672496 0.01341060
v -0.00027698 0.00762499 0.01251927
v -0.00010615 0.00672496 0.01340513
v 0.00074295 0.00762499 0.01635689
v 0.00040862 0.00672496 0.01552129
v 0.00116574 0.00762499 0.01612513
v 0.00064116 0.00672496 0.01539382
v 0.00152079 0.00762499 0.01579892
v 0.00083643 0.00672496 0.01521441
v 0.00178745 0.00762499 0.01539723
v 0.00098310 0.00672496 0.01499348
v 0.00195023 0.00762499 0.01494339
v 0.00107263 0.00672496 0.01474387
v 0.00199967 0.00762499 0.01446379
v 0.00109982 0.00672496 0.01448009
v 0.00193290 0.00762499 0.01398629
v 0.00106309 0.00672496 0.01421746
v 0.00175379 0.00762499 0.01353864
v 0.00096459 0.00672496 0.01397125
v 0.00147276 0.00762499 0.01314687
v 0.00081002 0.00672496 0.01375578
v 0.00110614 0.00762499 0.01283373
v 0.00060838 0.00672496 0.01358355
v 0.00067524 0.00762499 0.01261743
v 0.00037138 0.00672496 0.01346459
v 0.00020509 0.00762499 0.01251054
v 0.00011280 0.00672496 0.01340580
v 0.00000000 0.00762499 0.01250000
v -0.00019299 0.00762499 0.01250933
v -0.00040862 0.00642503 0.01347871
v -0.00083643 0.00642503 0.01378559
v -0.00106309 0.00642503 0.01078254
v -0.00199970 0.00642503 -0.00003479
v -0.00189326 0.00642503 0.00064464
v -0.00652892 0.00642503 -0.00462312
v -0.00107263 0.00642503 0.01025613
v -0.00083643 0.00642503 0.00978559
v -0.00040862 0.00642503 0.00947871
v -0.00156297 0.00642503 0.00124785
v -0.00104787 0.00642503 0.00170351
v -0.00727112 0.00642503 -0.00333629
v -0.00257235 0.00642503 0.00757516
v -0.00776260 0.00642503 -0.00193443
v 0.00060838 0.00642503 0.00958355
v 0.00011280 0.00642503 0.00940580
v 0.00733885 0.00642503 -0.00318455
v 0.00189326 0.00642503 -0.00064464
v 0.00156297 0.00642503 -0.00124785
v 0.00779709 0.00642503 -0.00179034
v 0.00199970 0.00642503 0.00003479
v 0.00799295 0.00642503 -0.00033588
v 0.00791981 0.00642503 0.00112988
v 0.00186969 0.00642503 0.00071011
v 0.00758014 0.00642503 0.00255762
v 0.00698538 0.00642503 0.00389929
v 0.00151862 0.00642503 0.00130146
v 0.00615554 0.00642503 0.00510973
v -0.00186969 0.00642503 -0.00071011
v -0.00151862 0.00642503 -0.00130146
v -0.00556160 0.00642503 -0.00575053
v -0.00098798 0.00642503 -0.00173893
v -0.00309163 0.00642503 -0.00737847
v -0.00034053 0.00642503 -0.00197080
v -0.00440251 0.00642503 -0.00667966
v -0.00702217 0.00642503 0.00383264
v -0.00760971 0.00642503 0.00246825
v 0.00096459 0.00642503 0.00997125
v 0.00109982 0.00642503 0.01048008
v 0.00663362 0.00642503 -0.00447158
v 0.00570515 0.00642503 -0.00560814
v 0.00104787 0.00642503 -0.00170351
v -0.00798642 0.00642503 -0.00046587
v -0.00793487 0.00642503 0.00101875
v -0.00037138 0.00642503 0.01153541
v 0.00015234 0.00642503 0.01158940
v -0.00081002 0.00642503 0.01124422
v 0.00096459 0.00642503 0.01397125
v 0.00060838 0.00642503 0.01358355
v 0.00109982 0.00642503 0.01448009
v 0.00098310 0.00642503 0.01499348
v -0.00107263 0.00642503 0.01425613
v -0.00106309 0.00642503 0.01478254
v 0.00040888 0.00642503 -0.00195776
v 0.00003479 0.00642503 -0.00199970
v 0.00047290 0.00642503 -0.00798601
v 0.00458469 0.00642503 -0.00655596
v 0.00330993 0.00642503 -0.00728315
v 0.00192379 0.00642503 -0.00776525
v 0.00511854 0.00642503 0.00614821
v 0.00098798 0.00642503 0.00173893
v 0.00390929 0.00642503 0.00697979
v -0.00514930 0.00642503 0.00612247
v -0.00619250 0.00642503 0.00506488
v -0.00392856 0.00642503 0.00696896
v 0.00098310 0.00642503 0.01099348
v 0.00064116 0.00642503 0.01139382
v 0.00011280 0.00642503 0.01340580
v 0.00013916 0.00642503 -0.00799879
v -0.00019892 0.00642503 -0.00799753
v -0.00167414 0.00642503 -0.00782287
v -0.00040888 0.00642503 0.00195776
v 0.00064116 0.00642503 0.01539382
v 0.00015234 0.00642503 0.01558940
v -0.00037138 0.00642503 0.01553541
v -0.00081002 0.00642503 0.01524422
v 0.00256848 0.00642503 0.00757647
v 0.00034053 0.00642503 0.00197080
v -0.00003479 0.00642503 0.00199970
v -0.00189326 0.00762499 0.00064464
v -0.00199970 0.00762499 -0.00003479
v -0.00186969 0.00762499 -0.00071011
v -0.00776260 0.00762499 -0.00193443
v -0.00727112 0.00762499 -0.00333629
v -0.00151862 0.00762499 -0.00130146
v 0.00152079 0.00762499 0.01179892
v 0.00178745 0.00762499 0.01139723
v 0.00116574 0.00762499 0.01212513
v 0.00256848 0.00762499 0.00757647
v 0.00034053 0.00762499 0.00197080
v 0.00098798 0.00762499 0.00173893
v 0.00074295 0.00762499 0.01235689
v 0.00511854 0.00762499 0.00614821
v 0.00151862 0.00762499 0.00130146
v 0.00390929 0.00762499 0.00697979
v -0.00793487 0.00762499 0.00101875
v -0.00760971 0.00762499 0.00246825
v -0.00798642 0.00762499 -0.00046587
v 0.00195023 0.00762499 0.01094340
v 0.00199967 0.00762499 0.01046379
v 0.00193290 0.00762499 0.00998629
v -0.00020509 0.00762499 0.01248946
v 0.00698538 0.00762499 0.00389929
v 0.00186969 0.00762499 0.00071011
v 0.00615554 0.00762499 0.00510973
v 0.00791981 0.00762499 0.00112988
v 0.00199970 0.00762499 0.00003479
v 0.00758014 0.00762499 0.00255762
v -0.00257235 0.00762499 0.00757516
v -0.00392856 0.00762499 0.00696896
v -0.00514930 0.00762499 0.00612247
v 0.00027698 0.00762499 0.01248073
v 0.00779709 0.00762499 -0.00179034
v 0.00189326 0.00762499 -0.00064464
v 0.00799295 0.00762499 -0.00033588
v 0.00156297 0.00762499 -0.00124785
v 0.00570515 0.00762499 -0.00560814
v 0.00104787 0.00762499 -0.00170351
v 0.00663362 0.00762499 -0.00447158
v 0.00733885 0.00762499 -0.00318455
v -0.00619250 0.00762499 0.00506488
v -0.00702217 0.00762499 0.00383264
v 0.00175379 0.00762499 0.00953864
v 0.00147276 0.00762499 0.00914687
v 0.00110614 0.00762499 0.00883373
v -0.00652892 0.00762499 -0.00462312
v -0.00556160 0.00762499 -0.00575053
v -0.00098798 0.00762499 -0.00173893
v -0.00110614 0.00762499 0.01216627
v -0.00067524 0.00762499 0.01238257
v -0.00156297 0.00762499 0.00124785
v -0.00104787 0.00762499 0.00170351
v -0.00040888 0.00762499 0.00195776
v 0.00330993 0.00762499 -0.00728315
v 0.00040888 0.00762499 -0.00195776
v 0.00458469 0.00762499 -0.00655596
v -0.00440251 0.00762499 -0.00667966
v -0.00309163 0.00762499 -0.00737847
v -0.00034053 0.00762499 -0.00197080
v -0.00178745 0.00762499 0.00960277
v -0.00152079 0.00762499 0.00920108
v -0.00195023 0.00762499 0.01005661
v -0.00199967 0.00762499 0.01053621
v -0.00193290 0.00762499 0.01101371
v -0.00074295 0.00762499 0.00864311
v -0.00036047 0.00762499 0.00853275
v -0.00116574 0.00762499 0.00887487
v -0.00167414 0.00762499 -0.00782287
v -0.00019892 0.00762499 -0.00799753
v 0.00003479 0.00762499 -0.00199970
v 0.00013916 0.00762499 -0.00799879
v 0.00047290 0.00762499 -0.00798601
v 0.00192379 0.00762499 -0.00776525
v -0.00175379 0.00762499 0.01146136
v -0.00147276 0.00762499 0.01185313
v 0.00067524 0.00762499 0.00861743
v 0.00020509 0.00762499 0.00851054
v -0.00003479 0.00762499 0.00199970
v -0.00019299 0.00762499 0.00850933
v -0.00027698 0.00762499 0.00851927
v -0.00015234 0.00672496 0.00941060
v -0.00019826 0.00672496 0.00941801
v -0.00040862 0.00672496 0.00947871
v -0.00064116 0.00672496 0.00960618
v -0.00083643 0.00672496 0.00978559
v -0.00098310 0.00672496 0.01000652
v -0.00107263 0.00672496 0.01025613
v -0.00109982 0.00672496 0.01051992
v -0.00106309 0.00672496 0.01078254
v -0.00096459 0.00672496 0.01102875
v -0.00081002 0.00672496 0.01124422
v -0.00060838 0.00672496 0.01141645
v -0.00037138 0.00672496 0.01153541
v -0.00011280 0.00672496 0.01159420
v 0.00015234 0.00672496 0.01158940
v -0.00010615 0.00672496 0.00940513
v 0.00011280 0.00672496 0.00940580
v 0.00037138 0.00672496 0.00946459
v 0.00060838 0.00672496 0.00958355
v 0.00081002 0.00672496 0.00975578
v 0.00096459 0.00672496 0.00997125
v 0.00106309 0.00672496 0.01021746
v 0.00109982 0.00672496 0.01048008
v 0.00107263 0.00672496 0.01074387
v 0.00098310 0.00672496 0.01099348
v 0.00083643 0.00672496 0.01121441
v 0.00064116 0.00672496 0.01139382
v 0.00040862 0.00672496 0.01152129
v -0.00100000 0.00230000 0.01099832
v -0.00100000 0.00362500 0.02072832
v -0.00100000 0.00362500 0.01099832
v -0.00100000 0.00230000 0.02072832
v 0.00400000 0.00100000 0.02072832
v 0.00490000 0.00100000 0.01099832
v 0.00400000 0.00100000 0.01099832
v 0.00490000 0.00100000 0.02219832
v 0.00000000 0.00100000 0.02072832
v 0.00000000 0.00100000 0.02219832
v -0.00300000 0.00462500 0.00822832
v -0.00200000 0.00462500 0.02072832
v -0.00300000 0.00462500 0.02072832
v -0.00200000 0.00462500 0.01099832
v -0.00070836 0.00462500 0.01087178
v -0.00062584 0.00462500 0.01099832
v -0.00080000 0.00462500 0.01050000
v -0.00070836 0.00462500 0.01012822
v -0.00045445 0.00462500 0.00984161
v -0.00009643 0.00462500 0.00970583
v 0.00300000 0.00462500 0.00822832
v 0.00028368 0.00462500 0.00975199
v 0.00059881 0.00462500 0.00996950
v 0.00077675 0.00462500 0.01030855
v 0.00300000 0.00462500 0.01099832
v 0.00077675 0.00462500 0.01069145
v 0.00062584 0.00462500 0.01099832
v -0.00100000 -0.00170000 0.02219832
v -0.00100000 -0.00300000 0.01099832
v -0.00100000 -0.00300000 0.02219832
v -0.00100000 -0.00170000 0.01099832
v 0.00690000 -0.00293562 0.01155000
v 0.00790000 -0.00373562 0.01155000
v 0.00790000 -0.00293562 0.01155000
v 0.00690000 -0.00373562 0.01155000
v 0.00690000 -0.00293562 0.01100000
v 0.00790000 -0.00373562 0.01100000
v 0.00690000 -0.00373562 0.01100000
v 0.00790000 -0.00293562 0.01100000
v 0.00690000 -0.00505130 0.02033431
v 0.00690000 -0.00560130 0.02219832
v 0.00690000 -0.00560130 0.02033431
v 0.00690000 0.00293301 0.01155000
v 0.00690000 -0.00373562 0.02165000
v 0.00690000 -0.00373562 0.02219832
v 0.00690000 -0.00505130 0.01286569
v 0.00690000 -0.00560130 0.01286569
v 0.00690000 -0.00560130 0.01099832
v 0.00690000 0.00504870 0.02033431
v 0.00690000 0.00559870 0.02033431
v 0.00690000 0.00559870 0.02219832
v 0.00690000 0.00373301 0.02165000
v 0.00690000 0.00504870 0.01286569
v 0.00690000 0.00373301 0.02219832
v 0.00690000 0.00559870 0.01099832
v 0.00690000 0.00373301 0.01100000
v 0.00690000 0.00293301 0.01100000
v 0.00690000 0.00373301 0.01155000
v 0.00690000 0.00559870 0.01286569
v -0.00300000 0.00762500 0.02072832
v -0.00300000 0.00762500 0.00822832
v 0.00329289 0.00129289 0.02072832
v 0.00307612 0.00161732 0.02072832
v 0.00361732 0.00107612 0.02072832
v 0.00300000 0.00762500 0.02072832
v -0.00107612 0.00400768 0.02072832
v -0.00129289 0.00433211 0.02072832
v -0.00161732 0.00454888 0.02072832
v 0.00300000 0.00200000 0.02072832
v 0.00000000 0.00230000 0.02072832
v 0.00300000 0.00762500 0.00822832
v 0.00300000 0.00200000 0.01099832
v -0.00227000 0.00642500 0.00822832
v -0.00227000 0.00762500 0.00822832
v 0.00227000 0.00642500 0.00822832
v 0.00227000 0.00762500 0.00822832
v 0.00227000 0.00762500 0.01450000
v -0.00190965 0.00762500 0.01572726
v -0.00148653 0.00762500 0.01621555
v -0.00217805 0.00762500 0.01513953
v 0.00148653 0.00762500 0.01621555
v 0.00094299 0.00762500 0.01656486
v -0.00227000 0.00762500 0.01450000
v 0.00190965 0.00762500 0.01572726
v 0.00217805 0.00762500 0.01513953
v -0.00094299 0.00762500 0.01656486
v -0.00032305 0.00762500 0.01674690
v 0.00032305 0.00762500 0.01674690
v -0.00227000 0.00642500 0.01450000
v 0.00217805 0.00642500 0.01513953
v 0.00227000 0.00642500 0.01450000
v 0.00190965 0.00642500 0.01572726
v 0.00148653 0.00642500 0.01621555
v 0.00094299 0.00642500 0.01656486
v 0.00032305 0.00642500 0.01674690
v -0.00032305 0.00642500 0.01674690
v -0.00094299 0.00642500 0.01656486
v -0.00148653 0.00642500 0.01621555
v -0.00190965 0.00642500 0.01572726
v -0.00217805 0.00642500 0.01513953
v -0.00051126 0.00642500 0.00975931
v -0.00010848 0.00642500 0.00960656
v 0.00031914 0.00642500 0.00965849
v 0.00067366 0.00642500 0.00990319
v -0.00051126 0.00642500 0.01524069
v -0.00010848 0.00642500 0.01539344
v -0.00079691 0.00642500 0.01491825
v -0.00090000 0.00642500 0.01050000
v -0.00079691 0.00642500 0.01091825
v -0.00079691 0.00642500 0.01008175
v -0.00090000 0.00642500 0.01450000
v -0.00079691 0.00642500 0.01408175
v -0.00051126 0.00642500 0.01375931
v 0.00067366 0.00642500 0.01509681
v 0.00031914 0.00642500 0.01534151
v 0.00087385 0.00642500 0.01071538
v 0.00067366 0.00642500 0.01109681
v -0.00010848 0.00642500 0.01139344
v -0.00010848 0.00642500 0.01360656
v -0.00051126 0.00642500 0.01124069
v 0.00087385 0.00642500 0.01471538
v 0.00087385 0.00642500 0.01028462
v 0.00087385 0.00642500 0.01428462
v 0.00067366 0.00642500 0.01390319
v 0.00031914 0.00642500 0.01365849
v 0.00031914 0.00642500 0.01134151
v 0.00490000 -0.00300000 0.02219832
v 0.00490000 -0.00300000 0.01099832
v 0.00000000 -0.00170000 0.02219832
v 0.00528268 -0.00307612 0.02219832
v 0.00528268 0.00107612 0.02219832
v 0.00790000 -0.00373562 0.02219832
v 0.00560711 0.00129289 0.02219832
v 0.00582388 0.00161732 0.02219832
v 0.00590000 0.00200000 0.02219832
v 0.00590000 0.00559870 0.02219832
v 0.00790000 0.00373301 0.02219832
v 0.00560711 -0.00329289 0.02219832
v 0.00582388 -0.00361732 0.02219832
v 0.00590000 -0.00560130 0.02219832
v 0.00590000 -0.00400000 0.02219832
v -0.00009643 0.00632500 0.01529417
v -0.00009643 0.00462500 0.01529417
v -0.00045445 0.00462500 0.01515839
v 0.00000000 0.00462500 0.01530000
v 0.00028368 0.00632500 0.01524801
v 0.00028368 0.00462500 0.01524801
v 0.00059881 0.00632500 0.01503050
v 0.00059881 0.00462500 0.01503050
v 0.00077675 0.00632500 0.01469145
v 0.00077675 0.00462500 0.01469145
v 0.00077675 0.00632500 0.01430855
v 0.00077675 0.00462500 0.01430855
v 0.00059881 0.00632500 0.01396950
v 0.00059881 0.00462500 0.01396950
v 0.00028368 0.00632500 0.01375199
v 0.00028368 0.00462500 0.01375199
v -0.00009643 0.00632500 0.01370583
v -0.00009643 0.00462500 0.01370583
v -0.00045445 0.00632500 0.01384161
v -0.00045445 0.00462500 0.01384161
v -0.00070836 0.00632500 0.01412822
v -0.00070836 0.00462500 0.01412822
v -0.00080000 0.00632500 0.01450000
v -0.00080000 0.00462500 0.01450000
v -0.00070836 0.00632500 0.01487178
v -0.00070836 0.00462500 0.01487178
v -0.00045445 0.00632500 0.01515839
v -0.00045445 0.00632500 0.01115839
v -0.00070836 0.00632500 0.01087178
v -0.00045445 0.00462500 0.01115839
v -0.00009643 0.00632500 0.01129417
v -0.00009643 0.00462500 0.01129417
v 0.00028368 0.00632500 0.01124801
v 0.00028368 0.00462500 0.01124801
v 0.00059881 0.00632500 0.01103050
v 0.00059881 0.00462500 0.01103050
v 0.00077675 0.00632500 0.01069145
v 0.00077675 0.00632500 0.01030855
v 0.00059881 0.00632500 0.00996950
v 0.00028368 0.00632500 0.00975199
v -0.00009643 0.00632500 0.00970583
v -0.00045445 0.00632500 0.00984161
v -0.00070836 0.00632500 0.01012822
v -0.00080000 0.00632500 0.01050000
v 0.00000000 -0.00170000 0.01099832
v 0.00528268 -0.00307612 0.01099832
v 0.00560711 0.00129289 0.01099832
v 0.00582388 0.00161732 0.01099832
v 0.00000000 0.00230000 0.01099832
v -0.00107612 0.00400768 0.01099832
v -0.00129289 0.00433211 0.01099832
v -0.00161732 0.00454888 0.01099832
v 0.00560711 -0.00329289 0.01099832
v 0.00582388 -0.00361732 0.01099832
v 0.00590000 -0.00400000 0.01099832
v 0.00590000 -0.00560130 0.01099832
v 0.00590000 0.00200000 0.01099832
v 0.00590000 0.00559870 0.01099832
v 0.00361732 0.00107612 0.01099832
v 0.00528268 0.00107612 0.01099832
v 0.00329289 0.00129289 0.01099832
v 0.00307612 0.00161732 0.01099832
v 0.00790000 0.00559870 0.02033431
v 0.00790000 0.00559870 0.01286569
v 0.00790000 -0.00560130 0.01286569
v 0.00790000 -0.00560130 0.02033431
v 0.00790000 0.00504870 0.01286569
v 0.00790000 0.00504870 0.02033431
v 0.00790000 0.00373301 0.02165000
v 0.00790000 -0.00373562 0.02165000
v 0.00790000 0.00293301 0.01155000
v 0.00790000 0.00373301 0.01155000
v 0.00790000 0.00373301 0.01100000
v 0.00790000 0.00293301 0.01100000
v 0.00000000 0.00462500 0.01450000
v 0.00000000 0.00050706 0.01742558
v 0.00000000 0.00070000 0.01750550
v 0.00000000 0.00030000 0.01219832
v 0.00000000 0.00009294 0.01222558
v 0.00000000 -0.00039282 0.01859832
v 0.00000000 -0.00026569 0.01876400
v 0.00000000 -0.00010000 0.01889114
v 0.00000000 0.00009294 0.01897106
v 0.00000000 0.00107274 0.01799126
v 0.00000000 -0.00010000 0.01230550
v 0.00000000 -0.00026569 0.01243263
v 0.00000000 -0.00039282 0.01259832
v 0.00000000 0.00030000 0.01899832
v 0.00000000 0.00050706 0.01897106
v 0.00000000 0.00070000 0.01889114
v 0.00000000 0.00086569 0.01876400
v 0.00000000 0.00099282 0.01859832
v 0.00000000 0.00099282 0.01779832
v 0.00000000 0.00086569 0.01763263
v 0.00000000 -0.00010000 0.01369114
v 0.00000000 -0.00026569 0.01356400
v 0.00000000 0.00030000 0.01739832
v 0.00000000 -0.00047274 0.01279126
v 0.00000000 -0.00050000 0.01299832
v 0.00000000 -0.00047274 0.01320537
v 0.00000000 -0.00026569 0.01763263
v 0.00000000 -0.00010000 0.01750550
v 0.00000000 -0.00039282 0.01779832
v 0.00000000 -0.00047274 0.01799126
v 0.00000000 -0.00050000 0.01819832
v 0.00000000 -0.00047274 0.01840537
v 0.00000000 0.00107274 0.01840537
v 0.00000000 0.00110000 0.01819832
v 0.00000000 0.00009294 0.01742558
v 0.00000000 -0.00039282 0.01339832
v 0.00000000 0.00086569 0.01356400
v 0.00000000 0.00070000 0.01369114
v 0.00000000 0.00009294 0.01377106
v 0.00000000 0.00030000 0.01379832
v 0.00000000 0.00050706 0.01377106
v 0.00000000 0.00099282 0.01339832
v 0.00000000 0.00107274 0.01320537
v 0.00000000 0.00110000 0.01299832
v 0.00000000 0.00107274 0.01279126
v 0.00000000 0.00099282 0.01259832
v 0.00000000 0.00086569 0.01243263
v 0.00000000 0.00070000 0.01230550
v 0.00000000 0.00050706 0.01222558
v 0.00300000 -0.00001250 0.01765705
v 0.00300000 -0.00024127 0.01788582
v 0.00337554 0.00030000 0.01819832
v 0.00300000 -0.00032500 0.01819832
v 0.00300000 0.00084127 0.01788582
v 0.00300000 0.00061250 0.01765705
v 0.00300000 0.00030000 0.01757332
v 0.00300000 0.00061250 0.01873958
v 0.00300000 0.00084127 0.01851082
v 0.00300000 0.00092500 0.01819832
v 0.00300000 -0.00024127 0.01851082
v 0.00300000 -0.00001250 0.01873958
v 0.00300000 0.00030000 0.01882332
v 0.00017500 -0.00030370 0.01803656
v 0.00017500 -0.00024127 0.01788582
v 0.00017500 -0.00014194 0.01775638
v 0.00017500 -0.00001250 0.01765705
v 0.00017500 0.00013824 0.01759461
v 0.00017500 0.00030000 0.01757332
v 0.00017500 0.00046176 0.01759461
v 0.00017500 0.00061250 0.01765705
v 0.00017500 0.00074194 0.01775638
v 0.00017500 0.00084127 0.01788582
v 0.00017500 0.00090370 0.01803656
v 0.00017500 0.00092500 0.01819832
v 0.00017500 0.00090370 0.01836008
v 0.00017500 0.00084127 0.01851082
v 0.00017500 0.00074194 0.01864026
v 0.00017500 0.00061250 0.01873958
v 0.00017500 0.00046176 0.01880202
v 0.00017500 0.00030000 0.01882332
v 0.00017500 0.00013824 0.01880202
v 0.00017500 -0.00001250 0.01873958
v 0.00017500 -0.00014194 0.01864026
v 0.00017500 -0.00024127 0.01851082
v 0.00017500 -0.00030370 0.01836008
v 0.00017500 -0.00032500 0.01819832
v 0.00300000 -0.00001250 0.01245705
v 0.00300000 -0.00024127 0.01268582
v 0.00337554 0.00030000 0.01299832
v 0.00300000 -0.00032500 0.01299832
v 0.00300000 0.00084127 0.01268582
v 0.00300000 0.00061250 0.01245705
v 0.00300000 0.00030000 0.01237332
v 0.00300000 0.00061250 0.01353958
v 0.00300000 0.00084127 0.01331082
v 0.00300000 0.00092500 0.01299832
v 0.00300000 -0.00024127 0.01331082
v 0.00300000 -0.00001250 0.01353958
v 0.00300000 0.00030000 0.01362332
v 0.00017500 -0.00030370 0.01283656
v 0.00017500 -0.00024127 0.01268582
v 0.00017500 -0.00014194 0.01255638
v 0.00017500 -0.00001250 0.01245705
v 0.00017500 0.00013824 0.01239461
v 0.00017500 0.00030000 0.01237332
v 0.00017500 0.00046176 0.01239461
v 0.00017500 0.00061250 0.01245705
v 0.00017500 0.00074194 0.01255638
v 0.00017500 0.00084127 0.01268582
v 0.00017500 0.00090370 0.01283656
v 0.00017500 0.00092500 0.01299832
v 0.00017500 0.00090370 0.01316008
v 0.00017500 0.00084127 0.01331082
v 0.00017500 0.00074194 0.01344026
v 0.00017500 0.00061250 0.01353958
v 0.00017500 0.00046176 0.01360202
v 0.00017500 0.00030000 0.01362332
v 0.00017500 0.00013824 0.01360202
v 0.00017500 -0.00001250 0.01353958
v 0.00017500 -0.00014194 0.01344026
v 0.00017500 -0.00024127 0.01331082
v 0.00017500 -0.00030370 0.01316008
v 0.00017500 -0.00032500 0.01299832
v 0.00790000 -0.00505130 0.02033431
v 0.00790000 -0.00505130 0.01286569
f 1 2 3
f 4 2 1
f 5 6 7
f 8 6 5
f 9 10 11
f 12 10 9
f 13 14 15
f 16 14 13
f 14 12 9
f 16 12 14
f 7 1 3
f 6 1 7
f 17 18 19
f 20 18 17
f 21 20 17
f 22 20 21
f 23 22 21
f 24 22 23
f 25 26 27
f 28 26 25
f 29 28 25
f 30 28 29
f 31 30 29
f 32 30 31
f 31 18 32
f 19 18 31
f 13 27 26
f 33 27 13
f 15 33 13
f 34 33 15
f 4 35 2
f 36 35 4
f 24 36 4
f 23 36 24
f 12 30 32
f 18 12 32
f 10 12 18
f 20 10 18
f 26 16 13
f 12 16 26
f 28 12 26
f 30 12 28
f 24 1 6
f 4 1 24
f 10 37 38
f 8 37 10
f 20 8 10
f 6 8 20
f 22 6 20
f 24 6 22
f 39 40 41
f 42 43 44
f 41 43 42
f 45 41 42
f 39 41 45
f 46 47 48
f 49 46 48
f 46 50 51
f 52 50 46
f 49 52 46
f 51 40 46
f 41 40 51
f 50 41 51
f 43 41 50
f 52 43 50
f 44 43 52
f 49 44 52
f 42 44 49
f 48 42 49
f 45 42 48
f 47 45 48
f 39 45 47
f 53 54 55
f 56 57 58
f 55 57 56
f 59 55 56
f 53 55 59
f 60 61 62
f 63 62 64
f 60 62 63
f 65 60 63
f 66 60 65
f 60 56 61
f 59 56 60
f 66 59 60
f 53 59 66
f 65 53 66
f 54 53 65
f 63 54 65
f 55 54 63
f 64 55 63
f 57 55 64
f 62 57 64
f 58 57 62
f 67 68 69
f 70 68 67
f 71 70 67
f 72 70 71
f 73 72 71
f 74 72 73
f 75 74 73
f 76 74 75
f 77 76 75
f 78 76 77
f 79 80 81
f 82 80 79
f 83 82 79
f 84 82 83
f 85 84 83
f 86 84 85
f 87 86 85
f 88 86 87
f 89 88 87
f 90 88 89
f 91 92 93
f 94 92 91
f 95 94 91
f 96 94 95
f 97 96 95
f 98 96 97
f 99 98 97
f 100 98 99
f 101 100 99
f 102 100 101
f 103 104 105
f 106 104 103
f 107 106 103
f 108 106 107
f 109 108 107
f 110 108 109
f 111 110 109
f 112 110 111
f 113 112 111
f 114 112 113
f 9 95 91
f 99 115 101
f 11 115 99
f 69 34 15
f 11 95 9
f 97 95 11
f 99 97 11
f 15 67 69
f 71 67 15
f 14 71 15
f 73 71 14
f 14 75 73
f 77 75 14
f 9 77 14
f 93 77 9
f 91 93 9
f 90 104 106
f 76 25 27
f 27 74 76
f 72 74 27
f 33 72 27
f 70 72 33
f 68 70 33
f 112 23 110
f 36 23 112
f 114 36 112
f 23 108 110
f 106 108 23
f 21 106 23
f 90 106 21
f 88 100 86
f 19 100 88
f 90 19 88
f 17 19 90
f 21 17 90
f 82 102 80
f 100 102 82
f 84 100 82
f 86 100 84
f 19 98 100
f 96 98 19
f 31 96 19
f 94 96 31
f 29 94 31
f 92 94 29
f 25 92 29
f 78 92 25
f 76 78 25
f 38 101 115
f 102 101 38
f 37 102 38
f 80 102 37
f 116 80 37
f 81 80 116
f 34 68 33
f 69 68 34
f 39 92 40
f 93 92 39
f 47 93 39
f 77 93 47
f 46 77 47
f 78 77 46
f 40 78 46
f 92 78 40
f 56 105 61
f 89 105 56
f 58 89 56
f 90 89 58
f 62 90 58
f 104 90 62
f 61 104 62
f 105 104 61
f 89 3 105
f 7 3 89
f 87 7 89
f 81 116 5
f 3 103 105
f 107 103 3
f 2 107 3
f 5 79 81
f 83 79 5
f 7 83 5
f 85 83 7
f 87 85 7
f 111 35 113
f 2 35 111
f 109 2 111
f 107 2 109
f 36 113 35
f 114 113 36
f 5 37 8
f 116 37 5
f 10 115 11
f 38 115 10
f 117 118 119
f 120 118 117
f 121 120 117
f 122 120 121
f 123 122 121
f 124 122 123
f 125 124 123
f 126 124 125
f 127 126 125
f 128 126 127
f 129 130 131
f 132 130 129
f 133 132 129
f 134 132 133
f 135 134 133
f 136 134 135
f 137 136 135
f 138 136 137
f 139 138 137
f 140 138 139
f 141 142 143
f 144 142 141
f 145 144 141
f 146 144 145
f 147 146 145
f 148 146 147
f 149 148 147
f 150 148 149
f 151 150 149
f 152 150 151
f 153 154 155
f 156 154 153
f 157 156 153
f 158 156 157
f 159 158 157
f 160 158 159
f 161 160 159
f 162 160 161
f 163 162 161
f 164 162 163
f 151 154 152
f 155 154 151
f 130 163 131
f 164 163 130
f 142 127 143
f 128 127 142
f 165 166 167
f 168 166 165
f 169 166 168
f 170 166 169
f 170 167 166
f 171 167 170
f 171 165 167
f 172 165 171
f 172 168 165
f 169 168 172
f 173 174 175
f 176 174 173
f 177 173 175
f 178 173 177
f 179 175 174
f 177 175 179
f 180 174 176
f 179 174 180
f 178 176 173
f 180 176 178
f 155 151 149
f 161 135 133
f 161 137 135
f 139 137 161
f 159 139 161
f 119 139 159
f 161 131 163
f 129 131 161
f 133 129 161
f 123 153 155
f 157 153 123
f 121 157 123
f 159 157 121
f 117 159 121
f 119 159 117
f 125 143 127
f 141 143 125
f 123 141 125
f 145 141 123
f 155 145 123
f 147 145 155
f 149 147 155
f 181 182 183
f 184 182 181
f 185 182 184
f 186 182 185
f 186 183 182
f 187 183 186
f 187 181 183
f 188 181 187
f 119 118 185
f 188 140 139
f 119 188 139
f 185 188 119
f 177 188 185
f 184 177 185
f 178 177 184
f 181 178 184
f 180 178 181
f 188 180 181
f 179 180 188
f 177 179 188
f 186 126 128
f 186 172 187
f 169 172 186
f 187 134 136
f 186 124 126
f 122 124 186
f 185 122 186
f 120 122 185
f 118 120 185
f 154 171 170
f 138 187 136
f 188 187 138
f 140 188 138
f 170 152 154
f 150 152 170
f 169 150 170
f 148 150 169
f 169 146 148
f 144 146 169
f 186 144 169
f 142 144 186
f 128 142 186
f 187 132 134
f 130 132 187
f 172 130 187
f 164 130 172
f 162 164 172
f 172 160 162
f 158 160 172
f 171 158 172
f 156 158 171
f 154 156 171
f 189 190 191
f 192 190 189
f 193 194 195
f 196 194 193
f 197 198 199
f 200 198 197
f 201 202 203
f 204 202 201
f 205 206 207
f 208 205 207
f 209 205 208
f 210 209 208
f 211 209 210
f 212 211 210
f 213 207 206
f 214 213 206
f 215 213 214
f 216 215 214
f 217 215 216
f 218 217 216
f 211 205 209
f 206 205 211
f 211 214 206
f 216 214 211
f 218 216 211
f 207 213 215
f 212 215 217
f 207 215 212
f 210 207 212
f 208 207 210
f 219 220 221
f 222 219 221
f 223 219 222
f 224 223 222
f 225 223 224
f 226 225 224
f 227 221 220
f 228 227 220
f 229 227 228
f 230 229 228
f 231 229 230
f 232 231 230
f 226 224 222
f 229 221 227
f 222 221 229
f 231 222 229
f 226 222 231
f 228 220 219
f 232 223 225
f 219 223 232
f 230 219 232
f 228 219 230
f 233 234 235
f 236 234 233
f 236 237 234
f 238 237 236
f 238 239 237
f 240 239 238
f 241 242 243
f 244 242 241
f 245 246 247
f 248 246 245
f 249 250 251
f 252 250 249
f 253 254 255
f 256 254 253
f 197 202 204
f 199 202 197
f 201 190 192
f 203 190 201
f 189 194 196
f 191 194 189
f 193 198 200
f 195 198 193
f 257 190 258
f 191 190 257
f 259 191 257
f 260 194 261
f 195 194 260
f 262 195 260
f 194 263 261
f 264 263 194
f 191 264 194
f 265 264 191
f 259 265 191
f 266 198 267
f 199 198 266
f 268 199 266
f 198 269 267
f 270 269 198
f 195 270 198
f 271 270 195
f 262 271 195
f 190 272 258
f 273 272 190
f 203 273 190
f 274 273 203
f 203 275 274
f 276 275 203
f 202 276 203
f 277 276 202
f 202 278 277
f 279 278 202
f 199 279 202
f 280 279 199
f 268 280 199
f 272 273 281
f 282 272 281
f 258 272 282
f 283 258 282
f 257 258 283
f 284 257 283
f 259 257 284
f 285 259 284
f 265 259 285
f 286 265 285
f 263 264 287
f 288 263 287
f 261 263 288
f 289 261 288
f 260 261 289
f 290 260 289
f 262 260 290
f 291 262 290
f 271 262 291
f 292 271 291
f 269 270 293
f 294 269 293
f 267 269 294
f 295 267 294
f 266 267 295
f 296 266 295
f 268 266 296
f 297 268 296
f 280 268 297
f 298 280 297
f 278 279 299
f 300 278 299
f 277 278 300
f 301 277 300
f 276 277 301
f 302 276 301
f 275 276 302
f 303 275 302
f 274 275 303
f 304 274 303
f 212 265 211
f 264 265 212
f 217 264 212
f 287 264 217
f 218 287 217
f 286 287 218
f 211 286 218
f 265 286 211
f 270 292 293
f 271 292 270
f 238 304 240
f 274 304 238
f 236 274 238
f 273 274 236
f 233 273 236
f 281 273 233
f 233 235 254
f 254 281 233
f 282 281 254
f 283 282 254
f 254 284 283
f 285 284 254
f 256 285 254
f 286 285 256
f 250 286 256
f 250 287 286
f 288 287 250
f 289 288 250
f 250 290 289
f 291 290 250
f 252 291 250
f 292 291 252
f 246 292 252
f 246 293 292
f 294 293 246
f 295 294 246
f 301 300 242
f 246 296 295
f 297 296 246
f 248 297 246
f 298 297 248
f 242 298 248
f 299 298 242
f 300 299 242
f 304 239 240
f 244 239 304
f 303 244 304
f 242 244 303
f 302 242 303
f 301 242 302
f 243 248 245
f 242 248 243
f 247 252 249
f 246 252 247
f 251 256 253
f 250 256 251
f 234 254 235
f 255 254 234
f 237 255 234
f 241 255 237
f 239 241 237
f 244 241 239
f 231 279 226
f 299 279 231
f 232 299 231
f 298 299 232
f 225 298 232
f 280 298 225
f 226 280 225
f 279 280 226
f 201 243 204
f 241 243 201
f 192 241 201
f 255 241 192
f 189 255 192
f 253 255 189
f 196 253 189
f 251 253 196
f 193 251 196
f 249 251 193
f 200 249 193
f 247 249 200
f 197 247 200
f 245 247 197
f 204 245 197
f 243 245 204
f 305 306 307
f 308 306 305
f 309 310 311
f 312 310 309
f 313 314 315
f 316 314 313
f 317 318 319
f 320 318 317
f 318 314 316
f 312 314 318
f 320 312 318
f 310 312 320
f 306 310 320
f 308 310 306
f 319 316 313
f 318 316 319
f 307 320 317
f 306 320 307
f 311 308 305
f 310 308 311
f 315 312 309
f 314 312 315
f 317 319 313
f 311 315 309
f 313 315 311
f 305 313 311
f 317 313 305
f 307 317 305
f 321 322 323
f 324 321 323
f 325 321 324
f 326 325 324
f 327 325 326
f 328 327 326
f 329 327 328
f 330 329 328
f 331 329 330
f 332 331 330
f 333 331 332
f 334 333 332
f 335 333 334
f 336 335 334
f 337 335 336
f 338 337 336
f 339 337 338
f 340 339 338
f 341 339 340
f 342 341 340
f 343 341 342
f 344 343 342
f 345 344 346
f 343 344 345
f 322 347 323
f 348 347 322
f 349 350 351
f 352 350 349
f 353 352 349
f 354 352 353
f 355 354 353
f 356 354 355
f 357 356 355
f 358 356 357
f 359 358 357
f 360 358 359
f 361 360 359
f 362 360 361
f 363 362 361
f 364 362 363
f 365 364 363
f 366 364 365
f 367 366 365
f 368 366 367
f 369 368 367
f 370 368 369
f 371 370 369
f 372 370 371
f 373 372 371
f 374 372 373
f 375 374 373
f 376 374 375
f 377 376 375
f 378 376 377
f 378 377 379
f 380 351 350
f 381 351 380
f 382 381 380
f 383 381 382
f 384 383 382
f 385 383 384
f 386 385 384
f 387 385 386
f 388 387 386
f 389 387 388
f 390 389 388
f 391 389 390
f 392 391 390
f 393 391 392
f 394 393 392
f 395 393 394
f 396 395 394
f 397 395 396
f 398 397 396
f 399 397 398
f 400 399 398
f 401 399 400
f 402 401 400
f 403 401 402
f 404 403 402
f 379 403 404
f 405 379 404
f 378 379 405
f 345 406 407
f 408 406 345
f 409 410 411
f 345 412 408
f 413 412 345
f 414 413 345
f 414 415 416
f 417 418 419
f 411 418 417
f 420 421 348
f 422 423 424
f 425 423 422
f 426 423 425
f 427 426 425
f 428 426 427
f 429 426 428
f 430 429 428
f 431 429 430
f 432 429 431
f 433 432 431
f 411 345 418
f 414 345 411
f 410 414 411
f 415 414 410
f 411 434 409
f 435 434 411
f 436 435 411
f 437 435 436
f 437 438 439
f 440 438 437
f 436 440 437
f 441 442 418
f 348 443 420
f 444 443 348
f 322 444 348
f 424 445 422
f 446 445 424
f 447 446 424
f 418 448 419
f 449 448 418
f 442 449 418
f 406 450 451
f 452 450 406
f 408 452 406
f 322 453 454
f 455 453 322
f 321 455 322
f 456 455 321
f 457 345 407
f 343 345 457
f 458 343 457
f 459 460 461
f 447 462 446
f 463 462 447
f 459 463 447
f 464 463 459
f 461 464 459
f 465 432 433
f 466 432 465
f 467 466 465
f 441 468 469
f 470 468 441
f 418 470 441
f 322 471 444
f 472 471 322
f 454 472 322
f 451 472 454
f 473 451 454
f 406 451 473
f 460 474 461
f 475 474 460
f 439 475 460
f 476 475 439
f 438 476 439
f 414 348 421
f 477 348 414
f 416 477 414
f 478 329 479
f 327 329 478
f 456 327 478
f 325 327 456
f 321 325 456
f 479 333 480
f 331 333 479
f 329 331 479
f 458 341 343
f 339 341 458
f 481 339 458
f 337 339 481
f 480 337 481
f 335 337 480
f 333 335 480
f 482 466 467
f 483 466 482
f 348 483 482
f 484 483 348
f 477 484 348
f 485 486 346
f 487 488 486
f 489 488 487
f 490 489 487
f 491 323 492
f 493 323 491
f 494 495 347
f 496 495 494
f 497 400 398
f 496 498 499
f 500 498 496
f 494 500 496
f 486 501 502
f 503 501 486
f 488 503 486
f 323 504 492
f 505 504 323
f 347 505 323
f 506 505 347
f 495 506 347
f 405 404 507
f 499 508 509
f 510 508 499
f 498 510 499
f 509 511 512
f 513 511 509
f 508 513 509
f 486 514 346
f 515 514 486
f 516 515 486
f 517 400 497
f 402 400 517
f 404 402 517
f 512 518 519
f 520 518 512
f 511 520 512
f 521 522 523
f 524 522 521
f 519 524 521
f 525 524 519
f 518 525 519
f 486 526 516
f 527 526 486
f 502 527 486
f 396 497 398
f 493 497 396
f 394 493 396
f 323 493 394
f 392 323 394
f 495 528 506
f 529 528 495
f 530 529 495
f 324 386 326
f 388 386 324
f 323 388 324
f 390 388 323
f 392 390 323
f 490 531 489
f 532 531 490
f 533 532 490
f 374 534 372
f 535 534 374
f 376 535 374
f 346 536 485
f 537 536 346
f 538 537 346
f 360 340 338
f 523 539 540
f 541 539 523
f 522 541 523
f 533 542 532
f 543 542 533
f 544 543 533
f 538 545 546
f 547 545 538
f 346 547 538
f 548 547 346
f 344 548 346
f 549 548 344
f 538 550 551
f 552 550 538
f 546 552 538
f 544 553 543
f 554 553 544
f 555 554 544
f 362 340 360
f 342 340 362
f 364 342 362
f 344 342 364
f 366 344 364
f 549 344 366
f 368 549 366
f 338 358 360
f 356 358 338
f 336 356 338
f 354 356 336
f 334 354 336
f 352 354 334
f 332 352 334
f 350 352 332
f 330 350 332
f 380 350 330
f 328 380 330
f 382 380 328
f 326 382 328
f 384 382 326
f 386 384 326
f 555 556 554
f 557 556 555
f 540 557 555
f 558 557 540
f 539 558 540
f 535 405 507
f 378 405 535
f 376 378 535
f 370 549 368
f 559 549 370
f 372 559 370
f 560 559 372
f 534 560 372
f 495 561 530
f 562 561 495
f 563 562 495
f 564 562 563
f 538 564 563
f 565 564 538
f 551 565 538
f 551 566 565
f 567 566 551
f 550 567 551
f 568 567 550
f 552 568 550
f 569 568 552
f 546 569 552
f 570 569 546
f 545 570 546
f 571 570 545
f 547 571 545
f 572 571 547
f 548 572 547
f 573 572 548
f 549 573 548
f 574 573 549
f 559 574 549
f 575 574 559
f 560 575 559
f 576 575 560
f 534 576 560
f 577 576 534
f 535 577 534
f 578 577 535
f 507 578 535
f 579 578 507
f 404 579 507
f 580 579 404
f 517 580 404
f 581 565 566
f 564 565 581
f 582 564 581
f 562 564 582
f 583 562 582
f 561 562 583
f 584 561 583
f 530 561 584
f 585 530 584
f 529 530 585
f 586 529 585
f 528 529 586
f 587 528 586
f 506 528 587
f 588 506 587
f 505 506 588
f 589 505 588
f 504 505 589
f 590 504 589
f 492 504 590
f 591 492 590
f 491 492 591
f 592 491 591
f 493 491 592
f 593 493 592
f 497 493 593
f 580 497 593
f 517 497 580
f 450 579 451
f 578 579 450
f 452 578 450
f 577 578 452
f 452 576 577
f 575 576 452
f 408 575 452
f 574 575 408
f 412 574 408
f 573 574 412
f 412 572 573
f 571 572 412
f 413 571 412
f 569 414 568
f 413 414 569
f 570 413 569
f 571 413 570
f 414 567 568
f 566 567 414
f 421 566 414
f 581 566 421
f 421 582 581
f 583 582 421
f 420 583 421
f 420 584 583
f 585 584 420
f 443 585 420
f 443 586 585
f 587 586 443
f 444 587 443
f 444 588 587
f 589 588 444
f 471 589 444
f 471 590 589
f 591 590 471
f 472 591 471
f 472 592 591
f 593 592 472
f 451 593 472
f 580 593 451
f 579 580 451
f 481 353 480
f 355 353 481
f 481 357 355
f 359 357 481
f 458 359 481
f 361 359 458
f 457 361 458
f 457 363 361
f 365 363 457
f 407 365 457
f 367 365 407
f 371 406 373
f 407 406 371
f 369 407 371
f 367 407 369
f 406 375 373
f 377 375 406
f 473 377 406
f 379 377 473
f 473 403 379
f 401 403 473
f 454 401 473
f 454 399 401
f 397 399 454
f 453 397 454
f 453 395 397
f 393 395 453
f 455 393 453
f 391 393 455
f 456 391 455
f 389 391 456
f 456 387 389
f 385 387 456
f 478 385 456
f 478 383 385
f 381 383 478
f 479 381 478
f 351 381 479
f 480 351 479
f 349 351 480
f 353 349 480
f 347 348 482
f 482 494 347
f 500 494 482
f 467 500 482
f 498 500 467
f 465 498 467
f 510 498 465
f 433 510 465
f 508 510 433
f 431 508 433
f 513 508 431
f 430 513 431
f 511 513 430
f 428 511 430
f 520 511 428
f 427 520 428
f 518 520 427
f 425 518 427
f 525 518 425
f 422 525 425
f 524 525 422
f 445 524 422
f 522 524 445
f 446 522 445
f 541 522 446
f 462 541 446
f 539 541 462
f 463 539 462
f 558 539 463
f 464 558 463
f 557 558 464
f 461 557 464
f 556 557 461
f 474 556 461
f 345 346 514
f 514 418 345
f 470 418 514
f 515 470 514
f 468 470 515
f 516 468 515
f 469 468 516
f 526 469 516
f 441 469 526
f 527 441 526
f 442 441 527
f 502 442 527
f 449 442 502
f 501 449 502
f 448 449 501
f 503 448 501
f 419 448 503
f 488 419 503
f 417 419 488
f 489 417 488
f 411 417 489
f 531 411 489
f 436 411 531
f 532 436 531
f 440 436 532
f 542 440 532
f 438 440 542
f 543 438 542
f 476 438 543
f 553 476 543
f 475 476 553
f 554 475 553
f 474 475 554
f 556 474 554
f 459 555 460
f 540 555 459
f 447 540 459
f 523 540 447
f 424 523 447
f 521 523 424
f 423 521 424
f 519 521 423
f 426 519 423
f 512 519 426
f 429 512 426
f 509 512 429
f 432 509 429
f 499 509 432
f 466 499 432
f 496 499 466
f 483 496 466
f 495 496 483
f 484 495 483
f 563 495 484
f 477 563 484
f 538 563 477
f 416 538 477
f 537 538 416
f 415 537 416
f 536 537 415
f 410 536 415
f 485 536 410
f 409 485 410
f 486 485 409
f 434 486 409
f 487 486 434
f 435 487 434
f 490 487 435
f 437 490 435
f 533 490 437
f 439 533 437
f 544 533 439
f 460 544 439
f 555 544 460
f 594 595 596
f 597 595 594
f 598 599 600
f 601 599 598
f 602 601 598
f 603 601 602
f 604 605 606
f 607 605 604
f 607 608 609
f 610 608 607
f 604 610 607
f 611 610 604
f 604 612 611
f 613 612 604
f 614 613 604
f 615 613 614
f 614 616 615
f 617 616 614
f 618 617 614
f 619 617 618
f 620 619 618
f 621 622 623
f 624 622 621
f 625 626 627
f 628 626 625
f 629 630 631
f 632 630 629
f 627 630 632
f 626 630 627
f 633 634 635
f 636 634 633
f 637 638 634
f 639 640 641
f 631 641 629
f 639 641 631
f 628 639 631
f 625 639 628
f 642 643 644
f 642 645 646
f 647 645 642
f 644 647 642
f 648 649 650
f 636 637 634
f 645 637 636
f 651 645 636
f 646 645 651
f 649 646 651
f 652 646 649
f 648 652 649
f 650 641 648
f 629 641 650
f 636 629 650
f 625 629 636
f 633 625 636
f 639 625 633
f 653 604 606
f 654 604 653
f 602 655 656
f 657 655 602
f 598 657 602
f 658 659 595
f 658 660 659
f 661 660 658
f 653 661 658
f 605 661 653
f 606 605 653
f 662 602 656
f 663 602 662
f 658 663 662
f 597 663 658
f 595 597 658
f 618 614 664
f 618 662 665
f 658 662 618
f 664 658 618
f 666 654 667
f 604 654 666
f 668 604 666
f 614 604 668
f 669 614 668
f 664 614 669
f 670 664 669
f 658 664 670
f 671 653 672
f 673 653 671
f 658 674 675
f 676 653 673
f 654 653 676
f 667 654 676
f 658 677 674
f 678 677 658
f 670 678 658
f 653 679 672
f 680 679 653
f 658 680 653
f 681 680 658
f 675 681 658
f 667 682 666
f 676 682 667
f 683 670 684
f 678 670 683
f 685 678 683
f 677 678 685
f 686 677 685
f 674 677 686
f 687 674 686
f 675 674 687
f 688 675 687
f 681 675 688
f 689 681 688
f 680 681 689
f 690 680 689
f 679 680 690
f 691 679 690
f 672 679 691
f 692 672 691
f 671 672 692
f 693 671 692
f 673 671 693
f 682 673 693
f 676 673 682
f 670 668 684
f 669 668 670
f 694 695 666
f 696 666 695
f 668 666 696
f 697 668 696
f 698 690 699
f 691 690 698
f 700 691 698
f 701 682 702
f 666 682 701
f 703 666 701
f 694 666 703
f 700 692 691
f 693 692 700
f 704 693 700
f 682 693 704
f 705 682 704
f 706 682 705
f 686 707 708
f 709 710 684
f 711 706 712
f 682 706 711
f 713 682 711
f 702 682 713
f 685 707 686
f 714 707 685
f 683 714 685
f 668 709 684
f 715 709 668
f 697 715 668
f 708 687 686
f 688 687 708
f 699 688 708
f 689 688 699
f 690 689 699
f 684 714 683
f 716 714 684
f 710 716 684
f 717 716 710
f 718 717 710
f 718 711 712
f 719 711 718
f 710 719 718
f 720 622 721
f 623 622 720
f 720 621 623
f 722 621 720
f 723 722 720
f 638 601 603
f 724 601 638
f 725 724 638
f 726 724 725
f 727 726 725
f 728 644 729
f 647 644 728
f 727 647 728
f 730 647 727
f 725 730 727
f 638 731 732
f 723 731 638
f 603 723 638
f 722 723 603
f 638 733 634
f 734 733 638
f 732 734 638
f 735 736 737
f 738 736 735
f 739 738 735
f 740 738 739
f 741 740 739
f 742 740 741
f 743 742 741
f 744 742 743
f 745 744 743
f 746 744 745
f 747 746 745
f 748 746 747
f 749 748 747
f 750 748 749
f 751 750 749
f 752 750 751
f 753 752 751
f 754 752 753
f 755 754 753
f 756 754 755
f 757 756 755
f 758 756 757
f 759 758 757
f 760 758 759
f 761 760 759
f 737 760 761
f 735 737 761
f 753 705 755
f 706 705 753
f 751 706 753
f 712 706 751
f 749 712 751
f 718 712 749
f 747 718 749
f 717 718 747
f 745 717 747
f 716 717 745
f 743 716 745
f 714 716 743
f 741 714 743
f 707 714 741
f 739 707 741
f 708 707 739
f 735 708 739
f 699 708 735
f 761 699 735
f 698 699 761
f 759 698 761
f 700 698 759
f 757 700 759
f 704 700 757
f 755 704 757
f 705 704 755
f 762 609 763
f 764 609 762
f 765 764 762
f 766 764 765
f 767 766 765
f 768 766 767
f 769 768 767
f 769 770 768
f 620 770 769
f 771 620 769
f 619 620 771
f 772 619 771
f 617 619 772
f 773 617 772
f 616 617 773
f 774 616 773
f 615 616 774
f 775 615 774
f 613 615 775
f 776 613 775
f 612 613 776
f 777 612 776
f 611 612 777
f 778 611 777
f 610 611 778
f 763 610 778
f 608 610 763
f 609 608 763
f 776 703 777
f 694 703 776
f 775 694 776
f 695 694 775
f 774 695 775
f 696 695 774
f 773 696 774
f 697 696 773
f 772 697 773
f 715 697 772
f 771 715 772
f 709 715 771
f 769 709 771
f 710 709 769
f 767 710 769
f 719 710 767
f 765 719 767
f 711 719 765
f 762 711 765
f 713 711 762
f 763 713 762
f 702 713 763
f 778 702 763
f 701 702 778
f 777 701 778
f 703 701 777
f 779 622 624
f 721 622 779
f 780 781 782
f 596 783 594
f 618 783 596
f 784 618 596
f 620 618 784
f 785 620 784
f 609 620 785
f 786 609 785
f 607 609 786
f 648 787 780
f 788 787 648
f 641 788 648
f 789 788 641
f 790 789 641
f 791 780 782
f 648 780 791
f 792 648 791
f 600 779 793
f 721 779 600
f 599 721 600
f 780 721 599
f 794 780 599
f 781 780 794
f 779 795 793
f 796 795 779
f 783 796 779
f 665 796 783
f 618 665 783
f 729 644 643
f 652 648 792
f 652 797 798
f 643 797 652
f 792 643 652
f 729 643 792
f 728 792 791
f 729 792 728
f 789 733 734
f 790 733 789
f 635 733 790
f 634 733 635
f 640 790 641
f 635 790 640
f 799 635 640
f 800 635 799
f 642 801 802
f 646 801 642
f 643 802 797
f 642 802 643
f 646 798 801
f 652 798 646
f 802 798 797
f 801 798 802
f 637 803 804
f 645 803 637
f 725 637 804
f 638 637 725
f 645 730 803
f 647 730 645
f 730 804 803
f 725 804 730
f 805 651 636
f 806 651 805
f 649 806 807
f 651 806 649
f 808 649 807
f 650 649 808
f 628 630 626
f 631 630 628
f 808 806 805
f 807 806 808
f 659 596 595
f 784 596 659
f 660 784 659
f 785 784 660
f 661 785 660
f 786 785 661
f 605 786 661
f 607 786 605
f 732 789 734
f 788 789 732
f 731 788 732
f 787 788 731
f 723 787 731
f 780 787 723
f 720 780 723
f 721 780 720
f 782 728 791
f 727 728 782
f 781 727 782
f 726 727 781
f 794 726 781
f 724 726 794
f 599 724 794
f 601 724 599
f 629 627 632
f 625 627 629
f 808 636 650
f 805 636 808
f 770 620 609
f 770 766 768
f 764 766 770
f 609 764 770
f 809 736 738
f 740 809 738
f 809 744 746
f 742 744 809
f 740 742 809
f 809 750 752
f 748 750 809
f 746 748 809
f 809 756 758
f 754 756 809
f 752 754 809
f 809 737 736
f 760 737 809
f 758 760 809
f 663 594 783
f 597 594 663
f 621 779 624
f 722 779 621
f 783 810 811
f 779 812 783
f 813 812 779
f 814 603 602
f 722 603 814
f 602 815 814
f 816 815 602
f 817 816 602
f 663 783 818
f 779 819 813
f 820 819 779
f 821 820 779
f 602 822 817
f 823 822 602
f 663 823 602
f 663 824 823
f 825 824 663
f 826 825 663
f 783 827 818
f 828 827 783
f 811 828 783
f 829 830 831
f 779 832 821
f 833 832 779
f 834 833 779
f 779 835 836
f 837 835 779
f 779 838 837
f 839 838 779
f 722 839 779
f 840 839 722
f 814 840 722
f 663 841 826
f 842 841 663
f 818 842 663
f 843 779 836
f 834 779 843
f 831 834 843
f 844 834 831
f 830 844 831
f 810 845 846
f 831 847 829
f 848 847 831
f 810 848 831
f 849 848 810
f 846 849 810
f 810 850 845
f 851 850 810
f 783 851 810
f 852 851 783
f 783 853 852
f 854 853 783
f 855 854 783
f 783 856 855
f 857 856 783
f 812 857 783
f 858 859 860
f 860 859 861
f 862 863 860
f 860 863 864
f 860 864 858
f 865 866 860
f 860 866 867
f 860 867 862
f 868 869 860
f 860 869 870
f 860 870 865
f 860 861 868
f 861 859 871
f 859 872 871
f 873 872 859
f 858 873 859
f 858 874 873
f 875 874 858
f 864 875 858
f 864 876 875
f 877 876 864
f 863 877 864
f 863 878 877
f 879 878 863
f 862 879 863
f 862 880 879
f 881 880 862
f 867 881 862
f 867 882 881
f 883 882 867
f 866 883 867
f 866 884 883
f 885 884 866
f 865 885 866
f 865 886 885
f 887 886 865
f 870 887 865
f 870 888 887
f 889 888 870
f 869 889 870
f 869 890 889
f 891 890 869
f 868 891 869
f 868 892 891
f 893 892 868
f 861 893 868
f 894 893 861
f 871 894 861
f 872 838 871
f 837 838 872
f 873 837 872
f 835 837 873
f 874 835 873
f 836 835 874
f 875 836 874
f 843 836 875
f 876 843 875
f 831 843 876
f 877 831 876
f 810 831 877
f 878 810 877
f 811 810 878
f 879 811 878
f 828 811 879
f 880 828 879
f 827 828 880
f 881 827 880
f 818 827 881
f 882 818 881
f 842 818 882
f 883 842 882
f 841 842 883
f 884 841 883
f 826 841 884
f 885 826 884
f 825 826 885
f 886 825 885
f 824 825 886
f 887 824 886
f 823 824 887
f 888 823 887
f 822 823 888
f 889 822 888
f 817 822 889
f 890 817 889
f 816 817 890
f 891 816 890
f 815 816 891
f 892 815 891
f 814 815 892
f 893 814 892
f 840 814 893
f 894 840 893
f 839 840 894
f 871 839 894
f 838 839 871
f 895 896 897
f 897 896 898
f 899 900 897
f 897 900 901
f 897 901 895
f 902 903 897
f 897 903 904
f 897 904 899
f 905 906 897
f 897 906 907
f 897 907 902
f 897 898 905
f 908 898 896
f 896 909 908
f 910 909 896
f 895 910 896
f 895 911 910
f 912 911 895
f 901 912 895
f 901 913 912
f 914 913 901
f 900 914 901
f 900 915 914
f 916 915 900
f 899 916 900
f 899 917 916
f 918 917 899
f 904 918 899
f 904 919 918
f 920 919 904
f 903 920 904
f 903 921 920
f 922 921 903
f 902 922 903
f 902 923 922
f 924 923 902
f 907 924 902
f 907 925 924
f 926 925 907
f 906 926 907
f 906 927 926
f 928 927 906
f 905 928 906
f 905 929 928
f 930 929 905
f 898 930 905
f 931 930 898
f 908 931 898
f 909 832 908
f 821 832 909
f 910 821 909
f 820 821 910
f 911 820 910
f 819 820 911
f 912 819 911
f 813 819 912
f 913 813 912
f 812 813 913
f 914 812 913
f 857 812 914
f 915 857 914
f 856 857 915
f 916 856 915
f 855 856 916
f 917 855 916
f 854 855 917
f 918 854 917
f 853 854 918
f 919 853 918
f 852 853 919
f 920 852 919
f 851 852 920
f 921 851 920
f 850 851 921
f 922 850 921
f 845 850 922
f 923 845 922
f 846 845 923
f 924 846 923
f 849 846 924
f 925 849 924
f 848 849 925
f 926 848 925
f 847 848 926
f 927 847 926
f 829 847 927
f 928 829 927
f 830 829 928
f 929 830 928
f 844 830 929
f 930 844 929
f 834 844 930
f 931 834 930
f 833 834 931
f 908 833 931
f 832 833 908
f 639 932 933
f 633 932 639
f 639 799 640
f 933 799 639
f 635 932 633
f 800 932 635
f 933 800 799
f 932 800 933
f 656 665 662
f 796 665 656
f 655 796 656
f 795 796 655
f 657 795 655
f 793 795 657
f 598 793 657
f 600 793 598

